G04 #@! TF.GenerationSoftware,KiCad,Pcbnew,(6.0.0)*
G04 #@! TF.CreationDate,2022-02-11T23:35:21-05:00*
G04 #@! TF.ProjectId,FalconRear,46616c63-6f6e-4526-9561-722e6b696361,1A*
G04 #@! TF.SameCoordinates,Original*
G04 #@! TF.FileFunction,Legend,Top*
G04 #@! TF.FilePolarity,Positive*
%FSLAX46Y46*%
G04 Gerber Fmt 4.6, Leading zero omitted, Abs format (unit mm)*
G04 Created by KiCad (PCBNEW (6.0.0)) date 2022-02-11 23:35:21*
%MOMM*%
%LPD*%
G01*
G04 APERTURE LIST*
%ADD10C,0.150000*%
%ADD11C,0.120000*%
G04 APERTURE END LIST*
D10*
X152661904Y-73052380D02*
X152661904Y-72052380D01*
X152900000Y-72052380D01*
X153042857Y-72100000D01*
X153138095Y-72195238D01*
X153185714Y-72290476D01*
X153233333Y-72480952D01*
X153233333Y-72623809D01*
X153185714Y-72814285D01*
X153138095Y-72909523D01*
X153042857Y-73004761D01*
X152900000Y-73052380D01*
X152661904Y-73052380D01*
X153614285Y-72147619D02*
X153661904Y-72100000D01*
X153757142Y-72052380D01*
X153995238Y-72052380D01*
X154090476Y-72100000D01*
X154138095Y-72147619D01*
X154185714Y-72242857D01*
X154185714Y-72338095D01*
X154138095Y-72480952D01*
X153566666Y-73052380D01*
X154185714Y-73052380D01*
X135761904Y-113552380D02*
X135761904Y-112552380D01*
X136000000Y-112552380D01*
X136142857Y-112600000D01*
X136238095Y-112695238D01*
X136285714Y-112790476D01*
X136333333Y-112980952D01*
X136333333Y-113123809D01*
X136285714Y-113314285D01*
X136238095Y-113409523D01*
X136142857Y-113504761D01*
X136000000Y-113552380D01*
X135761904Y-113552380D01*
X136904761Y-112980952D02*
X136809523Y-112933333D01*
X136761904Y-112885714D01*
X136714285Y-112790476D01*
X136714285Y-112742857D01*
X136761904Y-112647619D01*
X136809523Y-112600000D01*
X136904761Y-112552380D01*
X137095238Y-112552380D01*
X137190476Y-112600000D01*
X137238095Y-112647619D01*
X137285714Y-112742857D01*
X137285714Y-112790476D01*
X137238095Y-112885714D01*
X137190476Y-112933333D01*
X137095238Y-112980952D01*
X136904761Y-112980952D01*
X136809523Y-113028571D01*
X136761904Y-113076190D01*
X136714285Y-113171428D01*
X136714285Y-113361904D01*
X136761904Y-113457142D01*
X136809523Y-113504761D01*
X136904761Y-113552380D01*
X137095238Y-113552380D01*
X137190476Y-113504761D01*
X137238095Y-113457142D01*
X137285714Y-113361904D01*
X137285714Y-113171428D01*
X137238095Y-113076190D01*
X137190476Y-113028571D01*
X137095238Y-112980952D01*
X164561904Y-101752380D02*
X164561904Y-100752380D01*
X164800000Y-100752380D01*
X164942857Y-100800000D01*
X165038095Y-100895238D01*
X165085714Y-100990476D01*
X165133333Y-101180952D01*
X165133333Y-101323809D01*
X165085714Y-101514285D01*
X165038095Y-101609523D01*
X164942857Y-101704761D01*
X164800000Y-101752380D01*
X164561904Y-101752380D01*
X166038095Y-100752380D02*
X165561904Y-100752380D01*
X165514285Y-101228571D01*
X165561904Y-101180952D01*
X165657142Y-101133333D01*
X165895238Y-101133333D01*
X165990476Y-101180952D01*
X166038095Y-101228571D01*
X166085714Y-101323809D01*
X166085714Y-101561904D01*
X166038095Y-101657142D01*
X165990476Y-101704761D01*
X165895238Y-101752380D01*
X165657142Y-101752380D01*
X165561904Y-101704761D01*
X165514285Y-101657142D01*
X135861904Y-72952380D02*
X135861904Y-71952380D01*
X136100000Y-71952380D01*
X136242857Y-72000000D01*
X136338095Y-72095238D01*
X136385714Y-72190476D01*
X136433333Y-72380952D01*
X136433333Y-72523809D01*
X136385714Y-72714285D01*
X136338095Y-72809523D01*
X136242857Y-72904761D01*
X136100000Y-72952380D01*
X135861904Y-72952380D01*
X136766666Y-71952380D02*
X137433333Y-71952380D01*
X137004761Y-72952380D01*
X152661904Y-113652380D02*
X152661904Y-112652380D01*
X152900000Y-112652380D01*
X153042857Y-112700000D01*
X153138095Y-112795238D01*
X153185714Y-112890476D01*
X153233333Y-113080952D01*
X153233333Y-113223809D01*
X153185714Y-113414285D01*
X153138095Y-113509523D01*
X153042857Y-113604761D01*
X152900000Y-113652380D01*
X152661904Y-113652380D01*
X153566666Y-112652380D02*
X154185714Y-112652380D01*
X153852380Y-113033333D01*
X153995238Y-113033333D01*
X154090476Y-113080952D01*
X154138095Y-113128571D01*
X154185714Y-113223809D01*
X154185714Y-113461904D01*
X154138095Y-113557142D01*
X154090476Y-113604761D01*
X153995238Y-113652380D01*
X153709523Y-113652380D01*
X153614285Y-113604761D01*
X153566666Y-113557142D01*
X123961904Y-84952380D02*
X123961904Y-83952380D01*
X124200000Y-83952380D01*
X124342857Y-84000000D01*
X124438095Y-84095238D01*
X124485714Y-84190476D01*
X124533333Y-84380952D01*
X124533333Y-84523809D01*
X124485714Y-84714285D01*
X124438095Y-84809523D01*
X124342857Y-84904761D01*
X124200000Y-84952380D01*
X123961904Y-84952380D01*
X125009523Y-84952380D02*
X125200000Y-84952380D01*
X125295238Y-84904761D01*
X125342857Y-84857142D01*
X125438095Y-84714285D01*
X125485714Y-84523809D01*
X125485714Y-84142857D01*
X125438095Y-84047619D01*
X125390476Y-84000000D01*
X125295238Y-83952380D01*
X125104761Y-83952380D01*
X125009523Y-84000000D01*
X124961904Y-84047619D01*
X124914285Y-84142857D01*
X124914285Y-84380952D01*
X124961904Y-84476190D01*
X125009523Y-84523809D01*
X125104761Y-84571428D01*
X125295238Y-84571428D01*
X125390476Y-84523809D01*
X125438095Y-84476190D01*
X125485714Y-84380952D01*
X164561904Y-84852380D02*
X164561904Y-83852380D01*
X164800000Y-83852380D01*
X164942857Y-83900000D01*
X165038095Y-83995238D01*
X165085714Y-84090476D01*
X165133333Y-84280952D01*
X165133333Y-84423809D01*
X165085714Y-84614285D01*
X165038095Y-84709523D01*
X164942857Y-84804761D01*
X164800000Y-84852380D01*
X164561904Y-84852380D01*
X165990476Y-84185714D02*
X165990476Y-84852380D01*
X165752380Y-83804761D02*
X165514285Y-84519047D01*
X166133333Y-84519047D01*
X123485714Y-101752380D02*
X123485714Y-100752380D01*
X123723809Y-100752380D01*
X123866666Y-100800000D01*
X123961904Y-100895238D01*
X124009523Y-100990476D01*
X124057142Y-101180952D01*
X124057142Y-101323809D01*
X124009523Y-101514285D01*
X123961904Y-101609523D01*
X123866666Y-101704761D01*
X123723809Y-101752380D01*
X123485714Y-101752380D01*
X125009523Y-101752380D02*
X124438095Y-101752380D01*
X124723809Y-101752380D02*
X124723809Y-100752380D01*
X124628571Y-100895238D01*
X124533333Y-100990476D01*
X124438095Y-101038095D01*
X125628571Y-100752380D02*
X125723809Y-100752380D01*
X125819047Y-100800000D01*
X125866666Y-100847619D01*
X125914285Y-100942857D01*
X125961904Y-101133333D01*
X125961904Y-101371428D01*
X125914285Y-101561904D01*
X125866666Y-101657142D01*
X125819047Y-101704761D01*
X125723809Y-101752380D01*
X125628571Y-101752380D01*
X125533333Y-101704761D01*
X125485714Y-101657142D01*
X125438095Y-101561904D01*
X125390476Y-101371428D01*
X125390476Y-101133333D01*
X125438095Y-100942857D01*
X125485714Y-100847619D01*
X125533333Y-100800000D01*
X125628571Y-100752380D01*
D11*
X154265749Y-75718547D02*
X154265749Y-75618547D01*
X152565749Y-75718547D02*
X152565749Y-75618547D01*
X154265749Y-75668547D02*
X154265749Y-75718547D01*
X153415749Y-78268547D02*
X153265749Y-78118547D01*
X153265749Y-78118547D02*
X153565749Y-78118547D01*
X153565749Y-78118547D02*
X153415749Y-78268547D01*
G36*
X153415749Y-78268547D02*
G01*
X153265749Y-78118547D01*
X153565749Y-78118547D01*
X153415749Y-78268547D01*
G37*
X153415749Y-78268547D02*
X153265749Y-78118547D01*
X153565749Y-78118547D01*
X153415749Y-78268547D01*
X137427527Y-116369111D02*
X137427527Y-116269111D01*
X135727527Y-116369111D02*
X135727527Y-116269111D01*
X137427527Y-116319111D02*
X137427527Y-116369111D01*
X136577527Y-118919111D02*
X136427527Y-118769111D01*
X136427527Y-118769111D02*
X136727527Y-118769111D01*
X136727527Y-118769111D02*
X136577527Y-118919111D01*
G36*
X136577527Y-118919111D02*
G01*
X136427527Y-118769111D01*
X136727527Y-118769111D01*
X136577527Y-118919111D01*
G37*
X136577527Y-118919111D02*
X136427527Y-118769111D01*
X136727527Y-118769111D01*
X136577527Y-118919111D01*
X166168275Y-104399999D02*
X166168275Y-104449999D01*
X166168275Y-104449999D02*
X166168275Y-104349999D01*
X164468275Y-104449999D02*
X164468275Y-104349999D01*
X165318275Y-106999999D02*
X165168275Y-106849999D01*
X165168275Y-106849999D02*
X165468275Y-106849999D01*
X165468275Y-106849999D02*
X165318275Y-106999999D01*
G36*
X165318275Y-106999999D02*
G01*
X165168275Y-106849999D01*
X165468275Y-106849999D01*
X165318275Y-106999999D01*
G37*
X165318275Y-106999999D02*
X165168275Y-106849999D01*
X165468275Y-106849999D01*
X165318275Y-106999999D01*
X137431487Y-75682264D02*
X137431487Y-75732264D01*
X137431487Y-75732264D02*
X137431487Y-75632264D01*
X135731487Y-75732264D02*
X135731487Y-75632264D01*
X136581487Y-78282264D02*
X136431487Y-78132264D01*
X136431487Y-78132264D02*
X136731487Y-78132264D01*
X136731487Y-78132264D02*
X136581487Y-78282264D01*
G36*
X136581487Y-78282264D02*
G01*
X136431487Y-78132264D01*
X136731487Y-78132264D01*
X136581487Y-78282264D01*
G37*
X136581487Y-78282264D02*
X136431487Y-78132264D01*
X136731487Y-78132264D01*
X136581487Y-78282264D01*
X154262771Y-116363853D02*
X154262771Y-116263853D01*
X152562771Y-116363853D02*
X152562771Y-116263853D01*
X154262771Y-116313853D02*
X154262771Y-116363853D01*
X153412771Y-118913853D02*
X153262771Y-118763853D01*
X153262771Y-118763853D02*
X153562771Y-118763853D01*
X153562771Y-118763853D02*
X153412771Y-118913853D01*
G36*
X153412771Y-118913853D02*
G01*
X153262771Y-118763853D01*
X153562771Y-118763853D01*
X153412771Y-118913853D01*
G37*
X153412771Y-118913853D02*
X153262771Y-118763853D01*
X153562771Y-118763853D01*
X153412771Y-118913853D01*
X125526038Y-87582400D02*
X125526038Y-87632400D01*
X123826038Y-87632400D02*
X123826038Y-87532400D01*
X125526038Y-87632400D02*
X125526038Y-87532400D01*
X124676038Y-90182400D02*
X124526038Y-90032400D01*
X124526038Y-90032400D02*
X124826038Y-90032400D01*
X124826038Y-90032400D02*
X124676038Y-90182400D01*
G36*
X124676038Y-90182400D02*
G01*
X124526038Y-90032400D01*
X124826038Y-90032400D01*
X124676038Y-90182400D01*
G37*
X124676038Y-90182400D02*
X124526038Y-90032400D01*
X124826038Y-90032400D01*
X124676038Y-90182400D01*
X166167478Y-87567539D02*
X166167478Y-87617539D01*
X166167478Y-87617539D02*
X166167478Y-87517539D01*
X164467478Y-87617539D02*
X164467478Y-87517539D01*
X165317478Y-90167539D02*
X165167478Y-90017539D01*
X165167478Y-90017539D02*
X165467478Y-90017539D01*
X165467478Y-90017539D02*
X165317478Y-90167539D01*
G36*
X165317478Y-90167539D02*
G01*
X165167478Y-90017539D01*
X165467478Y-90017539D01*
X165317478Y-90167539D01*
G37*
X165317478Y-90167539D02*
X165167478Y-90017539D01*
X165467478Y-90017539D01*
X165317478Y-90167539D01*
X125522292Y-104412605D02*
X125522292Y-104462605D01*
X123822292Y-104462605D02*
X123822292Y-104362605D01*
X125522292Y-104462605D02*
X125522292Y-104362605D01*
X124672292Y-107012605D02*
X124522292Y-106862605D01*
X124522292Y-106862605D02*
X124822292Y-106862605D01*
X124822292Y-106862605D02*
X124672292Y-107012605D01*
G36*
X124672292Y-107012605D02*
G01*
X124522292Y-106862605D01*
X124822292Y-106862605D01*
X124672292Y-107012605D01*
G37*
X124672292Y-107012605D02*
X124522292Y-106862605D01*
X124822292Y-106862605D01*
X124672292Y-107012605D01*
M02*
