M48
INCH,TZ
T1C0.0157
T2C0.0394
T3C0.0472
%
G90
G05
T1
X52362Y-46142
X52362Y-46575
X52362Y-47008
X52533Y-28569
X52533Y-29002
X52533Y-29435
X53493Y-42672
X53898Y-39685
X54291Y-31535
X54409Y-39685
X57323Y-31850
X57323Y-32323
X58661Y-46260
X59055Y-46260
X59449Y-46260
X61535Y-28583
X61535Y-29016
X61535Y-29449
T2
X53737Y-32622
X54535Y-43274
T3
X57087Y-35827
X57087Y-36811
X57087Y-37795
X57087Y-38780
X57087Y-39764
T0
M30
