G04 #@! TF.GenerationSoftware,KiCad,Pcbnew,(6.0.0)*
G04 #@! TF.CreationDate,2022-02-12T00:13:16-05:00*
G04 #@! TF.ProjectId,FalconLHS,46616c63-6f6e-44c4-9853-2e6b69636164,1A*
G04 #@! TF.SameCoordinates,Original*
G04 #@! TF.FileFunction,Copper,L2,Bot*
G04 #@! TF.FilePolarity,Positive*
%FSLAX46Y46*%
G04 Gerber Fmt 4.6, Leading zero omitted, Abs format (unit mm)*
G04 Created by KiCad (PCBNEW (6.0.0)) date 2022-02-12 00:13:16*
%MOMM*%
%LPD*%
G01*
G04 APERTURE LIST*
G04 Aperture macros list*
%AMRoundRect*
0 Rectangle with rounded corners*
0 $1 Rounding radius*
0 $2 $3 $4 $5 $6 $7 $8 $9 X,Y pos of 4 corners*
0 Add a 4 corners polygon primitive as box body*
4,1,4,$2,$3,$4,$5,$6,$7,$8,$9,$2,$3,0*
0 Add four circle primitives for the rounded corners*
1,1,$1+$1,$2,$3*
1,1,$1+$1,$4,$5*
1,1,$1+$1,$6,$7*
1,1,$1+$1,$8,$9*
0 Add four rect primitives between the rounded corners*
20,1,$1+$1,$2,$3,$4,$5,0*
20,1,$1+$1,$4,$5,$6,$7,0*
20,1,$1+$1,$6,$7,$8,$9,0*
20,1,$1+$1,$8,$9,$2,$3,0*%
G04 Aperture macros list end*
G04 #@! TA.AperFunction,SMDPad,CuDef*
%ADD10R,0.650000X1.500000*%
G04 #@! TD*
G04 #@! TA.AperFunction,SMDPad,CuDef*
%ADD11R,3.600000X2.700000*%
G04 #@! TD*
G04 #@! TA.AperFunction,ComponentPad*
%ADD12R,1.700000X1.700000*%
G04 #@! TD*
G04 #@! TA.AperFunction,ComponentPad*
%ADD13O,1.700000X1.700000*%
G04 #@! TD*
G04 #@! TA.AperFunction,SMDPad,CuDef*
%ADD14RoundRect,0.135000X0.135000X0.185000X-0.135000X0.185000X-0.135000X-0.185000X0.135000X-0.185000X0*%
G04 #@! TD*
G04 #@! TA.AperFunction,SMDPad,CuDef*
%ADD15R,5.900000X2.450000*%
G04 #@! TD*
G04 #@! TA.AperFunction,SMDPad,CuDef*
%ADD16RoundRect,0.135000X0.185000X-0.135000X0.185000X0.135000X-0.185000X0.135000X-0.185000X-0.135000X0*%
G04 #@! TD*
G04 #@! TA.AperFunction,SMDPad,CuDef*
%ADD17RoundRect,0.250000X1.100000X-0.325000X1.100000X0.325000X-1.100000X0.325000X-1.100000X-0.325000X0*%
G04 #@! TD*
G04 #@! TA.AperFunction,SMDPad,CuDef*
%ADD18R,0.900000X0.800000*%
G04 #@! TD*
G04 #@! TA.AperFunction,SMDPad,CuDef*
%ADD19RoundRect,0.250000X-1.100000X0.325000X-1.100000X-0.325000X1.100000X-0.325000X1.100000X0.325000X0*%
G04 #@! TD*
G04 #@! TA.AperFunction,SMDPad,CuDef*
%ADD20RoundRect,0.135000X-0.185000X0.135000X-0.185000X-0.135000X0.185000X-0.135000X0.185000X0.135000X0*%
G04 #@! TD*
G04 #@! TA.AperFunction,ViaPad*
%ADD21C,1.700000*%
G04 #@! TD*
G04 #@! TA.AperFunction,ViaPad*
%ADD22C,0.800000*%
G04 #@! TD*
G04 #@! TA.AperFunction,Conductor*
%ADD23C,1.270000*%
G04 #@! TD*
G04 #@! TA.AperFunction,Conductor*
%ADD24C,0.762000*%
G04 #@! TD*
G04 #@! TA.AperFunction,Conductor*
%ADD25C,0.203200*%
G04 #@! TD*
G04 APERTURE END LIST*
D10*
X159875000Y-123720000D03*
X158605000Y-123720000D03*
X157335000Y-123720000D03*
X156065000Y-123720000D03*
X156065000Y-118320000D03*
X157335000Y-118320000D03*
X158605000Y-118320000D03*
X159875000Y-118320000D03*
D11*
X157970000Y-121020000D03*
D12*
X172690000Y-121750000D03*
D13*
X175230000Y-121750000D03*
X177770000Y-121750000D03*
D14*
X176250000Y-119239119D03*
X175230000Y-119239119D03*
D15*
X143219500Y-111745000D03*
X143219500Y-106195000D03*
X164170000Y-117745000D03*
X164170000Y-123295000D03*
D16*
X154270000Y-121430000D03*
X154270000Y-120410000D03*
D17*
X150500000Y-116111600D03*
X150500000Y-113161600D03*
D18*
X159670000Y-114270000D03*
X159670000Y-116570000D03*
D19*
X156870000Y-113245000D03*
X156870000Y-116195000D03*
D20*
X153100000Y-108016600D03*
X153100000Y-109036600D03*
D18*
X147719500Y-115086600D03*
X147719500Y-112786600D03*
D10*
X147495000Y-105670000D03*
X148765000Y-105670000D03*
X150035000Y-105670000D03*
X151305000Y-105670000D03*
X151305000Y-111070000D03*
X150035000Y-111070000D03*
X148765000Y-111070000D03*
X147495000Y-111070000D03*
D11*
X149400000Y-108370000D03*
D21*
X149400000Y-108370000D03*
X157810000Y-121020000D03*
D22*
X154600000Y-111375000D03*
X153890000Y-113140000D03*
X151950000Y-115030000D03*
X152660000Y-115830000D03*
X155375000Y-112125000D03*
X154600000Y-113820000D03*
X155470000Y-119520000D03*
X151884646Y-109863935D03*
X149829327Y-99390673D03*
X150984423Y-101165577D03*
X150404904Y-100275096D03*
X127544570Y-114849070D03*
X128410851Y-114295351D03*
X126727094Y-115371594D03*
X140305000Y-124335000D03*
X138245000Y-124335000D03*
X139285000Y-124335000D03*
X161855000Y-125060000D03*
X163825000Y-125060000D03*
X162865000Y-125060000D03*
D23*
X148400000Y-105670000D02*
X148400000Y-107370000D01*
X158970000Y-122020000D02*
X158970000Y-123720000D01*
X147495000Y-105670000D02*
X148400000Y-105670000D01*
X148400000Y-107370000D02*
X149400000Y-108370000D01*
X159875000Y-123720000D02*
X158970000Y-123720000D01*
X157970000Y-121020000D02*
X158970000Y-122020000D01*
D24*
X157335000Y-118320000D02*
X157335000Y-116660000D01*
D23*
X155480978Y-116195000D02*
X154205000Y-117470978D01*
D24*
X150035000Y-112696600D02*
X150500000Y-113161600D01*
X157335000Y-116660000D02*
X156870000Y-116195000D01*
D23*
X147719500Y-115086600D02*
X149644500Y-113161600D01*
X156870000Y-116195000D02*
X157695000Y-116195000D01*
X156870000Y-116195000D02*
X155480978Y-116195000D01*
X172690000Y-120350000D02*
X172690000Y-121750000D01*
X149608400Y-113161600D02*
X151957422Y-113161600D01*
X167950000Y-115610000D02*
X172690000Y-120350000D01*
X155480978Y-116195000D02*
X154990822Y-116195000D01*
X154205000Y-117470978D02*
X154205000Y-120150480D01*
X161010000Y-115610000D02*
X167950000Y-115610000D01*
X153200000Y-111919022D02*
X153200000Y-109270000D01*
X154990822Y-116195000D02*
X151957422Y-113161600D01*
X151957422Y-113161600D02*
X153200000Y-111919022D01*
D24*
X150035000Y-111070000D02*
X150035000Y-112696600D01*
D23*
X157695000Y-116195000D02*
X159620000Y-114270000D01*
X159620000Y-114270000D02*
X159670000Y-114270000D01*
X159670000Y-114270000D02*
X161010000Y-115610000D01*
X148400000Y-111070000D02*
X145400000Y-111070000D01*
X147719500Y-111750500D02*
X148400000Y-111070000D01*
X145400000Y-111070000D02*
X144725000Y-111745000D01*
X147719500Y-112786600D02*
X147719500Y-111750500D01*
X158970000Y-118320000D02*
X162570000Y-118320000D01*
X159670000Y-116570000D02*
X159670000Y-117620000D01*
X159670000Y-117620000D02*
X158970000Y-118320000D01*
D25*
X175230000Y-119239119D02*
X175230000Y-121750000D01*
X151884646Y-109980354D02*
X151300000Y-110565000D01*
X155470000Y-119420000D02*
X156065000Y-118825000D01*
X155470000Y-119520000D02*
X155470000Y-119420000D01*
X151884646Y-109863935D02*
X151884646Y-109980354D01*
D24*
X150035000Y-105670000D02*
X150035000Y-104703978D01*
X150768978Y-103970000D02*
X152600000Y-103970000D01*
D23*
X150984423Y-101165577D02*
X153200000Y-104570000D01*
D24*
X152600000Y-103970000D02*
X153200000Y-104570000D01*
D23*
X150404904Y-100275096D02*
X150984423Y-101165577D01*
X153200000Y-104570000D02*
X153200000Y-107770000D01*
D24*
X150035000Y-104703978D02*
X150768978Y-103970000D01*
D23*
X149829327Y-99390673D02*
X150404904Y-100275096D01*
X126727094Y-115371594D02*
X140870000Y-106300000D01*
X143219500Y-106195000D02*
X140870000Y-106300000D01*
D24*
X154017541Y-124990918D02*
X154188459Y-124820000D01*
D23*
X154205000Y-124820000D02*
X154205000Y-124335000D01*
X154205000Y-124335000D02*
X154205000Y-121620000D01*
D24*
X157335000Y-123720000D02*
X157335000Y-124721022D01*
D23*
X140305000Y-124335000D02*
X139285000Y-124335000D01*
X139285000Y-124335000D02*
X138245000Y-124335000D01*
D24*
X154188459Y-124820000D02*
X154205000Y-124820000D01*
X156497214Y-125558808D02*
X154585431Y-125558808D01*
X154205000Y-124335000D02*
X154205000Y-124655000D01*
X154205000Y-124655000D02*
X155120000Y-125570000D01*
D23*
X154205000Y-124335000D02*
X140305000Y-124335000D01*
D24*
X154585431Y-125558808D02*
X154017541Y-124990918D01*
X157335000Y-124721022D02*
X156497214Y-125558808D01*
D23*
X161855000Y-125060000D02*
X163825000Y-125060000D01*
X161855000Y-123685000D02*
X161960000Y-123580000D01*
X163825000Y-123425000D02*
X163840000Y-123410000D01*
X161855000Y-125060000D02*
X161855000Y-123685000D01*
X163825000Y-125060000D02*
X163825000Y-123425000D01*
G04 #@! TA.AperFunction,Conductor*
G36*
X186760135Y-70836859D02*
G01*
X187078377Y-70860362D01*
X187113894Y-70862985D01*
X187123732Y-70864202D01*
X187473178Y-70925017D01*
X187482850Y-70927196D01*
X187824618Y-71022113D01*
X187834026Y-71025232D01*
X188164800Y-71153332D01*
X188173857Y-71157364D01*
X188490407Y-71317394D01*
X188499018Y-71322293D01*
X188673677Y-71433424D01*
X188798292Y-71512713D01*
X188806381Y-71518439D01*
X189085457Y-71737390D01*
X189092937Y-71743879D01*
X189349103Y-71989234D01*
X189355913Y-71996432D01*
X189480922Y-72142352D01*
X189586681Y-72265803D01*
X189592753Y-72273641D01*
X189795889Y-72564424D01*
X189801159Y-72572821D01*
X189974686Y-72882183D01*
X189979104Y-72891058D01*
X190121338Y-73215997D01*
X190124861Y-73225264D01*
X190234420Y-73562625D01*
X190237014Y-73572194D01*
X190312836Y-73918706D01*
X190314475Y-73928482D01*
X190355822Y-74280778D01*
X190356489Y-74290648D01*
X190358183Y-74383470D01*
X190362470Y-74618434D01*
X190360367Y-74640811D01*
X190360221Y-74641509D01*
X190360221Y-74641512D01*
X190358425Y-74650123D01*
X190359683Y-74658832D01*
X190359683Y-74658834D01*
X190360976Y-74667788D01*
X190361962Y-74685292D01*
X189784479Y-93276064D01*
X188827625Y-124079849D01*
X188825555Y-124097260D01*
X188821912Y-124114733D01*
X188823297Y-124124321D01*
X188824016Y-124146656D01*
X188798805Y-124464442D01*
X188798771Y-124464866D01*
X188797543Y-124474460D01*
X188737914Y-124810918D01*
X188737122Y-124815385D01*
X188734978Y-124824816D01*
X188642077Y-125158367D01*
X188639036Y-125167552D01*
X188556675Y-125381244D01*
X188514518Y-125490624D01*
X188510608Y-125499476D01*
X188355616Y-125809107D01*
X188350888Y-125817516D01*
X188166860Y-126110824D01*
X188161328Y-126118764D01*
X187949980Y-126393017D01*
X187943711Y-126400389D01*
X187706994Y-126653061D01*
X187700046Y-126659797D01*
X187440137Y-126888564D01*
X187432573Y-126894601D01*
X187353384Y-126951797D01*
X187151895Y-127097327D01*
X187143799Y-127102602D01*
X186991581Y-127191644D01*
X186844923Y-127277433D01*
X186836344Y-127281912D01*
X186522060Y-127427212D01*
X186513091Y-127430845D01*
X186349706Y-127488057D01*
X186186313Y-127545271D01*
X186177051Y-127548023D01*
X185945021Y-127604948D01*
X185840767Y-127630525D01*
X185831268Y-127632376D01*
X185659950Y-127657279D01*
X185488630Y-127682182D01*
X185479004Y-127683112D01*
X185364953Y-127688604D01*
X185160168Y-127698465D01*
X185137863Y-127697053D01*
X185136989Y-127696899D01*
X185136988Y-127696899D01*
X185128321Y-127695371D01*
X185119655Y-127696899D01*
X185110740Y-127698471D01*
X185093271Y-127699999D01*
X147059840Y-127700000D01*
X109035050Y-127700000D01*
X109017581Y-127698472D01*
X109017576Y-127698471D01*
X109016402Y-127698264D01*
X109008667Y-127696900D01*
X109008666Y-127696900D01*
X109000000Y-127695372D01*
X108990664Y-127697018D01*
X108990660Y-127697019D01*
X108968211Y-127698425D01*
X108639201Y-127682122D01*
X108629293Y-127681137D01*
X108413319Y-127648821D01*
X108276971Y-127628419D01*
X108267212Y-127626461D01*
X108204705Y-127610664D01*
X107921819Y-127539170D01*
X107912314Y-127536261D01*
X107577222Y-127415246D01*
X107568038Y-127411405D01*
X107246586Y-127257873D01*
X107237824Y-127253143D01*
X106989291Y-127102606D01*
X106933096Y-127068568D01*
X106924859Y-127063004D01*
X106639871Y-126849209D01*
X106632224Y-126842857D01*
X106369773Y-126601942D01*
X106362783Y-126594856D01*
X106125443Y-126329187D01*
X106119185Y-126321443D01*
X105909259Y-126033597D01*
X105903797Y-126025271D01*
X105889616Y-126001128D01*
X105765405Y-125789669D01*
X105723369Y-125718106D01*
X105718757Y-125709282D01*
X105569574Y-125385776D01*
X105565856Y-125376538D01*
X105449379Y-125039853D01*
X105446594Y-125030294D01*
X105443161Y-125015895D01*
X105363975Y-124683756D01*
X105362150Y-124673978D01*
X105353149Y-124607719D01*
X105343285Y-124535118D01*
X105314193Y-124320973D01*
X105313342Y-124311053D01*
X105300516Y-123955024D01*
X105300651Y-123945067D01*
X105301323Y-123934427D01*
X105306301Y-123855531D01*
X106148142Y-123855531D01*
X106150763Y-124189246D01*
X106151129Y-124192163D01*
X106188499Y-124490064D01*
X106192301Y-124520376D01*
X106193005Y-124523230D01*
X106193005Y-124523232D01*
X106201508Y-124557719D01*
X106272188Y-124844399D01*
X106389334Y-125156888D01*
X106390681Y-125159503D01*
X106390683Y-125159508D01*
X106527439Y-125425035D01*
X106542138Y-125453575D01*
X106728514Y-125730409D01*
X106945914Y-125983607D01*
X106948084Y-125985606D01*
X106948086Y-125985608D01*
X107136193Y-126158884D01*
X107191371Y-126209712D01*
X107461532Y-126405635D01*
X107464101Y-126407074D01*
X107464103Y-126407075D01*
X107750134Y-126567261D01*
X107750139Y-126567264D01*
X107752706Y-126568701D01*
X108060916Y-126696681D01*
X108150435Y-126722097D01*
X108379123Y-126787025D01*
X108379131Y-126787027D01*
X108381953Y-126787828D01*
X108384849Y-126788294D01*
X108384856Y-126788296D01*
X108708731Y-126840462D01*
X108711432Y-126840897D01*
X108714157Y-126841035D01*
X108714166Y-126841036D01*
X108899713Y-126850435D01*
X108899723Y-126850435D01*
X108901001Y-126850500D01*
X109085676Y-126850500D01*
X109087142Y-126850414D01*
X109087148Y-126850414D01*
X109179230Y-126845024D01*
X109333155Y-126836014D01*
X109497457Y-126806895D01*
X109658856Y-126778291D01*
X109658861Y-126778290D01*
X109661760Y-126777776D01*
X109664572Y-126776930D01*
X109664579Y-126776928D01*
X109978521Y-126682442D01*
X109978522Y-126682441D01*
X109981325Y-126681598D01*
X109984012Y-126680433D01*
X109984016Y-126680431D01*
X110164952Y-126601945D01*
X110287488Y-126548792D01*
X110536925Y-126403907D01*
X110573525Y-126382648D01*
X110573528Y-126382646D01*
X110576064Y-126381173D01*
X110578408Y-126379417D01*
X110578413Y-126379413D01*
X110840751Y-126182802D01*
X110843114Y-126181031D01*
X110866412Y-126158884D01*
X111082861Y-125953122D01*
X111082862Y-125953121D01*
X111084989Y-125951099D01*
X111086860Y-125948850D01*
X111086866Y-125948843D01*
X111296507Y-125696777D01*
X111296512Y-125696770D01*
X111298386Y-125694517D01*
X111299987Y-125692057D01*
X111299991Y-125692051D01*
X111426880Y-125497031D01*
X111480390Y-125414790D01*
X111483788Y-125407931D01*
X111599845Y-125173621D01*
X111628515Y-125115739D01*
X111633136Y-125102799D01*
X111739750Y-124804215D01*
X111740738Y-124801448D01*
X111749081Y-124765169D01*
X111801980Y-124535118D01*
X111815526Y-124476211D01*
X111816769Y-124464866D01*
X111836149Y-124287906D01*
X137402670Y-124287906D01*
X137412207Y-124469883D01*
X137417766Y-124490064D01*
X137454973Y-124625140D01*
X137460599Y-124645566D01*
X137545587Y-124806760D01*
X137574977Y-124841538D01*
X137629927Y-124906563D01*
X137663206Y-124945944D01*
X137807969Y-125056624D01*
X137812909Y-125058927D01*
X137812908Y-125058927D01*
X137953530Y-125124500D01*
X137973122Y-125133636D01*
X137978440Y-125134825D01*
X137978441Y-125134825D01*
X138025629Y-125145372D01*
X138150960Y-125173387D01*
X138155077Y-125173617D01*
X138155083Y-125173618D01*
X138155142Y-125173621D01*
X138155148Y-125173621D01*
X138156558Y-125173700D01*
X153382140Y-125173700D01*
X153441271Y-125192913D01*
X153468371Y-125222487D01*
X153533012Y-125330067D01*
X153536749Y-125334019D01*
X153536756Y-125334028D01*
X153570655Y-125369875D01*
X153577368Y-125377749D01*
X153600528Y-125407931D01*
X153616469Y-125420163D01*
X153628320Y-125430852D01*
X153647389Y-125451017D01*
X153658217Y-125462468D01*
X153662721Y-125465529D01*
X153662727Y-125465534D01*
X153662785Y-125465573D01*
X153677376Y-125477643D01*
X154140224Y-125940491D01*
X154148902Y-125950387D01*
X154164402Y-125970588D01*
X154164405Y-125970591D01*
X154168418Y-125975821D01*
X154173648Y-125979834D01*
X154199082Y-125999350D01*
X154197718Y-126001127D01*
X154197719Y-126001128D01*
X154199083Y-125999351D01*
X154290558Y-126069542D01*
X154296654Y-126072067D01*
X154426700Y-126125934D01*
X154426701Y-126125934D01*
X154432794Y-126128458D01*
X154439332Y-126129319D01*
X154439333Y-126129319D01*
X154578891Y-126147693D01*
X154585431Y-126148554D01*
X154617218Y-126144369D01*
X154630349Y-126143508D01*
X154990082Y-126143508D01*
X155003211Y-126144369D01*
X155120000Y-126159745D01*
X155236792Y-126144369D01*
X155249923Y-126143508D01*
X156452304Y-126143508D01*
X156465433Y-126144369D01*
X156497214Y-126148553D01*
X156535533Y-126143508D01*
X156535535Y-126143508D01*
X156597236Y-126135385D01*
X156643313Y-126129319D01*
X156643315Y-126129318D01*
X156649851Y-126128458D01*
X156750427Y-126086798D01*
X156792087Y-126069542D01*
X156844169Y-126029578D01*
X156914227Y-125975821D01*
X156918240Y-125970591D01*
X156918246Y-125970585D01*
X156933748Y-125950382D01*
X156942424Y-125940488D01*
X157716685Y-125166228D01*
X157726579Y-125157551D01*
X157746783Y-125142048D01*
X157752013Y-125138035D01*
X157811891Y-125060000D01*
X157845734Y-125015895D01*
X157846972Y-125012906D01*
X161012670Y-125012906D01*
X161012955Y-125018346D01*
X161012955Y-125018347D01*
X161016162Y-125079538D01*
X161016300Y-125084803D01*
X161016300Y-125105520D01*
X161016594Y-125108225D01*
X161016594Y-125108228D01*
X161018361Y-125124500D01*
X161018811Y-125130095D01*
X161022207Y-125194883D01*
X161023652Y-125200130D01*
X161023653Y-125200134D01*
X161026333Y-125209862D01*
X161029357Y-125225713D01*
X161031035Y-125241160D01*
X161032774Y-125246326D01*
X161032774Y-125246328D01*
X161051728Y-125302647D01*
X161053371Y-125308020D01*
X161055764Y-125316709D01*
X161070599Y-125370566D01*
X161073141Y-125375387D01*
X161073142Y-125375390D01*
X161077843Y-125384307D01*
X161084201Y-125399140D01*
X161089158Y-125413869D01*
X161091964Y-125418539D01*
X161122573Y-125469481D01*
X161125331Y-125474375D01*
X161133883Y-125490596D01*
X161155587Y-125531760D01*
X161159101Y-125535918D01*
X161159102Y-125535920D01*
X161165617Y-125543629D01*
X161175004Y-125556740D01*
X161183012Y-125570067D01*
X161186760Y-125574031D01*
X161186762Y-125574033D01*
X161227590Y-125617208D01*
X161231330Y-125621391D01*
X161273206Y-125670944D01*
X161277534Y-125674253D01*
X161285552Y-125680383D01*
X161297541Y-125691179D01*
X161308217Y-125702468D01*
X161312721Y-125705529D01*
X161312727Y-125705534D01*
X161361876Y-125738934D01*
X161366426Y-125742215D01*
X161417969Y-125781624D01*
X161422903Y-125783925D01*
X161422910Y-125783929D01*
X161432057Y-125788194D01*
X161446086Y-125796163D01*
X161458933Y-125804894D01*
X161519181Y-125828992D01*
X161524302Y-125831208D01*
X161583122Y-125858636D01*
X161588435Y-125859824D01*
X161588439Y-125859825D01*
X161598291Y-125862027D01*
X161613699Y-125866796D01*
X161628127Y-125872567D01*
X161633501Y-125873457D01*
X161633502Y-125873457D01*
X161692140Y-125883165D01*
X161697652Y-125884237D01*
X161756926Y-125897486D01*
X161756934Y-125897487D01*
X161760960Y-125898387D01*
X161765077Y-125898617D01*
X161765083Y-125898618D01*
X161765142Y-125898621D01*
X161765148Y-125898621D01*
X161766558Y-125898700D01*
X161777709Y-125898700D01*
X161794141Y-125900051D01*
X161807906Y-125902330D01*
X161813346Y-125902045D01*
X161813347Y-125902045D01*
X161874538Y-125898838D01*
X161879803Y-125898700D01*
X163747709Y-125898700D01*
X163764141Y-125900051D01*
X163777906Y-125902330D01*
X163783346Y-125902045D01*
X163783347Y-125902045D01*
X163844538Y-125898838D01*
X163849803Y-125898700D01*
X163870520Y-125898700D01*
X163873225Y-125898406D01*
X163873228Y-125898406D01*
X163889500Y-125896639D01*
X163895095Y-125896189D01*
X163933977Y-125894151D01*
X163959883Y-125892793D01*
X163965130Y-125891348D01*
X163965134Y-125891347D01*
X163974862Y-125888667D01*
X163990713Y-125885643D01*
X163991096Y-125885601D01*
X164006160Y-125883965D01*
X164011326Y-125882226D01*
X164011328Y-125882226D01*
X164067647Y-125863272D01*
X164073020Y-125861629D01*
X164092243Y-125856334D01*
X164135566Y-125844401D01*
X164140387Y-125841859D01*
X164140390Y-125841858D01*
X164149307Y-125837157D01*
X164164140Y-125830799D01*
X164173705Y-125827580D01*
X164173706Y-125827579D01*
X164178869Y-125825842D01*
X164234481Y-125792427D01*
X164239375Y-125789669D01*
X164291944Y-125761952D01*
X164296760Y-125759413D01*
X164308631Y-125749382D01*
X164321740Y-125739996D01*
X164335067Y-125731988D01*
X164339033Y-125728238D01*
X164382208Y-125687410D01*
X164386396Y-125683665D01*
X164401450Y-125670944D01*
X164435944Y-125641794D01*
X164445385Y-125629445D01*
X164456179Y-125617459D01*
X164467468Y-125606783D01*
X164470529Y-125602279D01*
X164470534Y-125602273D01*
X164503934Y-125553124D01*
X164507222Y-125548565D01*
X164543314Y-125501360D01*
X164546624Y-125497031D01*
X164548925Y-125492097D01*
X164548929Y-125492090D01*
X164553194Y-125482943D01*
X164561163Y-125468914D01*
X164569894Y-125456067D01*
X164593992Y-125395819D01*
X164596209Y-125390696D01*
X164599188Y-125384307D01*
X164623636Y-125331878D01*
X164625085Y-125325399D01*
X164627027Y-125316709D01*
X164631798Y-125301296D01*
X164635544Y-125291930D01*
X164637567Y-125286873D01*
X164638457Y-125281498D01*
X164648165Y-125222860D01*
X164649237Y-125217348D01*
X164662486Y-125158074D01*
X164662487Y-125158066D01*
X164663387Y-125154040D01*
X164663700Y-125148442D01*
X164663700Y-125137291D01*
X164665051Y-125120860D01*
X164666440Y-125112469D01*
X164667330Y-125107094D01*
X164664512Y-125053313D01*
X164663838Y-125040462D01*
X164663700Y-125035197D01*
X164663700Y-124824300D01*
X164682913Y-124765169D01*
X164733213Y-124728624D01*
X164764300Y-124723700D01*
X167140064Y-124723700D01*
X167199480Y-124711881D01*
X167266860Y-124666860D01*
X167311881Y-124599480D01*
X167323700Y-124540064D01*
X167323700Y-123855531D01*
X182273142Y-123855531D01*
X182275763Y-124189246D01*
X182276129Y-124192163D01*
X182313499Y-124490064D01*
X182317301Y-124520376D01*
X182318005Y-124523230D01*
X182318005Y-124523232D01*
X182326508Y-124557719D01*
X182397188Y-124844399D01*
X182514334Y-125156888D01*
X182515681Y-125159503D01*
X182515683Y-125159508D01*
X182652439Y-125425035D01*
X182667138Y-125453575D01*
X182853514Y-125730409D01*
X183070914Y-125983607D01*
X183073084Y-125985606D01*
X183073086Y-125985608D01*
X183261193Y-126158884D01*
X183316371Y-126209712D01*
X183586532Y-126405635D01*
X183589101Y-126407074D01*
X183589103Y-126407075D01*
X183875134Y-126567261D01*
X183875139Y-126567264D01*
X183877706Y-126568701D01*
X184185916Y-126696681D01*
X184275435Y-126722097D01*
X184504123Y-126787025D01*
X184504131Y-126787027D01*
X184506953Y-126787828D01*
X184509849Y-126788294D01*
X184509856Y-126788296D01*
X184833731Y-126840462D01*
X184836432Y-126840897D01*
X184839157Y-126841035D01*
X184839166Y-126841036D01*
X185024713Y-126850435D01*
X185024723Y-126850435D01*
X185026001Y-126850500D01*
X185210676Y-126850500D01*
X185212142Y-126850414D01*
X185212148Y-126850414D01*
X185304230Y-126845024D01*
X185458155Y-126836014D01*
X185622457Y-126806895D01*
X185783856Y-126778291D01*
X185783861Y-126778290D01*
X185786760Y-126777776D01*
X185789572Y-126776930D01*
X185789579Y-126776928D01*
X186103521Y-126682442D01*
X186103522Y-126682441D01*
X186106325Y-126681598D01*
X186109012Y-126680433D01*
X186109016Y-126680431D01*
X186289952Y-126601945D01*
X186412488Y-126548792D01*
X186661925Y-126403907D01*
X186698525Y-126382648D01*
X186698528Y-126382646D01*
X186701064Y-126381173D01*
X186703408Y-126379417D01*
X186703413Y-126379413D01*
X186965751Y-126182802D01*
X186968114Y-126181031D01*
X186991412Y-126158884D01*
X187207861Y-125953122D01*
X187207862Y-125953121D01*
X187209989Y-125951099D01*
X187211860Y-125948850D01*
X187211866Y-125948843D01*
X187421507Y-125696777D01*
X187421512Y-125696770D01*
X187423386Y-125694517D01*
X187424987Y-125692057D01*
X187424991Y-125692051D01*
X187551880Y-125497031D01*
X187605390Y-125414790D01*
X187608788Y-125407931D01*
X187724845Y-125173621D01*
X187753515Y-125115739D01*
X187758136Y-125102799D01*
X187864750Y-124804215D01*
X187865738Y-124801448D01*
X187874081Y-124765169D01*
X187926980Y-124535118D01*
X187940526Y-124476211D01*
X187941769Y-124464866D01*
X187976538Y-124147392D01*
X187976538Y-124147390D01*
X187976858Y-124144469D01*
X187976625Y-124114733D01*
X187974260Y-123813695D01*
X187974237Y-123810754D01*
X187944827Y-123576304D01*
X187933065Y-123482540D01*
X187933064Y-123482537D01*
X187932699Y-123479624D01*
X187925024Y-123448492D01*
X187910628Y-123390103D01*
X187852812Y-123155601D01*
X187735666Y-122843112D01*
X187722545Y-122817635D01*
X187584208Y-122549038D01*
X187584206Y-122549035D01*
X187582862Y-122546425D01*
X187396486Y-122269591D01*
X187179086Y-122016393D01*
X187161549Y-122000238D01*
X186935796Y-121792284D01*
X186935795Y-121792283D01*
X186933629Y-121790288D01*
X186663468Y-121594365D01*
X186582899Y-121549244D01*
X186374866Y-121432739D01*
X186374861Y-121432736D01*
X186372294Y-121431299D01*
X186064084Y-121303319D01*
X185974565Y-121277903D01*
X185745877Y-121212975D01*
X185745869Y-121212973D01*
X185743047Y-121212172D01*
X185740151Y-121211706D01*
X185740144Y-121211704D01*
X185416269Y-121159538D01*
X185416268Y-121159538D01*
X185413568Y-121159103D01*
X185410843Y-121158965D01*
X185410834Y-121158964D01*
X185225287Y-121149565D01*
X185225277Y-121149565D01*
X185223999Y-121149500D01*
X185039324Y-121149500D01*
X185037858Y-121149586D01*
X185037852Y-121149586D01*
X184945770Y-121154976D01*
X184791845Y-121163986D01*
X184627542Y-121193105D01*
X184466144Y-121221709D01*
X184466139Y-121221710D01*
X184463240Y-121222224D01*
X184460428Y-121223070D01*
X184460421Y-121223072D01*
X184196465Y-121302514D01*
X184143675Y-121318402D01*
X184140988Y-121319567D01*
X184140984Y-121319569D01*
X184075160Y-121348122D01*
X183837512Y-121451208D01*
X183834964Y-121452688D01*
X183578543Y-121601630D01*
X183548936Y-121618827D01*
X183546592Y-121620583D01*
X183546587Y-121620587D01*
X183330756Y-121782343D01*
X183281886Y-121818969D01*
X183279746Y-121821003D01*
X183279744Y-121821005D01*
X183071851Y-122018633D01*
X183040011Y-122048901D01*
X183038140Y-122051150D01*
X183038134Y-122051157D01*
X182828493Y-122303223D01*
X182828488Y-122303230D01*
X182826614Y-122305483D01*
X182825013Y-122307943D01*
X182825009Y-122307949D01*
X182790931Y-122360325D01*
X182644610Y-122585210D01*
X182643308Y-122587840D01*
X182643305Y-122587844D01*
X182570455Y-122734923D01*
X182496485Y-122884261D01*
X182495501Y-122887018D01*
X182495498Y-122887024D01*
X182400585Y-123152838D01*
X182384262Y-123198552D01*
X182309474Y-123523789D01*
X182309154Y-123526714D01*
X182309153Y-123526718D01*
X182283130Y-123764334D01*
X182273142Y-123855531D01*
X167323700Y-123855531D01*
X167323700Y-122049936D01*
X167311881Y-121990520D01*
X167266860Y-121923140D01*
X167199480Y-121878119D01*
X167140064Y-121866300D01*
X161199936Y-121866300D01*
X161140520Y-121878119D01*
X161073140Y-121923140D01*
X161028119Y-121990520D01*
X161016300Y-122049936D01*
X161016300Y-123671518D01*
X161016261Y-123674327D01*
X161014073Y-123752660D01*
X161015094Y-123758012D01*
X161015531Y-123763442D01*
X161015318Y-123763459D01*
X161016300Y-123773844D01*
X161016300Y-124982709D01*
X161014949Y-124999140D01*
X161012670Y-125012906D01*
X157846972Y-125012906D01*
X157849199Y-125007531D01*
X157886783Y-124916794D01*
X157902126Y-124879752D01*
X157904650Y-124873659D01*
X157908139Y-124847162D01*
X157919700Y-124759343D01*
X157919700Y-124759341D01*
X157923884Y-124727562D01*
X157924745Y-124721022D01*
X157920561Y-124689241D01*
X157919700Y-124676110D01*
X157919700Y-123681679D01*
X157918733Y-123674327D01*
X157905511Y-123573901D01*
X157905510Y-123573899D01*
X157904650Y-123567363D01*
X157871358Y-123486990D01*
X157863700Y-123448492D01*
X157863700Y-122949936D01*
X157851881Y-122890520D01*
X157806860Y-122823140D01*
X157739480Y-122778119D01*
X157680064Y-122766300D01*
X156989936Y-122766300D01*
X156930520Y-122778119D01*
X156863140Y-122823140D01*
X156818119Y-122890520D01*
X156806300Y-122949936D01*
X156806300Y-123448492D01*
X156798642Y-123486990D01*
X156793461Y-123499499D01*
X156787242Y-123514512D01*
X156746863Y-123561790D01*
X156686407Y-123576304D01*
X156628965Y-123552511D01*
X156596480Y-123499499D01*
X156593700Y-123476014D01*
X156593700Y-122949936D01*
X156581881Y-122890520D01*
X156536860Y-122823140D01*
X156469480Y-122778119D01*
X156410064Y-122766300D01*
X155719936Y-122766300D01*
X155660520Y-122778119D01*
X155593140Y-122823140D01*
X155548119Y-122890520D01*
X155536300Y-122949936D01*
X155536300Y-124490064D01*
X155548119Y-124549480D01*
X155593140Y-124616860D01*
X155660520Y-124661881D01*
X155719936Y-124673700D01*
X156312562Y-124673700D01*
X156371693Y-124692913D01*
X156408238Y-124743213D01*
X156408238Y-124805387D01*
X156383697Y-124845435D01*
X156284489Y-124944643D01*
X156229091Y-124972869D01*
X156213354Y-124974108D01*
X155392669Y-124974108D01*
X155333538Y-124954895D01*
X155321534Y-124944643D01*
X155073165Y-124696275D01*
X155044939Y-124640878D01*
X155043700Y-124625140D01*
X155043700Y-124412291D01*
X155045051Y-124395860D01*
X155046440Y-124387469D01*
X155047330Y-124382094D01*
X155043838Y-124315462D01*
X155043700Y-124310197D01*
X155043700Y-121574480D01*
X155040427Y-121544345D01*
X155029553Y-121444251D01*
X155029553Y-121444249D01*
X155028965Y-121438840D01*
X154970842Y-121266131D01*
X154938139Y-121211704D01*
X154879793Y-121114601D01*
X154879792Y-121114600D01*
X154876988Y-121109933D01*
X154809159Y-121038206D01*
X154755527Y-120981491D01*
X154755526Y-120981490D01*
X154751783Y-120977532D01*
X154736102Y-120966875D01*
X154697995Y-120917747D01*
X154696043Y-120855604D01*
X154727715Y-120806833D01*
X154811785Y-120735789D01*
X154811787Y-120735787D01*
X154815944Y-120732274D01*
X154926624Y-120587511D01*
X155003636Y-120422358D01*
X155043387Y-120244520D01*
X155043700Y-120238922D01*
X155043700Y-120147419D01*
X155062913Y-120088288D01*
X155113213Y-120051743D01*
X155175387Y-120051743D01*
X155182790Y-120054474D01*
X155312403Y-120108161D01*
X155318939Y-120109021D01*
X155318941Y-120109022D01*
X155463460Y-120128048D01*
X155470000Y-120128909D01*
X155476540Y-120128048D01*
X155621059Y-120109022D01*
X155621061Y-120109021D01*
X155627597Y-120108161D01*
X155774455Y-120047331D01*
X155900564Y-119950564D01*
X155997331Y-119824454D01*
X156058161Y-119677597D01*
X156078909Y-119520000D01*
X156061456Y-119387431D01*
X156072786Y-119326298D01*
X156117886Y-119283500D01*
X156161195Y-119273700D01*
X156410064Y-119273700D01*
X156469480Y-119261881D01*
X156536860Y-119216860D01*
X156581881Y-119149480D01*
X156593700Y-119090064D01*
X156593700Y-118563986D01*
X156612913Y-118504855D01*
X156663213Y-118468310D01*
X156725387Y-118468310D01*
X156775687Y-118504855D01*
X156787241Y-118525487D01*
X156798642Y-118553010D01*
X156806300Y-118591508D01*
X156806300Y-119090064D01*
X156818119Y-119149480D01*
X156863140Y-119216860D01*
X156930520Y-119261881D01*
X156989936Y-119273700D01*
X157680064Y-119273700D01*
X157739480Y-119261881D01*
X157806860Y-119216860D01*
X157851881Y-119149480D01*
X157863700Y-119090064D01*
X157863700Y-118591508D01*
X157871358Y-118553010D01*
X157882758Y-118525488D01*
X157923137Y-118478210D01*
X157983593Y-118463696D01*
X158041035Y-118487489D01*
X158073520Y-118540501D01*
X158076300Y-118563986D01*
X158076300Y-119090064D01*
X158088119Y-119149480D01*
X158133140Y-119216860D01*
X158200520Y-119261881D01*
X158259936Y-119273700D01*
X158950064Y-119273700D01*
X159009480Y-119261881D01*
X159076860Y-119216860D01*
X159085847Y-119203410D01*
X159134674Y-119164918D01*
X159169493Y-119158700D01*
X159310507Y-119158700D01*
X159369638Y-119177913D01*
X159394153Y-119203410D01*
X159403140Y-119216860D01*
X159470520Y-119261881D01*
X159529936Y-119273700D01*
X160220064Y-119273700D01*
X160279480Y-119261881D01*
X160346860Y-119216860D01*
X160355847Y-119203410D01*
X160404674Y-119164918D01*
X160439493Y-119158700D01*
X161117880Y-119158700D01*
X161140267Y-119163153D01*
X161140520Y-119161881D01*
X161199936Y-119173700D01*
X167140064Y-119173700D01*
X167199480Y-119161881D01*
X167266860Y-119116860D01*
X167311881Y-119049480D01*
X167323700Y-118990064D01*
X167323700Y-116549300D01*
X167342913Y-116490169D01*
X167393213Y-116453624D01*
X167424300Y-116448700D01*
X167560929Y-116448700D01*
X167620060Y-116467913D01*
X167632064Y-116478165D01*
X171734685Y-120580786D01*
X171762911Y-120636184D01*
X171753185Y-120697592D01*
X171719440Y-120735567D01*
X171702530Y-120746866D01*
X171693140Y-120753140D01*
X171648119Y-120820520D01*
X171636300Y-120879936D01*
X171636300Y-122620064D01*
X171648119Y-122679480D01*
X171693140Y-122746860D01*
X171760520Y-122791881D01*
X171819936Y-122803700D01*
X173560064Y-122803700D01*
X173619480Y-122791881D01*
X173686860Y-122746860D01*
X173731881Y-122679480D01*
X173743700Y-122620064D01*
X173743700Y-121735217D01*
X174171305Y-121735217D01*
X174188596Y-121941133D01*
X174245555Y-122139770D01*
X174340010Y-122323560D01*
X174468364Y-122485503D01*
X174625730Y-122619431D01*
X174806111Y-122720243D01*
X174810792Y-122721764D01*
X174997959Y-122782579D01*
X174997965Y-122782580D01*
X175002639Y-122784099D01*
X175007521Y-122784681D01*
X175007525Y-122784682D01*
X175202936Y-122807983D01*
X175202937Y-122807983D01*
X175207826Y-122808566D01*
X175413858Y-122792712D01*
X175418599Y-122791388D01*
X175418601Y-122791388D01*
X175608145Y-122738467D01*
X175612887Y-122737143D01*
X175797332Y-122643973D01*
X175960168Y-122516752D01*
X176095191Y-122360325D01*
X176197260Y-122180652D01*
X176242357Y-122045086D01*
X176260932Y-121989247D01*
X176260932Y-121989245D01*
X176262486Y-121984575D01*
X176270247Y-121923140D01*
X176288034Y-121782343D01*
X176288034Y-121782340D01*
X176288385Y-121779563D01*
X176288798Y-121750000D01*
X176287349Y-121735217D01*
X176275936Y-121618827D01*
X176268633Y-121544345D01*
X176267211Y-121539635D01*
X176267210Y-121539630D01*
X176210331Y-121351238D01*
X176210329Y-121351234D01*
X176208907Y-121346523D01*
X176111895Y-121164070D01*
X175981292Y-121003935D01*
X175852774Y-120897616D01*
X175825857Y-120875348D01*
X175825856Y-120875347D01*
X175822072Y-120872217D01*
X175640301Y-120773933D01*
X175606151Y-120763362D01*
X175555346Y-120727523D01*
X175535300Y-120667261D01*
X175535300Y-119774483D01*
X175554513Y-119715352D01*
X175564765Y-119703348D01*
X175646727Y-119621386D01*
X175697206Y-119513133D01*
X175703700Y-119463807D01*
X175703700Y-119014431D01*
X175701131Y-118994914D01*
X175698211Y-118972740D01*
X175697206Y-118965105D01*
X175646727Y-118856852D01*
X175562267Y-118772392D01*
X175454014Y-118721913D01*
X175435373Y-118719459D01*
X175407950Y-118715848D01*
X175407943Y-118715848D01*
X175404688Y-118715419D01*
X175055312Y-118715419D01*
X175052057Y-118715848D01*
X175052050Y-118715848D01*
X175024627Y-118719459D01*
X175005986Y-118721913D01*
X174897733Y-118772392D01*
X174813273Y-118856852D01*
X174762794Y-118965105D01*
X174761789Y-118972740D01*
X174758870Y-118994914D01*
X174756300Y-119014431D01*
X174756300Y-119463807D01*
X174762794Y-119513133D01*
X174813273Y-119621386D01*
X174895235Y-119703348D01*
X174923461Y-119758746D01*
X174924700Y-119774483D01*
X174924700Y-120666161D01*
X174905487Y-120725292D01*
X174852502Y-120762668D01*
X174838095Y-120766908D01*
X174838091Y-120766910D01*
X174833367Y-120768300D01*
X174829007Y-120770579D01*
X174829003Y-120770581D01*
X174666370Y-120855604D01*
X174650241Y-120864036D01*
X174646402Y-120867123D01*
X174646400Y-120867124D01*
X174608476Y-120897616D01*
X174489198Y-120993518D01*
X174486037Y-120997285D01*
X174486036Y-120997286D01*
X174451700Y-121038206D01*
X174356371Y-121151814D01*
X174256821Y-121332895D01*
X174255333Y-121337585D01*
X174255332Y-121337588D01*
X174196856Y-121521930D01*
X174194339Y-121529864D01*
X174193790Y-121534755D01*
X174193790Y-121534757D01*
X174184526Y-121617352D01*
X174171305Y-121735217D01*
X173743700Y-121735217D01*
X173743700Y-120879936D01*
X173731881Y-120820520D01*
X173686860Y-120753140D01*
X173619480Y-120708119D01*
X173609765Y-120706187D01*
X173609759Y-120706184D01*
X173609671Y-120706167D01*
X173609541Y-120706094D01*
X173600608Y-120702394D01*
X173601046Y-120701337D01*
X173555425Y-120675786D01*
X173529397Y-120619323D01*
X173528700Y-120607501D01*
X173528700Y-120389487D01*
X173529053Y-120381069D01*
X173532937Y-120334819D01*
X173532937Y-120334818D01*
X173533393Y-120329388D01*
X173522864Y-120250477D01*
X173522568Y-120248036D01*
X173520662Y-120230494D01*
X173513965Y-120168840D01*
X173512227Y-120163674D01*
X173511175Y-120158890D01*
X173510014Y-120154164D01*
X173509293Y-120148762D01*
X173482046Y-120073903D01*
X173481241Y-120071604D01*
X173473073Y-120047331D01*
X173455842Y-119996131D01*
X173453038Y-119991464D01*
X173450997Y-119987047D01*
X173448833Y-119982649D01*
X173446968Y-119977526D01*
X173432406Y-119954580D01*
X173404295Y-119910285D01*
X173403003Y-119908193D01*
X173364793Y-119844601D01*
X173364792Y-119844600D01*
X173361988Y-119839933D01*
X173358248Y-119835978D01*
X173354950Y-119831633D01*
X173355258Y-119831399D01*
X173354333Y-119830211D01*
X173354026Y-119830443D01*
X173351535Y-119827150D01*
X173349325Y-119823667D01*
X173345588Y-119819487D01*
X173292593Y-119766492D01*
X173290634Y-119764478D01*
X173240522Y-119711486D01*
X173240523Y-119711486D01*
X173236783Y-119707532D01*
X173232281Y-119704473D01*
X173228128Y-119700938D01*
X173228266Y-119700776D01*
X173220227Y-119694126D01*
X168570974Y-115044873D01*
X168565271Y-115038671D01*
X168535309Y-115003215D01*
X168535307Y-115003213D01*
X168531794Y-114999056D01*
X168468533Y-114950689D01*
X168466610Y-114949181D01*
X168422566Y-114913769D01*
X168404532Y-114899269D01*
X168399652Y-114896846D01*
X168395561Y-114894230D01*
X168391362Y-114891687D01*
X168387031Y-114888376D01*
X168367530Y-114879283D01*
X168314874Y-114854728D01*
X168312661Y-114853663D01*
X168246188Y-114820667D01*
X168246189Y-114820667D01*
X168241309Y-114818245D01*
X168236028Y-114816928D01*
X168231427Y-114815235D01*
X168226809Y-114813663D01*
X168221878Y-114811364D01*
X168216566Y-114810177D01*
X168216561Y-114810175D01*
X168144167Y-114793994D01*
X168141807Y-114793437D01*
X168064495Y-114774161D01*
X168059052Y-114774009D01*
X168053650Y-114773269D01*
X168053703Y-114772886D01*
X168052212Y-114772700D01*
X168052159Y-114773081D01*
X168048069Y-114772514D01*
X168044040Y-114771613D01*
X168039878Y-114771380D01*
X168039858Y-114771379D01*
X168039852Y-114771379D01*
X168038442Y-114771300D01*
X167963482Y-114771300D01*
X167960673Y-114771261D01*
X167887786Y-114769225D01*
X167887785Y-114769225D01*
X167882340Y-114769073D01*
X167876988Y-114770094D01*
X167871558Y-114770531D01*
X167871541Y-114770318D01*
X167861156Y-114771300D01*
X161399071Y-114771300D01*
X161339940Y-114752087D01*
X161327936Y-114741835D01*
X160290974Y-113704873D01*
X160285271Y-113698671D01*
X160255309Y-113663215D01*
X160255307Y-113663213D01*
X160251794Y-113659056D01*
X160188533Y-113610689D01*
X160186610Y-113609181D01*
X160162398Y-113589714D01*
X160124532Y-113559269D01*
X160119652Y-113556846D01*
X160115561Y-113554230D01*
X160111362Y-113551687D01*
X160107031Y-113548376D01*
X160064259Y-113528431D01*
X160034874Y-113514728D01*
X160032661Y-113513663D01*
X159966188Y-113480667D01*
X159966189Y-113480667D01*
X159961309Y-113478245D01*
X159956028Y-113476928D01*
X159951427Y-113475235D01*
X159946809Y-113473663D01*
X159941878Y-113471364D01*
X159936566Y-113470177D01*
X159936561Y-113470175D01*
X159864167Y-113453994D01*
X159861807Y-113453437D01*
X159784495Y-113434161D01*
X159779052Y-113434009D01*
X159773650Y-113433269D01*
X159773703Y-113432886D01*
X159772212Y-113432700D01*
X159772159Y-113433081D01*
X159768069Y-113432514D01*
X159764040Y-113431613D01*
X159759878Y-113431380D01*
X159759858Y-113431379D01*
X159759852Y-113431379D01*
X159758442Y-113431300D01*
X159683483Y-113431300D01*
X159680675Y-113431261D01*
X159674583Y-113431091D01*
X159644716Y-113430256D01*
X159639110Y-113429942D01*
X159604820Y-113427063D01*
X159604819Y-113427063D01*
X159599388Y-113426607D01*
X159569178Y-113430638D01*
X159520477Y-113437136D01*
X159518036Y-113437432D01*
X159500494Y-113439338D01*
X159438840Y-113446035D01*
X159433674Y-113447773D01*
X159428890Y-113448825D01*
X159424164Y-113449986D01*
X159418762Y-113450707D01*
X159343903Y-113477954D01*
X159341625Y-113478752D01*
X159266131Y-113504158D01*
X159261464Y-113506962D01*
X159257047Y-113509003D01*
X159252649Y-113511167D01*
X159247526Y-113513032D01*
X159242921Y-113515954D01*
X159242922Y-113515954D01*
X159180285Y-113555705D01*
X159178193Y-113556997D01*
X159114601Y-113595207D01*
X159109933Y-113598012D01*
X159105978Y-113601752D01*
X159101633Y-113605050D01*
X159101399Y-113604742D01*
X159100211Y-113605667D01*
X159100443Y-113605974D01*
X159097150Y-113608465D01*
X159093667Y-113610675D01*
X159089487Y-113614412D01*
X159036492Y-113667407D01*
X159034478Y-113669366D01*
X158977532Y-113723217D01*
X158974473Y-113727719D01*
X158970938Y-113731872D01*
X158970776Y-113731734D01*
X158964126Y-113739773D01*
X157377064Y-115326835D01*
X157321666Y-115355061D01*
X157305929Y-115356300D01*
X155520465Y-115356300D01*
X155512047Y-115355947D01*
X155465797Y-115352063D01*
X155465796Y-115352063D01*
X155460366Y-115351607D01*
X155439768Y-115354355D01*
X155431818Y-115355416D01*
X155418513Y-115356300D01*
X155379893Y-115356300D01*
X155320762Y-115337087D01*
X155308758Y-115326835D01*
X153214658Y-113232735D01*
X153186432Y-113177337D01*
X153196158Y-113115929D01*
X153214658Y-113090465D01*
X153765127Y-112539996D01*
X153771329Y-112534293D01*
X153806785Y-112504331D01*
X153806787Y-112504329D01*
X153810944Y-112500816D01*
X153859311Y-112437555D01*
X153860819Y-112435632D01*
X153882164Y-112409084D01*
X153910731Y-112373554D01*
X153913154Y-112368674D01*
X153915770Y-112364583D01*
X153918313Y-112360384D01*
X153921624Y-112356053D01*
X153939967Y-112316717D01*
X153955272Y-112283896D01*
X153956337Y-112281683D01*
X153989333Y-112215210D01*
X153991755Y-112210331D01*
X153993072Y-112205050D01*
X153994765Y-112200449D01*
X153996337Y-112195831D01*
X153998636Y-112190900D01*
X153999823Y-112185588D01*
X153999825Y-112185583D01*
X154016006Y-112113189D01*
X154016571Y-112110795D01*
X154024140Y-112080440D01*
X154035839Y-112033517D01*
X154035991Y-112028074D01*
X154036731Y-112022672D01*
X154037114Y-112022725D01*
X154037300Y-112021234D01*
X154036919Y-112021181D01*
X154037486Y-112017091D01*
X154038387Y-112013062D01*
X154038700Y-112007464D01*
X154038700Y-111932524D01*
X154038739Y-111929715D01*
X154040776Y-111856808D01*
X154040776Y-111856807D01*
X154040928Y-111851362D01*
X154039907Y-111846010D01*
X154039470Y-111840580D01*
X154039682Y-111840563D01*
X154038700Y-111830173D01*
X154038700Y-109224480D01*
X154034038Y-109181558D01*
X154024553Y-109094251D01*
X154024553Y-109094249D01*
X154023965Y-109088840D01*
X153965842Y-108916131D01*
X153963036Y-108911461D01*
X153874793Y-108764601D01*
X153874792Y-108764600D01*
X153871988Y-108759933D01*
X153746783Y-108627532D01*
X153711110Y-108603289D01*
X153673003Y-108554161D01*
X153671051Y-108492018D01*
X153702723Y-108443247D01*
X153710458Y-108436711D01*
X153810944Y-108351794D01*
X153921624Y-108207031D01*
X153998636Y-108041878D01*
X154038387Y-107864040D01*
X154038700Y-107858442D01*
X154038700Y-104605769D01*
X154038989Y-104598148D01*
X154042048Y-104557879D01*
X154043203Y-104542679D01*
X154032564Y-104467509D01*
X154032163Y-104464308D01*
X154024553Y-104394255D01*
X154023965Y-104388840D01*
X154022227Y-104383674D01*
X154021058Y-104378359D01*
X154021063Y-104378358D01*
X154019776Y-104372926D01*
X154019772Y-104372927D01*
X154018429Y-104367643D01*
X154017666Y-104362251D01*
X153991142Y-104291141D01*
X153990054Y-104288075D01*
X153989681Y-104286965D01*
X153981761Y-104263433D01*
X153967581Y-104221297D01*
X153967579Y-104221294D01*
X153965842Y-104216131D01*
X153963036Y-104211460D01*
X153960751Y-104206516D01*
X153960755Y-104206514D01*
X153957189Y-104199113D01*
X153957177Y-104199119D01*
X153956624Y-104197941D01*
X153955530Y-104195671D01*
X153953980Y-104191515D01*
X153951189Y-104186653D01*
X153912293Y-104126886D01*
X153910380Y-104123828D01*
X153874792Y-104064599D01*
X153874790Y-104064597D01*
X153871988Y-104059933D01*
X153867767Y-104055470D01*
X153856540Y-104041218D01*
X153674301Y-103761191D01*
X151735616Y-100782237D01*
X151735612Y-100782230D01*
X151204681Y-99966408D01*
X159161997Y-99966408D01*
X159178573Y-100669762D01*
X159189155Y-100805736D01*
X159221537Y-101221832D01*
X159233160Y-101371190D01*
X159325601Y-102068640D01*
X159455623Y-102760070D01*
X159622847Y-103443457D01*
X159623246Y-103444774D01*
X159810972Y-104064599D01*
X159826782Y-104116800D01*
X159827243Y-104118071D01*
X159827245Y-104118076D01*
X160065022Y-104773140D01*
X160066833Y-104778130D01*
X160342297Y-105425510D01*
X160652367Y-106057046D01*
X160653026Y-106058222D01*
X160653034Y-106058238D01*
X160780936Y-106286623D01*
X160996136Y-106670890D01*
X161372598Y-107265245D01*
X161780651Y-107838371D01*
X161781479Y-107839411D01*
X161781488Y-107839422D01*
X161804317Y-107868070D01*
X162219101Y-108388592D01*
X162219980Y-108389580D01*
X162219989Y-108389591D01*
X162435134Y-108631489D01*
X162686664Y-108914297D01*
X162687612Y-108915254D01*
X162687623Y-108915265D01*
X162880720Y-109110054D01*
X163181973Y-109413947D01*
X163182973Y-109414853D01*
X163182976Y-109414855D01*
X163686338Y-109870475D01*
X163703578Y-109886080D01*
X163870549Y-110021532D01*
X164248477Y-110328119D01*
X164249951Y-110329315D01*
X164251043Y-110330107D01*
X164251047Y-110330110D01*
X164818387Y-110741551D01*
X164818400Y-110741560D01*
X164819495Y-110742354D01*
X165410542Y-111123988D01*
X165411706Y-111124654D01*
X165411722Y-111124663D01*
X165725989Y-111304281D01*
X166021363Y-111473101D01*
X166022556Y-111473700D01*
X166022564Y-111473704D01*
X166276387Y-111601086D01*
X166650169Y-111788670D01*
X166973777Y-111929715D01*
X167293878Y-112069232D01*
X167293888Y-112069236D01*
X167295120Y-112069773D01*
X167296389Y-112070246D01*
X167296391Y-112070247D01*
X167894929Y-112293435D01*
X167954330Y-112315585D01*
X167955612Y-112315986D01*
X167955628Y-112315991D01*
X168624568Y-112524983D01*
X168625868Y-112525389D01*
X168627177Y-112525721D01*
X168627186Y-112525724D01*
X168770406Y-112562097D01*
X169307770Y-112698570D01*
X169309072Y-112698827D01*
X169309087Y-112698830D01*
X169898038Y-112814911D01*
X169998039Y-112834621D01*
X170694655Y-112933144D01*
X170696007Y-112933261D01*
X170696015Y-112933262D01*
X171031857Y-112962349D01*
X171395580Y-112993851D01*
X171396935Y-112993895D01*
X171396939Y-112993895D01*
X171905092Y-113010308D01*
X172098763Y-113016564D01*
X172672629Y-113004042D01*
X172800770Y-113001246D01*
X172800771Y-113001246D01*
X172802144Y-113001216D01*
X173503667Y-112947852D01*
X174201277Y-112856630D01*
X174202609Y-112856382D01*
X174891570Y-112728068D01*
X174891582Y-112728065D01*
X174892932Y-112727814D01*
X175576610Y-112561784D01*
X176250308Y-112359023D01*
X176371957Y-112315107D01*
X176910768Y-112120592D01*
X176910769Y-112120592D01*
X176912056Y-112120127D01*
X177546767Y-111851362D01*
X177558674Y-111846320D01*
X177558677Y-111846319D01*
X177559916Y-111845794D01*
X177561120Y-111845205D01*
X177561132Y-111845200D01*
X178190767Y-111537426D01*
X178190773Y-111537423D01*
X178191992Y-111536827D01*
X178806435Y-111194129D01*
X179401446Y-110818706D01*
X179755193Y-110567775D01*
X179974195Y-110412426D01*
X179974207Y-110412417D01*
X179975284Y-110411653D01*
X179976323Y-110410828D01*
X179976335Y-110410819D01*
X180364001Y-110103007D01*
X180526269Y-109974164D01*
X180624683Y-109886942D01*
X180835333Y-109700246D01*
X181052789Y-109507519D01*
X181122554Y-109438601D01*
X181552346Y-109014029D01*
X181552357Y-109014017D01*
X181553303Y-109013083D01*
X182026346Y-108492303D01*
X182195914Y-108284022D01*
X182469676Y-107947758D01*
X182469678Y-107947756D01*
X182470534Y-107946704D01*
X182884566Y-107377882D01*
X183267231Y-106787502D01*
X183366905Y-106613814D01*
X183616737Y-106178463D01*
X183617409Y-106177292D01*
X183934076Y-105549037D01*
X184216303Y-104904577D01*
X184463266Y-104245798D01*
X184674242Y-103574627D01*
X184848613Y-102893028D01*
X184985869Y-102202998D01*
X185085607Y-101506555D01*
X185147537Y-100805736D01*
X185148338Y-100782230D01*
X185171450Y-100103377D01*
X185171477Y-100102595D01*
X185171794Y-100011804D01*
X185152763Y-99308512D01*
X185149186Y-99264531D01*
X185095838Y-98608626D01*
X185095836Y-98608610D01*
X185095728Y-98607279D01*
X185000853Y-97910156D01*
X184868418Y-97219184D01*
X184698810Y-96536385D01*
X184685804Y-96493975D01*
X184664763Y-96425370D01*
X184492525Y-95863758D01*
X184250167Y-95203270D01*
X184232609Y-95162402D01*
X183972990Y-94558121D01*
X183972983Y-94558105D01*
X183972446Y-94556856D01*
X183951451Y-94514468D01*
X183660773Y-93927618D01*
X183660173Y-93926406D01*
X183637882Y-93886925D01*
X183535329Y-93705295D01*
X183314264Y-93313766D01*
X182935729Y-92720729D01*
X182525678Y-92149030D01*
X182085310Y-91600343D01*
X181615915Y-91076274D01*
X181583044Y-91043345D01*
X181119809Y-90579301D01*
X181118865Y-90578355D01*
X180595615Y-90108046D01*
X180560288Y-90079591D01*
X180048768Y-89667583D01*
X180047698Y-89666721D01*
X179476715Y-89255672D01*
X178884340Y-88876104D01*
X178272305Y-88529125D01*
X177642401Y-88215753D01*
X177301508Y-88068588D01*
X176997726Y-87937444D01*
X176997715Y-87937440D01*
X176996472Y-87936903D01*
X176336408Y-87693393D01*
X176335099Y-87692989D01*
X176335090Y-87692986D01*
X175665458Y-87486341D01*
X175665454Y-87486340D01*
X175664142Y-87485935D01*
X175662805Y-87485601D01*
X175662800Y-87485599D01*
X175473709Y-87438278D01*
X174981640Y-87315135D01*
X174932936Y-87305712D01*
X174292265Y-87181758D01*
X174292262Y-87181757D01*
X174290900Y-87181494D01*
X173913067Y-87129401D01*
X173595303Y-87085590D01*
X173595290Y-87085589D01*
X173593944Y-87085403D01*
X173533650Y-87080393D01*
X172894188Y-87027258D01*
X172894173Y-87027257D01*
X172892811Y-87027144D01*
X172891448Y-87027105D01*
X172891435Y-87027104D01*
X172578439Y-87018088D01*
X172189554Y-87006886D01*
X171486230Y-87024689D01*
X171173328Y-87049590D01*
X170786250Y-87080393D01*
X170786235Y-87080395D01*
X170784898Y-87080501D01*
X170783557Y-87080681D01*
X170783558Y-87080681D01*
X170088943Y-87173979D01*
X170088940Y-87173980D01*
X170087611Y-87174158D01*
X170086307Y-87174406D01*
X170086292Y-87174408D01*
X169397735Y-87305135D01*
X169397726Y-87305137D01*
X169396409Y-87305387D01*
X169395097Y-87305710D01*
X169395090Y-87305712D01*
X168714623Y-87473480D01*
X168714605Y-87473485D01*
X168713315Y-87473803D01*
X168712042Y-87474191D01*
X168712031Y-87474194D01*
X168381716Y-87574867D01*
X168040329Y-87678914D01*
X168039054Y-87679379D01*
X168039043Y-87679383D01*
X167380690Y-87919654D01*
X167379419Y-87920118D01*
X167378191Y-87920643D01*
X167378181Y-87920647D01*
X167334261Y-87939426D01*
X166732521Y-88196711D01*
X166731301Y-88197313D01*
X166731285Y-88197320D01*
X166395221Y-88363049D01*
X166101527Y-88507883D01*
X165488284Y-88852723D01*
X165487123Y-88853461D01*
X165487120Y-88853463D01*
X165092843Y-89104162D01*
X164894587Y-89230222D01*
X164322174Y-89639274D01*
X163772719Y-90078684D01*
X163247831Y-90547164D01*
X162749046Y-91043345D01*
X162277824Y-91565772D01*
X161835543Y-92112919D01*
X161423499Y-92683183D01*
X161422782Y-92684298D01*
X161422775Y-92684308D01*
X161397716Y-92723267D01*
X161042897Y-93274895D01*
X160694851Y-93886324D01*
X160694235Y-93887556D01*
X160536328Y-94203577D01*
X160380379Y-94515680D01*
X160379843Y-94516916D01*
X160379841Y-94516920D01*
X160100946Y-95159868D01*
X160100939Y-95159884D01*
X160100403Y-95161121D01*
X159855741Y-95820759D01*
X159647110Y-96492662D01*
X159646779Y-96493975D01*
X159475451Y-97173546D01*
X159475447Y-97173565D01*
X159475119Y-97174865D01*
X159340273Y-97865370D01*
X159242966Y-98562157D01*
X159225649Y-98766249D01*
X159185305Y-99241718D01*
X159183483Y-99263187D01*
X159165900Y-99838673D01*
X159161997Y-99966408D01*
X151204681Y-99966408D01*
X151083023Y-99779470D01*
X151083018Y-99779463D01*
X150508928Y-98897325D01*
X150508924Y-98897319D01*
X150507445Y-98895047D01*
X150421110Y-98789399D01*
X150278189Y-98676348D01*
X150114328Y-98596626D01*
X150109030Y-98595350D01*
X150109028Y-98595349D01*
X149942472Y-98555226D01*
X149942468Y-98555225D01*
X149937169Y-98553949D01*
X149931718Y-98553840D01*
X149931717Y-98553840D01*
X149852056Y-98552249D01*
X149754980Y-98550311D01*
X149749635Y-98551375D01*
X149749632Y-98551375D01*
X149688743Y-98563493D01*
X149576259Y-98585879D01*
X149409344Y-98658995D01*
X149262024Y-98766249D01*
X149141173Y-98902636D01*
X149052427Y-99061792D01*
X148999928Y-99236292D01*
X148986124Y-99417994D01*
X149011661Y-99598422D01*
X149075347Y-99769158D01*
X149078138Y-99774020D01*
X149078899Y-99775189D01*
X149078900Y-99775191D01*
X149653712Y-100658437D01*
X149653715Y-100658443D01*
X150233230Y-101548918D01*
X150233234Y-101548924D01*
X151327155Y-103229827D01*
X151343305Y-103289867D01*
X151321081Y-103347933D01*
X151268970Y-103381847D01*
X151242838Y-103385300D01*
X150813896Y-103385300D01*
X150800765Y-103384439D01*
X150775518Y-103381115D01*
X150768978Y-103380254D01*
X150762438Y-103381115D01*
X150622880Y-103399489D01*
X150622879Y-103399489D01*
X150616341Y-103400350D01*
X150610249Y-103402874D01*
X150610247Y-103402874D01*
X150480196Y-103456743D01*
X150480193Y-103456745D01*
X150474106Y-103459266D01*
X150351965Y-103552987D01*
X150332445Y-103578427D01*
X150323776Y-103588311D01*
X149653319Y-104258769D01*
X149643425Y-104267446D01*
X149617987Y-104286965D01*
X149564748Y-104356348D01*
X149524266Y-104409105D01*
X149520846Y-104417362D01*
X149465350Y-104551341D01*
X149450300Y-104665657D01*
X149445255Y-104703978D01*
X149446116Y-104710518D01*
X149449439Y-104735759D01*
X149450300Y-104748890D01*
X149450300Y-105708321D01*
X149465350Y-105822637D01*
X149467872Y-105828726D01*
X149467873Y-105828729D01*
X149498642Y-105903010D01*
X149506300Y-105941508D01*
X149506300Y-106440064D01*
X149518119Y-106499480D01*
X149563140Y-106566860D01*
X149630520Y-106611881D01*
X149689936Y-106623700D01*
X150380064Y-106623700D01*
X150439480Y-106611881D01*
X150506860Y-106566860D01*
X150551881Y-106499480D01*
X150563700Y-106440064D01*
X150563700Y-105941508D01*
X150571358Y-105903010D01*
X150582758Y-105875488D01*
X150623137Y-105828210D01*
X150683593Y-105813696D01*
X150741035Y-105837489D01*
X150773520Y-105890501D01*
X150776300Y-105913986D01*
X150776300Y-106440064D01*
X150788119Y-106499480D01*
X150833140Y-106566860D01*
X150900520Y-106611881D01*
X150959936Y-106623700D01*
X151650064Y-106623700D01*
X151709480Y-106611881D01*
X151776860Y-106566860D01*
X151821881Y-106499480D01*
X151833700Y-106440064D01*
X151833700Y-104899936D01*
X151821881Y-104840520D01*
X151776860Y-104773140D01*
X151725684Y-104738946D01*
X151687192Y-104690120D01*
X151684751Y-104627994D01*
X151719292Y-104576298D01*
X151781574Y-104554700D01*
X152134817Y-104554700D01*
X152193948Y-104573913D01*
X152219133Y-104600426D01*
X152237074Y-104627994D01*
X152345017Y-104793858D01*
X152361300Y-104848731D01*
X152361300Y-107815520D01*
X152361593Y-107818214D01*
X152361593Y-107818220D01*
X152375447Y-107945749D01*
X152376035Y-107951160D01*
X152434158Y-108123869D01*
X152436964Y-108128539D01*
X152481160Y-108202092D01*
X152528012Y-108280067D01*
X152653217Y-108412468D01*
X152688890Y-108436711D01*
X152726997Y-108485839D01*
X152728949Y-108547982D01*
X152697278Y-108596752D01*
X152589056Y-108688206D01*
X152478376Y-108832969D01*
X152476073Y-108837908D01*
X152404436Y-108991535D01*
X152401364Y-108998122D01*
X152361613Y-109175960D01*
X152361300Y-109181558D01*
X152361300Y-109264741D01*
X152342087Y-109323872D01*
X152291787Y-109360417D01*
X152229613Y-109360417D01*
X152199461Y-109344554D01*
X152189101Y-109336604D01*
X152042243Y-109275774D01*
X152035707Y-109274914D01*
X152035705Y-109274913D01*
X151891186Y-109255887D01*
X151884646Y-109255026D01*
X151878106Y-109255887D01*
X151733587Y-109274913D01*
X151733585Y-109274914D01*
X151727049Y-109275774D01*
X151642758Y-109310688D01*
X151586282Y-109334081D01*
X151586279Y-109334083D01*
X151580192Y-109336604D01*
X151454082Y-109433371D01*
X151357315Y-109559481D01*
X151296485Y-109706338D01*
X151275737Y-109863935D01*
X151276598Y-109870475D01*
X151293988Y-110002569D01*
X151282658Y-110063702D01*
X151237558Y-110106500D01*
X151194249Y-110116300D01*
X150959936Y-110116300D01*
X150900520Y-110128119D01*
X150833140Y-110173140D01*
X150827635Y-110181379D01*
X150797111Y-110227063D01*
X150788119Y-110240520D01*
X150776300Y-110299936D01*
X150776300Y-110826014D01*
X150757087Y-110885145D01*
X150706787Y-110921690D01*
X150644613Y-110921690D01*
X150594313Y-110885145D01*
X150582758Y-110864512D01*
X150576540Y-110849499D01*
X150571358Y-110836990D01*
X150563700Y-110798492D01*
X150563700Y-110299936D01*
X150551881Y-110240520D01*
X150542890Y-110227063D01*
X150512365Y-110181379D01*
X150506860Y-110173140D01*
X150439480Y-110128119D01*
X150380064Y-110116300D01*
X149689936Y-110116300D01*
X149630520Y-110128119D01*
X149563140Y-110173140D01*
X149557635Y-110181379D01*
X149527111Y-110227063D01*
X149518119Y-110240520D01*
X149506300Y-110299936D01*
X149506300Y-110798492D01*
X149498642Y-110836990D01*
X149493461Y-110849499D01*
X149487242Y-110864512D01*
X149446863Y-110911790D01*
X149386407Y-110926304D01*
X149328965Y-110902511D01*
X149296480Y-110849499D01*
X149293700Y-110826014D01*
X149293700Y-110299936D01*
X149281881Y-110240520D01*
X149272890Y-110227063D01*
X149242365Y-110181379D01*
X149236860Y-110173140D01*
X149169480Y-110128119D01*
X149110064Y-110116300D01*
X148419936Y-110116300D01*
X148360520Y-110128119D01*
X148293140Y-110173140D01*
X148287635Y-110181379D01*
X148284153Y-110186590D01*
X148235326Y-110225082D01*
X148200507Y-110231300D01*
X148059493Y-110231300D01*
X148000362Y-110212087D01*
X147975847Y-110186590D01*
X147972365Y-110181379D01*
X147966860Y-110173140D01*
X147899480Y-110128119D01*
X147840064Y-110116300D01*
X147149936Y-110116300D01*
X147090520Y-110128119D01*
X147023140Y-110173140D01*
X147017635Y-110181379D01*
X147014153Y-110186590D01*
X146965326Y-110225082D01*
X146930507Y-110231300D01*
X145439487Y-110231300D01*
X145431069Y-110230947D01*
X145384819Y-110227063D01*
X145384818Y-110227063D01*
X145379388Y-110226607D01*
X145349178Y-110230638D01*
X145300477Y-110237136D01*
X145298036Y-110237432D01*
X145280494Y-110239338D01*
X145218840Y-110246035D01*
X145213674Y-110247773D01*
X145208890Y-110248825D01*
X145204164Y-110249986D01*
X145198762Y-110250707D01*
X145123903Y-110277954D01*
X145121625Y-110278752D01*
X145082644Y-110291870D01*
X145058677Y-110299936D01*
X145046131Y-110304158D01*
X145041463Y-110306963D01*
X145041337Y-110307021D01*
X144999138Y-110316300D01*
X140249436Y-110316300D01*
X140190020Y-110328119D01*
X140122640Y-110373140D01*
X140077619Y-110440520D01*
X140065800Y-110499936D01*
X140065800Y-112990064D01*
X140077619Y-113049480D01*
X140122640Y-113116860D01*
X140190020Y-113161881D01*
X140249436Y-113173700D01*
X146189564Y-113173700D01*
X146248980Y-113161881D01*
X146316360Y-113116860D01*
X146361381Y-113049480D01*
X146373200Y-112990064D01*
X146373200Y-112009300D01*
X146392413Y-111950169D01*
X146442713Y-111913624D01*
X146473800Y-111908700D01*
X146780200Y-111908700D01*
X146839331Y-111927913D01*
X146875876Y-111978213D01*
X146880800Y-112009300D01*
X146880800Y-112832120D01*
X146881092Y-112834810D01*
X146881093Y-112834820D01*
X146894947Y-112962349D01*
X146895535Y-112967760D01*
X146897271Y-112972917D01*
X146897271Y-112972919D01*
X146911949Y-113016534D01*
X146953658Y-113140469D01*
X146956464Y-113145139D01*
X146973046Y-113172735D01*
X147047512Y-113296667D01*
X147172717Y-113429068D01*
X147323433Y-113531494D01*
X147328483Y-113533514D01*
X147328487Y-113533516D01*
X147422207Y-113571001D01*
X147492627Y-113599167D01*
X147672406Y-113628930D01*
X147677846Y-113628645D01*
X147677847Y-113628645D01*
X147746980Y-113625022D01*
X147807036Y-113641114D01*
X147846163Y-113689433D01*
X147849417Y-113751522D01*
X147823380Y-113796619D01*
X147094262Y-114525737D01*
X147008769Y-114632068D01*
X146927745Y-114795291D01*
X146913057Y-114854201D01*
X146888999Y-114950697D01*
X146883661Y-114972105D01*
X146883509Y-114977547D01*
X146880610Y-115081351D01*
X146878573Y-115154260D01*
X146912719Y-115333258D01*
X146914865Y-115338266D01*
X146914866Y-115338268D01*
X146922216Y-115355416D01*
X146984505Y-115500748D01*
X147090582Y-115648917D01*
X147226003Y-115770850D01*
X147230741Y-115773542D01*
X147230743Y-115773543D01*
X147325857Y-115827575D01*
X147384448Y-115860859D01*
X147389657Y-115862471D01*
X147389656Y-115862471D01*
X147529932Y-115905893D01*
X147558525Y-115914744D01*
X147694366Y-115926151D01*
X147734681Y-115929537D01*
X147734682Y-115929537D01*
X147740112Y-115929993D01*
X147774815Y-115925363D01*
X147915338Y-115906614D01*
X147915343Y-115906613D01*
X147920738Y-115905893D01*
X148091974Y-115843568D01*
X148245833Y-115745925D01*
X148250013Y-115742188D01*
X149962436Y-114029765D01*
X150017834Y-114001539D01*
X150033571Y-114000300D01*
X151568351Y-114000300D01*
X151627482Y-114019513D01*
X151639486Y-114029765D01*
X153978664Y-116368943D01*
X154006890Y-116424341D01*
X153997164Y-116485749D01*
X153978664Y-116511213D01*
X153639873Y-116850004D01*
X153633672Y-116855706D01*
X153594056Y-116889184D01*
X153569712Y-116921025D01*
X153545697Y-116952435D01*
X153544181Y-116954368D01*
X153530588Y-116971274D01*
X153494269Y-117016446D01*
X153491846Y-117021326D01*
X153489230Y-117025417D01*
X153486687Y-117029616D01*
X153483376Y-117033947D01*
X153481073Y-117038886D01*
X153449728Y-117106104D01*
X153448663Y-117108317D01*
X153435766Y-117134300D01*
X153413245Y-117179669D01*
X153411928Y-117184950D01*
X153410235Y-117189551D01*
X153408663Y-117194169D01*
X153406364Y-117199100D01*
X153405177Y-117204412D01*
X153405175Y-117204417D01*
X153388994Y-117276811D01*
X153388437Y-117279171D01*
X153369161Y-117356483D01*
X153369009Y-117361926D01*
X153368269Y-117367328D01*
X153367886Y-117367275D01*
X153367700Y-117368766D01*
X153368081Y-117368819D01*
X153367514Y-117372909D01*
X153366613Y-117376938D01*
X153366300Y-117382536D01*
X153366300Y-117457496D01*
X153366261Y-117460305D01*
X153365004Y-117505325D01*
X153364073Y-117538638D01*
X153365094Y-117543990D01*
X153365531Y-117549420D01*
X153365318Y-117549437D01*
X153366300Y-117559822D01*
X153366300Y-120196000D01*
X153366593Y-120198694D01*
X153366593Y-120198700D01*
X153372083Y-120249234D01*
X153381035Y-120331640D01*
X153439158Y-120504349D01*
X153441964Y-120509019D01*
X153486160Y-120582572D01*
X153533012Y-120660547D01*
X153536752Y-120664502D01*
X153638860Y-120772478D01*
X153658217Y-120792948D01*
X153662726Y-120796012D01*
X153673898Y-120803605D01*
X153712005Y-120852733D01*
X153713957Y-120914876D01*
X153682285Y-120963647D01*
X153642479Y-120997286D01*
X153594056Y-121038206D01*
X153483376Y-121182969D01*
X153481073Y-121187908D01*
X153415753Y-121327988D01*
X153406364Y-121348122D01*
X153366613Y-121525960D01*
X153366300Y-121531558D01*
X153366300Y-123395700D01*
X153347087Y-123454831D01*
X153296787Y-123491376D01*
X153265700Y-123496300D01*
X138199480Y-123496300D01*
X138196786Y-123496593D01*
X138196780Y-123496593D01*
X138069251Y-123510447D01*
X138069249Y-123510447D01*
X138063840Y-123511035D01*
X138058683Y-123512771D01*
X138058681Y-123512771D01*
X138053508Y-123514512D01*
X137891131Y-123569158D01*
X137734933Y-123663012D01*
X137602532Y-123788217D01*
X137500106Y-123938933D01*
X137498086Y-123943983D01*
X137498084Y-123943987D01*
X137434456Y-124103069D01*
X137432433Y-124108127D01*
X137402670Y-124287906D01*
X111836149Y-124287906D01*
X111851538Y-124147392D01*
X111851538Y-124147390D01*
X111851858Y-124144469D01*
X111851625Y-124114733D01*
X111849260Y-123813695D01*
X111849237Y-123810754D01*
X111819827Y-123576304D01*
X111808065Y-123482540D01*
X111808064Y-123482537D01*
X111807699Y-123479624D01*
X111800024Y-123448492D01*
X111785628Y-123390103D01*
X111727812Y-123155601D01*
X111610666Y-122843112D01*
X111597545Y-122817635D01*
X111459208Y-122549038D01*
X111459206Y-122549035D01*
X111457862Y-122546425D01*
X111271486Y-122269591D01*
X111054086Y-122016393D01*
X111036549Y-122000238D01*
X110810796Y-121792284D01*
X110810795Y-121792283D01*
X110808629Y-121790288D01*
X110538468Y-121594365D01*
X110457899Y-121549244D01*
X110249866Y-121432739D01*
X110249861Y-121432736D01*
X110247294Y-121431299D01*
X109939084Y-121303319D01*
X109849565Y-121277903D01*
X109620877Y-121212975D01*
X109620869Y-121212973D01*
X109618047Y-121212172D01*
X109615151Y-121211706D01*
X109615144Y-121211704D01*
X109291269Y-121159538D01*
X109291268Y-121159538D01*
X109288568Y-121159103D01*
X109285843Y-121158965D01*
X109285834Y-121158964D01*
X109100287Y-121149565D01*
X109100277Y-121149565D01*
X109098999Y-121149500D01*
X108914324Y-121149500D01*
X108912858Y-121149586D01*
X108912852Y-121149586D01*
X108820770Y-121154976D01*
X108666845Y-121163986D01*
X108502542Y-121193105D01*
X108341144Y-121221709D01*
X108341139Y-121221710D01*
X108338240Y-121222224D01*
X108335428Y-121223070D01*
X108335421Y-121223072D01*
X108071465Y-121302514D01*
X108018675Y-121318402D01*
X108015988Y-121319567D01*
X108015984Y-121319569D01*
X107950160Y-121348122D01*
X107712512Y-121451208D01*
X107709964Y-121452688D01*
X107453543Y-121601630D01*
X107423936Y-121618827D01*
X107421592Y-121620583D01*
X107421587Y-121620587D01*
X107205756Y-121782343D01*
X107156886Y-121818969D01*
X107154746Y-121821003D01*
X107154744Y-121821005D01*
X106946851Y-122018633D01*
X106915011Y-122048901D01*
X106913140Y-122051150D01*
X106913134Y-122051157D01*
X106703493Y-122303223D01*
X106703488Y-122303230D01*
X106701614Y-122305483D01*
X106700013Y-122307943D01*
X106700009Y-122307949D01*
X106665931Y-122360325D01*
X106519610Y-122585210D01*
X106518308Y-122587840D01*
X106518305Y-122587844D01*
X106445455Y-122734923D01*
X106371485Y-122884261D01*
X106370501Y-122887018D01*
X106370498Y-122887024D01*
X106275585Y-123152838D01*
X106259262Y-123198552D01*
X106184474Y-123523789D01*
X106184154Y-123526714D01*
X106184153Y-123526718D01*
X106158130Y-123764334D01*
X106148142Y-123855531D01*
X105306301Y-123855531D01*
X105323083Y-123589529D01*
X105324201Y-123579637D01*
X105381671Y-123228059D01*
X105383761Y-123218324D01*
X105475709Y-122874137D01*
X105478752Y-122864656D01*
X105604271Y-122531251D01*
X105608232Y-122522126D01*
X105766102Y-122202750D01*
X105770947Y-122194060D01*
X105959612Y-121891863D01*
X105965297Y-121883689D01*
X106182906Y-121601630D01*
X106189371Y-121594056D01*
X106433805Y-121334884D01*
X106440977Y-121327996D01*
X106709847Y-121094247D01*
X106717657Y-121088109D01*
X106986407Y-120897614D01*
X107006095Y-120886741D01*
X107014859Y-120883112D01*
X107021345Y-120877170D01*
X107021347Y-120877169D01*
X107028025Y-120871051D01*
X107041937Y-120860379D01*
X115551919Y-115440385D01*
X125886259Y-115440385D01*
X125887286Y-115445728D01*
X125887286Y-115445732D01*
X125898709Y-115505180D01*
X125920645Y-115619337D01*
X125992656Y-115786731D01*
X126098934Y-115934757D01*
X126234518Y-116056507D01*
X126239255Y-116059190D01*
X126239257Y-116059191D01*
X126289006Y-116087364D01*
X126393084Y-116146303D01*
X126398288Y-116147906D01*
X126398292Y-116147908D01*
X126562025Y-116198351D01*
X126562029Y-116198352D01*
X126567233Y-116199955D01*
X126572665Y-116200404D01*
X126572666Y-116200404D01*
X126743404Y-116214510D01*
X126743406Y-116214510D01*
X126748841Y-116214959D01*
X126929433Y-116190615D01*
X126934548Y-116188746D01*
X126934550Y-116188745D01*
X127096720Y-116129472D01*
X127100586Y-116128059D01*
X127105467Y-116125301D01*
X127218393Y-116052868D01*
X138883508Y-108570587D01*
X140334912Y-107639622D01*
X140389226Y-107623700D01*
X146189564Y-107623700D01*
X146248980Y-107611881D01*
X146316360Y-107566860D01*
X146361381Y-107499480D01*
X146373200Y-107440064D01*
X146373200Y-104949936D01*
X146361381Y-104890520D01*
X146316360Y-104823140D01*
X146248980Y-104778119D01*
X146189564Y-104766300D01*
X140249436Y-104766300D01*
X140190020Y-104778119D01*
X140122640Y-104823140D01*
X140077619Y-104890520D01*
X140065800Y-104949936D01*
X140065800Y-105764440D01*
X140046587Y-105823571D01*
X140019514Y-105849118D01*
X126235962Y-114690214D01*
X126233841Y-114691924D01*
X126135436Y-114771261D01*
X126129745Y-114775849D01*
X126126336Y-114780101D01*
X126019159Y-114913769D01*
X126019156Y-114913773D01*
X126015752Y-114918019D01*
X126013338Y-114922898D01*
X126013337Y-114922900D01*
X125956063Y-115038671D01*
X125934948Y-115081351D01*
X125891101Y-115258223D01*
X125886259Y-115440385D01*
X115551919Y-115440385D01*
X176369081Y-76706031D01*
X180020370Y-74380531D01*
X183823142Y-74380531D01*
X183825763Y-74714246D01*
X183867301Y-75045376D01*
X183947188Y-75369399D01*
X184064334Y-75681888D01*
X184217138Y-75978575D01*
X184403514Y-76255409D01*
X184620914Y-76508607D01*
X184866371Y-76734712D01*
X185136532Y-76930635D01*
X185139101Y-76932074D01*
X185139103Y-76932075D01*
X185425134Y-77092261D01*
X185425139Y-77092264D01*
X185427706Y-77093701D01*
X185735916Y-77221681D01*
X185825435Y-77247097D01*
X186054123Y-77312025D01*
X186054131Y-77312027D01*
X186056953Y-77312828D01*
X186059849Y-77313294D01*
X186059856Y-77313296D01*
X186383731Y-77365462D01*
X186386432Y-77365897D01*
X186389157Y-77366035D01*
X186389166Y-77366036D01*
X186574713Y-77375435D01*
X186574723Y-77375435D01*
X186576001Y-77375500D01*
X186760676Y-77375500D01*
X186762142Y-77375414D01*
X186762148Y-77375414D01*
X186854230Y-77370024D01*
X187008155Y-77361014D01*
X187172457Y-77331895D01*
X187333856Y-77303291D01*
X187333861Y-77303290D01*
X187336760Y-77302776D01*
X187339572Y-77301930D01*
X187339579Y-77301928D01*
X187653521Y-77207442D01*
X187653522Y-77207441D01*
X187656325Y-77206598D01*
X187659012Y-77205433D01*
X187659016Y-77205431D01*
X187770065Y-77157261D01*
X187962488Y-77073792D01*
X188251064Y-76906173D01*
X188253408Y-76904417D01*
X188253413Y-76904413D01*
X188515751Y-76707802D01*
X188518114Y-76706031D01*
X188725793Y-76508607D01*
X188757861Y-76478122D01*
X188757862Y-76478121D01*
X188759989Y-76476099D01*
X188761860Y-76473850D01*
X188761866Y-76473843D01*
X188971507Y-76221777D01*
X188971512Y-76221770D01*
X188973386Y-76219517D01*
X188974987Y-76217057D01*
X188974991Y-76217051D01*
X189128568Y-75981013D01*
X189155390Y-75939790D01*
X189303515Y-75640739D01*
X189415738Y-75326448D01*
X189490526Y-75001211D01*
X189526858Y-74669469D01*
X189526775Y-74658834D01*
X189524260Y-74338695D01*
X189524237Y-74335754D01*
X189482699Y-74004624D01*
X189402812Y-73680601D01*
X189285666Y-73368112D01*
X189212095Y-73225264D01*
X189134208Y-73074038D01*
X189134206Y-73074035D01*
X189132862Y-73071425D01*
X188946486Y-72794591D01*
X188729086Y-72541393D01*
X188483629Y-72315288D01*
X188213468Y-72119365D01*
X188210897Y-72117925D01*
X187924866Y-71957739D01*
X187924861Y-71957736D01*
X187922294Y-71956299D01*
X187614084Y-71828319D01*
X187524565Y-71802903D01*
X187295877Y-71737975D01*
X187295869Y-71737973D01*
X187293047Y-71737172D01*
X187290151Y-71736706D01*
X187290144Y-71736704D01*
X186966269Y-71684538D01*
X186966268Y-71684538D01*
X186963568Y-71684103D01*
X186960843Y-71683965D01*
X186960834Y-71683964D01*
X186775287Y-71674565D01*
X186775277Y-71674565D01*
X186773999Y-71674500D01*
X186589324Y-71674500D01*
X186587858Y-71674586D01*
X186587852Y-71674586D01*
X186495770Y-71679976D01*
X186341845Y-71688986D01*
X186177542Y-71718105D01*
X186016144Y-71746709D01*
X186016139Y-71746710D01*
X186013240Y-71747224D01*
X186010428Y-71748070D01*
X186010421Y-71748072D01*
X185746465Y-71827514D01*
X185693675Y-71843402D01*
X185690988Y-71844567D01*
X185690984Y-71844569D01*
X185579936Y-71892739D01*
X185387512Y-71976208D01*
X185098936Y-72143827D01*
X185096592Y-72145583D01*
X185096587Y-72145587D01*
X184936183Y-72265803D01*
X184831886Y-72343969D01*
X184829746Y-72346003D01*
X184829744Y-72346005D01*
X184621851Y-72543633D01*
X184590011Y-72573901D01*
X184588140Y-72576150D01*
X184588134Y-72576157D01*
X184378493Y-72828223D01*
X184378488Y-72828230D01*
X184376614Y-72830483D01*
X184375013Y-72832943D01*
X184375009Y-72832949D01*
X184342975Y-72882183D01*
X184194610Y-73110210D01*
X184046485Y-73409261D01*
X183934262Y-73723552D01*
X183859474Y-74048789D01*
X183823142Y-74380531D01*
X180020370Y-74380531D01*
X184647650Y-71433424D01*
X184663205Y-71425329D01*
X184671562Y-71421869D01*
X184671563Y-71421868D01*
X184679693Y-71418502D01*
X184686185Y-71412555D01*
X184686713Y-71412072D01*
X184704871Y-71398840D01*
X184989729Y-71236566D01*
X184998574Y-71232090D01*
X185322557Y-71087709D01*
X185331801Y-71084124D01*
X185668432Y-70972330D01*
X185677983Y-70969673D01*
X185769954Y-70948908D01*
X186023991Y-70891554D01*
X186033738Y-70889854D01*
X186270728Y-70860446D01*
X186385747Y-70846173D01*
X186395633Y-70845438D01*
X186530291Y-70842088D01*
X186750242Y-70836617D01*
X186760135Y-70836859D01*
G37*
G04 #@! TD.AperFunction*
M02*
