G04 #@! TF.GenerationSoftware,KiCad,Pcbnew,(6.0.0)*
G04 #@! TF.CreationDate,2022-02-12T00:13:16-05:00*
G04 #@! TF.ProjectId,FalconLHS,46616c63-6f6e-44c4-9853-2e6b69636164,1A*
G04 #@! TF.SameCoordinates,Original*
G04 #@! TF.FileFunction,Legend,Bot*
G04 #@! TF.FilePolarity,Positive*
%FSLAX46Y46*%
G04 Gerber Fmt 4.6, Leading zero omitted, Abs format (unit mm)*
G04 Created by KiCad (PCBNEW (6.0.0)) date 2022-02-12 00:13:16*
%MOMM*%
%LPD*%
G01*
G04 APERTURE LIST*
%ADD10C,0.150000*%
%ADD11C,0.250000*%
%ADD12C,0.120000*%
G04 APERTURE END LIST*
D10*
X187342976Y-82527380D02*
X187676309Y-82051190D01*
X187914404Y-82527380D02*
X187914404Y-81527380D01*
X187533452Y-81527380D01*
X187438214Y-81575000D01*
X187390595Y-81622619D01*
X187342976Y-81717857D01*
X187342976Y-81860714D01*
X187390595Y-81955952D01*
X187438214Y-82003571D01*
X187533452Y-82051190D01*
X187914404Y-82051190D01*
X186533452Y-82479761D02*
X186628690Y-82527380D01*
X186819166Y-82527380D01*
X186914404Y-82479761D01*
X186962023Y-82384523D01*
X186962023Y-82003571D01*
X186914404Y-81908333D01*
X186819166Y-81860714D01*
X186628690Y-81860714D01*
X186533452Y-81908333D01*
X186485833Y-82003571D01*
X186485833Y-82098809D01*
X186962023Y-82194047D01*
X186152500Y-81860714D02*
X185914404Y-82527380D01*
X185676309Y-81860714D01*
X184009642Y-82527380D02*
X184581071Y-82527380D01*
X184295357Y-82527380D02*
X184295357Y-81527380D01*
X184390595Y-81670238D01*
X184485833Y-81765476D01*
X184581071Y-81813095D01*
X183628690Y-82241666D02*
X183152500Y-82241666D01*
X183723928Y-82527380D02*
X183390595Y-81527380D01*
X183057261Y-82527380D01*
X187862023Y-83322619D02*
X187814404Y-83275000D01*
X187719166Y-83227380D01*
X187481071Y-83227380D01*
X187385833Y-83275000D01*
X187338214Y-83322619D01*
X187290595Y-83417857D01*
X187290595Y-83513095D01*
X187338214Y-83655952D01*
X187909642Y-84227380D01*
X187290595Y-84227380D01*
X186671547Y-83227380D02*
X186576309Y-83227380D01*
X186481071Y-83275000D01*
X186433452Y-83322619D01*
X186385833Y-83417857D01*
X186338214Y-83608333D01*
X186338214Y-83846428D01*
X186385833Y-84036904D01*
X186433452Y-84132142D01*
X186481071Y-84179761D01*
X186576309Y-84227380D01*
X186671547Y-84227380D01*
X186766785Y-84179761D01*
X186814404Y-84132142D01*
X186862023Y-84036904D01*
X186909642Y-83846428D01*
X186909642Y-83608333D01*
X186862023Y-83417857D01*
X186814404Y-83322619D01*
X186766785Y-83275000D01*
X186671547Y-83227380D01*
X185957261Y-83322619D02*
X185909642Y-83275000D01*
X185814404Y-83227380D01*
X185576309Y-83227380D01*
X185481071Y-83275000D01*
X185433452Y-83322619D01*
X185385833Y-83417857D01*
X185385833Y-83513095D01*
X185433452Y-83655952D01*
X186004880Y-84227380D01*
X185385833Y-84227380D01*
X185004880Y-83322619D02*
X184957261Y-83275000D01*
X184862023Y-83227380D01*
X184623928Y-83227380D01*
X184528690Y-83275000D01*
X184481071Y-83322619D01*
X184433452Y-83417857D01*
X184433452Y-83513095D01*
X184481071Y-83655952D01*
X185052500Y-84227380D01*
X184433452Y-84227380D01*
X183290595Y-83179761D02*
X184147738Y-84465476D01*
X182766785Y-83227380D02*
X182671547Y-83227380D01*
X182576309Y-83275000D01*
X182528690Y-83322619D01*
X182481071Y-83417857D01*
X182433452Y-83608333D01*
X182433452Y-83846428D01*
X182481071Y-84036904D01*
X182528690Y-84132142D01*
X182576309Y-84179761D01*
X182671547Y-84227380D01*
X182766785Y-84227380D01*
X182862023Y-84179761D01*
X182909642Y-84132142D01*
X182957261Y-84036904D01*
X183004880Y-83846428D01*
X183004880Y-83608333D01*
X182957261Y-83417857D01*
X182909642Y-83322619D01*
X182862023Y-83275000D01*
X182766785Y-83227380D01*
X182052500Y-83322619D02*
X182004880Y-83275000D01*
X181909642Y-83227380D01*
X181671547Y-83227380D01*
X181576309Y-83275000D01*
X181528690Y-83322619D01*
X181481071Y-83417857D01*
X181481071Y-83513095D01*
X181528690Y-83655952D01*
X182100119Y-84227380D01*
X181481071Y-84227380D01*
X180338214Y-83179761D02*
X181195357Y-84465476D01*
X179481071Y-84227380D02*
X180052500Y-84227380D01*
X179766785Y-84227380D02*
X179766785Y-83227380D01*
X179862023Y-83370238D01*
X179957261Y-83465476D01*
X180052500Y-83513095D01*
X178528690Y-84227380D02*
X179100119Y-84227380D01*
X178814404Y-84227380D02*
X178814404Y-83227380D01*
X178909642Y-83370238D01*
X179004880Y-83465476D01*
X179100119Y-83513095D01*
X187812023Y-85575444D02*
X187335833Y-85575444D01*
X187907261Y-85861158D02*
X187573928Y-84861158D01*
X187240595Y-85861158D01*
X186764404Y-85861158D02*
X186859642Y-85813539D01*
X186907261Y-85718301D01*
X186907261Y-84861158D01*
X186002500Y-85813539D02*
X186097738Y-85861158D01*
X186288214Y-85861158D01*
X186383452Y-85813539D01*
X186431071Y-85718301D01*
X186431071Y-85337349D01*
X186383452Y-85242111D01*
X186288214Y-85194492D01*
X186097738Y-85194492D01*
X186002500Y-85242111D01*
X185954880Y-85337349D01*
X185954880Y-85432587D01*
X186431071Y-85527825D01*
X185621547Y-85861158D02*
X185097738Y-85194492D01*
X185621547Y-85194492D02*
X185097738Y-85861158D01*
X183954880Y-85861158D02*
X183954880Y-84861158D01*
X183573928Y-84861158D01*
X183478690Y-84908778D01*
X183431071Y-84956397D01*
X183383452Y-85051635D01*
X183383452Y-85194492D01*
X183431071Y-85289730D01*
X183478690Y-85337349D01*
X183573928Y-85384968D01*
X183954880Y-85384968D01*
X182573928Y-85813539D02*
X182669166Y-85861158D01*
X182859642Y-85861158D01*
X182954880Y-85813539D01*
X183002500Y-85718301D01*
X183002500Y-85337349D01*
X182954880Y-85242111D01*
X182859642Y-85194492D01*
X182669166Y-85194492D01*
X182573928Y-85242111D01*
X182526309Y-85337349D01*
X182526309Y-85432587D01*
X183002500Y-85527825D01*
X182240595Y-85194492D02*
X181859642Y-85194492D01*
X182097738Y-84861158D02*
X182097738Y-85718301D01*
X182050119Y-85813539D01*
X181954880Y-85861158D01*
X181859642Y-85861158D01*
X181526309Y-85861158D02*
X181526309Y-84861158D01*
X181431071Y-85480206D02*
X181145357Y-85861158D01*
X181145357Y-85194492D02*
X181526309Y-85575444D01*
X180573928Y-85861158D02*
X180669166Y-85813539D01*
X180716785Y-85765920D01*
X180764404Y-85670682D01*
X180764404Y-85384968D01*
X180716785Y-85289730D01*
X180669166Y-85242111D01*
X180573928Y-85194492D01*
X180431071Y-85194492D01*
X180335833Y-85242111D01*
X180288214Y-85289730D01*
X180240595Y-85384968D01*
X180240595Y-85670682D01*
X180288214Y-85765920D01*
X180335833Y-85813539D01*
X180431071Y-85861158D01*
X180573928Y-85861158D01*
X179907261Y-85194492D02*
X179669166Y-85861158D01*
X179431071Y-85194492D01*
X179050119Y-85861158D02*
X179050119Y-85194492D01*
X179050119Y-84861158D02*
X179097738Y-84908778D01*
X179050119Y-84956397D01*
X179002500Y-84908778D01*
X179050119Y-84861158D01*
X179050119Y-84956397D01*
X178145357Y-85813539D02*
X178240595Y-85861158D01*
X178431071Y-85861158D01*
X178526309Y-85813539D01*
X178573928Y-85765920D01*
X178621547Y-85670682D01*
X178621547Y-85384968D01*
X178573928Y-85289730D01*
X178526309Y-85242111D01*
X178431071Y-85194492D01*
X178240595Y-85194492D01*
X178145357Y-85242111D01*
D11*
X187330357Y-80065617D02*
X187830357Y-80065617D01*
X187830357Y-80851331D02*
X187830357Y-79351331D01*
X187116071Y-79351331D01*
X185901785Y-80851331D02*
X185901785Y-80065617D01*
X185973214Y-79922760D01*
X186116071Y-79851331D01*
X186401785Y-79851331D01*
X186544642Y-79922760D01*
X185901785Y-80779902D02*
X186044642Y-80851331D01*
X186401785Y-80851331D01*
X186544642Y-80779902D01*
X186616071Y-80637045D01*
X186616071Y-80494188D01*
X186544642Y-80351331D01*
X186401785Y-80279902D01*
X186044642Y-80279902D01*
X185901785Y-80208474D01*
X184973214Y-80851331D02*
X185116071Y-80779902D01*
X185187500Y-80637045D01*
X185187500Y-79351331D01*
X183758928Y-80779902D02*
X183901785Y-80851331D01*
X184187500Y-80851331D01*
X184330357Y-80779902D01*
X184401785Y-80708474D01*
X184473214Y-80565617D01*
X184473214Y-80137045D01*
X184401785Y-79994188D01*
X184330357Y-79922760D01*
X184187500Y-79851331D01*
X183901785Y-79851331D01*
X183758928Y-79922760D01*
X182901785Y-80851331D02*
X183044642Y-80779902D01*
X183116071Y-80708474D01*
X183187500Y-80565617D01*
X183187500Y-80137045D01*
X183116071Y-79994188D01*
X183044642Y-79922760D01*
X182901785Y-79851331D01*
X182687500Y-79851331D01*
X182544642Y-79922760D01*
X182473214Y-79994188D01*
X182401785Y-80137045D01*
X182401785Y-80565617D01*
X182473214Y-80708474D01*
X182544642Y-80779902D01*
X182687500Y-80851331D01*
X182901785Y-80851331D01*
X181758928Y-79851331D02*
X181758928Y-80851331D01*
X181758928Y-79994188D02*
X181687500Y-79922760D01*
X181544642Y-79851331D01*
X181330357Y-79851331D01*
X181187500Y-79922760D01*
X181116071Y-80065617D01*
X181116071Y-80851331D01*
X180401785Y-80708474D02*
X180330357Y-80779902D01*
X180401785Y-80851331D01*
X180473214Y-80779902D01*
X180401785Y-80708474D01*
X180401785Y-80851331D01*
X180401785Y-79922760D02*
X180330357Y-79994188D01*
X180401785Y-80065617D01*
X180473214Y-79994188D01*
X180401785Y-79922760D01*
X180401785Y-80065617D01*
X177830357Y-80851331D02*
X178544642Y-80851331D01*
X178544642Y-79351331D01*
X177330357Y-80851331D02*
X177330357Y-79351331D01*
X177330357Y-80065617D02*
X176473214Y-80065617D01*
X176473214Y-80851331D02*
X176473214Y-79351331D01*
X175830357Y-80779902D02*
X175616071Y-80851331D01*
X175258928Y-80851331D01*
X175116071Y-80779902D01*
X175044642Y-80708474D01*
X174973214Y-80565617D01*
X174973214Y-80422760D01*
X175044642Y-80279902D01*
X175116071Y-80208474D01*
X175258928Y-80137045D01*
X175544642Y-80065617D01*
X175687500Y-79994188D01*
X175758928Y-79922760D01*
X175830357Y-79779902D01*
X175830357Y-79637045D01*
X175758928Y-79494188D01*
X175687500Y-79422760D01*
X175544642Y-79351331D01*
X175187500Y-79351331D01*
X174973214Y-79422760D01*
D10*
X160361904Y-125152380D02*
X160361904Y-125961904D01*
X160314285Y-126057142D01*
X160266666Y-126104761D01*
X160171428Y-126152380D01*
X159980952Y-126152380D01*
X159885714Y-126104761D01*
X159838095Y-126057142D01*
X159790476Y-125961904D01*
X159790476Y-125152380D01*
X159361904Y-125247619D02*
X159314285Y-125200000D01*
X159219047Y-125152380D01*
X158980952Y-125152380D01*
X158885714Y-125200000D01*
X158838095Y-125247619D01*
X158790476Y-125342857D01*
X158790476Y-125438095D01*
X158838095Y-125580952D01*
X159409523Y-126152380D01*
X158790476Y-126152380D01*
X171933333Y-118652380D02*
X171933333Y-119366666D01*
X171980952Y-119509523D01*
X172076190Y-119604761D01*
X172219047Y-119652380D01*
X172314285Y-119652380D01*
X170933333Y-119652380D02*
X171504761Y-119652380D01*
X171219047Y-119652380D02*
X171219047Y-118652380D01*
X171314285Y-118795238D01*
X171409523Y-118890476D01*
X171504761Y-118938095D01*
X175891666Y-118477380D02*
X176225000Y-118001190D01*
X176463095Y-118477380D02*
X176463095Y-117477380D01*
X176082142Y-117477380D01*
X175986904Y-117525000D01*
X175939285Y-117572619D01*
X175891666Y-117667857D01*
X175891666Y-117810714D01*
X175939285Y-117905952D01*
X175986904Y-117953571D01*
X176082142Y-118001190D01*
X176463095Y-118001190D01*
X175510714Y-117572619D02*
X175463095Y-117525000D01*
X175367857Y-117477380D01*
X175129761Y-117477380D01*
X175034523Y-117525000D01*
X174986904Y-117572619D01*
X174939285Y-117667857D01*
X174939285Y-117763095D01*
X174986904Y-117905952D01*
X175558333Y-118477380D01*
X174939285Y-118477380D01*
X145841666Y-104452380D02*
X146317857Y-104452380D01*
X146317857Y-103452380D01*
X144984523Y-104452380D02*
X145555952Y-104452380D01*
X145270238Y-104452380D02*
X145270238Y-103452380D01*
X145365476Y-103595238D01*
X145460714Y-103690476D01*
X145555952Y-103738095D01*
X166866666Y-115952380D02*
X167342857Y-115952380D01*
X167342857Y-114952380D01*
X166580952Y-115047619D02*
X166533333Y-115000000D01*
X166438095Y-114952380D01*
X166200000Y-114952380D01*
X166104761Y-115000000D01*
X166057142Y-115047619D01*
X166009523Y-115142857D01*
X166009523Y-115238095D01*
X166057142Y-115380952D01*
X166628571Y-115952380D01*
X166009523Y-115952380D01*
X152966666Y-121452380D02*
X153300000Y-120976190D01*
X153538095Y-121452380D02*
X153538095Y-120452380D01*
X153157142Y-120452380D01*
X153061904Y-120500000D01*
X153014285Y-120547619D01*
X152966666Y-120642857D01*
X152966666Y-120785714D01*
X153014285Y-120880952D01*
X153061904Y-120928571D01*
X153157142Y-120976190D01*
X153538095Y-120976190D01*
X152633333Y-120452380D02*
X152014285Y-120452380D01*
X152347619Y-120833333D01*
X152204761Y-120833333D01*
X152109523Y-120880952D01*
X152061904Y-120928571D01*
X152014285Y-121023809D01*
X152014285Y-121261904D01*
X152061904Y-121357142D01*
X152109523Y-121404761D01*
X152204761Y-121452380D01*
X152490476Y-121452380D01*
X152585714Y-121404761D01*
X152633333Y-121357142D01*
X150666666Y-118057142D02*
X150714285Y-118104761D01*
X150857142Y-118152380D01*
X150952380Y-118152380D01*
X151095238Y-118104761D01*
X151190476Y-118009523D01*
X151238095Y-117914285D01*
X151285714Y-117723809D01*
X151285714Y-117580952D01*
X151238095Y-117390476D01*
X151190476Y-117295238D01*
X151095238Y-117200000D01*
X150952380Y-117152380D01*
X150857142Y-117152380D01*
X150714285Y-117200000D01*
X150666666Y-117247619D01*
X149714285Y-118152380D02*
X150285714Y-118152380D01*
X150000000Y-118152380D02*
X150000000Y-117152380D01*
X150095238Y-117295238D01*
X150190476Y-117390476D01*
X150285714Y-117438095D01*
X160438095Y-113452380D02*
X160438095Y-112452380D01*
X160200000Y-112452380D01*
X160057142Y-112500000D01*
X159961904Y-112595238D01*
X159914285Y-112690476D01*
X159866666Y-112880952D01*
X159866666Y-113023809D01*
X159914285Y-113214285D01*
X159961904Y-113309523D01*
X160057142Y-113404761D01*
X160200000Y-113452380D01*
X160438095Y-113452380D01*
X158961904Y-112452380D02*
X159438095Y-112452380D01*
X159485714Y-112928571D01*
X159438095Y-112880952D01*
X159342857Y-112833333D01*
X159104761Y-112833333D01*
X159009523Y-112880952D01*
X158961904Y-112928571D01*
X158914285Y-113023809D01*
X158914285Y-113261904D01*
X158961904Y-113357142D01*
X159009523Y-113404761D01*
X159104761Y-113452380D01*
X159342857Y-113452380D01*
X159438095Y-113404761D01*
X159485714Y-113357142D01*
X157066666Y-112157142D02*
X157114285Y-112204761D01*
X157257142Y-112252380D01*
X157352380Y-112252380D01*
X157495238Y-112204761D01*
X157590476Y-112109523D01*
X157638095Y-112014285D01*
X157685714Y-111823809D01*
X157685714Y-111680952D01*
X157638095Y-111490476D01*
X157590476Y-111395238D01*
X157495238Y-111300000D01*
X157352380Y-111252380D01*
X157257142Y-111252380D01*
X157114285Y-111300000D01*
X157066666Y-111347619D01*
X156685714Y-111347619D02*
X156638095Y-111300000D01*
X156542857Y-111252380D01*
X156304761Y-111252380D01*
X156209523Y-111300000D01*
X156161904Y-111347619D01*
X156114285Y-111442857D01*
X156114285Y-111538095D01*
X156161904Y-111680952D01*
X156733333Y-112252380D01*
X156114285Y-112252380D01*
X154766666Y-108978980D02*
X155100000Y-108502790D01*
X155338095Y-108978980D02*
X155338095Y-107978980D01*
X154957142Y-107978980D01*
X154861904Y-108026600D01*
X154814285Y-108074219D01*
X154766666Y-108169457D01*
X154766666Y-108312314D01*
X154814285Y-108407552D01*
X154861904Y-108455171D01*
X154957142Y-108502790D01*
X155338095Y-108502790D01*
X153814285Y-108978980D02*
X154385714Y-108978980D01*
X154100000Y-108978980D02*
X154100000Y-107978980D01*
X154195238Y-108121838D01*
X154290476Y-108217076D01*
X154385714Y-108264695D01*
X148438095Y-116802380D02*
X148438095Y-115802380D01*
X148200000Y-115802380D01*
X148057142Y-115850000D01*
X147961904Y-115945238D01*
X147914285Y-116040476D01*
X147866666Y-116230952D01*
X147866666Y-116373809D01*
X147914285Y-116564285D01*
X147961904Y-116659523D01*
X148057142Y-116754761D01*
X148200000Y-116802380D01*
X148438095Y-116802380D01*
X146914285Y-116802380D02*
X147485714Y-116802380D01*
X147200000Y-116802380D02*
X147200000Y-115802380D01*
X147295238Y-115945238D01*
X147390476Y-116040476D01*
X147485714Y-116088095D01*
X151811904Y-103427380D02*
X151811904Y-104236904D01*
X151764285Y-104332142D01*
X151716666Y-104379761D01*
X151621428Y-104427380D01*
X151430952Y-104427380D01*
X151335714Y-104379761D01*
X151288095Y-104332142D01*
X151240476Y-104236904D01*
X151240476Y-103427380D01*
X150240476Y-104427380D02*
X150811904Y-104427380D01*
X150526190Y-104427380D02*
X150526190Y-103427380D01*
X150621428Y-103570238D01*
X150716666Y-103665476D01*
X150811904Y-103713095D01*
D12*
X155366500Y-123102800D02*
X155366500Y-118937200D01*
X160573500Y-118937200D02*
X160573500Y-123102800D01*
X160520000Y-123570000D02*
G75*
G03*
X160520000Y-123570000I0J0D01*
G01*
X160630720Y-123570000D02*
G75*
G03*
X160630720Y-123570000I-110720J0D01*
G01*
X179100000Y-120420000D02*
X179100000Y-123080000D01*
X173960000Y-123080000D02*
X179100000Y-123080000D01*
X172690000Y-120420000D02*
X171360000Y-120420000D01*
X171360000Y-120420000D02*
X171360000Y-121750000D01*
X173960000Y-120420000D02*
X173960000Y-123080000D01*
X173960000Y-120420000D02*
X179100000Y-120420000D01*
X175893641Y-118859119D02*
X175586359Y-118859119D01*
X175893641Y-119619119D02*
X175586359Y-119619119D01*
X146319500Y-112970000D02*
X146319500Y-104970000D01*
X140119500Y-112970000D02*
X140119500Y-104970000D01*
X161070000Y-116520000D02*
X161070000Y-124520000D01*
X167270000Y-116520000D02*
X167270000Y-124520000D01*
X153890000Y-121073641D02*
X153890000Y-120766359D01*
X154650000Y-121073641D02*
X154650000Y-120766359D01*
X151860000Y-115347852D02*
X151860000Y-113925348D01*
X149140000Y-115347852D02*
X149140000Y-113925348D01*
X159320000Y-115120000D02*
X160020000Y-115120000D01*
X160520000Y-114320000D02*
X160270000Y-114320000D01*
X160020000Y-115620000D02*
X159670000Y-115120000D01*
X158820000Y-114320000D02*
X158820000Y-116470000D01*
X160520000Y-114320000D02*
X160520000Y-116470000D01*
X159320000Y-115620000D02*
X160020000Y-115620000D01*
X159670000Y-115120000D02*
X159320000Y-115620000D01*
X158820000Y-114320000D02*
X159070000Y-114320000D01*
X159670000Y-115120000D02*
X159670000Y-114920000D01*
X159670000Y-115620000D02*
X159670000Y-115870000D01*
X158230000Y-114008748D02*
X158230000Y-115431252D01*
X155510000Y-114008748D02*
X155510000Y-115431252D01*
X153480000Y-108372959D02*
X153480000Y-108680241D01*
X152720000Y-108372959D02*
X152720000Y-108680241D01*
X148569500Y-115036600D02*
X148319500Y-115036600D01*
X147369500Y-113736600D02*
X147719500Y-114236600D01*
X147719500Y-114236600D02*
X147719500Y-114436600D01*
X147719500Y-114236600D02*
X148069500Y-113736600D01*
X148569500Y-115036600D02*
X148569500Y-112886600D01*
X146869500Y-115036600D02*
X146869500Y-112886600D01*
X148069500Y-113736600D02*
X147369500Y-113736600D01*
X148069500Y-114236600D02*
X147369500Y-114236600D01*
X146869500Y-115036600D02*
X147119500Y-115036600D01*
X147719500Y-113736600D02*
X147719500Y-113486600D01*
X152003500Y-106287200D02*
X152003500Y-110452800D01*
X146796500Y-110452800D02*
X146796500Y-106287200D01*
X146850000Y-105820000D02*
G75*
G03*
X146850000Y-105820000I0J0D01*
G01*
X146960720Y-105820000D02*
G75*
G03*
X146960720Y-105820000I-110720J0D01*
G01*
M02*
