M48
INCH,TZ
T1C0.0157
T2C0.0394
T3C0.0394
%
G90
G05
T1
X49893Y-45422
X50214Y-45216
X50555Y-44998
X54427Y-48951
X54837Y-48951
X55238Y-48951
X58988Y-39130
X59215Y-39478
X59443Y-39829
X59797Y-43254
X59823Y-45287
X60102Y-45602
X60587Y-44543
X60866Y-43848
X60866Y-44811
X61171Y-44144
X61209Y-47055
X63722Y-49236
X64120Y-49236
X64498Y-49236
T2
X58819Y-42665
X62130Y-47646
T3
X67988Y-47933
X68988Y-47933
X69988Y-47933
T0
M30
