G04 #@! TF.GenerationSoftware,KiCad,Pcbnew,(6.0.0)*
G04 #@! TF.CreationDate,2022-02-11T23:27:56-05:00*
G04 #@! TF.ProjectId,FalconLHS,46616c63-6f6e-44c4-9853-2e6b69636164,1A*
G04 #@! TF.SameCoordinates,Original*
G04 #@! TF.FileFunction,Legend,Top*
G04 #@! TF.FilePolarity,Positive*
%FSLAX46Y46*%
G04 Gerber Fmt 4.6, Leading zero omitted, Abs format (unit mm)*
G04 Created by KiCad (PCBNEW (6.0.0)) date 2022-02-11 23:27:56*
%MOMM*%
%LPD*%
G01*
G04 APERTURE LIST*
%ADD10C,0.150000*%
%ADD11C,0.120000*%
G04 APERTURE END LIST*
D10*
X150361904Y-119952380D02*
X150361904Y-118952380D01*
X150600000Y-118952380D01*
X150742857Y-119000000D01*
X150838095Y-119095238D01*
X150885714Y-119190476D01*
X150933333Y-119380952D01*
X150933333Y-119523809D01*
X150885714Y-119714285D01*
X150838095Y-119809523D01*
X150742857Y-119904761D01*
X150600000Y-119952380D01*
X150361904Y-119952380D01*
X151504761Y-119380952D02*
X151409523Y-119333333D01*
X151361904Y-119285714D01*
X151314285Y-119190476D01*
X151314285Y-119142857D01*
X151361904Y-119047619D01*
X151409523Y-119000000D01*
X151504761Y-118952380D01*
X151695238Y-118952380D01*
X151790476Y-119000000D01*
X151838095Y-119047619D01*
X151885714Y-119142857D01*
X151885714Y-119190476D01*
X151838095Y-119285714D01*
X151790476Y-119333333D01*
X151695238Y-119380952D01*
X151504761Y-119380952D01*
X151409523Y-119428571D01*
X151361904Y-119476190D01*
X151314285Y-119571428D01*
X151314285Y-119761904D01*
X151361904Y-119857142D01*
X151409523Y-119904761D01*
X151504761Y-119952380D01*
X151695238Y-119952380D01*
X151790476Y-119904761D01*
X151838095Y-119857142D01*
X151885714Y-119761904D01*
X151885714Y-119571428D01*
X151838095Y-119476190D01*
X151790476Y-119428571D01*
X151695238Y-119380952D01*
X145920465Y-100378066D02*
X145383269Y-99534608D01*
X145584092Y-99406705D01*
X145730167Y-99370127D01*
X145861657Y-99399295D01*
X145952984Y-99454043D01*
X146095471Y-99589121D01*
X146172214Y-99709615D01*
X146234372Y-99895854D01*
X146245369Y-100001764D01*
X146216201Y-100133255D01*
X146121288Y-100250162D01*
X145920465Y-100378066D01*
X146237723Y-99103322D02*
X146252307Y-99037577D01*
X146307055Y-98946250D01*
X146507878Y-98818346D01*
X146613788Y-98807350D01*
X146679534Y-98821933D01*
X146770860Y-98876682D01*
X146822021Y-98957011D01*
X146858599Y-99103086D01*
X146683593Y-99892031D01*
X147205733Y-99559480D01*
X137420465Y-105778066D02*
X136883269Y-104934608D01*
X137084092Y-104806705D01*
X137230167Y-104770127D01*
X137361657Y-104799295D01*
X137452984Y-104854043D01*
X137595471Y-104989121D01*
X137672214Y-105109615D01*
X137734372Y-105295854D01*
X137745369Y-105401764D01*
X137716201Y-105533255D01*
X137621288Y-105650162D01*
X137420465Y-105778066D01*
X138267273Y-104448337D02*
X138625404Y-105010642D01*
X137861804Y-104254924D02*
X138044692Y-104985298D01*
X138566832Y-104652747D01*
X160361904Y-119952380D02*
X160361904Y-118952380D01*
X160600000Y-118952380D01*
X160742857Y-119000000D01*
X160838095Y-119095238D01*
X160885714Y-119190476D01*
X160933333Y-119380952D01*
X160933333Y-119523809D01*
X160885714Y-119714285D01*
X160838095Y-119809523D01*
X160742857Y-119904761D01*
X160600000Y-119952380D01*
X160361904Y-119952380D01*
X161266666Y-118952380D02*
X161933333Y-118952380D01*
X161504761Y-119952380D01*
X140361904Y-119952380D02*
X140361904Y-118952380D01*
X140600000Y-118952380D01*
X140742857Y-119000000D01*
X140838095Y-119095238D01*
X140885714Y-119190476D01*
X140933333Y-119380952D01*
X140933333Y-119523809D01*
X140885714Y-119714285D01*
X140838095Y-119809523D01*
X140742857Y-119904761D01*
X140600000Y-119952380D01*
X140361904Y-119952380D01*
X141790476Y-118952380D02*
X141600000Y-118952380D01*
X141504761Y-119000000D01*
X141457142Y-119047619D01*
X141361904Y-119190476D01*
X141314285Y-119380952D01*
X141314285Y-119761904D01*
X141361904Y-119857142D01*
X141409523Y-119904761D01*
X141504761Y-119952380D01*
X141695238Y-119952380D01*
X141790476Y-119904761D01*
X141838095Y-119857142D01*
X141885714Y-119761904D01*
X141885714Y-119523809D01*
X141838095Y-119428571D01*
X141790476Y-119380952D01*
X141695238Y-119333333D01*
X141504761Y-119333333D01*
X141409523Y-119380952D01*
X141361904Y-119428571D01*
X141314285Y-119523809D01*
X128920464Y-111178066D02*
X128383268Y-110334608D01*
X128584091Y-110206705D01*
X128730166Y-110170127D01*
X128861656Y-110199295D01*
X128952983Y-110254043D01*
X129095470Y-110389121D01*
X129172213Y-110509615D01*
X129234371Y-110695854D01*
X129245368Y-110801764D01*
X129216200Y-110933255D01*
X129121287Y-111050162D01*
X128920464Y-111178066D01*
X129146396Y-109848574D02*
X129668536Y-109516023D01*
X129592030Y-110016406D01*
X129712524Y-109939663D01*
X129818434Y-109928667D01*
X129884179Y-109943250D01*
X129975505Y-109997999D01*
X130103409Y-110198822D01*
X130114406Y-110304732D01*
X130099822Y-110370477D01*
X130045074Y-110461804D01*
X129804086Y-110615288D01*
X129698176Y-110626285D01*
X129632431Y-110611701D01*
D11*
X151180000Y-121150000D02*
X151080000Y-121150000D01*
X151180000Y-122850000D02*
X151080000Y-122850000D01*
X151130000Y-121150000D02*
X151180000Y-121150000D01*
X153730000Y-122000000D02*
X153580000Y-122150000D01*
X153580000Y-122150000D02*
X153580000Y-121850000D01*
X153580000Y-121850000D02*
X153730000Y-122000000D01*
G36*
X153730000Y-122000000D02*
G01*
X153580000Y-122150000D01*
X153580000Y-121850000D01*
X153730000Y-122000000D01*
G37*
X153730000Y-122000000D02*
X153580000Y-122150000D01*
X153580000Y-121850000D01*
X153730000Y-122000000D01*
X147139643Y-101100652D02*
X147223989Y-101046933D01*
X148052877Y-102534529D02*
X148137223Y-102480810D01*
X148095050Y-102507670D02*
X148052877Y-102534529D01*
X145445444Y-103187442D02*
X145491384Y-102980344D01*
X145491384Y-102980344D02*
X145652543Y-103233381D01*
X145652543Y-103233381D02*
X145445444Y-103187442D01*
G36*
X145652543Y-103233381D02*
G01*
X145445444Y-103187442D01*
X145491384Y-102980344D01*
X145652543Y-103233381D01*
G37*
X145652543Y-103233381D02*
X145445444Y-103187442D01*
X145491384Y-102980344D01*
X145652543Y-103233381D01*
X139620578Y-107909914D02*
X139704924Y-107856195D01*
X139662751Y-107883055D02*
X139620578Y-107909914D01*
X138707344Y-106476037D02*
X138791690Y-106422318D01*
X137013145Y-108562827D02*
X137059085Y-108355729D01*
X137059085Y-108355729D02*
X137220244Y-108608766D01*
X137220244Y-108608766D02*
X137013145Y-108562827D01*
G36*
X137220244Y-108608766D02*
G01*
X137013145Y-108562827D01*
X137059085Y-108355729D01*
X137220244Y-108608766D01*
G37*
X137220244Y-108608766D02*
X137013145Y-108562827D01*
X137059085Y-108355729D01*
X137220244Y-108608766D01*
X161180000Y-122850000D02*
X161080000Y-122850000D01*
X161130000Y-121150000D02*
X161180000Y-121150000D01*
X161180000Y-121150000D02*
X161080000Y-121150000D01*
X163730000Y-122000000D02*
X163580000Y-122150000D01*
X163580000Y-122150000D02*
X163580000Y-121850000D01*
X163580000Y-121850000D02*
X163730000Y-122000000D01*
G36*
X163730000Y-122000000D02*
G01*
X163580000Y-122150000D01*
X163580000Y-121850000D01*
X163730000Y-122000000D01*
G37*
X163730000Y-122000000D02*
X163580000Y-122150000D01*
X163580000Y-121850000D01*
X163730000Y-122000000D01*
X141180000Y-122850000D02*
X141080000Y-122850000D01*
X141130000Y-121150000D02*
X141180000Y-121150000D01*
X141180000Y-121150000D02*
X141080000Y-121150000D01*
X143730000Y-122000000D02*
X143580000Y-122150000D01*
X143580000Y-122150000D02*
X143580000Y-121850000D01*
X143580000Y-121850000D02*
X143730000Y-122000000D01*
G36*
X143730000Y-122000000D02*
G01*
X143580000Y-122150000D01*
X143580000Y-121850000D01*
X143730000Y-122000000D01*
G37*
X143730000Y-122000000D02*
X143580000Y-122150000D01*
X143580000Y-121850000D01*
X143730000Y-122000000D01*
X131214165Y-113230891D02*
X131171992Y-113257750D01*
X131171992Y-113257750D02*
X131256338Y-113204031D01*
X130258758Y-111823873D02*
X130343104Y-111770154D01*
X128564559Y-113910663D02*
X128610499Y-113703565D01*
X128610499Y-113703565D02*
X128771658Y-113956602D01*
X128771658Y-113956602D02*
X128564559Y-113910663D01*
G36*
X128771658Y-113956602D02*
G01*
X128564559Y-113910663D01*
X128610499Y-113703565D01*
X128771658Y-113956602D01*
G37*
X128771658Y-113956602D02*
X128564559Y-113910663D01*
X128610499Y-113703565D01*
X128771658Y-113956602D01*
M02*
