G04 #@! TF.GenerationSoftware,KiCad,Pcbnew,(6.0.0)*
G04 #@! TF.CreationDate,2022-02-11T23:51:38-05:00*
G04 #@! TF.ProjectId,FalconMain,46616c63-6f6e-44d6-9169-6e2e6b696361,1A*
G04 #@! TF.SameCoordinates,Original*
G04 #@! TF.FileFunction,Legend,Bot*
G04 #@! TF.FilePolarity,Positive*
%FSLAX46Y46*%
G04 Gerber Fmt 4.6, Leading zero omitted, Abs format (unit mm)*
G04 Created by KiCad (PCBNEW (6.0.0)) date 2022-02-11 23:51:38*
%MOMM*%
%LPD*%
G01*
G04 APERTURE LIST*
%ADD10C,0.150000*%
%ADD11C,0.250000*%
%ADD12C,0.120000*%
G04 APERTURE END LIST*
D10*
X151000000Y-114000000D02*
X136000000Y-114000000D01*
X136000000Y-114000000D02*
X136000000Y-106000000D01*
X136000000Y-106000000D02*
X151000000Y-106000000D01*
X151000000Y-106000000D02*
X151000000Y-114000000D01*
X155937394Y-107783233D02*
X173937394Y-107783233D01*
X173937394Y-107783233D02*
X173937394Y-94783233D01*
X173937394Y-94783233D02*
X155937394Y-94783233D01*
X155937394Y-94783233D02*
X155937394Y-107783233D01*
X118305934Y-122437770D02*
X127305934Y-122437770D01*
X127305934Y-122437770D02*
X127305934Y-128437770D01*
X127305934Y-128437770D02*
X118305934Y-128437770D01*
X118305934Y-128437770D02*
X118305934Y-122437770D01*
X113494144Y-92128398D02*
X123494144Y-92128398D01*
X123494144Y-92128398D02*
X123494144Y-114128398D01*
X123494144Y-114128398D02*
X113494144Y-114128398D01*
X113494144Y-114128398D02*
X113494144Y-92128398D01*
D11*
X123480357Y-61592857D02*
X123980357Y-61592857D01*
X123980357Y-62378571D02*
X123980357Y-60878571D01*
X123266071Y-60878571D01*
X122051785Y-62378571D02*
X122051785Y-61592857D01*
X122123214Y-61450000D01*
X122266071Y-61378571D01*
X122551785Y-61378571D01*
X122694642Y-61450000D01*
X122051785Y-62307142D02*
X122194642Y-62378571D01*
X122551785Y-62378571D01*
X122694642Y-62307142D01*
X122766071Y-62164285D01*
X122766071Y-62021428D01*
X122694642Y-61878571D01*
X122551785Y-61807142D01*
X122194642Y-61807142D01*
X122051785Y-61735714D01*
X121123214Y-62378571D02*
X121266071Y-62307142D01*
X121337500Y-62164285D01*
X121337500Y-60878571D01*
X119908928Y-62307142D02*
X120051785Y-62378571D01*
X120337500Y-62378571D01*
X120480357Y-62307142D01*
X120551785Y-62235714D01*
X120623214Y-62092857D01*
X120623214Y-61664285D01*
X120551785Y-61521428D01*
X120480357Y-61450000D01*
X120337500Y-61378571D01*
X120051785Y-61378571D01*
X119908928Y-61450000D01*
X119051785Y-62378571D02*
X119194642Y-62307142D01*
X119266071Y-62235714D01*
X119337500Y-62092857D01*
X119337500Y-61664285D01*
X119266071Y-61521428D01*
X119194642Y-61450000D01*
X119051785Y-61378571D01*
X118837500Y-61378571D01*
X118694642Y-61450000D01*
X118623214Y-61521428D01*
X118551785Y-61664285D01*
X118551785Y-62092857D01*
X118623214Y-62235714D01*
X118694642Y-62307142D01*
X118837500Y-62378571D01*
X119051785Y-62378571D01*
X117908928Y-61378571D02*
X117908928Y-62378571D01*
X117908928Y-61521428D02*
X117837500Y-61450000D01*
X117694642Y-61378571D01*
X117480357Y-61378571D01*
X117337500Y-61450000D01*
X117266071Y-61592857D01*
X117266071Y-62378571D01*
X116551785Y-62235714D02*
X116480357Y-62307142D01*
X116551785Y-62378571D01*
X116623214Y-62307142D01*
X116551785Y-62235714D01*
X116551785Y-62378571D01*
X116551785Y-61450000D02*
X116480357Y-61521428D01*
X116551785Y-61592857D01*
X116623214Y-61521428D01*
X116551785Y-61450000D01*
X116551785Y-61592857D01*
X114694642Y-62378571D02*
X114694642Y-60878571D01*
X114194642Y-61950000D01*
X113694642Y-60878571D01*
X113694642Y-62378571D01*
X112337500Y-62378571D02*
X112337500Y-61592857D01*
X112408928Y-61450000D01*
X112551785Y-61378571D01*
X112837500Y-61378571D01*
X112980357Y-61450000D01*
X112337500Y-62307142D02*
X112480357Y-62378571D01*
X112837500Y-62378571D01*
X112980357Y-62307142D01*
X113051785Y-62164285D01*
X113051785Y-62021428D01*
X112980357Y-61878571D01*
X112837500Y-61807142D01*
X112480357Y-61807142D01*
X112337500Y-61735714D01*
X111623214Y-62378571D02*
X111623214Y-61378571D01*
X111623214Y-60878571D02*
X111694642Y-60950000D01*
X111623214Y-61021428D01*
X111551785Y-60950000D01*
X111623214Y-60878571D01*
X111623214Y-61021428D01*
X110908928Y-61378571D02*
X110908928Y-62378571D01*
X110908928Y-61521428D02*
X110837500Y-61450000D01*
X110694642Y-61378571D01*
X110480357Y-61378571D01*
X110337500Y-61450000D01*
X110266071Y-61592857D01*
X110266071Y-62378571D01*
D10*
X123492976Y-64052380D02*
X123826309Y-63576190D01*
X124064404Y-64052380D02*
X124064404Y-63052380D01*
X123683452Y-63052380D01*
X123588214Y-63100000D01*
X123540595Y-63147619D01*
X123492976Y-63242857D01*
X123492976Y-63385714D01*
X123540595Y-63480952D01*
X123588214Y-63528571D01*
X123683452Y-63576190D01*
X124064404Y-63576190D01*
X122683452Y-64004761D02*
X122778690Y-64052380D01*
X122969166Y-64052380D01*
X123064404Y-64004761D01*
X123112023Y-63909523D01*
X123112023Y-63528571D01*
X123064404Y-63433333D01*
X122969166Y-63385714D01*
X122778690Y-63385714D01*
X122683452Y-63433333D01*
X122635833Y-63528571D01*
X122635833Y-63623809D01*
X123112023Y-63719047D01*
X122302500Y-63385714D02*
X122064404Y-64052380D01*
X121826309Y-63385714D01*
X120159642Y-64052380D02*
X120731071Y-64052380D01*
X120445357Y-64052380D02*
X120445357Y-63052380D01*
X120540595Y-63195238D01*
X120635833Y-63290476D01*
X120731071Y-63338095D01*
X119778690Y-63766666D02*
X119302500Y-63766666D01*
X119873928Y-64052380D02*
X119540595Y-63052380D01*
X119207261Y-64052380D01*
X124012023Y-64847619D02*
X123964404Y-64800000D01*
X123869166Y-64752380D01*
X123631071Y-64752380D01*
X123535833Y-64800000D01*
X123488214Y-64847619D01*
X123440595Y-64942857D01*
X123440595Y-65038095D01*
X123488214Y-65180952D01*
X124059642Y-65752380D01*
X123440595Y-65752380D01*
X122821547Y-64752380D02*
X122726309Y-64752380D01*
X122631071Y-64800000D01*
X122583452Y-64847619D01*
X122535833Y-64942857D01*
X122488214Y-65133333D01*
X122488214Y-65371428D01*
X122535833Y-65561904D01*
X122583452Y-65657142D01*
X122631071Y-65704761D01*
X122726309Y-65752380D01*
X122821547Y-65752380D01*
X122916785Y-65704761D01*
X122964404Y-65657142D01*
X123012023Y-65561904D01*
X123059642Y-65371428D01*
X123059642Y-65133333D01*
X123012023Y-64942857D01*
X122964404Y-64847619D01*
X122916785Y-64800000D01*
X122821547Y-64752380D01*
X122107261Y-64847619D02*
X122059642Y-64800000D01*
X121964404Y-64752380D01*
X121726309Y-64752380D01*
X121631071Y-64800000D01*
X121583452Y-64847619D01*
X121535833Y-64942857D01*
X121535833Y-65038095D01*
X121583452Y-65180952D01*
X122154880Y-65752380D01*
X121535833Y-65752380D01*
X121154880Y-64847619D02*
X121107261Y-64800000D01*
X121012023Y-64752380D01*
X120773928Y-64752380D01*
X120678690Y-64800000D01*
X120631071Y-64847619D01*
X120583452Y-64942857D01*
X120583452Y-65038095D01*
X120631071Y-65180952D01*
X121202500Y-65752380D01*
X120583452Y-65752380D01*
X119440595Y-64704761D02*
X120297738Y-65990476D01*
X118916785Y-64752380D02*
X118821547Y-64752380D01*
X118726309Y-64800000D01*
X118678690Y-64847619D01*
X118631071Y-64942857D01*
X118583452Y-65133333D01*
X118583452Y-65371428D01*
X118631071Y-65561904D01*
X118678690Y-65657142D01*
X118726309Y-65704761D01*
X118821547Y-65752380D01*
X118916785Y-65752380D01*
X119012023Y-65704761D01*
X119059642Y-65657142D01*
X119107261Y-65561904D01*
X119154880Y-65371428D01*
X119154880Y-65133333D01*
X119107261Y-64942857D01*
X119059642Y-64847619D01*
X119012023Y-64800000D01*
X118916785Y-64752380D01*
X118202500Y-64847619D02*
X118154880Y-64800000D01*
X118059642Y-64752380D01*
X117821547Y-64752380D01*
X117726309Y-64800000D01*
X117678690Y-64847619D01*
X117631071Y-64942857D01*
X117631071Y-65038095D01*
X117678690Y-65180952D01*
X118250119Y-65752380D01*
X117631071Y-65752380D01*
X116488214Y-64704761D02*
X117345357Y-65990476D01*
X115631071Y-65752380D02*
X116202500Y-65752380D01*
X115916785Y-65752380D02*
X115916785Y-64752380D01*
X116012023Y-64895238D01*
X116107261Y-64990476D01*
X116202500Y-65038095D01*
X114678690Y-65752380D02*
X115250119Y-65752380D01*
X114964404Y-65752380D02*
X114964404Y-64752380D01*
X115059642Y-64895238D01*
X115154880Y-64990476D01*
X115250119Y-65038095D01*
X123962023Y-67166666D02*
X123485833Y-67166666D01*
X124057261Y-67452380D02*
X123723928Y-66452380D01*
X123390595Y-67452380D01*
X122914404Y-67452380D02*
X123009642Y-67404761D01*
X123057261Y-67309523D01*
X123057261Y-66452380D01*
X122152500Y-67404761D02*
X122247738Y-67452380D01*
X122438214Y-67452380D01*
X122533452Y-67404761D01*
X122581071Y-67309523D01*
X122581071Y-66928571D01*
X122533452Y-66833333D01*
X122438214Y-66785714D01*
X122247738Y-66785714D01*
X122152500Y-66833333D01*
X122104880Y-66928571D01*
X122104880Y-67023809D01*
X122581071Y-67119047D01*
X121771547Y-67452380D02*
X121247738Y-66785714D01*
X121771547Y-66785714D02*
X121247738Y-67452380D01*
X120104880Y-67452380D02*
X120104880Y-66452380D01*
X119723928Y-66452380D01*
X119628690Y-66500000D01*
X119581071Y-66547619D01*
X119533452Y-66642857D01*
X119533452Y-66785714D01*
X119581071Y-66880952D01*
X119628690Y-66928571D01*
X119723928Y-66976190D01*
X120104880Y-66976190D01*
X118723928Y-67404761D02*
X118819166Y-67452380D01*
X119009642Y-67452380D01*
X119104880Y-67404761D01*
X119152500Y-67309523D01*
X119152500Y-66928571D01*
X119104880Y-66833333D01*
X119009642Y-66785714D01*
X118819166Y-66785714D01*
X118723928Y-66833333D01*
X118676309Y-66928571D01*
X118676309Y-67023809D01*
X119152500Y-67119047D01*
X118390595Y-66785714D02*
X118009642Y-66785714D01*
X118247738Y-66452380D02*
X118247738Y-67309523D01*
X118200119Y-67404761D01*
X118104880Y-67452380D01*
X118009642Y-67452380D01*
X117676309Y-67452380D02*
X117676309Y-66452380D01*
X117581071Y-67071428D02*
X117295357Y-67452380D01*
X117295357Y-66785714D02*
X117676309Y-67166666D01*
X116723928Y-67452380D02*
X116819166Y-67404761D01*
X116866785Y-67357142D01*
X116914404Y-67261904D01*
X116914404Y-66976190D01*
X116866785Y-66880952D01*
X116819166Y-66833333D01*
X116723928Y-66785714D01*
X116581071Y-66785714D01*
X116485833Y-66833333D01*
X116438214Y-66880952D01*
X116390595Y-66976190D01*
X116390595Y-67261904D01*
X116438214Y-67357142D01*
X116485833Y-67404761D01*
X116581071Y-67452380D01*
X116723928Y-67452380D01*
X116057261Y-66785714D02*
X115819166Y-67452380D01*
X115581071Y-66785714D01*
X115200119Y-67452380D02*
X115200119Y-66785714D01*
X115200119Y-66452380D02*
X115247738Y-66500000D01*
X115200119Y-66547619D01*
X115152500Y-66500000D01*
X115200119Y-66452380D01*
X115200119Y-66547619D01*
X114295357Y-67404761D02*
X114390595Y-67452380D01*
X114581071Y-67452380D01*
X114676309Y-67404761D01*
X114723928Y-67357142D01*
X114771547Y-67261904D01*
X114771547Y-66976190D01*
X114723928Y-66880952D01*
X114676309Y-66833333D01*
X114581071Y-66785714D01*
X114390595Y-66785714D01*
X114295357Y-66833333D01*
X146385714Y-124935714D02*
X146414285Y-124973809D01*
X146500000Y-125011904D01*
X146557142Y-125011904D01*
X146642857Y-124973809D01*
X146700000Y-124897619D01*
X146728571Y-124821428D01*
X146757142Y-124669047D01*
X146757142Y-124554761D01*
X146728571Y-124402380D01*
X146700000Y-124326190D01*
X146642857Y-124250000D01*
X146557142Y-124211904D01*
X146500000Y-124211904D01*
X146414285Y-124250000D01*
X146385714Y-124288095D01*
X146157142Y-124288095D02*
X146128571Y-124250000D01*
X146071428Y-124211904D01*
X145928571Y-124211904D01*
X145871428Y-124250000D01*
X145842857Y-124288095D01*
X145814285Y-124364285D01*
X145814285Y-124440476D01*
X145842857Y-124554761D01*
X146185714Y-125011904D01*
X145814285Y-125011904D01*
X145300000Y-124478571D02*
X145300000Y-125011904D01*
X145442857Y-124173809D02*
X145585714Y-124745238D01*
X145214285Y-124745238D01*
X139385714Y-119414285D02*
X139423809Y-119385714D01*
X139461904Y-119300000D01*
X139461904Y-119242857D01*
X139423809Y-119157142D01*
X139347619Y-119100000D01*
X139271428Y-119071428D01*
X139119047Y-119042857D01*
X139004761Y-119042857D01*
X138852380Y-119071428D01*
X138776190Y-119100000D01*
X138700000Y-119157142D01*
X138661904Y-119242857D01*
X138661904Y-119300000D01*
X138700000Y-119385714D01*
X138738095Y-119414285D01*
X138738095Y-119642857D02*
X138700000Y-119671428D01*
X138661904Y-119728571D01*
X138661904Y-119871428D01*
X138700000Y-119928571D01*
X138738095Y-119957142D01*
X138814285Y-119985714D01*
X138890476Y-119985714D01*
X139004761Y-119957142D01*
X139461904Y-119614285D01*
X139461904Y-119985714D01*
X138661904Y-120357142D02*
X138661904Y-120414285D01*
X138700000Y-120471428D01*
X138738095Y-120500000D01*
X138814285Y-120528571D01*
X138966666Y-120557142D01*
X139157142Y-120557142D01*
X139309523Y-120528571D01*
X139385714Y-120500000D01*
X139423809Y-120471428D01*
X139461904Y-120414285D01*
X139461904Y-120357142D01*
X139423809Y-120300000D01*
X139385714Y-120271428D01*
X139309523Y-120242857D01*
X139157142Y-120214285D01*
X138966666Y-120214285D01*
X138814285Y-120242857D01*
X138738095Y-120271428D01*
X138700000Y-120300000D01*
X138661904Y-120357142D01*
X125285714Y-89935714D02*
X125314285Y-89973809D01*
X125400000Y-90011904D01*
X125457142Y-90011904D01*
X125542857Y-89973809D01*
X125600000Y-89897619D01*
X125628571Y-89821428D01*
X125657142Y-89669047D01*
X125657142Y-89554761D01*
X125628571Y-89402380D01*
X125600000Y-89326190D01*
X125542857Y-89250000D01*
X125457142Y-89211904D01*
X125400000Y-89211904D01*
X125314285Y-89250000D01*
X125285714Y-89288095D01*
X124771428Y-89478571D02*
X124771428Y-90011904D01*
X124914285Y-89173809D02*
X125057142Y-89745238D01*
X124685714Y-89745238D01*
X124200000Y-89211904D02*
X124314285Y-89211904D01*
X124371428Y-89250000D01*
X124400000Y-89288095D01*
X124457142Y-89402380D01*
X124485714Y-89554761D01*
X124485714Y-89859523D01*
X124457142Y-89935714D01*
X124428571Y-89973809D01*
X124371428Y-90011904D01*
X124257142Y-90011904D01*
X124200000Y-89973809D01*
X124171428Y-89935714D01*
X124142857Y-89859523D01*
X124142857Y-89669047D01*
X124171428Y-89592857D01*
X124200000Y-89554761D01*
X124257142Y-89516666D01*
X124371428Y-89516666D01*
X124428571Y-89554761D01*
X124457142Y-89592857D01*
X124485714Y-89669047D01*
X135775000Y-130486904D02*
X135975000Y-130105952D01*
X136117857Y-130486904D02*
X136117857Y-129686904D01*
X135889285Y-129686904D01*
X135832142Y-129725000D01*
X135803571Y-129763095D01*
X135775000Y-129839285D01*
X135775000Y-129953571D01*
X135803571Y-130029761D01*
X135832142Y-130067857D01*
X135889285Y-130105952D01*
X136117857Y-130105952D01*
X135489285Y-130486904D02*
X135375000Y-130486904D01*
X135317857Y-130448809D01*
X135289285Y-130410714D01*
X135232142Y-130296428D01*
X135203571Y-130144047D01*
X135203571Y-129839285D01*
X135232142Y-129763095D01*
X135260714Y-129725000D01*
X135317857Y-129686904D01*
X135432142Y-129686904D01*
X135489285Y-129725000D01*
X135517857Y-129763095D01*
X135546428Y-129839285D01*
X135546428Y-130029761D01*
X135517857Y-130105952D01*
X135489285Y-130144047D01*
X135432142Y-130182142D01*
X135317857Y-130182142D01*
X135260714Y-130144047D01*
X135232142Y-130105952D01*
X135203571Y-130029761D01*
X140986904Y-129389285D02*
X140605952Y-129189285D01*
X140986904Y-129046428D02*
X140186904Y-129046428D01*
X140186904Y-129275000D01*
X140225000Y-129332142D01*
X140263095Y-129360714D01*
X140339285Y-129389285D01*
X140453571Y-129389285D01*
X140529761Y-129360714D01*
X140567857Y-129332142D01*
X140605952Y-129275000D01*
X140605952Y-129046428D01*
X140986904Y-129960714D02*
X140986904Y-129617857D01*
X140986904Y-129789285D02*
X140186904Y-129789285D01*
X140301190Y-129732142D01*
X140377380Y-129675000D01*
X140415476Y-129617857D01*
X140986904Y-130532142D02*
X140986904Y-130189285D01*
X140986904Y-130360714D02*
X140186904Y-130360714D01*
X140301190Y-130303571D01*
X140377380Y-130246428D01*
X140415476Y-130189285D01*
X131585714Y-93864285D02*
X131623809Y-93835714D01*
X131661904Y-93750000D01*
X131661904Y-93692857D01*
X131623809Y-93607142D01*
X131547619Y-93550000D01*
X131471428Y-93521428D01*
X131319047Y-93492857D01*
X131204761Y-93492857D01*
X131052380Y-93521428D01*
X130976190Y-93550000D01*
X130900000Y-93607142D01*
X130861904Y-93692857D01*
X130861904Y-93750000D01*
X130900000Y-93835714D01*
X130938095Y-93864285D01*
X131128571Y-94378571D02*
X131661904Y-94378571D01*
X130823809Y-94235714D02*
X131395238Y-94092857D01*
X131395238Y-94464285D01*
X130938095Y-94664285D02*
X130900000Y-94692857D01*
X130861904Y-94750000D01*
X130861904Y-94892857D01*
X130900000Y-94950000D01*
X130938095Y-94978571D01*
X131014285Y-95007142D01*
X131090476Y-95007142D01*
X131204761Y-94978571D01*
X131661904Y-94635714D01*
X131661904Y-95007142D01*
X155385714Y-123564285D02*
X155423809Y-123535714D01*
X155461904Y-123450000D01*
X155461904Y-123392857D01*
X155423809Y-123307142D01*
X155347619Y-123250000D01*
X155271428Y-123221428D01*
X155119047Y-123192857D01*
X155004761Y-123192857D01*
X154852380Y-123221428D01*
X154776190Y-123250000D01*
X154700000Y-123307142D01*
X154661904Y-123392857D01*
X154661904Y-123450000D01*
X154700000Y-123535714D01*
X154738095Y-123564285D01*
X155461904Y-124135714D02*
X155461904Y-123792857D01*
X155461904Y-123964285D02*
X154661904Y-123964285D01*
X154776190Y-123907142D01*
X154852380Y-123850000D01*
X154890476Y-123792857D01*
X154738095Y-124364285D02*
X154700000Y-124392857D01*
X154661904Y-124450000D01*
X154661904Y-124592857D01*
X154700000Y-124650000D01*
X154738095Y-124678571D01*
X154814285Y-124707142D01*
X154890476Y-124707142D01*
X155004761Y-124678571D01*
X155461904Y-124335714D01*
X155461904Y-124707142D01*
X148642857Y-130900000D02*
X148642857Y-130700000D01*
X149061904Y-130700000D02*
X148261904Y-130700000D01*
X148261904Y-130985714D01*
X148261904Y-131471428D02*
X148261904Y-131357142D01*
X148300000Y-131300000D01*
X148338095Y-131271428D01*
X148452380Y-131214285D01*
X148604761Y-131185714D01*
X148909523Y-131185714D01*
X148985714Y-131214285D01*
X149023809Y-131242857D01*
X149061904Y-131300000D01*
X149061904Y-131414285D01*
X149023809Y-131471428D01*
X148985714Y-131500000D01*
X148909523Y-131528571D01*
X148719047Y-131528571D01*
X148642857Y-131500000D01*
X148604761Y-131471428D01*
X148566666Y-131414285D01*
X148566666Y-131300000D01*
X148604761Y-131242857D01*
X148642857Y-131214285D01*
X148719047Y-131185714D01*
X129135714Y-89811904D02*
X129335714Y-89430952D01*
X129478571Y-89811904D02*
X129478571Y-89011904D01*
X129250000Y-89011904D01*
X129192857Y-89050000D01*
X129164285Y-89088095D01*
X129135714Y-89164285D01*
X129135714Y-89278571D01*
X129164285Y-89354761D01*
X129192857Y-89392857D01*
X129250000Y-89430952D01*
X129478571Y-89430952D01*
X128592857Y-89011904D02*
X128878571Y-89011904D01*
X128907142Y-89392857D01*
X128878571Y-89354761D01*
X128821428Y-89316666D01*
X128678571Y-89316666D01*
X128621428Y-89354761D01*
X128592857Y-89392857D01*
X128564285Y-89469047D01*
X128564285Y-89659523D01*
X128592857Y-89735714D01*
X128621428Y-89773809D01*
X128678571Y-89811904D01*
X128821428Y-89811904D01*
X128878571Y-89773809D01*
X128907142Y-89735714D01*
X128278571Y-89811904D02*
X128164285Y-89811904D01*
X128107142Y-89773809D01*
X128078571Y-89735714D01*
X128021428Y-89621428D01*
X127992857Y-89469047D01*
X127992857Y-89164285D01*
X128021428Y-89088095D01*
X128050000Y-89050000D01*
X128107142Y-89011904D01*
X128221428Y-89011904D01*
X128278571Y-89050000D01*
X128307142Y-89088095D01*
X128335714Y-89164285D01*
X128335714Y-89354761D01*
X128307142Y-89430952D01*
X128278571Y-89469047D01*
X128221428Y-89507142D01*
X128107142Y-89507142D01*
X128050000Y-89469047D01*
X128021428Y-89430952D01*
X127992857Y-89354761D01*
X132885714Y-118514285D02*
X132923809Y-118485714D01*
X132961904Y-118400000D01*
X132961904Y-118342857D01*
X132923809Y-118257142D01*
X132847619Y-118200000D01*
X132771428Y-118171428D01*
X132619047Y-118142857D01*
X132504761Y-118142857D01*
X132352380Y-118171428D01*
X132276190Y-118200000D01*
X132200000Y-118257142D01*
X132161904Y-118342857D01*
X132161904Y-118400000D01*
X132200000Y-118485714D01*
X132238095Y-118514285D01*
X132961904Y-119085714D02*
X132961904Y-118742857D01*
X132961904Y-118914285D02*
X132161904Y-118914285D01*
X132276190Y-118857142D01*
X132352380Y-118800000D01*
X132390476Y-118742857D01*
X132161904Y-119628571D02*
X132161904Y-119342857D01*
X132542857Y-119314285D01*
X132504761Y-119342857D01*
X132466666Y-119400000D01*
X132466666Y-119542857D01*
X132504761Y-119600000D01*
X132542857Y-119628571D01*
X132619047Y-119657142D01*
X132809523Y-119657142D01*
X132885714Y-119628571D01*
X132923809Y-119600000D01*
X132961904Y-119542857D01*
X132961904Y-119400000D01*
X132923809Y-119342857D01*
X132885714Y-119314285D01*
X146117857Y-130900000D02*
X146117857Y-130700000D01*
X146536904Y-130700000D02*
X145736904Y-130700000D01*
X145736904Y-130985714D01*
X145736904Y-131500000D02*
X145736904Y-131214285D01*
X146117857Y-131185714D01*
X146079761Y-131214285D01*
X146041666Y-131271428D01*
X146041666Y-131414285D01*
X146079761Y-131471428D01*
X146117857Y-131500000D01*
X146194047Y-131528571D01*
X146384523Y-131528571D01*
X146460714Y-131500000D01*
X146498809Y-131471428D01*
X146536904Y-131414285D01*
X146536904Y-131271428D01*
X146498809Y-131214285D01*
X146460714Y-131185714D01*
X185350000Y-72385714D02*
X185378571Y-72423809D01*
X185464285Y-72461904D01*
X185521428Y-72461904D01*
X185607142Y-72423809D01*
X185664285Y-72347619D01*
X185692857Y-72271428D01*
X185721428Y-72119047D01*
X185721428Y-72004761D01*
X185692857Y-71852380D01*
X185664285Y-71776190D01*
X185607142Y-71700000D01*
X185521428Y-71661904D01*
X185464285Y-71661904D01*
X185378571Y-71700000D01*
X185350000Y-71738095D01*
X184835714Y-71661904D02*
X184950000Y-71661904D01*
X185007142Y-71700000D01*
X185035714Y-71738095D01*
X185092857Y-71852380D01*
X185121428Y-72004761D01*
X185121428Y-72309523D01*
X185092857Y-72385714D01*
X185064285Y-72423809D01*
X185007142Y-72461904D01*
X184892857Y-72461904D01*
X184835714Y-72423809D01*
X184807142Y-72385714D01*
X184778571Y-72309523D01*
X184778571Y-72119047D01*
X184807142Y-72042857D01*
X184835714Y-72004761D01*
X184892857Y-71966666D01*
X185007142Y-71966666D01*
X185064285Y-72004761D01*
X185092857Y-72042857D01*
X185121428Y-72119047D01*
X130935714Y-91014285D02*
X130973809Y-90985714D01*
X131011904Y-90900000D01*
X131011904Y-90842857D01*
X130973809Y-90757142D01*
X130897619Y-90700000D01*
X130821428Y-90671428D01*
X130669047Y-90642857D01*
X130554761Y-90642857D01*
X130402380Y-90671428D01*
X130326190Y-90700000D01*
X130250000Y-90757142D01*
X130211904Y-90842857D01*
X130211904Y-90900000D01*
X130250000Y-90985714D01*
X130288095Y-91014285D01*
X130478571Y-91528571D02*
X131011904Y-91528571D01*
X130173809Y-91385714D02*
X130745238Y-91242857D01*
X130745238Y-91614285D01*
X130211904Y-91785714D02*
X130211904Y-92157142D01*
X130516666Y-91957142D01*
X130516666Y-92042857D01*
X130554761Y-92100000D01*
X130592857Y-92128571D01*
X130669047Y-92157142D01*
X130859523Y-92157142D01*
X130935714Y-92128571D01*
X130973809Y-92100000D01*
X131011904Y-92042857D01*
X131011904Y-91871428D01*
X130973809Y-91814285D01*
X130935714Y-91785714D01*
X132711904Y-93914285D02*
X132330952Y-93714285D01*
X132711904Y-93571428D02*
X131911904Y-93571428D01*
X131911904Y-93800000D01*
X131950000Y-93857142D01*
X131988095Y-93885714D01*
X132064285Y-93914285D01*
X132178571Y-93914285D01*
X132254761Y-93885714D01*
X132292857Y-93857142D01*
X132330952Y-93800000D01*
X132330952Y-93571428D01*
X131911904Y-94457142D02*
X131911904Y-94171428D01*
X132292857Y-94142857D01*
X132254761Y-94171428D01*
X132216666Y-94228571D01*
X132216666Y-94371428D01*
X132254761Y-94428571D01*
X132292857Y-94457142D01*
X132369047Y-94485714D01*
X132559523Y-94485714D01*
X132635714Y-94457142D01*
X132673809Y-94428571D01*
X132711904Y-94371428D01*
X132711904Y-94228571D01*
X132673809Y-94171428D01*
X132635714Y-94142857D01*
X132254761Y-94828571D02*
X132216666Y-94771428D01*
X132178571Y-94742857D01*
X132102380Y-94714285D01*
X132064285Y-94714285D01*
X131988095Y-94742857D01*
X131950000Y-94771428D01*
X131911904Y-94828571D01*
X131911904Y-94942857D01*
X131950000Y-95000000D01*
X131988095Y-95028571D01*
X132064285Y-95057142D01*
X132102380Y-95057142D01*
X132178571Y-95028571D01*
X132216666Y-95000000D01*
X132254761Y-94942857D01*
X132254761Y-94828571D01*
X132292857Y-94771428D01*
X132330952Y-94742857D01*
X132407142Y-94714285D01*
X132559523Y-94714285D01*
X132635714Y-94742857D01*
X132673809Y-94771428D01*
X132711904Y-94828571D01*
X132711904Y-94942857D01*
X132673809Y-95000000D01*
X132635714Y-95028571D01*
X132559523Y-95057142D01*
X132407142Y-95057142D01*
X132330952Y-95028571D01*
X132292857Y-95000000D01*
X132254761Y-94942857D01*
X128935714Y-100411904D02*
X129135714Y-100030952D01*
X129278571Y-100411904D02*
X129278571Y-99611904D01*
X129050000Y-99611904D01*
X128992857Y-99650000D01*
X128964285Y-99688095D01*
X128935714Y-99764285D01*
X128935714Y-99878571D01*
X128964285Y-99954761D01*
X128992857Y-99992857D01*
X129050000Y-100030952D01*
X129278571Y-100030952D01*
X128421428Y-99611904D02*
X128535714Y-99611904D01*
X128592857Y-99650000D01*
X128621428Y-99688095D01*
X128678571Y-99802380D01*
X128707142Y-99954761D01*
X128707142Y-100259523D01*
X128678571Y-100335714D01*
X128650000Y-100373809D01*
X128592857Y-100411904D01*
X128478571Y-100411904D01*
X128421428Y-100373809D01*
X128392857Y-100335714D01*
X128364285Y-100259523D01*
X128364285Y-100069047D01*
X128392857Y-99992857D01*
X128421428Y-99954761D01*
X128478571Y-99916666D01*
X128592857Y-99916666D01*
X128650000Y-99954761D01*
X128678571Y-99992857D01*
X128707142Y-100069047D01*
X127992857Y-99611904D02*
X127935714Y-99611904D01*
X127878571Y-99650000D01*
X127850000Y-99688095D01*
X127821428Y-99764285D01*
X127792857Y-99916666D01*
X127792857Y-100107142D01*
X127821428Y-100259523D01*
X127850000Y-100335714D01*
X127878571Y-100373809D01*
X127935714Y-100411904D01*
X127992857Y-100411904D01*
X128050000Y-100373809D01*
X128078571Y-100335714D01*
X128107142Y-100259523D01*
X128135714Y-100107142D01*
X128135714Y-99916666D01*
X128107142Y-99764285D01*
X128078571Y-99688095D01*
X128050000Y-99650000D01*
X127992857Y-99611904D01*
X137350000Y-132286904D02*
X137550000Y-131905952D01*
X137692857Y-132286904D02*
X137692857Y-131486904D01*
X137464285Y-131486904D01*
X137407142Y-131525000D01*
X137378571Y-131563095D01*
X137350000Y-131639285D01*
X137350000Y-131753571D01*
X137378571Y-131829761D01*
X137407142Y-131867857D01*
X137464285Y-131905952D01*
X137692857Y-131905952D01*
X137007142Y-131829761D02*
X137064285Y-131791666D01*
X137092857Y-131753571D01*
X137121428Y-131677380D01*
X137121428Y-131639285D01*
X137092857Y-131563095D01*
X137064285Y-131525000D01*
X137007142Y-131486904D01*
X136892857Y-131486904D01*
X136835714Y-131525000D01*
X136807142Y-131563095D01*
X136778571Y-131639285D01*
X136778571Y-131677380D01*
X136807142Y-131753571D01*
X136835714Y-131791666D01*
X136892857Y-131829761D01*
X137007142Y-131829761D01*
X137064285Y-131867857D01*
X137092857Y-131905952D01*
X137121428Y-131982142D01*
X137121428Y-132134523D01*
X137092857Y-132210714D01*
X137064285Y-132248809D01*
X137007142Y-132286904D01*
X136892857Y-132286904D01*
X136835714Y-132248809D01*
X136807142Y-132210714D01*
X136778571Y-132134523D01*
X136778571Y-131982142D01*
X136807142Y-131905952D01*
X136835714Y-131867857D01*
X136892857Y-131829761D01*
X183700000Y-67985714D02*
X183728571Y-68023809D01*
X183814285Y-68061904D01*
X183871428Y-68061904D01*
X183957142Y-68023809D01*
X184014285Y-67947619D01*
X184042857Y-67871428D01*
X184071428Y-67719047D01*
X184071428Y-67604761D01*
X184042857Y-67452380D01*
X184014285Y-67376190D01*
X183957142Y-67300000D01*
X183871428Y-67261904D01*
X183814285Y-67261904D01*
X183728571Y-67300000D01*
X183700000Y-67338095D01*
X183357142Y-67604761D02*
X183414285Y-67566666D01*
X183442857Y-67528571D01*
X183471428Y-67452380D01*
X183471428Y-67414285D01*
X183442857Y-67338095D01*
X183414285Y-67300000D01*
X183357142Y-67261904D01*
X183242857Y-67261904D01*
X183185714Y-67300000D01*
X183157142Y-67338095D01*
X183128571Y-67414285D01*
X183128571Y-67452380D01*
X183157142Y-67528571D01*
X183185714Y-67566666D01*
X183242857Y-67604761D01*
X183357142Y-67604761D01*
X183414285Y-67642857D01*
X183442857Y-67680952D01*
X183471428Y-67757142D01*
X183471428Y-67909523D01*
X183442857Y-67985714D01*
X183414285Y-68023809D01*
X183357142Y-68061904D01*
X183242857Y-68061904D01*
X183185714Y-68023809D01*
X183157142Y-67985714D01*
X183128571Y-67909523D01*
X183128571Y-67757142D01*
X183157142Y-67680952D01*
X183185714Y-67642857D01*
X183242857Y-67604761D01*
X146335714Y-126035714D02*
X146364285Y-126073809D01*
X146450000Y-126111904D01*
X146507142Y-126111904D01*
X146592857Y-126073809D01*
X146650000Y-125997619D01*
X146678571Y-125921428D01*
X146707142Y-125769047D01*
X146707142Y-125654761D01*
X146678571Y-125502380D01*
X146650000Y-125426190D01*
X146592857Y-125350000D01*
X146507142Y-125311904D01*
X146450000Y-125311904D01*
X146364285Y-125350000D01*
X146335714Y-125388095D01*
X146107142Y-125388095D02*
X146078571Y-125350000D01*
X146021428Y-125311904D01*
X145878571Y-125311904D01*
X145821428Y-125350000D01*
X145792857Y-125388095D01*
X145764285Y-125464285D01*
X145764285Y-125540476D01*
X145792857Y-125654761D01*
X146135714Y-126111904D01*
X145764285Y-126111904D01*
X145564285Y-125311904D02*
X145192857Y-125311904D01*
X145392857Y-125616666D01*
X145307142Y-125616666D01*
X145250000Y-125654761D01*
X145221428Y-125692857D01*
X145192857Y-125769047D01*
X145192857Y-125959523D01*
X145221428Y-126035714D01*
X145250000Y-126073809D01*
X145307142Y-126111904D01*
X145478571Y-126111904D01*
X145535714Y-126073809D01*
X145564285Y-126035714D01*
X141511904Y-120364285D02*
X141130952Y-120164285D01*
X141511904Y-120021428D02*
X140711904Y-120021428D01*
X140711904Y-120250000D01*
X140750000Y-120307142D01*
X140788095Y-120335714D01*
X140864285Y-120364285D01*
X140978571Y-120364285D01*
X141054761Y-120335714D01*
X141092857Y-120307142D01*
X141130952Y-120250000D01*
X141130952Y-120021428D01*
X141511904Y-120935714D02*
X141511904Y-120592857D01*
X141511904Y-120764285D02*
X140711904Y-120764285D01*
X140826190Y-120707142D01*
X140902380Y-120650000D01*
X140940476Y-120592857D01*
X140711904Y-121478571D02*
X140711904Y-121192857D01*
X141092857Y-121164285D01*
X141054761Y-121192857D01*
X141016666Y-121250000D01*
X141016666Y-121392857D01*
X141054761Y-121450000D01*
X141092857Y-121478571D01*
X141169047Y-121507142D01*
X141359523Y-121507142D01*
X141435714Y-121478571D01*
X141473809Y-121450000D01*
X141511904Y-121392857D01*
X141511904Y-121250000D01*
X141473809Y-121192857D01*
X141435714Y-121164285D01*
X131661904Y-95864285D02*
X131280952Y-95664285D01*
X131661904Y-95521428D02*
X130861904Y-95521428D01*
X130861904Y-95750000D01*
X130900000Y-95807142D01*
X130938095Y-95835714D01*
X131014285Y-95864285D01*
X131128571Y-95864285D01*
X131204761Y-95835714D01*
X131242857Y-95807142D01*
X131280952Y-95750000D01*
X131280952Y-95521428D01*
X130861904Y-96378571D02*
X130861904Y-96264285D01*
X130900000Y-96207142D01*
X130938095Y-96178571D01*
X131052380Y-96121428D01*
X131204761Y-96092857D01*
X131509523Y-96092857D01*
X131585714Y-96121428D01*
X131623809Y-96150000D01*
X131661904Y-96207142D01*
X131661904Y-96321428D01*
X131623809Y-96378571D01*
X131585714Y-96407142D01*
X131509523Y-96435714D01*
X131319047Y-96435714D01*
X131242857Y-96407142D01*
X131204761Y-96378571D01*
X131166666Y-96321428D01*
X131166666Y-96207142D01*
X131204761Y-96150000D01*
X131242857Y-96121428D01*
X131319047Y-96092857D01*
X131128571Y-96950000D02*
X131661904Y-96950000D01*
X130823809Y-96807142D02*
X131395238Y-96664285D01*
X131395238Y-97035714D01*
X174585714Y-82511904D02*
X174785714Y-82130952D01*
X174928571Y-82511904D02*
X174928571Y-81711904D01*
X174700000Y-81711904D01*
X174642857Y-81750000D01*
X174614285Y-81788095D01*
X174585714Y-81864285D01*
X174585714Y-81978571D01*
X174614285Y-82054761D01*
X174642857Y-82092857D01*
X174700000Y-82130952D01*
X174928571Y-82130952D01*
X174042857Y-81711904D02*
X174328571Y-81711904D01*
X174357142Y-82092857D01*
X174328571Y-82054761D01*
X174271428Y-82016666D01*
X174128571Y-82016666D01*
X174071428Y-82054761D01*
X174042857Y-82092857D01*
X174014285Y-82169047D01*
X174014285Y-82359523D01*
X174042857Y-82435714D01*
X174071428Y-82473809D01*
X174128571Y-82511904D01*
X174271428Y-82511904D01*
X174328571Y-82473809D01*
X174357142Y-82435714D01*
X173785714Y-81788095D02*
X173757142Y-81750000D01*
X173700000Y-81711904D01*
X173557142Y-81711904D01*
X173500000Y-81750000D01*
X173471428Y-81788095D01*
X173442857Y-81864285D01*
X173442857Y-81940476D01*
X173471428Y-82054761D01*
X173814285Y-82511904D01*
X173442857Y-82511904D01*
X182000000Y-65885714D02*
X182028571Y-65923809D01*
X182114285Y-65961904D01*
X182171428Y-65961904D01*
X182257142Y-65923809D01*
X182314285Y-65847619D01*
X182342857Y-65771428D01*
X182371428Y-65619047D01*
X182371428Y-65504761D01*
X182342857Y-65352380D01*
X182314285Y-65276190D01*
X182257142Y-65200000D01*
X182171428Y-65161904D01*
X182114285Y-65161904D01*
X182028571Y-65200000D01*
X182000000Y-65238095D01*
X181485714Y-65428571D02*
X181485714Y-65961904D01*
X181628571Y-65123809D02*
X181771428Y-65695238D01*
X181400000Y-65695238D01*
X132610714Y-126489285D02*
X132648809Y-126460714D01*
X132686904Y-126375000D01*
X132686904Y-126317857D01*
X132648809Y-126232142D01*
X132572619Y-126175000D01*
X132496428Y-126146428D01*
X132344047Y-126117857D01*
X132229761Y-126117857D01*
X132077380Y-126146428D01*
X132001190Y-126175000D01*
X131925000Y-126232142D01*
X131886904Y-126317857D01*
X131886904Y-126375000D01*
X131925000Y-126460714D01*
X131963095Y-126489285D01*
X132686904Y-127060714D02*
X132686904Y-126717857D01*
X132686904Y-126889285D02*
X131886904Y-126889285D01*
X132001190Y-126832142D01*
X132077380Y-126775000D01*
X132115476Y-126717857D01*
X131886904Y-127575000D02*
X131886904Y-127460714D01*
X131925000Y-127403571D01*
X131963095Y-127375000D01*
X132077380Y-127317857D01*
X132229761Y-127289285D01*
X132534523Y-127289285D01*
X132610714Y-127317857D01*
X132648809Y-127346428D01*
X132686904Y-127403571D01*
X132686904Y-127517857D01*
X132648809Y-127575000D01*
X132610714Y-127603571D01*
X132534523Y-127632142D01*
X132344047Y-127632142D01*
X132267857Y-127603571D01*
X132229761Y-127575000D01*
X132191666Y-127517857D01*
X132191666Y-127403571D01*
X132229761Y-127346428D01*
X132267857Y-127317857D01*
X132344047Y-127289285D01*
X142511904Y-128050000D02*
X142130952Y-127850000D01*
X142511904Y-127707142D02*
X141711904Y-127707142D01*
X141711904Y-127935714D01*
X141750000Y-127992857D01*
X141788095Y-128021428D01*
X141864285Y-128050000D01*
X141978571Y-128050000D01*
X142054761Y-128021428D01*
X142092857Y-127992857D01*
X142130952Y-127935714D01*
X142130952Y-127707142D01*
X141711904Y-128250000D02*
X141711904Y-128650000D01*
X142511904Y-128392857D01*
X130411904Y-97814285D02*
X130030952Y-97614285D01*
X130411904Y-97471428D02*
X129611904Y-97471428D01*
X129611904Y-97700000D01*
X129650000Y-97757142D01*
X129688095Y-97785714D01*
X129764285Y-97814285D01*
X129878571Y-97814285D01*
X129954761Y-97785714D01*
X129992857Y-97757142D01*
X130030952Y-97700000D01*
X130030952Y-97471428D01*
X129611904Y-98328571D02*
X129611904Y-98214285D01*
X129650000Y-98157142D01*
X129688095Y-98128571D01*
X129802380Y-98071428D01*
X129954761Y-98042857D01*
X130259523Y-98042857D01*
X130335714Y-98071428D01*
X130373809Y-98100000D01*
X130411904Y-98157142D01*
X130411904Y-98271428D01*
X130373809Y-98328571D01*
X130335714Y-98357142D01*
X130259523Y-98385714D01*
X130069047Y-98385714D01*
X129992857Y-98357142D01*
X129954761Y-98328571D01*
X129916666Y-98271428D01*
X129916666Y-98157142D01*
X129954761Y-98100000D01*
X129992857Y-98071428D01*
X130069047Y-98042857D01*
X130411904Y-98957142D02*
X130411904Y-98614285D01*
X130411904Y-98785714D02*
X129611904Y-98785714D01*
X129726190Y-98728571D01*
X129802380Y-98671428D01*
X129840476Y-98614285D01*
X144911904Y-124864285D02*
X144530952Y-124664285D01*
X144911904Y-124521428D02*
X144111904Y-124521428D01*
X144111904Y-124750000D01*
X144150000Y-124807142D01*
X144188095Y-124835714D01*
X144264285Y-124864285D01*
X144378571Y-124864285D01*
X144454761Y-124835714D01*
X144492857Y-124807142D01*
X144530952Y-124750000D01*
X144530952Y-124521428D01*
X144911904Y-125435714D02*
X144911904Y-125092857D01*
X144911904Y-125264285D02*
X144111904Y-125264285D01*
X144226190Y-125207142D01*
X144302380Y-125150000D01*
X144340476Y-125092857D01*
X144111904Y-125635714D02*
X144111904Y-126007142D01*
X144416666Y-125807142D01*
X144416666Y-125892857D01*
X144454761Y-125950000D01*
X144492857Y-125978571D01*
X144569047Y-126007142D01*
X144759523Y-126007142D01*
X144835714Y-125978571D01*
X144873809Y-125950000D01*
X144911904Y-125892857D01*
X144911904Y-125721428D01*
X144873809Y-125664285D01*
X144835714Y-125635714D01*
X131060714Y-126439285D02*
X131098809Y-126410714D01*
X131136904Y-126325000D01*
X131136904Y-126267857D01*
X131098809Y-126182142D01*
X131022619Y-126125000D01*
X130946428Y-126096428D01*
X130794047Y-126067857D01*
X130679761Y-126067857D01*
X130527380Y-126096428D01*
X130451190Y-126125000D01*
X130375000Y-126182142D01*
X130336904Y-126267857D01*
X130336904Y-126325000D01*
X130375000Y-126410714D01*
X130413095Y-126439285D01*
X131136904Y-127010714D02*
X131136904Y-126667857D01*
X131136904Y-126839285D02*
X130336904Y-126839285D01*
X130451190Y-126782142D01*
X130527380Y-126725000D01*
X130565476Y-126667857D01*
X130603571Y-127525000D02*
X131136904Y-127525000D01*
X130298809Y-127382142D02*
X130870238Y-127239285D01*
X130870238Y-127610714D01*
X125836333Y-100374323D02*
X125864904Y-100412418D01*
X125950619Y-100450513D01*
X126007761Y-100450513D01*
X126093476Y-100412418D01*
X126150619Y-100336228D01*
X126179190Y-100260037D01*
X126207761Y-100107656D01*
X126207761Y-99993370D01*
X126179190Y-99840989D01*
X126150619Y-99764799D01*
X126093476Y-99688609D01*
X126007761Y-99650513D01*
X125950619Y-99650513D01*
X125864904Y-99688609D01*
X125836333Y-99726704D01*
X125293476Y-99650513D02*
X125579190Y-99650513D01*
X125607761Y-100031466D01*
X125579190Y-99993370D01*
X125522047Y-99955275D01*
X125379190Y-99955275D01*
X125322047Y-99993370D01*
X125293476Y-100031466D01*
X125264904Y-100107656D01*
X125264904Y-100298132D01*
X125293476Y-100374323D01*
X125322047Y-100412418D01*
X125379190Y-100450513D01*
X125522047Y-100450513D01*
X125579190Y-100412418D01*
X125607761Y-100374323D01*
X124893476Y-99650513D02*
X124836333Y-99650513D01*
X124779190Y-99688609D01*
X124750619Y-99726704D01*
X124722047Y-99802894D01*
X124693476Y-99955275D01*
X124693476Y-100145751D01*
X124722047Y-100298132D01*
X124750619Y-100374323D01*
X124779190Y-100412418D01*
X124836333Y-100450513D01*
X124893476Y-100450513D01*
X124950619Y-100412418D01*
X124979190Y-100374323D01*
X125007761Y-100298132D01*
X125036333Y-100145751D01*
X125036333Y-99955275D01*
X125007761Y-99802894D01*
X124979190Y-99726704D01*
X124950619Y-99688609D01*
X124893476Y-99650513D01*
X186650000Y-78061904D02*
X186935714Y-78061904D01*
X186935714Y-77261904D01*
X186135714Y-78061904D02*
X186478571Y-78061904D01*
X186307142Y-78061904D02*
X186307142Y-77261904D01*
X186364285Y-77376190D01*
X186421428Y-77452380D01*
X186478571Y-77490476D01*
X184761904Y-81714285D02*
X184380952Y-81514285D01*
X184761904Y-81371428D02*
X183961904Y-81371428D01*
X183961904Y-81600000D01*
X184000000Y-81657142D01*
X184038095Y-81685714D01*
X184114285Y-81714285D01*
X184228571Y-81714285D01*
X184304761Y-81685714D01*
X184342857Y-81657142D01*
X184380952Y-81600000D01*
X184380952Y-81371428D01*
X183961904Y-82228571D02*
X183961904Y-82114285D01*
X184000000Y-82057142D01*
X184038095Y-82028571D01*
X184152380Y-81971428D01*
X184304761Y-81942857D01*
X184609523Y-81942857D01*
X184685714Y-81971428D01*
X184723809Y-82000000D01*
X184761904Y-82057142D01*
X184761904Y-82171428D01*
X184723809Y-82228571D01*
X184685714Y-82257142D01*
X184609523Y-82285714D01*
X184419047Y-82285714D01*
X184342857Y-82257142D01*
X184304761Y-82228571D01*
X184266666Y-82171428D01*
X184266666Y-82057142D01*
X184304761Y-82000000D01*
X184342857Y-81971428D01*
X184419047Y-81942857D01*
X183961904Y-82828571D02*
X183961904Y-82542857D01*
X184342857Y-82514285D01*
X184304761Y-82542857D01*
X184266666Y-82600000D01*
X184266666Y-82742857D01*
X184304761Y-82800000D01*
X184342857Y-82828571D01*
X184419047Y-82857142D01*
X184609523Y-82857142D01*
X184685714Y-82828571D01*
X184723809Y-82800000D01*
X184761904Y-82742857D01*
X184761904Y-82600000D01*
X184723809Y-82542857D01*
X184685714Y-82514285D01*
X138385714Y-119464285D02*
X138423809Y-119435714D01*
X138461904Y-119350000D01*
X138461904Y-119292857D01*
X138423809Y-119207142D01*
X138347619Y-119150000D01*
X138271428Y-119121428D01*
X138119047Y-119092857D01*
X138004761Y-119092857D01*
X137852380Y-119121428D01*
X137776190Y-119150000D01*
X137700000Y-119207142D01*
X137661904Y-119292857D01*
X137661904Y-119350000D01*
X137700000Y-119435714D01*
X137738095Y-119464285D01*
X138461904Y-120035714D02*
X138461904Y-119692857D01*
X138461904Y-119864285D02*
X137661904Y-119864285D01*
X137776190Y-119807142D01*
X137852380Y-119750000D01*
X137890476Y-119692857D01*
X138461904Y-120321428D02*
X138461904Y-120435714D01*
X138423809Y-120492857D01*
X138385714Y-120521428D01*
X138271428Y-120578571D01*
X138119047Y-120607142D01*
X137814285Y-120607142D01*
X137738095Y-120578571D01*
X137700000Y-120550000D01*
X137661904Y-120492857D01*
X137661904Y-120378571D01*
X137700000Y-120321428D01*
X137738095Y-120292857D01*
X137814285Y-120264285D01*
X138004761Y-120264285D01*
X138080952Y-120292857D01*
X138119047Y-120321428D01*
X138157142Y-120378571D01*
X138157142Y-120492857D01*
X138119047Y-120550000D01*
X138080952Y-120578571D01*
X138004761Y-120607142D01*
X138950000Y-131236904D02*
X139150000Y-130855952D01*
X139292857Y-131236904D02*
X139292857Y-130436904D01*
X139064285Y-130436904D01*
X139007142Y-130475000D01*
X138978571Y-130513095D01*
X138950000Y-130589285D01*
X138950000Y-130703571D01*
X138978571Y-130779761D01*
X139007142Y-130817857D01*
X139064285Y-130855952D01*
X139292857Y-130855952D01*
X138435714Y-130436904D02*
X138550000Y-130436904D01*
X138607142Y-130475000D01*
X138635714Y-130513095D01*
X138692857Y-130627380D01*
X138721428Y-130779761D01*
X138721428Y-131084523D01*
X138692857Y-131160714D01*
X138664285Y-131198809D01*
X138607142Y-131236904D01*
X138492857Y-131236904D01*
X138435714Y-131198809D01*
X138407142Y-131160714D01*
X138378571Y-131084523D01*
X138378571Y-130894047D01*
X138407142Y-130817857D01*
X138435714Y-130779761D01*
X138492857Y-130741666D01*
X138607142Y-130741666D01*
X138664285Y-130779761D01*
X138692857Y-130817857D01*
X138721428Y-130894047D01*
X143667857Y-130925000D02*
X143667857Y-130725000D01*
X144086904Y-130725000D02*
X143286904Y-130725000D01*
X143286904Y-131010714D01*
X143553571Y-131496428D02*
X144086904Y-131496428D01*
X143248809Y-131353571D02*
X143820238Y-131210714D01*
X143820238Y-131582142D01*
X151292857Y-130900000D02*
X151292857Y-130700000D01*
X151711904Y-130700000D02*
X150911904Y-130700000D01*
X150911904Y-130985714D01*
X150911904Y-131157142D02*
X150911904Y-131557142D01*
X151711904Y-131300000D01*
X137457142Y-125061904D02*
X137457142Y-125709523D01*
X137428571Y-125785714D01*
X137400000Y-125823809D01*
X137342857Y-125861904D01*
X137228571Y-125861904D01*
X137171428Y-125823809D01*
X137142857Y-125785714D01*
X137114285Y-125709523D01*
X137114285Y-125061904D01*
X136857142Y-125138095D02*
X136828571Y-125100000D01*
X136771428Y-125061904D01*
X136628571Y-125061904D01*
X136571428Y-125100000D01*
X136542857Y-125138095D01*
X136514285Y-125214285D01*
X136514285Y-125290476D01*
X136542857Y-125404761D01*
X136885714Y-125861904D01*
X136514285Y-125861904D01*
X124924943Y-91920641D02*
X124953514Y-91958736D01*
X125039229Y-91996831D01*
X125096371Y-91996831D01*
X125182086Y-91958736D01*
X125239229Y-91882546D01*
X125267800Y-91806355D01*
X125296371Y-91653974D01*
X125296371Y-91539688D01*
X125267800Y-91387307D01*
X125239229Y-91311117D01*
X125182086Y-91234927D01*
X125096371Y-91196831D01*
X125039229Y-91196831D01*
X124953514Y-91234927D01*
X124924943Y-91273022D01*
X124410657Y-91463498D02*
X124410657Y-91996831D01*
X124553514Y-91158736D02*
X124696371Y-91730165D01*
X124324943Y-91730165D01*
X123839229Y-91463498D02*
X123839229Y-91996831D01*
X123982086Y-91158736D02*
X124124943Y-91730165D01*
X123753514Y-91730165D01*
X132711904Y-95864285D02*
X132330952Y-95664285D01*
X132711904Y-95521428D02*
X131911904Y-95521428D01*
X131911904Y-95750000D01*
X131950000Y-95807142D01*
X131988095Y-95835714D01*
X132064285Y-95864285D01*
X132178571Y-95864285D01*
X132254761Y-95835714D01*
X132292857Y-95807142D01*
X132330952Y-95750000D01*
X132330952Y-95521428D01*
X131911904Y-96378571D02*
X131911904Y-96264285D01*
X131950000Y-96207142D01*
X131988095Y-96178571D01*
X132102380Y-96121428D01*
X132254761Y-96092857D01*
X132559523Y-96092857D01*
X132635714Y-96121428D01*
X132673809Y-96150000D01*
X132711904Y-96207142D01*
X132711904Y-96321428D01*
X132673809Y-96378571D01*
X132635714Y-96407142D01*
X132559523Y-96435714D01*
X132369047Y-96435714D01*
X132292857Y-96407142D01*
X132254761Y-96378571D01*
X132216666Y-96321428D01*
X132216666Y-96207142D01*
X132254761Y-96150000D01*
X132292857Y-96121428D01*
X132369047Y-96092857D01*
X131911904Y-96635714D02*
X131911904Y-97007142D01*
X132216666Y-96807142D01*
X132216666Y-96892857D01*
X132254761Y-96950000D01*
X132292857Y-96978571D01*
X132369047Y-97007142D01*
X132559523Y-97007142D01*
X132635714Y-96978571D01*
X132673809Y-96950000D01*
X132711904Y-96892857D01*
X132711904Y-96721428D01*
X132673809Y-96664285D01*
X132635714Y-96635714D01*
X137411904Y-119414285D02*
X137030952Y-119214285D01*
X137411904Y-119071428D02*
X136611904Y-119071428D01*
X136611904Y-119300000D01*
X136650000Y-119357142D01*
X136688095Y-119385714D01*
X136764285Y-119414285D01*
X136878571Y-119414285D01*
X136954761Y-119385714D01*
X136992857Y-119357142D01*
X137030952Y-119300000D01*
X137030952Y-119071428D01*
X137411904Y-119985714D02*
X137411904Y-119642857D01*
X137411904Y-119814285D02*
X136611904Y-119814285D01*
X136726190Y-119757142D01*
X136802380Y-119700000D01*
X136840476Y-119642857D01*
X136688095Y-120214285D02*
X136650000Y-120242857D01*
X136611904Y-120300000D01*
X136611904Y-120442857D01*
X136650000Y-120500000D01*
X136688095Y-120528571D01*
X136764285Y-120557142D01*
X136840476Y-120557142D01*
X136954761Y-120528571D01*
X137411904Y-120185714D01*
X137411904Y-120557142D01*
X172800000Y-69935714D02*
X172828571Y-69973809D01*
X172914285Y-70011904D01*
X172971428Y-70011904D01*
X173057142Y-69973809D01*
X173114285Y-69897619D01*
X173142857Y-69821428D01*
X173171428Y-69669047D01*
X173171428Y-69554761D01*
X173142857Y-69402380D01*
X173114285Y-69326190D01*
X173057142Y-69250000D01*
X172971428Y-69211904D01*
X172914285Y-69211904D01*
X172828571Y-69250000D01*
X172800000Y-69288095D01*
X172571428Y-69288095D02*
X172542857Y-69250000D01*
X172485714Y-69211904D01*
X172342857Y-69211904D01*
X172285714Y-69250000D01*
X172257142Y-69288095D01*
X172228571Y-69364285D01*
X172228571Y-69440476D01*
X172257142Y-69554761D01*
X172600000Y-70011904D01*
X172228571Y-70011904D01*
X175507142Y-67511904D02*
X175507142Y-68159523D01*
X175478571Y-68235714D01*
X175450000Y-68273809D01*
X175392857Y-68311904D01*
X175278571Y-68311904D01*
X175221428Y-68273809D01*
X175192857Y-68235714D01*
X175164285Y-68159523D01*
X175164285Y-67511904D01*
X174564285Y-68311904D02*
X174907142Y-68311904D01*
X174735714Y-68311904D02*
X174735714Y-67511904D01*
X174792857Y-67626190D01*
X174850000Y-67702380D01*
X174907142Y-67740476D01*
X137635714Y-127836904D02*
X137835714Y-127455952D01*
X137978571Y-127836904D02*
X137978571Y-127036904D01*
X137750000Y-127036904D01*
X137692857Y-127075000D01*
X137664285Y-127113095D01*
X137635714Y-127189285D01*
X137635714Y-127303571D01*
X137664285Y-127379761D01*
X137692857Y-127417857D01*
X137750000Y-127455952D01*
X137978571Y-127455952D01*
X137064285Y-127836904D02*
X137407142Y-127836904D01*
X137235714Y-127836904D02*
X137235714Y-127036904D01*
X137292857Y-127151190D01*
X137350000Y-127227380D01*
X137407142Y-127265476D01*
X136692857Y-127036904D02*
X136635714Y-127036904D01*
X136578571Y-127075000D01*
X136550000Y-127113095D01*
X136521428Y-127189285D01*
X136492857Y-127341666D01*
X136492857Y-127532142D01*
X136521428Y-127684523D01*
X136550000Y-127760714D01*
X136578571Y-127798809D01*
X136635714Y-127836904D01*
X136692857Y-127836904D01*
X136750000Y-127798809D01*
X136778571Y-127760714D01*
X136807142Y-127684523D01*
X136835714Y-127532142D01*
X136835714Y-127341666D01*
X136807142Y-127189285D01*
X136778571Y-127113095D01*
X136750000Y-127075000D01*
X136692857Y-127036904D01*
X134535714Y-118514285D02*
X134573809Y-118485714D01*
X134611904Y-118400000D01*
X134611904Y-118342857D01*
X134573809Y-118257142D01*
X134497619Y-118200000D01*
X134421428Y-118171428D01*
X134269047Y-118142857D01*
X134154761Y-118142857D01*
X134002380Y-118171428D01*
X133926190Y-118200000D01*
X133850000Y-118257142D01*
X133811904Y-118342857D01*
X133811904Y-118400000D01*
X133850000Y-118485714D01*
X133888095Y-118514285D01*
X134611904Y-119085714D02*
X134611904Y-118742857D01*
X134611904Y-118914285D02*
X133811904Y-118914285D01*
X133926190Y-118857142D01*
X134002380Y-118800000D01*
X134040476Y-118742857D01*
X133811904Y-119285714D02*
X133811904Y-119685714D01*
X134611904Y-119428571D01*
X186600000Y-72935714D02*
X186628571Y-72973809D01*
X186714285Y-73011904D01*
X186771428Y-73011904D01*
X186857142Y-72973809D01*
X186914285Y-72897619D01*
X186942857Y-72821428D01*
X186971428Y-72669047D01*
X186971428Y-72554761D01*
X186942857Y-72402380D01*
X186914285Y-72326190D01*
X186857142Y-72250000D01*
X186771428Y-72211904D01*
X186714285Y-72211904D01*
X186628571Y-72250000D01*
X186600000Y-72288095D01*
X186400000Y-72211904D02*
X186000000Y-72211904D01*
X186257142Y-73011904D01*
X141985714Y-122935714D02*
X142014285Y-122973809D01*
X142100000Y-123011904D01*
X142157142Y-123011904D01*
X142242857Y-122973809D01*
X142300000Y-122897619D01*
X142328571Y-122821428D01*
X142357142Y-122669047D01*
X142357142Y-122554761D01*
X142328571Y-122402380D01*
X142300000Y-122326190D01*
X142242857Y-122250000D01*
X142157142Y-122211904D01*
X142100000Y-122211904D01*
X142014285Y-122250000D01*
X141985714Y-122288095D01*
X141757142Y-122288095D02*
X141728571Y-122250000D01*
X141671428Y-122211904D01*
X141528571Y-122211904D01*
X141471428Y-122250000D01*
X141442857Y-122288095D01*
X141414285Y-122364285D01*
X141414285Y-122440476D01*
X141442857Y-122554761D01*
X141785714Y-123011904D01*
X141414285Y-123011904D01*
X141185714Y-122288095D02*
X141157142Y-122250000D01*
X141100000Y-122211904D01*
X140957142Y-122211904D01*
X140900000Y-122250000D01*
X140871428Y-122288095D01*
X140842857Y-122364285D01*
X140842857Y-122440476D01*
X140871428Y-122554761D01*
X141214285Y-123011904D01*
X140842857Y-123011904D01*
X143785714Y-127035714D02*
X143814285Y-127073809D01*
X143900000Y-127111904D01*
X143957142Y-127111904D01*
X144042857Y-127073809D01*
X144100000Y-126997619D01*
X144128571Y-126921428D01*
X144157142Y-126769047D01*
X144157142Y-126654761D01*
X144128571Y-126502380D01*
X144100000Y-126426190D01*
X144042857Y-126350000D01*
X143957142Y-126311904D01*
X143900000Y-126311904D01*
X143814285Y-126350000D01*
X143785714Y-126388095D01*
X143557142Y-126388095D02*
X143528571Y-126350000D01*
X143471428Y-126311904D01*
X143328571Y-126311904D01*
X143271428Y-126350000D01*
X143242857Y-126388095D01*
X143214285Y-126464285D01*
X143214285Y-126540476D01*
X143242857Y-126654761D01*
X143585714Y-127111904D01*
X143214285Y-127111904D01*
X142642857Y-127111904D02*
X142985714Y-127111904D01*
X142814285Y-127111904D02*
X142814285Y-126311904D01*
X142871428Y-126426190D01*
X142928571Y-126502380D01*
X142985714Y-126540476D01*
X175350000Y-80085714D02*
X175378571Y-80123809D01*
X175464285Y-80161904D01*
X175521428Y-80161904D01*
X175607142Y-80123809D01*
X175664285Y-80047619D01*
X175692857Y-79971428D01*
X175721428Y-79819047D01*
X175721428Y-79704761D01*
X175692857Y-79552380D01*
X175664285Y-79476190D01*
X175607142Y-79400000D01*
X175521428Y-79361904D01*
X175464285Y-79361904D01*
X175378571Y-79400000D01*
X175350000Y-79438095D01*
X174778571Y-80161904D02*
X175121428Y-80161904D01*
X174950000Y-80161904D02*
X174950000Y-79361904D01*
X175007142Y-79476190D01*
X175064285Y-79552380D01*
X175121428Y-79590476D01*
X132710714Y-129335714D02*
X132739285Y-129373809D01*
X132825000Y-129411904D01*
X132882142Y-129411904D01*
X132967857Y-129373809D01*
X133025000Y-129297619D01*
X133053571Y-129221428D01*
X133082142Y-129069047D01*
X133082142Y-128954761D01*
X133053571Y-128802380D01*
X133025000Y-128726190D01*
X132967857Y-128650000D01*
X132882142Y-128611904D01*
X132825000Y-128611904D01*
X132739285Y-128650000D01*
X132710714Y-128688095D01*
X132139285Y-129411904D02*
X132482142Y-129411904D01*
X132310714Y-129411904D02*
X132310714Y-128611904D01*
X132367857Y-128726190D01*
X132425000Y-128802380D01*
X132482142Y-128840476D01*
X131796428Y-128954761D02*
X131853571Y-128916666D01*
X131882142Y-128878571D01*
X131910714Y-128802380D01*
X131910714Y-128764285D01*
X131882142Y-128688095D01*
X131853571Y-128650000D01*
X131796428Y-128611904D01*
X131682142Y-128611904D01*
X131625000Y-128650000D01*
X131596428Y-128688095D01*
X131567857Y-128764285D01*
X131567857Y-128802380D01*
X131596428Y-128878571D01*
X131625000Y-128916666D01*
X131682142Y-128954761D01*
X131796428Y-128954761D01*
X131853571Y-128992857D01*
X131882142Y-129030952D01*
X131910714Y-129107142D01*
X131910714Y-129259523D01*
X131882142Y-129335714D01*
X131853571Y-129373809D01*
X131796428Y-129411904D01*
X131682142Y-129411904D01*
X131625000Y-129373809D01*
X131596428Y-129335714D01*
X131567857Y-129259523D01*
X131567857Y-129107142D01*
X131596428Y-129030952D01*
X131625000Y-128992857D01*
X131682142Y-128954761D01*
X185842908Y-81710344D02*
X185461956Y-81510344D01*
X185842908Y-81367487D02*
X185042908Y-81367487D01*
X185042908Y-81596059D01*
X185081004Y-81653201D01*
X185119099Y-81681773D01*
X185195289Y-81710344D01*
X185309575Y-81710344D01*
X185385765Y-81681773D01*
X185423861Y-81653201D01*
X185461956Y-81596059D01*
X185461956Y-81367487D01*
X185042908Y-82224630D02*
X185042908Y-82110344D01*
X185081004Y-82053201D01*
X185119099Y-82024630D01*
X185233384Y-81967487D01*
X185385765Y-81938916D01*
X185690527Y-81938916D01*
X185766718Y-81967487D01*
X185804813Y-81996059D01*
X185842908Y-82053201D01*
X185842908Y-82167487D01*
X185804813Y-82224630D01*
X185766718Y-82253201D01*
X185690527Y-82281773D01*
X185500051Y-82281773D01*
X185423861Y-82253201D01*
X185385765Y-82224630D01*
X185347670Y-82167487D01*
X185347670Y-82053201D01*
X185385765Y-81996059D01*
X185423861Y-81967487D01*
X185500051Y-81938916D01*
X185042908Y-82796059D02*
X185042908Y-82681773D01*
X185081004Y-82624630D01*
X185119099Y-82596059D01*
X185233384Y-82538916D01*
X185385765Y-82510344D01*
X185690527Y-82510344D01*
X185766718Y-82538916D01*
X185804813Y-82567487D01*
X185842908Y-82624630D01*
X185842908Y-82738916D01*
X185804813Y-82796059D01*
X185766718Y-82824630D01*
X185690527Y-82853201D01*
X185500051Y-82853201D01*
X185423861Y-82824630D01*
X185385765Y-82796059D01*
X185347670Y-82738916D01*
X185347670Y-82624630D01*
X185385765Y-82567487D01*
X185423861Y-82538916D01*
X185500051Y-82510344D01*
X136085714Y-118514285D02*
X136123809Y-118485714D01*
X136161904Y-118400000D01*
X136161904Y-118342857D01*
X136123809Y-118257142D01*
X136047619Y-118200000D01*
X135971428Y-118171428D01*
X135819047Y-118142857D01*
X135704761Y-118142857D01*
X135552380Y-118171428D01*
X135476190Y-118200000D01*
X135400000Y-118257142D01*
X135361904Y-118342857D01*
X135361904Y-118400000D01*
X135400000Y-118485714D01*
X135438095Y-118514285D01*
X136161904Y-119085714D02*
X136161904Y-118742857D01*
X136161904Y-118914285D02*
X135361904Y-118914285D01*
X135476190Y-118857142D01*
X135552380Y-118800000D01*
X135590476Y-118742857D01*
X135361904Y-119285714D02*
X135361904Y-119657142D01*
X135666666Y-119457142D01*
X135666666Y-119542857D01*
X135704761Y-119600000D01*
X135742857Y-119628571D01*
X135819047Y-119657142D01*
X136009523Y-119657142D01*
X136085714Y-119628571D01*
X136123809Y-119600000D01*
X136161904Y-119542857D01*
X136161904Y-119371428D01*
X136123809Y-119314285D01*
X136085714Y-119285714D01*
X186911904Y-81664285D02*
X186530952Y-81464285D01*
X186911904Y-81321428D02*
X186111904Y-81321428D01*
X186111904Y-81550000D01*
X186150000Y-81607142D01*
X186188095Y-81635714D01*
X186264285Y-81664285D01*
X186378571Y-81664285D01*
X186454761Y-81635714D01*
X186492857Y-81607142D01*
X186530952Y-81550000D01*
X186530952Y-81321428D01*
X186111904Y-82178571D02*
X186111904Y-82064285D01*
X186150000Y-82007142D01*
X186188095Y-81978571D01*
X186302380Y-81921428D01*
X186454761Y-81892857D01*
X186759523Y-81892857D01*
X186835714Y-81921428D01*
X186873809Y-81950000D01*
X186911904Y-82007142D01*
X186911904Y-82121428D01*
X186873809Y-82178571D01*
X186835714Y-82207142D01*
X186759523Y-82235714D01*
X186569047Y-82235714D01*
X186492857Y-82207142D01*
X186454761Y-82178571D01*
X186416666Y-82121428D01*
X186416666Y-82007142D01*
X186454761Y-81950000D01*
X186492857Y-81921428D01*
X186569047Y-81892857D01*
X186111904Y-82435714D02*
X186111904Y-82835714D01*
X186911904Y-82578571D01*
X124807142Y-94711904D02*
X124807142Y-95359523D01*
X124778571Y-95435714D01*
X124750000Y-95473809D01*
X124692857Y-95511904D01*
X124578571Y-95511904D01*
X124521428Y-95473809D01*
X124492857Y-95435714D01*
X124464285Y-95359523D01*
X124464285Y-94711904D01*
X124235714Y-94711904D02*
X123835714Y-94711904D01*
X124092857Y-95511904D01*
D12*
X142721586Y-124308750D02*
X142505914Y-124308750D01*
X142721586Y-125028750D02*
X142505914Y-125028750D01*
X138680000Y-121817836D02*
X138680000Y-121602164D01*
X139400000Y-121817836D02*
X139400000Y-121602164D01*
X125946540Y-90165185D02*
X125946540Y-89949513D01*
X126666540Y-90165185D02*
X126666540Y-89949513D01*
X137086359Y-129438750D02*
X137393641Y-129438750D01*
X137086359Y-130198750D02*
X137393641Y-130198750D01*
X139026359Y-128388750D02*
X139333641Y-128388750D01*
X139026359Y-129148750D02*
X139333641Y-129148750D01*
X129460000Y-94370185D02*
X129460000Y-94154513D01*
X128740000Y-94370185D02*
X128740000Y-94154513D01*
X156560000Y-124107836D02*
X156560000Y-123892164D01*
X155840000Y-124107836D02*
X155840000Y-123892164D01*
X148022500Y-130862742D02*
X148022500Y-131337258D01*
X146977500Y-130862742D02*
X146977500Y-131337258D01*
X126951540Y-90190990D02*
X126951540Y-89883708D01*
X127711540Y-90190990D02*
X127711540Y-89883708D01*
X133158750Y-121269330D02*
X133158750Y-120988170D01*
X132138750Y-121269330D02*
X132138750Y-120988170D01*
X145522500Y-130862742D02*
X145522500Y-131337258D01*
X144477500Y-130862742D02*
X144477500Y-131337258D01*
X184729899Y-74245679D02*
X184729899Y-73964519D01*
X185749899Y-74245679D02*
X185749899Y-73964519D01*
X128490000Y-91902929D02*
X128490000Y-91621769D01*
X129510000Y-91902929D02*
X129510000Y-91621769D01*
X129725000Y-94425990D02*
X129725000Y-94118708D01*
X130485000Y-94425990D02*
X130485000Y-94118708D01*
X127505000Y-99665990D02*
X127505000Y-99358708D01*
X126745000Y-99665990D02*
X126745000Y-99358708D01*
X137393641Y-131248750D02*
X137086359Y-131248750D01*
X137393641Y-130488750D02*
X137086359Y-130488750D01*
X183899899Y-69237935D02*
X183899899Y-69022263D01*
X183179899Y-69237935D02*
X183179899Y-69022263D01*
X142701586Y-126028750D02*
X142485914Y-126028750D01*
X142701586Y-125308750D02*
X142485914Y-125308750D01*
X139680000Y-121576359D02*
X139680000Y-121883641D01*
X140440000Y-121576359D02*
X140440000Y-121883641D01*
X129485000Y-96375990D02*
X129485000Y-96068708D01*
X128725000Y-96375990D02*
X128725000Y-96068708D01*
X174353641Y-81430000D02*
X174046359Y-81430000D01*
X174353641Y-80670000D02*
X174046359Y-80670000D01*
X182249899Y-67157935D02*
X182249899Y-66942263D01*
X181529899Y-67157935D02*
X181529899Y-66942263D01*
X132823750Y-124659330D02*
X132823750Y-124378170D01*
X131803750Y-124659330D02*
X131803750Y-124378170D01*
X140733750Y-127965109D02*
X140733750Y-128272391D01*
X141493750Y-127965109D02*
X141493750Y-128272391D01*
X128375000Y-98325990D02*
X128375000Y-98018708D01*
X129135000Y-98325990D02*
X129135000Y-98018708D01*
X141523750Y-125025109D02*
X141523750Y-125332391D01*
X140763750Y-125025109D02*
X140763750Y-125332391D01*
X131258750Y-124348170D02*
X131258750Y-124629330D01*
X130238750Y-124348170D02*
X130238750Y-124629330D01*
X125547164Y-99407349D02*
X125762836Y-99407349D01*
X125547164Y-98687349D02*
X125762836Y-98687349D01*
X184800000Y-83836459D02*
X184800000Y-84143741D01*
X184040000Y-83836459D02*
X184040000Y-84143741D01*
X137678750Y-121826586D02*
X137678750Y-121610914D01*
X138398750Y-121826586D02*
X138398750Y-121610914D01*
X139026359Y-129438750D02*
X139333641Y-129438750D01*
X139026359Y-130198750D02*
X139333641Y-130198750D01*
X141977500Y-130862742D02*
X141977500Y-131337258D01*
X143022500Y-130862742D02*
X143022500Y-131337258D01*
X149477500Y-130837742D02*
X149477500Y-131312258D01*
X150522500Y-130837742D02*
X150522500Y-131312258D01*
X135262736Y-122852550D02*
X138464764Y-122852550D01*
X138464764Y-128084950D02*
X135262736Y-128084950D01*
X140724470Y-123243750D02*
G75*
G03*
X140724470Y-123243750I-110720J0D01*
G01*
X140613750Y-123243750D02*
G75*
G03*
X140613750Y-123243750I0J0D01*
G01*
X126857836Y-91897349D02*
X126642164Y-91897349D01*
X126857836Y-91177349D02*
X126642164Y-91177349D01*
X130480000Y-96058708D02*
X130480000Y-96365990D01*
X129720000Y-96058708D02*
X129720000Y-96365990D01*
X136640000Y-121853641D02*
X136640000Y-121546359D01*
X137400000Y-121853641D02*
X137400000Y-121546359D01*
X174367735Y-69990099D02*
X174152063Y-69990099D01*
X174367735Y-69270099D02*
X174152063Y-69270099D01*
X182796099Y-69703899D02*
X182796099Y-70189859D01*
X182796099Y-77146099D02*
X182310139Y-77146099D01*
X182310139Y-69703899D02*
X182796099Y-69703899D01*
X182796099Y-76660139D02*
X182796099Y-77146099D01*
X175353899Y-77146099D02*
X175353899Y-76660139D01*
X175353899Y-70189859D02*
X175353899Y-69703899D01*
X182310139Y-69703899D02*
X182796099Y-70189859D01*
X175839859Y-77146099D02*
X175353899Y-77146099D01*
X175353899Y-69703899D02*
X175839859Y-69703899D01*
X183435719Y-70174999D02*
G75*
G03*
X183435719Y-70174999I-110720J0D01*
G01*
X183324999Y-70174999D02*
G75*
G03*
X183324999Y-70174999I0J0D01*
G01*
X137096359Y-128388750D02*
X137403641Y-128388750D01*
X137096359Y-129148750D02*
X137403641Y-129148750D01*
X133678750Y-121279330D02*
X133678750Y-120998170D01*
X134698750Y-121279330D02*
X134698750Y-120998170D01*
X186899899Y-74257935D02*
X186899899Y-74042263D01*
X186179899Y-74257935D02*
X186179899Y-74042263D01*
X141671586Y-123308750D02*
X141455914Y-123308750D01*
X141671586Y-124028750D02*
X141455914Y-124028750D01*
X141671586Y-126308750D02*
X141455914Y-126308750D01*
X141671586Y-127028750D02*
X141455914Y-127028750D01*
X175599899Y-78142263D02*
X175599899Y-78357935D01*
X174879899Y-78142263D02*
X174879899Y-78357935D01*
X134523170Y-129528750D02*
X134804330Y-129528750D01*
X134523170Y-128508750D02*
X134804330Y-128508750D01*
X185070000Y-84143641D02*
X185070000Y-83836359D01*
X185830000Y-84143641D02*
X185830000Y-83836359D01*
X135218750Y-121279330D02*
X135218750Y-120998170D01*
X136238750Y-121279330D02*
X136238750Y-120998170D01*
X186100000Y-84143741D02*
X186100000Y-83836459D01*
X186860000Y-84143741D02*
X186860000Y-83836459D01*
X128431400Y-96973749D02*
X128252841Y-96973749D01*
X128252841Y-93620949D02*
X128431400Y-93620949D01*
X125078600Y-96973749D02*
X125078600Y-93620949D01*
X128431400Y-93620949D02*
X128431400Y-96973749D01*
X125257159Y-96973749D02*
X125078600Y-96973749D01*
X125078600Y-93620949D02*
X125257159Y-93620949D01*
X125255000Y-93147349D02*
G75*
G03*
X125255000Y-93147349I-50000J0D01*
G01*
X125316803Y-93147349D02*
G75*
G03*
X125316803Y-93147349I-111803J0D01*
G01*
M02*
