M48
INCH,TZ
T1C0.0118
T2C0.0197
T3C0.0315
T4C0.0374
T5C0.0394
T6C0.0394
T7C0.0472
T8C0.1181
%
G90
G05
T1
X44876Y-36943
X45006Y-40028
X45469Y-37828
X45469Y-38221
X45469Y-38615
X45469Y-39009
X45472Y-40921
X45472Y-41315
X45472Y-41708
X45472Y-42102
X45481Y-43292
X45481Y-43685
X45481Y-44079
X45541Y-36406
X45737Y-36109
X45863Y-37828
X45863Y-38221
X45863Y-38615
X45863Y-39009
X45865Y-40921
X45865Y-41315
X45865Y-41708
X45865Y-42102
X45875Y-43292
X45875Y-43685
X45875Y-44079
X45934Y-36406
X46131Y-36109
X46257Y-37828
X46257Y-38221
X46257Y-38615
X46257Y-39009
X46259Y-40921
X46259Y-41315
X46259Y-41708
X46259Y-42102
X46269Y-43292
X46269Y-43685
X46269Y-44079
X46314Y-30045
X46328Y-36406
X46525Y-36109
X46629Y-30045
X46650Y-37828
X46650Y-38221
X46650Y-38615
X46650Y-39009
X46653Y-40921
X46653Y-41315
X46653Y-41708
X46653Y-42102
X46662Y-43292
X46662Y-43685
X46662Y-44079
X46722Y-36406
X46919Y-36109
X46944Y-30045
X47087Y-48819
X47087Y-49213
X47087Y-49606
X47087Y-50000
X47115Y-36406
X47165Y-45118
X47205Y-26850
X47480Y-48819
X47480Y-49213
X47480Y-49606
X47480Y-50000
X47598Y-36929
X47598Y-37323
X47598Y-37717
X47598Y-38110
X47717Y-26969
X47874Y-48819
X47874Y-49213
X47874Y-49606
X47874Y-50000
X47945Y-34691
X47954Y-40025
X47992Y-36929
X47992Y-37323
X47992Y-37717
X47992Y-38110
X47992Y-44634
X48264Y-44634
X48339Y-34691
X48347Y-40025
X48539Y-44634
X48612Y-29734
X48638Y-29094
X48732Y-34691
X48741Y-40025
X48819Y-48819
X48819Y-49213
X48819Y-49606
X48819Y-50000
X49016Y-37913
X49126Y-34691
X49135Y-40025
X49213Y-48819
X49213Y-49213
X49213Y-49606
X49213Y-50000
X49370Y-35637
X49370Y-35913
X49370Y-36189
X49395Y-30602
X49395Y-30917
X49395Y-31232
X49520Y-34691
X49529Y-40026
X49606Y-48819
X49606Y-49213
X49606Y-49606
X49606Y-50000
X49642Y-37200
X49764Y-39331
X49826Y-37625
X49882Y-42953
X49882Y-43287
X49882Y-43622
X49913Y-34691
X49922Y-40025
X49961Y-26811
X50039Y-42678
X50039Y-43937
X50099Y-37886
X50153Y-37161
X50307Y-34691
X50316Y-40025
X50344Y-37385
X50394Y-35458
X50394Y-35827
X50397Y-38888
X50472Y-26969
X50485Y-37885
X50500Y-47996
X50542Y-37170
X50701Y-34691
X50710Y-40025
X50787Y-35458
X50936Y-38634
X51094Y-34691
X51098Y-49386
X51103Y-40025
X51181Y-35458
X51181Y-35827
X51220Y-36378
X51220Y-36654
X51488Y-34691
X51497Y-40025
X51614Y-38071
X51634Y-29744
X51661Y-29094
X51882Y-34691
X51891Y-40025
X51898Y-50024
X52209Y-46941
X52276Y-34691
X52284Y-40025
X52323Y-42677
X52438Y-30913
X52442Y-30602
X52442Y-31232
X52480Y-43291
X52481Y-42953
X52669Y-34691
X52678Y-40025
X52831Y-46945
X52992Y-26811
X53071Y-44409
X53283Y-49772
X53346Y-49020
X53441Y-46945
X53476Y-45480
X53504Y-26969
X53528Y-51110
X53539Y-51524
X53949Y-48661
X54291Y-42836
X54291Y-43230
X54291Y-43624
X54291Y-44017
X54343Y-47406
X54685Y-42836
X54685Y-43230
X54685Y-43624
X54685Y-44017
X54734Y-29744
X54736Y-29091
X54768Y-51441
X55079Y-42836
X55079Y-43230
X55079Y-43624
X55079Y-44017
X55138Y-47425
X55507Y-30602
X55507Y-30917
X55507Y-31232
X55555Y-50925
X56102Y-26811
X56197Y-50331
X56197Y-50646
X56197Y-50961
X56236Y-48701
X56614Y-26969
X56638Y-49291
X56646Y-49890
X57083Y-50331
X57083Y-50646
X57083Y-50961
X57490Y-27037
X57874Y-42520
X57874Y-42913
X57874Y-43307
X57874Y-43701
X57874Y-44094
X57953Y-36171
X57953Y-40669
X57953Y-40945
X57953Y-41220
X58067Y-50331
X58067Y-50646
X58067Y-50961
X58268Y-42520
X58268Y-42913
X58268Y-43307
X58268Y-43701
X58268Y-44094
X58478Y-36114
X58514Y-29006
X58576Y-30626
X58576Y-30941
X58576Y-31256
X58661Y-42520
X58661Y-42913
X58661Y-43307
X58661Y-43701
X58661Y-44094
X58789Y-29734
X58819Y-28780
X58829Y-27776
X58937Y-26654
X59051Y-50331
X59051Y-50646
X59051Y-50961
X59173Y-28780
X59183Y-27776
X59508Y-27776
X59528Y-28780
X60047Y-29323
X60276Y-28661
X60315Y-42756
X60315Y-43465
X60512Y-43110
X60591Y-27811
X60630Y-28504
X60709Y-42756
X60709Y-43465
X60906Y-43110
X60969Y-29311
X61024Y-31567
X61102Y-42756
X61102Y-43465
X61929Y-27283
X62126Y-28622
X62264Y-39783
X62264Y-40374
X62264Y-40965
X62264Y-41555
X62854Y-39783
X62854Y-40374
X62854Y-40965
X62854Y-41555
X63268Y-37441
X63268Y-37795
X63268Y-38110
X63394Y-53941
X63445Y-39783
X63445Y-40374
X63445Y-40965
X63445Y-41555
X63504Y-29055
X63711Y-30719
X64035Y-30719
X64035Y-39783
X64035Y-40374
X64035Y-40965
X64035Y-41555
X64094Y-27047
X64187Y-28903
X64228Y-32898
X64287Y-32278
X64332Y-24572
X64332Y-25228
X64449Y-27047
X64465Y-31917
X64744Y-31271
X64803Y-27047
X64945Y-53677
X64952Y-24900
X65394Y-27047
X65504Y-25116
X65669Y-36555
X65710Y-24697
X65748Y-27047
X65748Y-31407
X66012Y-53677
X66102Y-27047
X66102Y-37441
X66142Y-29488
X66280Y-31398
X66378Y-37913
X66378Y-38228
X66378Y-38622
X66378Y-38937
X66535Y-32244
X66555Y-30354
X66710Y-37911
X66712Y-38940
X66724Y-29591
X66772Y-30146
X66831Y-32008
X66969Y-30963
X67047Y-37913
X67047Y-38228
X67047Y-38622
X67047Y-38937
X67107Y-31812
X67204Y-28465
X68120Y-31902
X68216Y-28419
X68216Y-29207
X68216Y-29994
X68433Y-28813
X68433Y-29600
X68534Y-27114
X68649Y-30615
X68653Y-30875
X68796Y-27110
X69225Y-29008
X69225Y-29795
X69228Y-29398
X69229Y-28614
X69231Y-28223
X69449Y-33524
X69548Y-32743
X69606Y-26713
X69626Y-27657
X69685Y-32480
X69764Y-33524
X69815Y-30150
X69912Y-26716
X69941Y-27657
X69961Y-34429
X70010Y-31215
X70197Y-31909
X70197Y-33524
X70207Y-26819
X70211Y-29949
X70276Y-25826
X70404Y-30998
X70405Y-27648
X70433Y-32598
X70492Y-31914
X70596Y-26600
X70603Y-30150
X70709Y-32933
X70792Y-27657
X70797Y-31215
X70902Y-25721
X71043Y-32933
X71236Y-29776
X71295Y-25721
X71356Y-32598
X71378Y-33524
X71492Y-29047
X71512Y-27965
X71594Y-34035
X71728Y-28299
X72014Y-26587
X72015Y-26326
X72024Y-30583
X72024Y-30917
X72024Y-31350
X72260Y-31134
X72311Y-33280
X72313Y-32865
X72621Y-29906
X72850Y-30268
X73008Y-33681
X73047Y-26921
X73067Y-29894
X73425Y-26928
X73638Y-51602
X73716Y-30307
X73717Y-29987
T2
X72811Y-27748
X73559Y-27748
T3
X48956Y-45906
X50334Y-45906
X52960Y-53014
X53944Y-53014
X54764Y-33796
X54764Y-35174
X54774Y-39713
X54774Y-41091
T4
X56102Y-52748
X57087Y-52748
X58071Y-52748
X59055Y-52748
X60039Y-52748
T5
X66713Y-38425
T6
X58094Y-45677
X58094Y-46677
X59094Y-45677
X59094Y-46677
X60094Y-45677
X60094Y-46677
X61094Y-45677
X61094Y-46677
X62094Y-45677
X62094Y-46677
X62104Y-48370
X62104Y-49370
X63094Y-45677
X63094Y-46677
X63104Y-48370
X63104Y-49370
X64094Y-45677
X64094Y-46677
X64104Y-48370
X64104Y-49370
X68094Y-45680
X68094Y-46680
X69045Y-24173
X69094Y-45680
X69094Y-46680
X70045Y-24173
X70094Y-45680
X70094Y-46680
X71045Y-24173
X71094Y-45680
X71094Y-46680
X72094Y-45680
X72094Y-46680
T7
X43000Y-46085
X43000Y-47069
X43000Y-48053
X43000Y-49037
X43000Y-50022
X43000Y-51006
X43984Y-46085
X43984Y-47069
X43984Y-48053
X43984Y-49037
X43984Y-50022
X43984Y-51006
X62323Y-51248
X63307Y-51248
X64291Y-51248
X65276Y-51248
X66260Y-51248
X67638Y-53380
X68622Y-53380
X69606Y-53380
X70591Y-53380
X71575Y-53380
X73000Y-48716
X73000Y-49700
T8
X46693Y-52443
X50236Y-52443
T0
M30
