G04 #@! TF.GenerationSoftware,KiCad,Pcbnew,(6.0.0)*
G04 #@! TF.CreationDate,2022-02-12T01:51:37-05:00*
G04 #@! TF.ProjectId,FalconMain,46616c63-6f6e-44d6-9169-6e2e6b696361,1A*
G04 #@! TF.SameCoordinates,Original*
G04 #@! TF.FileFunction,Soldermask,Top*
G04 #@! TF.FilePolarity,Negative*
%FSLAX46Y46*%
G04 Gerber Fmt 4.6, Leading zero omitted, Abs format (unit mm)*
G04 Created by KiCad (PCBNEW (6.0.0)) date 2022-02-12 01:51:37*
%MOMM*%
%LPD*%
G01*
G04 APERTURE LIST*
G04 Aperture macros list*
%AMRoundRect*
0 Rectangle with rounded corners*
0 $1 Rounding radius*
0 $2 $3 $4 $5 $6 $7 $8 $9 X,Y pos of 4 corners*
0 Add a 4 corners polygon primitive as box body*
4,1,4,$2,$3,$4,$5,$6,$7,$8,$9,$2,$3,0*
0 Add four circle primitives for the rounded corners*
1,1,$1+$1,$2,$3*
1,1,$1+$1,$4,$5*
1,1,$1+$1,$6,$7*
1,1,$1+$1,$8,$9*
0 Add four rect primitives between the rounded corners*
20,1,$1+$1,$2,$3,$4,$5,0*
20,1,$1+$1,$4,$5,$6,$7,0*
20,1,$1+$1,$6,$7,$8,$9,0*
20,1,$1+$1,$8,$9,$2,$3,0*%
%AMFreePoly0*
4,1,23,0.945671,0.830970,1.026777,0.776777,1.080970,0.695671,1.100000,0.600000,1.100000,-0.600000,1.080970,-0.695671,1.026777,-0.776777,0.945671,-0.830970,0.850000,-0.850000,-0.450000,-0.850000,-0.545671,-0.830970,-0.626777,-0.776777,-0.626779,-0.776774,-1.026777,-0.376777,-1.080970,-0.295671,-1.100000,-0.200000,-1.100000,0.600000,-1.080970,0.695671,-1.026777,0.776777,-0.945671,0.830970,
-0.850000,0.850000,0.850000,0.850000,0.945671,0.830970,0.945671,0.830970,$1*%
%AMFreePoly1*
4,1,21,3.503536,2.353536,3.505000,2.350000,3.505000,-2.350000,3.503536,-2.353536,3.500000,-2.355000,2.000000,-2.355000,1.996464,-2.353536,1.995000,-2.350000,1.995000,-2.105000,-1.100000,-2.105000,-1.103536,-2.103536,-1.105000,-2.100000,-1.105000,2.100000,-1.103536,2.103536,-1.100000,2.105000,1.995000,2.105000,1.995000,2.350000,1.996464,2.353536,2.000000,2.355000,3.500000,2.355000,
3.503536,2.353536,3.503536,2.353536,$1*%
G04 Aperture macros list end*
%ADD10RoundRect,0.135000X0.135000X0.185000X-0.135000X0.185000X-0.135000X-0.185000X0.135000X-0.185000X0*%
%ADD11RoundRect,0.225000X-0.250000X0.225000X-0.250000X-0.225000X0.250000X-0.225000X0.250000X0.225000X0*%
%ADD12RoundRect,0.135000X0.185000X-0.135000X0.185000X0.135000X-0.185000X0.135000X-0.185000X-0.135000X0*%
%ADD13R,1.411199X0.568000*%
%ADD14RoundRect,0.250000X-1.100000X0.325000X-1.100000X-0.325000X1.100000X-0.325000X1.100000X0.325000X0*%
%ADD15C,2.700000*%
%ADD16R,0.700000X0.450000*%
%ADD17C,1.000000*%
%ADD18C,1.300000*%
%ADD19RoundRect,0.250000X0.600000X-0.850000X0.600000X0.850000X-0.600000X0.850000X-0.600000X-0.850000X0*%
%ADD20O,1.700000X2.200000*%
%ADD21RoundRect,0.135000X-0.185000X0.135000X-0.185000X-0.135000X0.185000X-0.135000X0.185000X0.135000X0*%
%ADD22RoundRect,0.250000X0.625000X-0.312500X0.625000X0.312500X-0.625000X0.312500X-0.625000X-0.312500X0*%
%ADD23RoundRect,0.135000X-0.135000X-0.185000X0.135000X-0.185000X0.135000X0.185000X-0.135000X0.185000X0*%
%ADD24R,4.500000X5.000000*%
%ADD25RoundRect,0.140000X-0.170000X0.140000X-0.170000X-0.140000X0.170000X-0.140000X0.170000X0.140000X0*%
%ADD26C,5.500000*%
%ADD27R,1.700000X1.700000*%
%ADD28O,1.700000X1.700000*%
%ADD29C,1.200000*%
%ADD30RoundRect,0.250000X-0.600000X-0.725000X0.600000X-0.725000X0.600000X0.725000X-0.600000X0.725000X0*%
%ADD31O,1.700000X1.950000*%
%ADD32R,3.000000X1.600000*%
%ADD33R,6.700000X6.700000*%
%ADD34RoundRect,0.140000X0.140000X0.170000X-0.140000X0.170000X-0.140000X-0.170000X0.140000X-0.170000X0*%
%ADD35R,1.600000X1.600000*%
%ADD36C,1.600000*%
%ADD37R,0.800000X0.900000*%
%ADD38R,0.620000X1.220000*%
%ADD39FreePoly0,180.000000*%
%ADD40O,2.200000X1.700000*%
%ADD41RoundRect,0.140000X-0.140000X-0.170000X0.140000X-0.170000X0.140000X0.170000X-0.140000X0.170000X0*%
%ADD42R,3.850000X5.000000*%
%ADD43R,1.150000X0.700000*%
%ADD44FreePoly1,0.000000*%
%ADD45RoundRect,0.250000X-0.600000X0.850000X-0.600000X-0.850000X0.600000X-0.850000X0.600000X0.850000X0*%
%ADD46RoundRect,0.250000X-0.362500X-1.425000X0.362500X-1.425000X0.362500X1.425000X-0.362500X1.425000X0*%
%ADD47RoundRect,0.200000X-0.275000X0.200000X-0.275000X-0.200000X0.275000X-0.200000X0.275000X0.200000X0*%
%ADD48R,0.900000X0.800000*%
%ADD49R,0.700000X1.150000*%
%ADD50FreePoly1,270.000000*%
%ADD51RoundRect,0.200000X0.200000X0.275000X-0.200000X0.275000X-0.200000X-0.275000X0.200000X-0.275000X0*%
%ADD52R,1.500000X0.650000*%
%ADD53R,2.700000X3.600000*%
%ADD54R,2.000000X5.500000*%
%ADD55RoundRect,0.200000X-0.200000X-0.275000X0.200000X-0.275000X0.200000X0.275000X-0.200000X0.275000X0*%
%ADD56R,0.450000X0.700000*%
%ADD57RoundRect,0.250000X0.312500X0.625000X-0.312500X0.625000X-0.312500X-0.625000X0.312500X-0.625000X0*%
%ADD58R,5.500000X4.500000*%
%ADD59RoundRect,0.250000X1.100000X-0.325000X1.100000X0.325000X-1.100000X0.325000X-1.100000X-0.325000X0*%
%ADD60RoundRect,0.250000X-0.325000X-1.100000X0.325000X-1.100000X0.325000X1.100000X-0.325000X1.100000X0*%
%ADD61R,1.168400X0.482600*%
%ADD62RoundRect,0.225000X0.250000X-0.225000X0.250000X0.225000X-0.250000X0.225000X-0.250000X-0.225000X0*%
%ADD63RoundRect,0.250000X1.450000X-0.250000X1.450000X0.250000X-1.450000X0.250000X-1.450000X-0.250000X0*%
%ADD64RoundRect,0.250000X0.600000X0.600000X-0.600000X0.600000X-0.600000X-0.600000X0.600000X-0.600000X0*%
%ADD65C,1.700000*%
%ADD66RoundRect,0.250000X-0.850000X0.375000X-0.850000X-0.375000X0.850000X-0.375000X0.850000X0.375000X0*%
%ADD67R,1.000000X0.700000*%
%ADD68FreePoly1,90.000000*%
%ADD69R,1.600000X3.000000*%
G04 APERTURE END LIST*
D10*
X140185000Y-73025000D03*
X139165000Y-73025000D03*
D11*
X143769000Y-66027000D03*
X143769000Y-67577000D03*
D12*
X119888000Y-67314000D03*
X119888000Y-66294000D03*
X167037856Y-78030000D03*
X167037856Y-77010000D03*
D13*
X116543000Y-68949999D03*
X116543000Y-70850001D03*
X118829000Y-69900000D03*
D14*
X132775000Y-102800000D03*
X132775000Y-105750000D03*
X126150000Y-84095000D03*
X126150000Y-87045000D03*
D15*
X110000000Y-135010000D03*
D14*
X167035000Y-67695000D03*
X167035000Y-70645000D03*
D16*
X139750000Y-75550000D03*
X139750000Y-74250000D03*
X137750000Y-74900000D03*
D13*
X123575000Y-68975000D03*
X123575000Y-70875002D03*
X125861000Y-69925001D03*
D17*
X184939899Y-70480099D03*
X186839899Y-70480099D03*
D18*
X162050000Y-131510000D03*
D19*
X158300000Y-130170000D03*
D20*
X160800000Y-130170000D03*
X163300000Y-130170000D03*
X165800000Y-130170000D03*
X168300000Y-130170000D03*
D21*
X166012856Y-77010000D03*
X166012856Y-78030000D03*
D22*
X120500000Y-120062500D03*
X120500000Y-117137500D03*
D23*
X179565429Y-81750000D03*
X180585429Y-81750000D03*
D16*
X187860000Y-130880000D03*
X187860000Y-129580000D03*
X185860000Y-130230000D03*
D24*
X122550000Y-94967349D03*
X133050000Y-94967349D03*
D25*
X120500000Y-100895000D03*
X120500000Y-101855000D03*
D12*
X142494000Y-67312000D03*
X142494000Y-66292000D03*
D11*
X128166104Y-65927000D03*
X128166104Y-67477000D03*
D21*
X133605000Y-66302000D03*
X133605000Y-67322000D03*
D15*
X130000000Y-61000000D03*
D26*
X127600000Y-133555000D03*
X118600000Y-133555000D03*
D12*
X126891104Y-67312000D03*
X126891104Y-66292000D03*
D27*
X162825000Y-122860000D03*
D28*
X162825000Y-125400000D03*
X160285000Y-122860000D03*
X160285000Y-125400000D03*
X157745000Y-122860000D03*
X157745000Y-125400000D03*
D21*
X188945000Y-130075000D03*
X188945000Y-131095000D03*
X115011000Y-69390000D03*
X115011000Y-70410000D03*
X160245000Y-136184139D03*
X160245000Y-137204139D03*
D29*
X140900000Y-135980000D03*
D30*
X142500000Y-133980000D03*
D31*
X145000000Y-133980000D03*
X147500000Y-133980000D03*
X150000000Y-133980000D03*
X152500000Y-133980000D03*
D13*
X118425000Y-73575000D03*
X118425000Y-75475002D03*
X120711000Y-74525001D03*
D27*
X162800000Y-116020000D03*
D28*
X162800000Y-118560000D03*
X160260000Y-116020000D03*
X160260000Y-118560000D03*
X157720000Y-116020000D03*
X157720000Y-118560000D03*
X155180000Y-116020000D03*
X155180000Y-118560000D03*
X152640000Y-116020000D03*
X152640000Y-118560000D03*
X150100000Y-116020000D03*
X150100000Y-118560000D03*
X147560000Y-116020000D03*
X147560000Y-118560000D03*
D13*
X131357000Y-68974999D03*
X131357000Y-70875001D03*
X133643000Y-69925000D03*
X139157000Y-68949999D03*
X139157000Y-70850001D03*
X141443000Y-69900000D03*
D10*
X153525000Y-77935000D03*
X152505000Y-77935000D03*
D32*
X154220000Y-111821000D03*
X154220000Y-107249000D03*
D33*
X146370000Y-109535000D03*
D10*
X132410000Y-73025000D03*
X131390000Y-73025000D03*
D14*
X129450000Y-84095000D03*
X129450000Y-87045000D03*
D23*
X166030000Y-75980000D03*
X167050000Y-75980000D03*
D10*
X154975000Y-73435000D03*
X153955000Y-73435000D03*
D12*
X134620000Y-67312000D03*
X134620000Y-66292000D03*
D34*
X166992856Y-79020000D03*
X166032856Y-79020000D03*
D15*
X188000000Y-61000000D03*
D35*
X134517621Y-134655000D03*
D36*
X137017621Y-134655000D03*
D37*
X152540000Y-75410000D03*
X154840000Y-75410000D03*
D14*
X132750000Y-84095000D03*
X132750000Y-87045000D03*
D10*
X158150000Y-134450000D03*
X157130000Y-134450000D03*
D12*
X165790000Y-137330000D03*
X165790000Y-136310000D03*
D38*
X129100000Y-124515000D03*
X130050000Y-124515000D03*
X131000000Y-124515000D03*
X131000000Y-121895000D03*
X130050000Y-121895000D03*
X129100000Y-121895000D03*
D18*
X186760000Y-124988000D03*
D39*
X185420000Y-126238000D03*
D40*
X185420000Y-123738000D03*
D41*
X150495000Y-67710000D03*
X151455000Y-67710000D03*
D21*
X116868000Y-73904999D03*
X116868000Y-74924999D03*
D10*
X122660000Y-73025000D03*
X121640000Y-73025000D03*
D34*
X162695000Y-82550000D03*
X161735000Y-82550000D03*
D21*
X164945100Y-82525100D03*
X164945100Y-83545100D03*
D13*
X133944500Y-73549999D03*
X133944500Y-75450001D03*
X136230500Y-74500000D03*
D42*
X166675000Y-106900000D03*
X178525000Y-106900000D03*
D21*
X141469000Y-66297000D03*
X141469000Y-67317000D03*
D10*
X130460000Y-73025000D03*
X129440000Y-73025000D03*
D43*
X135675000Y-108417500D03*
X135675000Y-109687500D03*
X135675000Y-110957500D03*
X135675000Y-112227500D03*
D44*
X138400000Y-110322500D03*
D23*
X117790000Y-120400000D03*
X118810000Y-120400000D03*
D15*
X130005000Y-110000000D03*
D18*
X178050000Y-134245000D03*
D45*
X181800000Y-135585000D03*
D20*
X179300000Y-135585000D03*
X176800000Y-135585000D03*
X174300000Y-135585000D03*
X171800000Y-135585000D03*
D10*
X180585329Y-82775100D03*
X179565329Y-82775100D03*
D11*
X121163000Y-65904000D03*
X121163000Y-67454000D03*
D46*
X120687500Y-78290000D03*
X126612500Y-78290000D03*
D47*
X129097292Y-127875000D03*
X129097292Y-129525000D03*
D13*
X164455856Y-78040001D03*
X164455856Y-76139999D03*
X162169856Y-77090000D03*
D15*
X188000000Y-135000000D03*
D11*
X135895000Y-65952000D03*
X135895000Y-67502000D03*
D21*
X125866104Y-66292000D03*
X125866104Y-67312000D03*
D48*
X154990000Y-76960000D03*
X154990000Y-79260000D03*
D21*
X160810000Y-71960000D03*
X160810000Y-72980000D03*
D35*
X139100000Y-85842349D03*
D36*
X139100000Y-89342349D03*
D49*
X127455000Y-121880000D03*
X126185000Y-121880000D03*
X124915000Y-121880000D03*
X123645000Y-121880000D03*
D50*
X125550000Y-124605000D03*
D15*
X188000000Y-110000000D03*
D51*
X166350000Y-81075000D03*
X164700000Y-81075000D03*
D52*
X172150000Y-99505000D03*
X172150000Y-98235000D03*
X172150000Y-96965000D03*
X172150000Y-95695000D03*
X166750000Y-95695000D03*
X166750000Y-96965000D03*
X166750000Y-98235000D03*
X166750000Y-99505000D03*
D53*
X169450000Y-97600000D03*
D13*
X141719500Y-73549999D03*
X141719500Y-75450001D03*
X144005500Y-74500000D03*
D23*
X157800000Y-73433758D03*
X158820000Y-73433758D03*
D54*
X181379899Y-78080099D03*
X181379899Y-68580099D03*
D12*
X166850000Y-137330000D03*
X166850000Y-136310000D03*
D55*
X114900000Y-127425000D03*
X116550000Y-127425000D03*
D56*
X168260000Y-77962000D03*
X169560000Y-77962000D03*
X168910000Y-75962000D03*
D49*
X121955000Y-121880000D03*
X120685000Y-121880000D03*
X119415000Y-121880000D03*
X118145000Y-121880000D03*
D50*
X120050000Y-124605000D03*
D57*
X170887500Y-93625000D03*
X167962500Y-93625000D03*
D21*
X146463000Y-69359999D03*
X146463000Y-70379999D03*
D23*
X130290000Y-125900000D03*
X131310000Y-125900000D03*
D10*
X121300000Y-113370000D03*
X120280000Y-113370000D03*
X169395000Y-79012000D03*
X168375000Y-79012000D03*
D14*
X129475000Y-102800000D03*
X129475000Y-105750000D03*
D46*
X128437500Y-78290000D03*
X134362500Y-78290000D03*
D16*
X147525000Y-75525000D03*
X147525000Y-74225000D03*
X145525000Y-74875000D03*
D21*
X184780000Y-130090000D03*
X184780000Y-131110000D03*
D34*
X185539899Y-69080099D03*
X184579899Y-69080099D03*
D25*
X159785000Y-71990000D03*
X159785000Y-72950000D03*
D16*
X124225000Y-75550000D03*
X124225000Y-74250000D03*
X122225000Y-74900000D03*
D46*
X136200000Y-78290000D03*
X142125000Y-78290000D03*
D58*
X139100000Y-115900000D03*
X139100000Y-126500000D03*
D34*
X187439899Y-69080099D03*
X186479899Y-69080099D03*
D21*
X148600000Y-74390000D03*
X148600000Y-75410000D03*
D16*
X145413000Y-70554999D03*
X145413000Y-69254999D03*
X143413000Y-69904999D03*
D27*
X175375000Y-61400000D03*
D28*
X177915000Y-61400000D03*
X180455000Y-61400000D03*
D12*
X109200000Y-114285000D03*
X109200000Y-113265000D03*
D59*
X150295000Y-72035000D03*
X150295000Y-69085000D03*
D60*
X161900000Y-96000000D03*
X164850000Y-96000000D03*
D35*
X139125000Y-104370000D03*
D36*
X139125000Y-100870000D03*
D46*
X143950000Y-78290000D03*
X149875000Y-78290000D03*
D49*
X118930000Y-101670000D03*
X117660000Y-101670000D03*
X116390000Y-101670000D03*
X115120000Y-101670000D03*
D50*
X117025000Y-104395000D03*
D49*
X118930000Y-93845000D03*
X117660000Y-93845000D03*
X116390000Y-93845000D03*
X115120000Y-93845000D03*
D50*
X117025000Y-96570000D03*
D12*
X120500000Y-99985000D03*
X120500000Y-98965000D03*
D10*
X138235000Y-73025000D03*
X137215000Y-73025000D03*
D61*
X152831400Y-68095000D03*
X152831400Y-69365000D03*
X152831400Y-70635000D03*
X152831400Y-71905000D03*
X158368600Y-71905000D03*
X158368600Y-70635000D03*
X158368600Y-69365000D03*
X158368600Y-68095000D03*
D62*
X162250000Y-74000000D03*
X162250000Y-72450000D03*
D63*
X133750000Y-130100000D03*
X133750000Y-128600000D03*
D41*
X178679899Y-80330099D03*
X179639899Y-80330099D03*
D18*
X113060000Y-123305000D03*
D64*
X111720000Y-129555000D03*
D65*
X111720000Y-127055000D03*
X111720000Y-124555000D03*
X111720000Y-122055000D03*
X111720000Y-119555000D03*
X111720000Y-117055000D03*
X109220000Y-129555000D03*
X109220000Y-127055000D03*
X109220000Y-124555000D03*
X109220000Y-122055000D03*
X109220000Y-119555000D03*
X109220000Y-117055000D03*
D14*
X122850000Y-84095000D03*
X122850000Y-87045000D03*
D16*
X159170000Y-136994139D03*
X159170000Y-135694139D03*
X157170000Y-136344139D03*
D13*
X126107000Y-73574999D03*
X126107000Y-75475001D03*
X128393000Y-74525000D03*
D27*
X183120000Y-116026359D03*
D28*
X183120000Y-118566359D03*
X180580000Y-116026359D03*
X180580000Y-118566359D03*
X178040000Y-116026359D03*
X178040000Y-118566359D03*
X175500000Y-116026359D03*
X175500000Y-118566359D03*
X172960000Y-116026359D03*
X172960000Y-118566359D03*
D66*
X160660000Y-68420000D03*
X160660000Y-70570000D03*
D41*
X155190000Y-66585000D03*
X156150000Y-66585000D03*
D34*
X179459899Y-66330099D03*
X178499899Y-66330099D03*
D35*
X124347349Y-116600000D03*
D36*
X127847349Y-116600000D03*
D67*
X163925000Y-72475000D03*
X163925000Y-73425000D03*
X163925000Y-74375000D03*
X166325000Y-74375000D03*
X166325000Y-72475000D03*
D21*
X111725000Y-113265000D03*
X111725000Y-114285000D03*
D12*
X163915000Y-83545000D03*
X163915000Y-82525000D03*
D62*
X167950000Y-73975000D03*
X167950000Y-72425000D03*
D10*
X124610000Y-73025000D03*
X123590000Y-73025000D03*
D14*
X163710000Y-67695000D03*
X163710000Y-70645000D03*
D16*
X131900000Y-75550000D03*
X131900000Y-74250000D03*
X129900000Y-74900000D03*
D14*
X126175000Y-102800000D03*
X126175000Y-105750000D03*
D21*
X118863000Y-66304000D03*
X118863000Y-67324000D03*
D34*
X156870000Y-73435000D03*
X155910000Y-73435000D03*
D49*
X115120000Y-115142349D03*
X116390000Y-115142349D03*
X117660000Y-115142349D03*
X118930000Y-115142349D03*
D68*
X117025000Y-112417349D03*
D69*
X158154000Y-111170000D03*
X162726000Y-111170000D03*
D33*
X160440000Y-103320000D03*
D23*
X152505000Y-76910000D03*
X153525000Y-76910000D03*
D14*
X122875000Y-102800000D03*
X122875000Y-105750000D03*
M02*
