G04 #@! TF.GenerationSoftware,KiCad,Pcbnew,(6.0.0)*
G04 #@! TF.CreationDate,2022-02-11T23:51:38-05:00*
G04 #@! TF.ProjectId,FalconMain,46616c63-6f6e-44d6-9169-6e2e6b696361,1A*
G04 #@! TF.SameCoordinates,Original*
G04 #@! TF.FileFunction,Paste,Top*
G04 #@! TF.FilePolarity,Positive*
%FSLAX46Y46*%
G04 Gerber Fmt 4.6, Leading zero omitted, Abs format (unit mm)*
G04 Created by KiCad (PCBNEW (6.0.0)) date 2022-02-11 23:51:38*
%MOMM*%
%LPD*%
G01*
G04 APERTURE LIST*
G04 Aperture macros list*
%AMRoundRect*
0 Rectangle with rounded corners*
0 $1 Rounding radius*
0 $2 $3 $4 $5 $6 $7 $8 $9 X,Y pos of 4 corners*
0 Add a 4 corners polygon primitive as box body*
4,1,4,$2,$3,$4,$5,$6,$7,$8,$9,$2,$3,0*
0 Add four circle primitives for the rounded corners*
1,1,$1+$1,$2,$3*
1,1,$1+$1,$4,$5*
1,1,$1+$1,$6,$7*
1,1,$1+$1,$8,$9*
0 Add four rect primitives between the rounded corners*
20,1,$1+$1,$2,$3,$4,$5,0*
20,1,$1+$1,$4,$5,$6,$7,0*
20,1,$1+$1,$6,$7,$8,$9,0*
20,1,$1+$1,$8,$9,$2,$3,0*%
G04 Aperture macros list end*
%ADD10C,0.010000*%
%ADD11C,0.100000*%
%ADD12RoundRect,0.135000X0.135000X0.185000X-0.135000X0.185000X-0.135000X-0.185000X0.135000X-0.185000X0*%
%ADD13RoundRect,0.225000X-0.250000X0.225000X-0.250000X-0.225000X0.250000X-0.225000X0.250000X0.225000X0*%
%ADD14RoundRect,0.135000X0.185000X-0.135000X0.185000X0.135000X-0.185000X0.135000X-0.185000X-0.135000X0*%
%ADD15R,1.411199X0.568000*%
%ADD16RoundRect,0.250000X-1.100000X0.325000X-1.100000X-0.325000X1.100000X-0.325000X1.100000X0.325000X0*%
%ADD17R,0.700000X0.450000*%
%ADD18RoundRect,0.135000X-0.185000X0.135000X-0.185000X-0.135000X0.185000X-0.135000X0.185000X0.135000X0*%
%ADD19RoundRect,0.250000X0.625000X-0.312500X0.625000X0.312500X-0.625000X0.312500X-0.625000X-0.312500X0*%
%ADD20RoundRect,0.135000X-0.135000X-0.185000X0.135000X-0.185000X0.135000X0.185000X-0.135000X0.185000X0*%
%ADD21R,4.500000X5.000000*%
%ADD22RoundRect,0.140000X-0.170000X0.140000X-0.170000X-0.140000X0.170000X-0.140000X0.170000X0.140000X0*%
%ADD23R,3.050000X2.750000*%
%ADD24R,3.000000X1.600000*%
%ADD25RoundRect,0.140000X0.140000X0.170000X-0.140000X0.170000X-0.140000X-0.170000X0.140000X-0.170000X0*%
%ADD26R,0.800000X0.900000*%
%ADD27R,0.620000X1.220000*%
%ADD28RoundRect,0.140000X-0.140000X-0.170000X0.140000X-0.170000X0.140000X0.170000X-0.140000X0.170000X0*%
%ADD29R,3.850000X5.000000*%
%ADD30RoundRect,0.250000X-0.362500X-1.425000X0.362500X-1.425000X0.362500X1.425000X-0.362500X1.425000X0*%
%ADD31RoundRect,0.200000X-0.275000X0.200000X-0.275000X-0.200000X0.275000X-0.200000X0.275000X0.200000X0*%
%ADD32R,0.900000X0.800000*%
%ADD33RoundRect,0.200000X0.200000X0.275000X-0.200000X0.275000X-0.200000X-0.275000X0.200000X-0.275000X0*%
%ADD34R,1.500000X0.650000*%
%ADD35R,2.000000X5.500000*%
%ADD36RoundRect,0.200000X-0.200000X-0.275000X0.200000X-0.275000X0.200000X0.275000X-0.200000X0.275000X0*%
%ADD37R,0.450000X0.700000*%
%ADD38RoundRect,0.250000X0.312500X0.625000X-0.312500X0.625000X-0.312500X-0.625000X0.312500X-0.625000X0*%
%ADD39R,5.500000X4.500000*%
%ADD40RoundRect,0.250000X1.100000X-0.325000X1.100000X0.325000X-1.100000X0.325000X-1.100000X-0.325000X0*%
%ADD41RoundRect,0.250000X-0.325000X-1.100000X0.325000X-1.100000X0.325000X1.100000X-0.325000X1.100000X0*%
%ADD42R,1.168400X0.482600*%
%ADD43RoundRect,0.225000X0.250000X-0.225000X0.250000X0.225000X-0.250000X0.225000X-0.250000X-0.225000X0*%
%ADD44RoundRect,0.250000X1.450000X-0.250000X1.450000X0.250000X-1.450000X0.250000X-1.450000X-0.250000X0*%
%ADD45RoundRect,0.250000X-0.850000X0.375000X-0.850000X-0.375000X0.850000X-0.375000X0.850000X0.375000X0*%
%ADD46R,1.000000X0.700000*%
%ADD47R,2.750000X3.050000*%
%ADD48R,1.600000X3.000000*%
G04 APERTURE END LIST*
D10*
X135150000Y-108117500D02*
X136200000Y-108117500D01*
X136200000Y-108117500D02*
X136200000Y-108717500D01*
X136200000Y-108717500D02*
X135150000Y-108717500D01*
X135150000Y-108717500D02*
X135150000Y-108117500D01*
G36*
X136200000Y-108717500D02*
G01*
X135150000Y-108717500D01*
X135150000Y-108117500D01*
X136200000Y-108117500D01*
X136200000Y-108717500D01*
G37*
X136200000Y-108717500D02*
X135150000Y-108717500D01*
X135150000Y-108117500D01*
X136200000Y-108117500D01*
X136200000Y-108717500D01*
X137400000Y-111172500D02*
X138300000Y-111172500D01*
X138300000Y-111172500D02*
X138300000Y-111772500D01*
X138300000Y-111772500D02*
X137400000Y-111772500D01*
X137400000Y-111772500D02*
X137400000Y-111172500D01*
G36*
X138300000Y-111772500D02*
G01*
X137400000Y-111772500D01*
X137400000Y-111172500D01*
X138300000Y-111172500D01*
X138300000Y-111772500D01*
G37*
X138300000Y-111772500D02*
X137400000Y-111772500D01*
X137400000Y-111172500D01*
X138300000Y-111172500D01*
X138300000Y-111772500D01*
X135150000Y-110657500D02*
X136200000Y-110657500D01*
X136200000Y-110657500D02*
X136200000Y-111257500D01*
X136200000Y-111257500D02*
X135150000Y-111257500D01*
X135150000Y-111257500D02*
X135150000Y-110657500D01*
G36*
X136200000Y-111257500D02*
G01*
X135150000Y-111257500D01*
X135150000Y-110657500D01*
X136200000Y-110657500D01*
X136200000Y-111257500D01*
G37*
X136200000Y-111257500D02*
X135150000Y-111257500D01*
X135150000Y-110657500D01*
X136200000Y-110657500D01*
X136200000Y-111257500D01*
X138250000Y-108872500D02*
X139150000Y-108872500D01*
X139150000Y-108872500D02*
X139150000Y-109472500D01*
X139150000Y-109472500D02*
X138250000Y-109472500D01*
X138250000Y-109472500D02*
X138250000Y-108872500D01*
G36*
X139150000Y-109472500D02*
G01*
X138250000Y-109472500D01*
X138250000Y-108872500D01*
X139150000Y-108872500D01*
X139150000Y-109472500D01*
G37*
X139150000Y-109472500D02*
X138250000Y-109472500D01*
X138250000Y-108872500D01*
X139150000Y-108872500D01*
X139150000Y-109472500D01*
X139100000Y-111172500D02*
X140000000Y-111172500D01*
X140000000Y-111172500D02*
X140000000Y-111772500D01*
X140000000Y-111772500D02*
X139100000Y-111772500D01*
X139100000Y-111772500D02*
X139100000Y-111172500D01*
G36*
X140000000Y-111772500D02*
G01*
X139100000Y-111772500D01*
X139100000Y-111172500D01*
X140000000Y-111172500D01*
X140000000Y-111772500D01*
G37*
X140000000Y-111772500D02*
X139100000Y-111772500D01*
X139100000Y-111172500D01*
X140000000Y-111172500D01*
X140000000Y-111772500D01*
X139100000Y-108872500D02*
X140000000Y-108872500D01*
X140000000Y-108872500D02*
X140000000Y-109472500D01*
X140000000Y-109472500D02*
X139100000Y-109472500D01*
X139100000Y-109472500D02*
X139100000Y-108872500D01*
G36*
X140000000Y-109472500D02*
G01*
X139100000Y-109472500D01*
X139100000Y-108872500D01*
X140000000Y-108872500D01*
X140000000Y-109472500D01*
G37*
X140000000Y-109472500D02*
X139100000Y-109472500D01*
X139100000Y-108872500D01*
X140000000Y-108872500D01*
X140000000Y-109472500D01*
X137400000Y-108872500D02*
X138300000Y-108872500D01*
X138300000Y-108872500D02*
X138300000Y-109472500D01*
X138300000Y-109472500D02*
X137400000Y-109472500D01*
X137400000Y-109472500D02*
X137400000Y-108872500D01*
G36*
X138300000Y-109472500D02*
G01*
X137400000Y-109472500D01*
X137400000Y-108872500D01*
X138300000Y-108872500D01*
X138300000Y-109472500D01*
G37*
X138300000Y-109472500D02*
X137400000Y-109472500D01*
X137400000Y-108872500D01*
X138300000Y-108872500D01*
X138300000Y-109472500D01*
X135150000Y-111927500D02*
X136200000Y-111927500D01*
X136200000Y-111927500D02*
X136200000Y-112527500D01*
X136200000Y-112527500D02*
X135150000Y-112527500D01*
X135150000Y-112527500D02*
X135150000Y-111927500D01*
G36*
X136200000Y-112527500D02*
G01*
X135150000Y-112527500D01*
X135150000Y-111927500D01*
X136200000Y-111927500D01*
X136200000Y-112527500D01*
G37*
X136200000Y-112527500D02*
X135150000Y-112527500D01*
X135150000Y-111927500D01*
X136200000Y-111927500D01*
X136200000Y-112527500D01*
X137400000Y-110022500D02*
X138300000Y-110022500D01*
X138300000Y-110022500D02*
X138300000Y-110622500D01*
X138300000Y-110622500D02*
X137400000Y-110622500D01*
X137400000Y-110622500D02*
X137400000Y-110022500D01*
G36*
X138300000Y-110622500D02*
G01*
X137400000Y-110622500D01*
X137400000Y-110022500D01*
X138300000Y-110022500D01*
X138300000Y-110622500D01*
G37*
X138300000Y-110622500D02*
X137400000Y-110622500D01*
X137400000Y-110022500D01*
X138300000Y-110022500D01*
X138300000Y-110622500D01*
X141100000Y-107997500D02*
X141700000Y-107997500D01*
X141700000Y-107997500D02*
X141700000Y-108897500D01*
X141700000Y-108897500D02*
X141100000Y-108897500D01*
X141100000Y-108897500D02*
X141100000Y-107997500D01*
G36*
X141700000Y-108897500D02*
G01*
X141100000Y-108897500D01*
X141100000Y-107997500D01*
X141700000Y-107997500D01*
X141700000Y-108897500D01*
G37*
X141700000Y-108897500D02*
X141100000Y-108897500D01*
X141100000Y-107997500D01*
X141700000Y-107997500D01*
X141700000Y-108897500D01*
X141100000Y-109272500D02*
X141700000Y-109272500D01*
X141700000Y-109272500D02*
X141700000Y-110172500D01*
X141700000Y-110172500D02*
X141100000Y-110172500D01*
X141100000Y-110172500D02*
X141100000Y-109272500D01*
G36*
X141700000Y-110172500D02*
G01*
X141100000Y-110172500D01*
X141100000Y-109272500D01*
X141700000Y-109272500D01*
X141700000Y-110172500D01*
G37*
X141700000Y-110172500D02*
X141100000Y-110172500D01*
X141100000Y-109272500D01*
X141700000Y-109272500D01*
X141700000Y-110172500D01*
X141100000Y-110472500D02*
X141700000Y-110472500D01*
X141700000Y-110472500D02*
X141700000Y-111372500D01*
X141700000Y-111372500D02*
X141100000Y-111372500D01*
X141100000Y-111372500D02*
X141100000Y-110472500D01*
G36*
X141700000Y-111372500D02*
G01*
X141100000Y-111372500D01*
X141100000Y-110472500D01*
X141700000Y-110472500D01*
X141700000Y-111372500D01*
G37*
X141700000Y-111372500D02*
X141100000Y-111372500D01*
X141100000Y-110472500D01*
X141700000Y-110472500D01*
X141700000Y-111372500D01*
X135150000Y-109387500D02*
X136200000Y-109387500D01*
X136200000Y-109387500D02*
X136200000Y-109987500D01*
X136200000Y-109987500D02*
X135150000Y-109987500D01*
X135150000Y-109987500D02*
X135150000Y-109387500D01*
G36*
X136200000Y-109987500D02*
G01*
X135150000Y-109987500D01*
X135150000Y-109387500D01*
X136200000Y-109387500D01*
X136200000Y-109987500D01*
G37*
X136200000Y-109987500D02*
X135150000Y-109987500D01*
X135150000Y-109387500D01*
X136200000Y-109387500D01*
X136200000Y-109987500D01*
X138250000Y-111172500D02*
X139150000Y-111172500D01*
X139150000Y-111172500D02*
X139150000Y-111772500D01*
X139150000Y-111772500D02*
X138250000Y-111772500D01*
X138250000Y-111772500D02*
X138250000Y-111172500D01*
G36*
X139150000Y-111772500D02*
G01*
X138250000Y-111772500D01*
X138250000Y-111172500D01*
X139150000Y-111172500D01*
X139150000Y-111772500D01*
G37*
X139150000Y-111772500D02*
X138250000Y-111772500D01*
X138250000Y-111172500D01*
X139150000Y-111172500D01*
X139150000Y-111772500D01*
X141100000Y-111747500D02*
X141700000Y-111747500D01*
X141700000Y-111747500D02*
X141700000Y-112647500D01*
X141700000Y-112647500D02*
X141100000Y-112647500D01*
X141100000Y-112647500D02*
X141100000Y-111747500D01*
G36*
X141700000Y-112647500D02*
G01*
X141100000Y-112647500D01*
X141100000Y-111747500D01*
X141700000Y-111747500D01*
X141700000Y-112647500D01*
G37*
X141700000Y-112647500D02*
X141100000Y-112647500D01*
X141100000Y-111747500D01*
X141700000Y-111747500D01*
X141700000Y-112647500D01*
X139100000Y-110022500D02*
X140000000Y-110022500D01*
X140000000Y-110022500D02*
X140000000Y-110622500D01*
X140000000Y-110622500D02*
X139100000Y-110622500D01*
X139100000Y-110622500D02*
X139100000Y-110022500D01*
G36*
X140000000Y-110622500D02*
G01*
X139100000Y-110622500D01*
X139100000Y-110022500D01*
X140000000Y-110022500D01*
X140000000Y-110622500D01*
G37*
X140000000Y-110622500D02*
X139100000Y-110622500D01*
X139100000Y-110022500D01*
X140000000Y-110022500D01*
X140000000Y-110622500D01*
X138250000Y-110022500D02*
X139150000Y-110022500D01*
X139150000Y-110022500D02*
X139150000Y-110622500D01*
X139150000Y-110622500D02*
X138250000Y-110622500D01*
X138250000Y-110622500D02*
X138250000Y-110022500D01*
G36*
X139150000Y-110622500D02*
G01*
X138250000Y-110622500D01*
X138250000Y-110022500D01*
X139150000Y-110022500D01*
X139150000Y-110622500D01*
G37*
X139150000Y-110622500D02*
X138250000Y-110622500D01*
X138250000Y-110022500D01*
X139150000Y-110022500D01*
X139150000Y-110622500D01*
X125400000Y-127305000D02*
X125400000Y-127905000D01*
X125400000Y-127905000D02*
X124500000Y-127905000D01*
X124500000Y-127905000D02*
X124500000Y-127305000D01*
X124500000Y-127305000D02*
X125400000Y-127305000D01*
G36*
X125400000Y-127905000D02*
G01*
X124500000Y-127905000D01*
X124500000Y-127305000D01*
X125400000Y-127305000D01*
X125400000Y-127905000D01*
G37*
X125400000Y-127905000D02*
X124500000Y-127905000D01*
X124500000Y-127305000D01*
X125400000Y-127305000D01*
X125400000Y-127905000D01*
X124700000Y-123605000D02*
X124700000Y-124505000D01*
X124700000Y-124505000D02*
X124100000Y-124505000D01*
X124100000Y-124505000D02*
X124100000Y-123605000D01*
X124100000Y-123605000D02*
X124700000Y-123605000D01*
G36*
X124700000Y-124505000D02*
G01*
X124100000Y-124505000D01*
X124100000Y-123605000D01*
X124700000Y-123605000D01*
X124700000Y-124505000D01*
G37*
X124700000Y-124505000D02*
X124100000Y-124505000D01*
X124100000Y-123605000D01*
X124700000Y-123605000D01*
X124700000Y-124505000D01*
X124125000Y-127305000D02*
X124125000Y-127905000D01*
X124125000Y-127905000D02*
X123225000Y-127905000D01*
X123225000Y-127905000D02*
X123225000Y-127305000D01*
X123225000Y-127305000D02*
X124125000Y-127305000D01*
G36*
X124125000Y-127905000D02*
G01*
X123225000Y-127905000D01*
X123225000Y-127305000D01*
X124125000Y-127305000D01*
X124125000Y-127905000D01*
G37*
X124125000Y-127905000D02*
X123225000Y-127905000D01*
X123225000Y-127305000D01*
X124125000Y-127305000D01*
X124125000Y-127905000D01*
X124700000Y-125305000D02*
X124700000Y-126205000D01*
X124700000Y-126205000D02*
X124100000Y-126205000D01*
X124100000Y-126205000D02*
X124100000Y-125305000D01*
X124100000Y-125305000D02*
X124700000Y-125305000D01*
G36*
X124700000Y-126205000D02*
G01*
X124100000Y-126205000D01*
X124100000Y-125305000D01*
X124700000Y-125305000D01*
X124700000Y-126205000D01*
G37*
X124700000Y-126205000D02*
X124100000Y-126205000D01*
X124100000Y-125305000D01*
X124700000Y-125305000D01*
X124700000Y-126205000D01*
X125850000Y-124455000D02*
X125850000Y-125355000D01*
X125850000Y-125355000D02*
X125250000Y-125355000D01*
X125250000Y-125355000D02*
X125250000Y-124455000D01*
X125250000Y-124455000D02*
X125850000Y-124455000D01*
G36*
X125850000Y-125355000D02*
G01*
X125250000Y-125355000D01*
X125250000Y-124455000D01*
X125850000Y-124455000D01*
X125850000Y-125355000D01*
G37*
X125850000Y-125355000D02*
X125250000Y-125355000D01*
X125250000Y-124455000D01*
X125850000Y-124455000D01*
X125850000Y-125355000D01*
X126600000Y-127305000D02*
X126600000Y-127905000D01*
X126600000Y-127905000D02*
X125700000Y-127905000D01*
X125700000Y-127905000D02*
X125700000Y-127305000D01*
X125700000Y-127305000D02*
X126600000Y-127305000D01*
G36*
X126600000Y-127905000D02*
G01*
X125700000Y-127905000D01*
X125700000Y-127305000D01*
X126600000Y-127305000D01*
X126600000Y-127905000D01*
G37*
X126600000Y-127905000D02*
X125700000Y-127905000D01*
X125700000Y-127305000D01*
X126600000Y-127305000D01*
X126600000Y-127905000D01*
X127000000Y-123605000D02*
X127000000Y-124505000D01*
X127000000Y-124505000D02*
X126400000Y-124505000D01*
X126400000Y-124505000D02*
X126400000Y-123605000D01*
X126400000Y-123605000D02*
X127000000Y-123605000D01*
G36*
X127000000Y-124505000D02*
G01*
X126400000Y-124505000D01*
X126400000Y-123605000D01*
X127000000Y-123605000D01*
X127000000Y-124505000D01*
G37*
X127000000Y-124505000D02*
X126400000Y-124505000D01*
X126400000Y-123605000D01*
X127000000Y-123605000D01*
X127000000Y-124505000D01*
X125850000Y-123605000D02*
X125850000Y-124505000D01*
X125850000Y-124505000D02*
X125250000Y-124505000D01*
X125250000Y-124505000D02*
X125250000Y-123605000D01*
X125250000Y-123605000D02*
X125850000Y-123605000D01*
G36*
X125850000Y-124505000D02*
G01*
X125250000Y-124505000D01*
X125250000Y-123605000D01*
X125850000Y-123605000D01*
X125850000Y-124505000D01*
G37*
X125850000Y-124505000D02*
X125250000Y-124505000D01*
X125250000Y-123605000D01*
X125850000Y-123605000D01*
X125850000Y-124505000D01*
X127000000Y-125305000D02*
X127000000Y-126205000D01*
X127000000Y-126205000D02*
X126400000Y-126205000D01*
X126400000Y-126205000D02*
X126400000Y-125305000D01*
X126400000Y-125305000D02*
X127000000Y-125305000D01*
G36*
X127000000Y-126205000D02*
G01*
X126400000Y-126205000D01*
X126400000Y-125305000D01*
X127000000Y-125305000D01*
X127000000Y-126205000D01*
G37*
X127000000Y-126205000D02*
X126400000Y-126205000D01*
X126400000Y-125305000D01*
X127000000Y-125305000D01*
X127000000Y-126205000D01*
X127000000Y-124455000D02*
X127000000Y-125355000D01*
X127000000Y-125355000D02*
X126400000Y-125355000D01*
X126400000Y-125355000D02*
X126400000Y-124455000D01*
X126400000Y-124455000D02*
X127000000Y-124455000D01*
G36*
X127000000Y-125355000D02*
G01*
X126400000Y-125355000D01*
X126400000Y-124455000D01*
X127000000Y-124455000D01*
X127000000Y-125355000D01*
G37*
X127000000Y-125355000D02*
X126400000Y-125355000D01*
X126400000Y-124455000D01*
X127000000Y-124455000D01*
X127000000Y-125355000D01*
X125215000Y-121355000D02*
X125215000Y-122405000D01*
X125215000Y-122405000D02*
X124615000Y-122405000D01*
X124615000Y-122405000D02*
X124615000Y-121355000D01*
X124615000Y-121355000D02*
X125215000Y-121355000D01*
G36*
X125215000Y-122405000D02*
G01*
X124615000Y-122405000D01*
X124615000Y-121355000D01*
X125215000Y-121355000D01*
X125215000Y-122405000D01*
G37*
X125215000Y-122405000D02*
X124615000Y-122405000D01*
X124615000Y-121355000D01*
X125215000Y-121355000D01*
X125215000Y-122405000D01*
X125850000Y-125305000D02*
X125850000Y-126205000D01*
X125850000Y-126205000D02*
X125250000Y-126205000D01*
X125250000Y-126205000D02*
X125250000Y-125305000D01*
X125250000Y-125305000D02*
X125850000Y-125305000D01*
G36*
X125850000Y-126205000D02*
G01*
X125250000Y-126205000D01*
X125250000Y-125305000D01*
X125850000Y-125305000D01*
X125850000Y-126205000D01*
G37*
X125850000Y-126205000D02*
X125250000Y-126205000D01*
X125250000Y-125305000D01*
X125850000Y-125305000D01*
X125850000Y-126205000D01*
X126485000Y-121355000D02*
X126485000Y-122405000D01*
X126485000Y-122405000D02*
X125885000Y-122405000D01*
X125885000Y-122405000D02*
X125885000Y-121355000D01*
X125885000Y-121355000D02*
X126485000Y-121355000D01*
G36*
X126485000Y-122405000D02*
G01*
X125885000Y-122405000D01*
X125885000Y-121355000D01*
X126485000Y-121355000D01*
X126485000Y-122405000D01*
G37*
X126485000Y-122405000D02*
X125885000Y-122405000D01*
X125885000Y-121355000D01*
X126485000Y-121355000D01*
X126485000Y-122405000D01*
X124700000Y-124455000D02*
X124700000Y-125355000D01*
X124700000Y-125355000D02*
X124100000Y-125355000D01*
X124100000Y-125355000D02*
X124100000Y-124455000D01*
X124100000Y-124455000D02*
X124700000Y-124455000D01*
G36*
X124700000Y-125355000D02*
G01*
X124100000Y-125355000D01*
X124100000Y-124455000D01*
X124700000Y-124455000D01*
X124700000Y-125355000D01*
G37*
X124700000Y-125355000D02*
X124100000Y-125355000D01*
X124100000Y-124455000D01*
X124700000Y-124455000D01*
X124700000Y-125355000D01*
X127875000Y-127305000D02*
X127875000Y-127905000D01*
X127875000Y-127905000D02*
X126975000Y-127905000D01*
X126975000Y-127905000D02*
X126975000Y-127305000D01*
X126975000Y-127305000D02*
X127875000Y-127305000D01*
G36*
X127875000Y-127905000D02*
G01*
X126975000Y-127905000D01*
X126975000Y-127305000D01*
X127875000Y-127305000D01*
X127875000Y-127905000D01*
G37*
X127875000Y-127905000D02*
X126975000Y-127905000D01*
X126975000Y-127305000D01*
X127875000Y-127305000D01*
X127875000Y-127905000D01*
X123945000Y-121355000D02*
X123945000Y-122405000D01*
X123945000Y-122405000D02*
X123345000Y-122405000D01*
X123345000Y-122405000D02*
X123345000Y-121355000D01*
X123345000Y-121355000D02*
X123945000Y-121355000D01*
G36*
X123945000Y-122405000D02*
G01*
X123345000Y-122405000D01*
X123345000Y-121355000D01*
X123945000Y-121355000D01*
X123945000Y-122405000D01*
G37*
X123945000Y-122405000D02*
X123345000Y-122405000D01*
X123345000Y-121355000D01*
X123945000Y-121355000D01*
X123945000Y-122405000D01*
X127755000Y-121355000D02*
X127755000Y-122405000D01*
X127755000Y-122405000D02*
X127155000Y-122405000D01*
X127155000Y-122405000D02*
X127155000Y-121355000D01*
X127155000Y-121355000D02*
X127755000Y-121355000D01*
G36*
X127755000Y-122405000D02*
G01*
X127155000Y-122405000D01*
X127155000Y-121355000D01*
X127755000Y-121355000D01*
X127755000Y-122405000D01*
G37*
X127755000Y-122405000D02*
X127155000Y-122405000D01*
X127155000Y-121355000D01*
X127755000Y-121355000D01*
X127755000Y-122405000D01*
D11*
X170556500Y-97500000D02*
X170556500Y-96163300D01*
X170556500Y-96163300D02*
X168343500Y-96163300D01*
X168343500Y-96163300D02*
X168343500Y-97500000D01*
X168343500Y-97500000D02*
X170556500Y-97500000D01*
G36*
X170556500Y-97500000D02*
G01*
X168343500Y-97500000D01*
X168343500Y-96163300D01*
X170556500Y-96163300D01*
X170556500Y-97500000D01*
G37*
X170556500Y-97500000D02*
X168343500Y-97500000D01*
X168343500Y-96163300D01*
X170556500Y-96163300D01*
X170556500Y-97500000D01*
X170556500Y-99036700D02*
X170556500Y-97700000D01*
X170556500Y-97700000D02*
X168343500Y-97700000D01*
X168343500Y-97700000D02*
X168343500Y-99036700D01*
X168343500Y-99036700D02*
X170556500Y-99036700D01*
G36*
X170556500Y-99036700D02*
G01*
X168343500Y-99036700D01*
X168343500Y-97700000D01*
X170556500Y-97700000D01*
X170556500Y-99036700D01*
G37*
X170556500Y-99036700D02*
X168343500Y-99036700D01*
X168343500Y-97700000D01*
X170556500Y-97700000D01*
X170556500Y-99036700D01*
D10*
X121500000Y-125305000D02*
X121500000Y-126205000D01*
X121500000Y-126205000D02*
X120900000Y-126205000D01*
X120900000Y-126205000D02*
X120900000Y-125305000D01*
X120900000Y-125305000D02*
X121500000Y-125305000D01*
G36*
X121500000Y-126205000D02*
G01*
X120900000Y-126205000D01*
X120900000Y-125305000D01*
X121500000Y-125305000D01*
X121500000Y-126205000D01*
G37*
X121500000Y-126205000D02*
X120900000Y-126205000D01*
X120900000Y-125305000D01*
X121500000Y-125305000D01*
X121500000Y-126205000D01*
X119715000Y-121355000D02*
X119715000Y-122405000D01*
X119715000Y-122405000D02*
X119115000Y-122405000D01*
X119115000Y-122405000D02*
X119115000Y-121355000D01*
X119115000Y-121355000D02*
X119715000Y-121355000D01*
G36*
X119715000Y-122405000D02*
G01*
X119115000Y-122405000D01*
X119115000Y-121355000D01*
X119715000Y-121355000D01*
X119715000Y-122405000D01*
G37*
X119715000Y-122405000D02*
X119115000Y-122405000D01*
X119115000Y-121355000D01*
X119715000Y-121355000D01*
X119715000Y-122405000D01*
X121500000Y-123605000D02*
X121500000Y-124505000D01*
X121500000Y-124505000D02*
X120900000Y-124505000D01*
X120900000Y-124505000D02*
X120900000Y-123605000D01*
X120900000Y-123605000D02*
X121500000Y-123605000D01*
G36*
X121500000Y-124505000D02*
G01*
X120900000Y-124505000D01*
X120900000Y-123605000D01*
X121500000Y-123605000D01*
X121500000Y-124505000D01*
G37*
X121500000Y-124505000D02*
X120900000Y-124505000D01*
X120900000Y-123605000D01*
X121500000Y-123605000D01*
X121500000Y-124505000D01*
X119200000Y-124455000D02*
X119200000Y-125355000D01*
X119200000Y-125355000D02*
X118600000Y-125355000D01*
X118600000Y-125355000D02*
X118600000Y-124455000D01*
X118600000Y-124455000D02*
X119200000Y-124455000D01*
G36*
X119200000Y-125355000D02*
G01*
X118600000Y-125355000D01*
X118600000Y-124455000D01*
X119200000Y-124455000D01*
X119200000Y-125355000D01*
G37*
X119200000Y-125355000D02*
X118600000Y-125355000D01*
X118600000Y-124455000D01*
X119200000Y-124455000D01*
X119200000Y-125355000D01*
X120985000Y-121355000D02*
X120985000Y-122405000D01*
X120985000Y-122405000D02*
X120385000Y-122405000D01*
X120385000Y-122405000D02*
X120385000Y-121355000D01*
X120385000Y-121355000D02*
X120985000Y-121355000D01*
G36*
X120985000Y-122405000D02*
G01*
X120385000Y-122405000D01*
X120385000Y-121355000D01*
X120985000Y-121355000D01*
X120985000Y-122405000D01*
G37*
X120985000Y-122405000D02*
X120385000Y-122405000D01*
X120385000Y-121355000D01*
X120985000Y-121355000D01*
X120985000Y-122405000D01*
X118625000Y-127305000D02*
X118625000Y-127905000D01*
X118625000Y-127905000D02*
X117725000Y-127905000D01*
X117725000Y-127905000D02*
X117725000Y-127305000D01*
X117725000Y-127305000D02*
X118625000Y-127305000D01*
G36*
X118625000Y-127905000D02*
G01*
X117725000Y-127905000D01*
X117725000Y-127305000D01*
X118625000Y-127305000D01*
X118625000Y-127905000D01*
G37*
X118625000Y-127905000D02*
X117725000Y-127905000D01*
X117725000Y-127305000D01*
X118625000Y-127305000D01*
X118625000Y-127905000D01*
X120350000Y-124455000D02*
X120350000Y-125355000D01*
X120350000Y-125355000D02*
X119750000Y-125355000D01*
X119750000Y-125355000D02*
X119750000Y-124455000D01*
X119750000Y-124455000D02*
X120350000Y-124455000D01*
G36*
X120350000Y-125355000D02*
G01*
X119750000Y-125355000D01*
X119750000Y-124455000D01*
X120350000Y-124455000D01*
X120350000Y-125355000D01*
G37*
X120350000Y-125355000D02*
X119750000Y-125355000D01*
X119750000Y-124455000D01*
X120350000Y-124455000D01*
X120350000Y-125355000D01*
X120350000Y-125305000D02*
X120350000Y-126205000D01*
X120350000Y-126205000D02*
X119750000Y-126205000D01*
X119750000Y-126205000D02*
X119750000Y-125305000D01*
X119750000Y-125305000D02*
X120350000Y-125305000D01*
G36*
X120350000Y-126205000D02*
G01*
X119750000Y-126205000D01*
X119750000Y-125305000D01*
X120350000Y-125305000D01*
X120350000Y-126205000D01*
G37*
X120350000Y-126205000D02*
X119750000Y-126205000D01*
X119750000Y-125305000D01*
X120350000Y-125305000D01*
X120350000Y-126205000D01*
X119200000Y-123605000D02*
X119200000Y-124505000D01*
X119200000Y-124505000D02*
X118600000Y-124505000D01*
X118600000Y-124505000D02*
X118600000Y-123605000D01*
X118600000Y-123605000D02*
X119200000Y-123605000D01*
G36*
X119200000Y-124505000D02*
G01*
X118600000Y-124505000D01*
X118600000Y-123605000D01*
X119200000Y-123605000D01*
X119200000Y-124505000D01*
G37*
X119200000Y-124505000D02*
X118600000Y-124505000D01*
X118600000Y-123605000D01*
X119200000Y-123605000D01*
X119200000Y-124505000D01*
X122375000Y-127305000D02*
X122375000Y-127905000D01*
X122375000Y-127905000D02*
X121475000Y-127905000D01*
X121475000Y-127905000D02*
X121475000Y-127305000D01*
X121475000Y-127305000D02*
X122375000Y-127305000D01*
G36*
X122375000Y-127905000D02*
G01*
X121475000Y-127905000D01*
X121475000Y-127305000D01*
X122375000Y-127305000D01*
X122375000Y-127905000D01*
G37*
X122375000Y-127905000D02*
X121475000Y-127905000D01*
X121475000Y-127305000D01*
X122375000Y-127305000D01*
X122375000Y-127905000D01*
X119900000Y-127305000D02*
X119900000Y-127905000D01*
X119900000Y-127905000D02*
X119000000Y-127905000D01*
X119000000Y-127905000D02*
X119000000Y-127305000D01*
X119000000Y-127305000D02*
X119900000Y-127305000D01*
G36*
X119900000Y-127905000D02*
G01*
X119000000Y-127905000D01*
X119000000Y-127305000D01*
X119900000Y-127305000D01*
X119900000Y-127905000D01*
G37*
X119900000Y-127905000D02*
X119000000Y-127905000D01*
X119000000Y-127305000D01*
X119900000Y-127305000D01*
X119900000Y-127905000D01*
X120350000Y-123605000D02*
X120350000Y-124505000D01*
X120350000Y-124505000D02*
X119750000Y-124505000D01*
X119750000Y-124505000D02*
X119750000Y-123605000D01*
X119750000Y-123605000D02*
X120350000Y-123605000D01*
G36*
X120350000Y-124505000D02*
G01*
X119750000Y-124505000D01*
X119750000Y-123605000D01*
X120350000Y-123605000D01*
X120350000Y-124505000D01*
G37*
X120350000Y-124505000D02*
X119750000Y-124505000D01*
X119750000Y-123605000D01*
X120350000Y-123605000D01*
X120350000Y-124505000D01*
X121500000Y-124455000D02*
X121500000Y-125355000D01*
X121500000Y-125355000D02*
X120900000Y-125355000D01*
X120900000Y-125355000D02*
X120900000Y-124455000D01*
X120900000Y-124455000D02*
X121500000Y-124455000D01*
G36*
X121500000Y-125355000D02*
G01*
X120900000Y-125355000D01*
X120900000Y-124455000D01*
X121500000Y-124455000D01*
X121500000Y-125355000D01*
G37*
X121500000Y-125355000D02*
X120900000Y-125355000D01*
X120900000Y-124455000D01*
X121500000Y-124455000D01*
X121500000Y-125355000D01*
X118445000Y-121355000D02*
X118445000Y-122405000D01*
X118445000Y-122405000D02*
X117845000Y-122405000D01*
X117845000Y-122405000D02*
X117845000Y-121355000D01*
X117845000Y-121355000D02*
X118445000Y-121355000D01*
G36*
X118445000Y-122405000D02*
G01*
X117845000Y-122405000D01*
X117845000Y-121355000D01*
X118445000Y-121355000D01*
X118445000Y-122405000D01*
G37*
X118445000Y-122405000D02*
X117845000Y-122405000D01*
X117845000Y-121355000D01*
X118445000Y-121355000D01*
X118445000Y-122405000D01*
X121100000Y-127305000D02*
X121100000Y-127905000D01*
X121100000Y-127905000D02*
X120200000Y-127905000D01*
X120200000Y-127905000D02*
X120200000Y-127305000D01*
X120200000Y-127305000D02*
X121100000Y-127305000D01*
G36*
X121100000Y-127905000D02*
G01*
X120200000Y-127905000D01*
X120200000Y-127305000D01*
X121100000Y-127305000D01*
X121100000Y-127905000D01*
G37*
X121100000Y-127905000D02*
X120200000Y-127905000D01*
X120200000Y-127305000D01*
X121100000Y-127305000D01*
X121100000Y-127905000D01*
X119200000Y-125305000D02*
X119200000Y-126205000D01*
X119200000Y-126205000D02*
X118600000Y-126205000D01*
X118600000Y-126205000D02*
X118600000Y-125305000D01*
X118600000Y-125305000D02*
X119200000Y-125305000D01*
G36*
X119200000Y-126205000D02*
G01*
X118600000Y-126205000D01*
X118600000Y-125305000D01*
X119200000Y-125305000D01*
X119200000Y-126205000D01*
G37*
X119200000Y-126205000D02*
X118600000Y-126205000D01*
X118600000Y-125305000D01*
X119200000Y-125305000D01*
X119200000Y-126205000D01*
X122255000Y-121355000D02*
X122255000Y-122405000D01*
X122255000Y-122405000D02*
X121655000Y-122405000D01*
X121655000Y-122405000D02*
X121655000Y-121355000D01*
X121655000Y-121355000D02*
X122255000Y-121355000D01*
G36*
X122255000Y-122405000D02*
G01*
X121655000Y-122405000D01*
X121655000Y-121355000D01*
X122255000Y-121355000D01*
X122255000Y-122405000D01*
G37*
X122255000Y-122405000D02*
X121655000Y-122405000D01*
X121655000Y-121355000D01*
X122255000Y-121355000D01*
X122255000Y-122405000D01*
X118475000Y-105095000D02*
X118475000Y-105995000D01*
X118475000Y-105995000D02*
X117875000Y-105995000D01*
X117875000Y-105995000D02*
X117875000Y-105095000D01*
X117875000Y-105095000D02*
X118475000Y-105095000D01*
G36*
X118475000Y-105995000D02*
G01*
X117875000Y-105995000D01*
X117875000Y-105095000D01*
X118475000Y-105095000D01*
X118475000Y-105995000D01*
G37*
X118475000Y-105995000D02*
X117875000Y-105995000D01*
X117875000Y-105095000D01*
X118475000Y-105095000D01*
X118475000Y-105995000D01*
X117325000Y-104245000D02*
X117325000Y-105145000D01*
X117325000Y-105145000D02*
X116725000Y-105145000D01*
X116725000Y-105145000D02*
X116725000Y-104245000D01*
X116725000Y-104245000D02*
X117325000Y-104245000D01*
G36*
X117325000Y-105145000D02*
G01*
X116725000Y-105145000D01*
X116725000Y-104245000D01*
X117325000Y-104245000D01*
X117325000Y-105145000D01*
G37*
X117325000Y-105145000D02*
X116725000Y-105145000D01*
X116725000Y-104245000D01*
X117325000Y-104245000D01*
X117325000Y-105145000D01*
X116175000Y-105095000D02*
X116175000Y-105995000D01*
X116175000Y-105995000D02*
X115575000Y-105995000D01*
X115575000Y-105995000D02*
X115575000Y-105095000D01*
X115575000Y-105095000D02*
X116175000Y-105095000D01*
G36*
X116175000Y-105995000D02*
G01*
X115575000Y-105995000D01*
X115575000Y-105095000D01*
X116175000Y-105095000D01*
X116175000Y-105995000D01*
G37*
X116175000Y-105995000D02*
X115575000Y-105995000D01*
X115575000Y-105095000D01*
X116175000Y-105095000D01*
X116175000Y-105995000D01*
X116175000Y-103395000D02*
X116175000Y-104295000D01*
X116175000Y-104295000D02*
X115575000Y-104295000D01*
X115575000Y-104295000D02*
X115575000Y-103395000D01*
X115575000Y-103395000D02*
X116175000Y-103395000D01*
G36*
X116175000Y-104295000D02*
G01*
X115575000Y-104295000D01*
X115575000Y-103395000D01*
X116175000Y-103395000D01*
X116175000Y-104295000D01*
G37*
X116175000Y-104295000D02*
X115575000Y-104295000D01*
X115575000Y-103395000D01*
X116175000Y-103395000D01*
X116175000Y-104295000D01*
X119350000Y-107095000D02*
X119350000Y-107695000D01*
X119350000Y-107695000D02*
X118450000Y-107695000D01*
X118450000Y-107695000D02*
X118450000Y-107095000D01*
X118450000Y-107095000D02*
X119350000Y-107095000D01*
G36*
X119350000Y-107695000D02*
G01*
X118450000Y-107695000D01*
X118450000Y-107095000D01*
X119350000Y-107095000D01*
X119350000Y-107695000D01*
G37*
X119350000Y-107695000D02*
X118450000Y-107695000D01*
X118450000Y-107095000D01*
X119350000Y-107095000D01*
X119350000Y-107695000D01*
X119230000Y-101145000D02*
X119230000Y-102195000D01*
X119230000Y-102195000D02*
X118630000Y-102195000D01*
X118630000Y-102195000D02*
X118630000Y-101145000D01*
X118630000Y-101145000D02*
X119230000Y-101145000D01*
G36*
X119230000Y-102195000D02*
G01*
X118630000Y-102195000D01*
X118630000Y-101145000D01*
X119230000Y-101145000D01*
X119230000Y-102195000D01*
G37*
X119230000Y-102195000D02*
X118630000Y-102195000D01*
X118630000Y-101145000D01*
X119230000Y-101145000D01*
X119230000Y-102195000D01*
X117960000Y-101145000D02*
X117960000Y-102195000D01*
X117960000Y-102195000D02*
X117360000Y-102195000D01*
X117360000Y-102195000D02*
X117360000Y-101145000D01*
X117360000Y-101145000D02*
X117960000Y-101145000D01*
G36*
X117960000Y-102195000D02*
G01*
X117360000Y-102195000D01*
X117360000Y-101145000D01*
X117960000Y-101145000D01*
X117960000Y-102195000D01*
G37*
X117960000Y-102195000D02*
X117360000Y-102195000D01*
X117360000Y-101145000D01*
X117960000Y-101145000D01*
X117960000Y-102195000D01*
X116175000Y-104245000D02*
X116175000Y-105145000D01*
X116175000Y-105145000D02*
X115575000Y-105145000D01*
X115575000Y-105145000D02*
X115575000Y-104245000D01*
X115575000Y-104245000D02*
X116175000Y-104245000D01*
G36*
X116175000Y-105145000D02*
G01*
X115575000Y-105145000D01*
X115575000Y-104245000D01*
X116175000Y-104245000D01*
X116175000Y-105145000D01*
G37*
X116175000Y-105145000D02*
X115575000Y-105145000D01*
X115575000Y-104245000D01*
X116175000Y-104245000D01*
X116175000Y-105145000D01*
X116875000Y-107095000D02*
X116875000Y-107695000D01*
X116875000Y-107695000D02*
X115975000Y-107695000D01*
X115975000Y-107695000D02*
X115975000Y-107095000D01*
X115975000Y-107095000D02*
X116875000Y-107095000D01*
G36*
X116875000Y-107695000D02*
G01*
X115975000Y-107695000D01*
X115975000Y-107095000D01*
X116875000Y-107095000D01*
X116875000Y-107695000D01*
G37*
X116875000Y-107695000D02*
X115975000Y-107695000D01*
X115975000Y-107095000D01*
X116875000Y-107095000D01*
X116875000Y-107695000D01*
X118475000Y-103395000D02*
X118475000Y-104295000D01*
X118475000Y-104295000D02*
X117875000Y-104295000D01*
X117875000Y-104295000D02*
X117875000Y-103395000D01*
X117875000Y-103395000D02*
X118475000Y-103395000D01*
G36*
X118475000Y-104295000D02*
G01*
X117875000Y-104295000D01*
X117875000Y-103395000D01*
X118475000Y-103395000D01*
X118475000Y-104295000D01*
G37*
X118475000Y-104295000D02*
X117875000Y-104295000D01*
X117875000Y-103395000D01*
X118475000Y-103395000D01*
X118475000Y-104295000D01*
X118475000Y-104245000D02*
X118475000Y-105145000D01*
X118475000Y-105145000D02*
X117875000Y-105145000D01*
X117875000Y-105145000D02*
X117875000Y-104245000D01*
X117875000Y-104245000D02*
X118475000Y-104245000D01*
G36*
X118475000Y-105145000D02*
G01*
X117875000Y-105145000D01*
X117875000Y-104245000D01*
X118475000Y-104245000D01*
X118475000Y-105145000D01*
G37*
X118475000Y-105145000D02*
X117875000Y-105145000D01*
X117875000Y-104245000D01*
X118475000Y-104245000D01*
X118475000Y-105145000D01*
X115420000Y-101145000D02*
X115420000Y-102195000D01*
X115420000Y-102195000D02*
X114820000Y-102195000D01*
X114820000Y-102195000D02*
X114820000Y-101145000D01*
X114820000Y-101145000D02*
X115420000Y-101145000D01*
G36*
X115420000Y-102195000D02*
G01*
X114820000Y-102195000D01*
X114820000Y-101145000D01*
X115420000Y-101145000D01*
X115420000Y-102195000D01*
G37*
X115420000Y-102195000D02*
X114820000Y-102195000D01*
X114820000Y-101145000D01*
X115420000Y-101145000D01*
X115420000Y-102195000D01*
X117325000Y-105095000D02*
X117325000Y-105995000D01*
X117325000Y-105995000D02*
X116725000Y-105995000D01*
X116725000Y-105995000D02*
X116725000Y-105095000D01*
X116725000Y-105095000D02*
X117325000Y-105095000D01*
G36*
X117325000Y-105995000D02*
G01*
X116725000Y-105995000D01*
X116725000Y-105095000D01*
X117325000Y-105095000D01*
X117325000Y-105995000D01*
G37*
X117325000Y-105995000D02*
X116725000Y-105995000D01*
X116725000Y-105095000D01*
X117325000Y-105095000D01*
X117325000Y-105995000D01*
X116690000Y-101145000D02*
X116690000Y-102195000D01*
X116690000Y-102195000D02*
X116090000Y-102195000D01*
X116090000Y-102195000D02*
X116090000Y-101145000D01*
X116090000Y-101145000D02*
X116690000Y-101145000D01*
G36*
X116690000Y-102195000D02*
G01*
X116090000Y-102195000D01*
X116090000Y-101145000D01*
X116690000Y-101145000D01*
X116690000Y-102195000D01*
G37*
X116690000Y-102195000D02*
X116090000Y-102195000D01*
X116090000Y-101145000D01*
X116690000Y-101145000D01*
X116690000Y-102195000D01*
X115600000Y-107095000D02*
X115600000Y-107695000D01*
X115600000Y-107695000D02*
X114700000Y-107695000D01*
X114700000Y-107695000D02*
X114700000Y-107095000D01*
X114700000Y-107095000D02*
X115600000Y-107095000D01*
G36*
X115600000Y-107695000D02*
G01*
X114700000Y-107695000D01*
X114700000Y-107095000D01*
X115600000Y-107095000D01*
X115600000Y-107695000D01*
G37*
X115600000Y-107695000D02*
X114700000Y-107695000D01*
X114700000Y-107095000D01*
X115600000Y-107095000D01*
X115600000Y-107695000D01*
X117325000Y-103395000D02*
X117325000Y-104295000D01*
X117325000Y-104295000D02*
X116725000Y-104295000D01*
X116725000Y-104295000D02*
X116725000Y-103395000D01*
X116725000Y-103395000D02*
X117325000Y-103395000D01*
G36*
X117325000Y-104295000D02*
G01*
X116725000Y-104295000D01*
X116725000Y-103395000D01*
X117325000Y-103395000D01*
X117325000Y-104295000D01*
G37*
X117325000Y-104295000D02*
X116725000Y-104295000D01*
X116725000Y-103395000D01*
X117325000Y-103395000D01*
X117325000Y-104295000D01*
X118075000Y-107095000D02*
X118075000Y-107695000D01*
X118075000Y-107695000D02*
X117175000Y-107695000D01*
X117175000Y-107695000D02*
X117175000Y-107095000D01*
X117175000Y-107095000D02*
X118075000Y-107095000D01*
G36*
X118075000Y-107695000D02*
G01*
X117175000Y-107695000D01*
X117175000Y-107095000D01*
X118075000Y-107095000D01*
X118075000Y-107695000D01*
G37*
X118075000Y-107695000D02*
X117175000Y-107695000D01*
X117175000Y-107095000D01*
X118075000Y-107095000D01*
X118075000Y-107695000D01*
X116690000Y-93320000D02*
X116690000Y-94370000D01*
X116690000Y-94370000D02*
X116090000Y-94370000D01*
X116090000Y-94370000D02*
X116090000Y-93320000D01*
X116090000Y-93320000D02*
X116690000Y-93320000D01*
G36*
X116690000Y-94370000D02*
G01*
X116090000Y-94370000D01*
X116090000Y-93320000D01*
X116690000Y-93320000D01*
X116690000Y-94370000D01*
G37*
X116690000Y-94370000D02*
X116090000Y-94370000D01*
X116090000Y-93320000D01*
X116690000Y-93320000D01*
X116690000Y-94370000D01*
X115600000Y-99270000D02*
X115600000Y-99870000D01*
X115600000Y-99870000D02*
X114700000Y-99870000D01*
X114700000Y-99870000D02*
X114700000Y-99270000D01*
X114700000Y-99270000D02*
X115600000Y-99270000D01*
G36*
X115600000Y-99870000D02*
G01*
X114700000Y-99870000D01*
X114700000Y-99270000D01*
X115600000Y-99270000D01*
X115600000Y-99870000D01*
G37*
X115600000Y-99870000D02*
X114700000Y-99870000D01*
X114700000Y-99270000D01*
X115600000Y-99270000D01*
X115600000Y-99870000D01*
X116175000Y-95570000D02*
X116175000Y-96470000D01*
X116175000Y-96470000D02*
X115575000Y-96470000D01*
X115575000Y-96470000D02*
X115575000Y-95570000D01*
X115575000Y-95570000D02*
X116175000Y-95570000D01*
G36*
X116175000Y-96470000D02*
G01*
X115575000Y-96470000D01*
X115575000Y-95570000D01*
X116175000Y-95570000D01*
X116175000Y-96470000D01*
G37*
X116175000Y-96470000D02*
X115575000Y-96470000D01*
X115575000Y-95570000D01*
X116175000Y-95570000D01*
X116175000Y-96470000D01*
X117325000Y-95570000D02*
X117325000Y-96470000D01*
X117325000Y-96470000D02*
X116725000Y-96470000D01*
X116725000Y-96470000D02*
X116725000Y-95570000D01*
X116725000Y-95570000D02*
X117325000Y-95570000D01*
G36*
X117325000Y-96470000D02*
G01*
X116725000Y-96470000D01*
X116725000Y-95570000D01*
X117325000Y-95570000D01*
X117325000Y-96470000D01*
G37*
X117325000Y-96470000D02*
X116725000Y-96470000D01*
X116725000Y-95570000D01*
X117325000Y-95570000D01*
X117325000Y-96470000D01*
X118475000Y-97270000D02*
X118475000Y-98170000D01*
X118475000Y-98170000D02*
X117875000Y-98170000D01*
X117875000Y-98170000D02*
X117875000Y-97270000D01*
X117875000Y-97270000D02*
X118475000Y-97270000D01*
G36*
X118475000Y-98170000D02*
G01*
X117875000Y-98170000D01*
X117875000Y-97270000D01*
X118475000Y-97270000D01*
X118475000Y-98170000D01*
G37*
X118475000Y-98170000D02*
X117875000Y-98170000D01*
X117875000Y-97270000D01*
X118475000Y-97270000D01*
X118475000Y-98170000D01*
X118075000Y-99270000D02*
X118075000Y-99870000D01*
X118075000Y-99870000D02*
X117175000Y-99870000D01*
X117175000Y-99870000D02*
X117175000Y-99270000D01*
X117175000Y-99270000D02*
X118075000Y-99270000D01*
G36*
X118075000Y-99870000D02*
G01*
X117175000Y-99870000D01*
X117175000Y-99270000D01*
X118075000Y-99270000D01*
X118075000Y-99870000D01*
G37*
X118075000Y-99870000D02*
X117175000Y-99870000D01*
X117175000Y-99270000D01*
X118075000Y-99270000D01*
X118075000Y-99870000D01*
X118475000Y-96420000D02*
X118475000Y-97320000D01*
X118475000Y-97320000D02*
X117875000Y-97320000D01*
X117875000Y-97320000D02*
X117875000Y-96420000D01*
X117875000Y-96420000D02*
X118475000Y-96420000D01*
G36*
X118475000Y-97320000D02*
G01*
X117875000Y-97320000D01*
X117875000Y-96420000D01*
X118475000Y-96420000D01*
X118475000Y-97320000D01*
G37*
X118475000Y-97320000D02*
X117875000Y-97320000D01*
X117875000Y-96420000D01*
X118475000Y-96420000D01*
X118475000Y-97320000D01*
X116175000Y-97270000D02*
X116175000Y-98170000D01*
X116175000Y-98170000D02*
X115575000Y-98170000D01*
X115575000Y-98170000D02*
X115575000Y-97270000D01*
X115575000Y-97270000D02*
X116175000Y-97270000D01*
G36*
X116175000Y-98170000D02*
G01*
X115575000Y-98170000D01*
X115575000Y-97270000D01*
X116175000Y-97270000D01*
X116175000Y-98170000D01*
G37*
X116175000Y-98170000D02*
X115575000Y-98170000D01*
X115575000Y-97270000D01*
X116175000Y-97270000D01*
X116175000Y-98170000D01*
X116175000Y-96420000D02*
X116175000Y-97320000D01*
X116175000Y-97320000D02*
X115575000Y-97320000D01*
X115575000Y-97320000D02*
X115575000Y-96420000D01*
X115575000Y-96420000D02*
X116175000Y-96420000D01*
G36*
X116175000Y-97320000D02*
G01*
X115575000Y-97320000D01*
X115575000Y-96420000D01*
X116175000Y-96420000D01*
X116175000Y-97320000D01*
G37*
X116175000Y-97320000D02*
X115575000Y-97320000D01*
X115575000Y-96420000D01*
X116175000Y-96420000D01*
X116175000Y-97320000D01*
X116875000Y-99270000D02*
X116875000Y-99870000D01*
X116875000Y-99870000D02*
X115975000Y-99870000D01*
X115975000Y-99870000D02*
X115975000Y-99270000D01*
X115975000Y-99270000D02*
X116875000Y-99270000D01*
G36*
X116875000Y-99870000D02*
G01*
X115975000Y-99870000D01*
X115975000Y-99270000D01*
X116875000Y-99270000D01*
X116875000Y-99870000D01*
G37*
X116875000Y-99870000D02*
X115975000Y-99870000D01*
X115975000Y-99270000D01*
X116875000Y-99270000D01*
X116875000Y-99870000D01*
X119350000Y-99270000D02*
X119350000Y-99870000D01*
X119350000Y-99870000D02*
X118450000Y-99870000D01*
X118450000Y-99870000D02*
X118450000Y-99270000D01*
X118450000Y-99270000D02*
X119350000Y-99270000D01*
G36*
X119350000Y-99870000D02*
G01*
X118450000Y-99870000D01*
X118450000Y-99270000D01*
X119350000Y-99270000D01*
X119350000Y-99870000D01*
G37*
X119350000Y-99870000D02*
X118450000Y-99870000D01*
X118450000Y-99270000D01*
X119350000Y-99270000D01*
X119350000Y-99870000D01*
X117325000Y-96420000D02*
X117325000Y-97320000D01*
X117325000Y-97320000D02*
X116725000Y-97320000D01*
X116725000Y-97320000D02*
X116725000Y-96420000D01*
X116725000Y-96420000D02*
X117325000Y-96420000D01*
G36*
X117325000Y-97320000D02*
G01*
X116725000Y-97320000D01*
X116725000Y-96420000D01*
X117325000Y-96420000D01*
X117325000Y-97320000D01*
G37*
X117325000Y-97320000D02*
X116725000Y-97320000D01*
X116725000Y-96420000D01*
X117325000Y-96420000D01*
X117325000Y-97320000D01*
X117325000Y-97270000D02*
X117325000Y-98170000D01*
X117325000Y-98170000D02*
X116725000Y-98170000D01*
X116725000Y-98170000D02*
X116725000Y-97270000D01*
X116725000Y-97270000D02*
X117325000Y-97270000D01*
G36*
X117325000Y-98170000D02*
G01*
X116725000Y-98170000D01*
X116725000Y-97270000D01*
X117325000Y-97270000D01*
X117325000Y-98170000D01*
G37*
X117325000Y-98170000D02*
X116725000Y-98170000D01*
X116725000Y-97270000D01*
X117325000Y-97270000D01*
X117325000Y-98170000D01*
X119230000Y-93320000D02*
X119230000Y-94370000D01*
X119230000Y-94370000D02*
X118630000Y-94370000D01*
X118630000Y-94370000D02*
X118630000Y-93320000D01*
X118630000Y-93320000D02*
X119230000Y-93320000D01*
G36*
X119230000Y-94370000D02*
G01*
X118630000Y-94370000D01*
X118630000Y-93320000D01*
X119230000Y-93320000D01*
X119230000Y-94370000D01*
G37*
X119230000Y-94370000D02*
X118630000Y-94370000D01*
X118630000Y-93320000D01*
X119230000Y-93320000D01*
X119230000Y-94370000D01*
X118475000Y-95570000D02*
X118475000Y-96470000D01*
X118475000Y-96470000D02*
X117875000Y-96470000D01*
X117875000Y-96470000D02*
X117875000Y-95570000D01*
X117875000Y-95570000D02*
X118475000Y-95570000D01*
G36*
X118475000Y-96470000D02*
G01*
X117875000Y-96470000D01*
X117875000Y-95570000D01*
X118475000Y-95570000D01*
X118475000Y-96470000D01*
G37*
X118475000Y-96470000D02*
X117875000Y-96470000D01*
X117875000Y-95570000D01*
X118475000Y-95570000D01*
X118475000Y-96470000D01*
X117960000Y-93320000D02*
X117960000Y-94370000D01*
X117960000Y-94370000D02*
X117360000Y-94370000D01*
X117360000Y-94370000D02*
X117360000Y-93320000D01*
X117360000Y-93320000D02*
X117960000Y-93320000D01*
G36*
X117960000Y-94370000D02*
G01*
X117360000Y-94370000D01*
X117360000Y-93320000D01*
X117960000Y-93320000D01*
X117960000Y-94370000D01*
G37*
X117960000Y-94370000D02*
X117360000Y-94370000D01*
X117360000Y-93320000D01*
X117960000Y-93320000D01*
X117960000Y-94370000D01*
X115420000Y-93320000D02*
X115420000Y-94370000D01*
X115420000Y-94370000D02*
X114820000Y-94370000D01*
X114820000Y-94370000D02*
X114820000Y-93320000D01*
X114820000Y-93320000D02*
X115420000Y-93320000D01*
G36*
X115420000Y-94370000D02*
G01*
X114820000Y-94370000D01*
X114820000Y-93320000D01*
X115420000Y-93320000D01*
X115420000Y-94370000D01*
G37*
X115420000Y-94370000D02*
X114820000Y-94370000D01*
X114820000Y-93320000D01*
X115420000Y-93320000D01*
X115420000Y-94370000D01*
X115575000Y-113417349D02*
X115575000Y-112517349D01*
X115575000Y-112517349D02*
X116175000Y-112517349D01*
X116175000Y-112517349D02*
X116175000Y-113417349D01*
X116175000Y-113417349D02*
X115575000Y-113417349D01*
G36*
X116175000Y-113417349D02*
G01*
X115575000Y-113417349D01*
X115575000Y-112517349D01*
X116175000Y-112517349D01*
X116175000Y-113417349D01*
G37*
X116175000Y-113417349D02*
X115575000Y-113417349D01*
X115575000Y-112517349D01*
X116175000Y-112517349D01*
X116175000Y-113417349D01*
X117175000Y-109717349D02*
X117175000Y-109117349D01*
X117175000Y-109117349D02*
X118075000Y-109117349D01*
X118075000Y-109117349D02*
X118075000Y-109717349D01*
X118075000Y-109717349D02*
X117175000Y-109717349D01*
G36*
X118075000Y-109717349D02*
G01*
X117175000Y-109717349D01*
X117175000Y-109117349D01*
X118075000Y-109117349D01*
X118075000Y-109717349D01*
G37*
X118075000Y-109717349D02*
X117175000Y-109717349D01*
X117175000Y-109117349D01*
X118075000Y-109117349D01*
X118075000Y-109717349D01*
X117875000Y-111717349D02*
X117875000Y-110817349D01*
X117875000Y-110817349D02*
X118475000Y-110817349D01*
X118475000Y-110817349D02*
X118475000Y-111717349D01*
X118475000Y-111717349D02*
X117875000Y-111717349D01*
G36*
X118475000Y-111717349D02*
G01*
X117875000Y-111717349D01*
X117875000Y-110817349D01*
X118475000Y-110817349D01*
X118475000Y-111717349D01*
G37*
X118475000Y-111717349D02*
X117875000Y-111717349D01*
X117875000Y-110817349D01*
X118475000Y-110817349D01*
X118475000Y-111717349D01*
X115575000Y-111717349D02*
X115575000Y-110817349D01*
X115575000Y-110817349D02*
X116175000Y-110817349D01*
X116175000Y-110817349D02*
X116175000Y-111717349D01*
X116175000Y-111717349D02*
X115575000Y-111717349D01*
G36*
X116175000Y-111717349D02*
G01*
X115575000Y-111717349D01*
X115575000Y-110817349D01*
X116175000Y-110817349D01*
X116175000Y-111717349D01*
G37*
X116175000Y-111717349D02*
X115575000Y-111717349D01*
X115575000Y-110817349D01*
X116175000Y-110817349D01*
X116175000Y-111717349D01*
X117875000Y-113417349D02*
X117875000Y-112517349D01*
X117875000Y-112517349D02*
X118475000Y-112517349D01*
X118475000Y-112517349D02*
X118475000Y-113417349D01*
X118475000Y-113417349D02*
X117875000Y-113417349D01*
G36*
X118475000Y-113417349D02*
G01*
X117875000Y-113417349D01*
X117875000Y-112517349D01*
X118475000Y-112517349D01*
X118475000Y-113417349D01*
G37*
X118475000Y-113417349D02*
X117875000Y-113417349D01*
X117875000Y-112517349D01*
X118475000Y-112517349D01*
X118475000Y-113417349D01*
X114820000Y-115667349D02*
X114820000Y-114617349D01*
X114820000Y-114617349D02*
X115420000Y-114617349D01*
X115420000Y-114617349D02*
X115420000Y-115667349D01*
X115420000Y-115667349D02*
X114820000Y-115667349D01*
G36*
X115420000Y-115667349D02*
G01*
X114820000Y-115667349D01*
X114820000Y-114617349D01*
X115420000Y-114617349D01*
X115420000Y-115667349D01*
G37*
X115420000Y-115667349D02*
X114820000Y-115667349D01*
X114820000Y-114617349D01*
X115420000Y-114617349D01*
X115420000Y-115667349D01*
X115575000Y-112567349D02*
X115575000Y-111667349D01*
X115575000Y-111667349D02*
X116175000Y-111667349D01*
X116175000Y-111667349D02*
X116175000Y-112567349D01*
X116175000Y-112567349D02*
X115575000Y-112567349D01*
G36*
X116175000Y-112567349D02*
G01*
X115575000Y-112567349D01*
X115575000Y-111667349D01*
X116175000Y-111667349D01*
X116175000Y-112567349D01*
G37*
X116175000Y-112567349D02*
X115575000Y-112567349D01*
X115575000Y-111667349D01*
X116175000Y-111667349D01*
X116175000Y-112567349D01*
X118630000Y-115667349D02*
X118630000Y-114617349D01*
X118630000Y-114617349D02*
X119230000Y-114617349D01*
X119230000Y-114617349D02*
X119230000Y-115667349D01*
X119230000Y-115667349D02*
X118630000Y-115667349D01*
G36*
X119230000Y-115667349D02*
G01*
X118630000Y-115667349D01*
X118630000Y-114617349D01*
X119230000Y-114617349D01*
X119230000Y-115667349D01*
G37*
X119230000Y-115667349D02*
X118630000Y-115667349D01*
X118630000Y-114617349D01*
X119230000Y-114617349D01*
X119230000Y-115667349D01*
X117360000Y-115667349D02*
X117360000Y-114617349D01*
X117360000Y-114617349D02*
X117960000Y-114617349D01*
X117960000Y-114617349D02*
X117960000Y-115667349D01*
X117960000Y-115667349D02*
X117360000Y-115667349D01*
G36*
X117960000Y-115667349D02*
G01*
X117360000Y-115667349D01*
X117360000Y-114617349D01*
X117960000Y-114617349D01*
X117960000Y-115667349D01*
G37*
X117960000Y-115667349D02*
X117360000Y-115667349D01*
X117360000Y-114617349D01*
X117960000Y-114617349D01*
X117960000Y-115667349D01*
X116090000Y-115667349D02*
X116090000Y-114617349D01*
X116090000Y-114617349D02*
X116690000Y-114617349D01*
X116690000Y-114617349D02*
X116690000Y-115667349D01*
X116690000Y-115667349D02*
X116090000Y-115667349D01*
G36*
X116690000Y-115667349D02*
G01*
X116090000Y-115667349D01*
X116090000Y-114617349D01*
X116690000Y-114617349D01*
X116690000Y-115667349D01*
G37*
X116690000Y-115667349D02*
X116090000Y-115667349D01*
X116090000Y-114617349D01*
X116690000Y-114617349D01*
X116690000Y-115667349D01*
X116725000Y-113417349D02*
X116725000Y-112517349D01*
X116725000Y-112517349D02*
X117325000Y-112517349D01*
X117325000Y-112517349D02*
X117325000Y-113417349D01*
X117325000Y-113417349D02*
X116725000Y-113417349D01*
G36*
X117325000Y-113417349D02*
G01*
X116725000Y-113417349D01*
X116725000Y-112517349D01*
X117325000Y-112517349D01*
X117325000Y-113417349D01*
G37*
X117325000Y-113417349D02*
X116725000Y-113417349D01*
X116725000Y-112517349D01*
X117325000Y-112517349D01*
X117325000Y-113417349D01*
X117875000Y-112567349D02*
X117875000Y-111667349D01*
X117875000Y-111667349D02*
X118475000Y-111667349D01*
X118475000Y-111667349D02*
X118475000Y-112567349D01*
X118475000Y-112567349D02*
X117875000Y-112567349D01*
G36*
X118475000Y-112567349D02*
G01*
X117875000Y-112567349D01*
X117875000Y-111667349D01*
X118475000Y-111667349D01*
X118475000Y-112567349D01*
G37*
X118475000Y-112567349D02*
X117875000Y-112567349D01*
X117875000Y-111667349D01*
X118475000Y-111667349D01*
X118475000Y-112567349D01*
X114700000Y-109717349D02*
X114700000Y-109117349D01*
X114700000Y-109117349D02*
X115600000Y-109117349D01*
X115600000Y-109117349D02*
X115600000Y-109717349D01*
X115600000Y-109717349D02*
X114700000Y-109717349D01*
G36*
X115600000Y-109717349D02*
G01*
X114700000Y-109717349D01*
X114700000Y-109117349D01*
X115600000Y-109117349D01*
X115600000Y-109717349D01*
G37*
X115600000Y-109717349D02*
X114700000Y-109717349D01*
X114700000Y-109117349D01*
X115600000Y-109117349D01*
X115600000Y-109717349D01*
X116725000Y-112567349D02*
X116725000Y-111667349D01*
X116725000Y-111667349D02*
X117325000Y-111667349D01*
X117325000Y-111667349D02*
X117325000Y-112567349D01*
X117325000Y-112567349D02*
X116725000Y-112567349D01*
G36*
X117325000Y-112567349D02*
G01*
X116725000Y-112567349D01*
X116725000Y-111667349D01*
X117325000Y-111667349D01*
X117325000Y-112567349D01*
G37*
X117325000Y-112567349D02*
X116725000Y-112567349D01*
X116725000Y-111667349D01*
X117325000Y-111667349D01*
X117325000Y-112567349D01*
X118450000Y-109717349D02*
X118450000Y-109117349D01*
X118450000Y-109117349D02*
X119350000Y-109117349D01*
X119350000Y-109117349D02*
X119350000Y-109717349D01*
X119350000Y-109717349D02*
X118450000Y-109717349D01*
G36*
X119350000Y-109717349D02*
G01*
X118450000Y-109717349D01*
X118450000Y-109117349D01*
X119350000Y-109117349D01*
X119350000Y-109717349D01*
G37*
X119350000Y-109717349D02*
X118450000Y-109717349D01*
X118450000Y-109117349D01*
X119350000Y-109117349D01*
X119350000Y-109717349D01*
X116725000Y-111717349D02*
X116725000Y-110817349D01*
X116725000Y-110817349D02*
X117325000Y-110817349D01*
X117325000Y-110817349D02*
X117325000Y-111717349D01*
X117325000Y-111717349D02*
X116725000Y-111717349D01*
G36*
X117325000Y-111717349D02*
G01*
X116725000Y-111717349D01*
X116725000Y-110817349D01*
X117325000Y-110817349D01*
X117325000Y-111717349D01*
G37*
X117325000Y-111717349D02*
X116725000Y-111717349D01*
X116725000Y-110817349D01*
X117325000Y-110817349D01*
X117325000Y-111717349D01*
X115975000Y-109717349D02*
X115975000Y-109117349D01*
X115975000Y-109117349D02*
X116875000Y-109117349D01*
X116875000Y-109117349D02*
X116875000Y-109717349D01*
X116875000Y-109717349D02*
X115975000Y-109717349D01*
G36*
X116875000Y-109717349D02*
G01*
X115975000Y-109717349D01*
X115975000Y-109117349D01*
X116875000Y-109117349D01*
X116875000Y-109717349D01*
G37*
X116875000Y-109717349D02*
X115975000Y-109717349D01*
X115975000Y-109117349D01*
X116875000Y-109117349D01*
X116875000Y-109717349D01*
D12*
X140185000Y-73025000D03*
X139165000Y-73025000D03*
D13*
X143769000Y-66027000D03*
X143769000Y-67577000D03*
D14*
X119888000Y-67314000D03*
X119888000Y-66294000D03*
X167037856Y-78030000D03*
X167037856Y-77010000D03*
D15*
X116543000Y-68949999D03*
X116543000Y-70850001D03*
X118829000Y-69900000D03*
D16*
X132775000Y-102800000D03*
X132775000Y-105750000D03*
X126150000Y-84095000D03*
X126150000Y-87045000D03*
X167035000Y-67695000D03*
X167035000Y-70645000D03*
D17*
X139750000Y-75550000D03*
X139750000Y-74250000D03*
X137750000Y-74900000D03*
D15*
X123575000Y-68975000D03*
X123575000Y-70875002D03*
X125861000Y-69925001D03*
D18*
X166012856Y-77010000D03*
X166012856Y-78030000D03*
D19*
X120500000Y-120062500D03*
X120500000Y-117137500D03*
D20*
X179565429Y-81750000D03*
X180585429Y-81750000D03*
D17*
X187860000Y-130880000D03*
X187860000Y-129580000D03*
X185860000Y-130230000D03*
D21*
X122550000Y-94967349D03*
X133050000Y-94967349D03*
D22*
X120500000Y-100895000D03*
X120500000Y-101855000D03*
D14*
X142494000Y-67312000D03*
X142494000Y-66292000D03*
D13*
X128166104Y-65927000D03*
X128166104Y-67477000D03*
D18*
X133605000Y-66302000D03*
X133605000Y-67322000D03*
D14*
X126891104Y-67312000D03*
X126891104Y-66292000D03*
D18*
X188945000Y-130075000D03*
X188945000Y-131095000D03*
X115011000Y-69390000D03*
X115011000Y-70410000D03*
X160245000Y-136184139D03*
X160245000Y-137204139D03*
D15*
X118425000Y-73575000D03*
X118425000Y-75475002D03*
X120711000Y-74525001D03*
X131357000Y-68974999D03*
X131357000Y-70875001D03*
X133643000Y-69925000D03*
X139157000Y-68949999D03*
X139157000Y-70850001D03*
X141443000Y-69900000D03*
D12*
X153525000Y-77935000D03*
X152505000Y-77935000D03*
D23*
X144700000Y-108025000D03*
X148050000Y-108025000D03*
X144700000Y-111075000D03*
X148050000Y-111075000D03*
D24*
X154220000Y-111821000D03*
X154220000Y-107249000D03*
D12*
X132410000Y-73025000D03*
X131390000Y-73025000D03*
D16*
X129450000Y-84095000D03*
X129450000Y-87045000D03*
D20*
X166030000Y-75980000D03*
X167050000Y-75980000D03*
D12*
X154975000Y-73435000D03*
X153955000Y-73435000D03*
D14*
X134620000Y-67312000D03*
X134620000Y-66292000D03*
D25*
X166992856Y-79020000D03*
X166032856Y-79020000D03*
D26*
X152540000Y-75410000D03*
X154840000Y-75410000D03*
D16*
X132750000Y-84095000D03*
X132750000Y-87045000D03*
D12*
X158150000Y-134450000D03*
X157130000Y-134450000D03*
D14*
X165790000Y-137330000D03*
X165790000Y-136310000D03*
D27*
X129100000Y-124515000D03*
X130050000Y-124515000D03*
X131000000Y-124515000D03*
X131000000Y-121895000D03*
X130050000Y-121895000D03*
X129100000Y-121895000D03*
D28*
X150495000Y-67710000D03*
X151455000Y-67710000D03*
D18*
X116868000Y-73904999D03*
X116868000Y-74924999D03*
D12*
X122660000Y-73025000D03*
X121640000Y-73025000D03*
D25*
X162695000Y-82550000D03*
X161735000Y-82550000D03*
D18*
X164945100Y-82525100D03*
X164945100Y-83545100D03*
D15*
X133944500Y-73549999D03*
X133944500Y-75450001D03*
X136230500Y-74500000D03*
D29*
X166675000Y-106900000D03*
X178525000Y-106900000D03*
D18*
X141469000Y-66297000D03*
X141469000Y-67317000D03*
D12*
X130460000Y-73025000D03*
X129440000Y-73025000D03*
D20*
X117790000Y-120400000D03*
X118810000Y-120400000D03*
D12*
X180585329Y-82775100D03*
X179565329Y-82775100D03*
D13*
X121163000Y-65904000D03*
X121163000Y-67454000D03*
D30*
X120687500Y-78290000D03*
X126612500Y-78290000D03*
D31*
X129097292Y-127875000D03*
X129097292Y-129525000D03*
D15*
X164455856Y-78040001D03*
X164455856Y-76139999D03*
X162169856Y-77090000D03*
D13*
X135895000Y-65952000D03*
X135895000Y-67502000D03*
D18*
X125866104Y-66292000D03*
X125866104Y-67312000D03*
D32*
X154990000Y-76960000D03*
X154990000Y-79260000D03*
D18*
X160810000Y-71960000D03*
X160810000Y-72980000D03*
D33*
X166350000Y-81075000D03*
X164700000Y-81075000D03*
D34*
X172150000Y-99505000D03*
X172150000Y-98235000D03*
X172150000Y-96965000D03*
X172150000Y-95695000D03*
X166750000Y-95695000D03*
X166750000Y-96965000D03*
X166750000Y-98235000D03*
X166750000Y-99505000D03*
D15*
X141719500Y-73549999D03*
X141719500Y-75450001D03*
X144005500Y-74500000D03*
D20*
X157800000Y-73433758D03*
X158820000Y-73433758D03*
D35*
X181379899Y-78080099D03*
X181379899Y-68580099D03*
D14*
X166850000Y-137330000D03*
X166850000Y-136310000D03*
D36*
X114900000Y-127425000D03*
X116550000Y-127425000D03*
D37*
X168260000Y-77962000D03*
X169560000Y-77962000D03*
X168910000Y-75962000D03*
D38*
X170887500Y-93625000D03*
X167962500Y-93625000D03*
D18*
X146463000Y-69359999D03*
X146463000Y-70379999D03*
D20*
X130290000Y-125900000D03*
X131310000Y-125900000D03*
D12*
X121300000Y-113370000D03*
X120280000Y-113370000D03*
X169395000Y-79012000D03*
X168375000Y-79012000D03*
D16*
X129475000Y-102800000D03*
X129475000Y-105750000D03*
D30*
X128437500Y-78290000D03*
X134362500Y-78290000D03*
D17*
X147525000Y-75525000D03*
X147525000Y-74225000D03*
X145525000Y-74875000D03*
D18*
X184780000Y-130090000D03*
X184780000Y-131110000D03*
D25*
X185539899Y-69080099D03*
X184579899Y-69080099D03*
D22*
X159785000Y-71990000D03*
X159785000Y-72950000D03*
D17*
X124225000Y-75550000D03*
X124225000Y-74250000D03*
X122225000Y-74900000D03*
D30*
X136200000Y-78290000D03*
X142125000Y-78290000D03*
D39*
X139100000Y-115900000D03*
X139100000Y-126500000D03*
D25*
X187439899Y-69080099D03*
X186479899Y-69080099D03*
D18*
X148600000Y-74390000D03*
X148600000Y-75410000D03*
D17*
X145413000Y-70554999D03*
X145413000Y-69254999D03*
X143413000Y-69904999D03*
D14*
X109200000Y-114285000D03*
X109200000Y-113265000D03*
D40*
X150295000Y-72035000D03*
X150295000Y-69085000D03*
D41*
X161900000Y-96000000D03*
X164850000Y-96000000D03*
D30*
X143950000Y-78290000D03*
X149875000Y-78290000D03*
D14*
X120500000Y-99985000D03*
X120500000Y-98965000D03*
D12*
X138235000Y-73025000D03*
X137215000Y-73025000D03*
D42*
X152831400Y-68095000D03*
X152831400Y-69365000D03*
X152831400Y-70635000D03*
X152831400Y-71905000D03*
X158368600Y-71905000D03*
X158368600Y-70635000D03*
X158368600Y-69365000D03*
X158368600Y-68095000D03*
D43*
X162250000Y-74000000D03*
X162250000Y-72450000D03*
D44*
X133750000Y-130100000D03*
X133750000Y-128600000D03*
D28*
X178679899Y-80330099D03*
X179639899Y-80330099D03*
D16*
X122850000Y-84095000D03*
X122850000Y-87045000D03*
D17*
X159170000Y-136994139D03*
X159170000Y-135694139D03*
X157170000Y-136344139D03*
D15*
X126107000Y-73574999D03*
X126107000Y-75475001D03*
X128393000Y-74525000D03*
D45*
X160660000Y-68420000D03*
X160660000Y-70570000D03*
D28*
X155190000Y-66585000D03*
X156150000Y-66585000D03*
D25*
X179459899Y-66330099D03*
X178499899Y-66330099D03*
D46*
X163925000Y-72475000D03*
X163925000Y-73425000D03*
X163925000Y-74375000D03*
X166325000Y-74375000D03*
X166325000Y-72475000D03*
D18*
X111725000Y-113265000D03*
X111725000Y-114285000D03*
D14*
X163915000Y-83545000D03*
X163915000Y-82525000D03*
D43*
X167950000Y-73975000D03*
X167950000Y-72425000D03*
D12*
X124610000Y-73025000D03*
X123590000Y-73025000D03*
D16*
X163710000Y-67695000D03*
X163710000Y-70645000D03*
D17*
X131900000Y-75550000D03*
X131900000Y-74250000D03*
X129900000Y-74900000D03*
D16*
X126175000Y-102800000D03*
X126175000Y-105750000D03*
D18*
X118863000Y-66304000D03*
X118863000Y-67324000D03*
D25*
X156870000Y-73435000D03*
X155910000Y-73435000D03*
D47*
X158900000Y-101650000D03*
X161950000Y-101650000D03*
X158900000Y-105000000D03*
X161950000Y-105000000D03*
D48*
X158154000Y-111170000D03*
X162726000Y-111170000D03*
D20*
X152505000Y-76910000D03*
X153525000Y-76910000D03*
D16*
X122875000Y-102800000D03*
X122875000Y-105750000D03*
M02*
