G04 #@! TF.GenerationSoftware,KiCad,Pcbnew,(6.0.0)*
G04 #@! TF.CreationDate,2022-02-11T23:51:38-05:00*
G04 #@! TF.ProjectId,FalconMain,46616c63-6f6e-44d6-9169-6e2e6b696361,1A*
G04 #@! TF.SameCoordinates,Original*
G04 #@! TF.FileFunction,Copper,L3,Inr*
G04 #@! TF.FilePolarity,Positive*
%FSLAX46Y46*%
G04 Gerber Fmt 4.6, Leading zero omitted, Abs format (unit mm)*
G04 Created by KiCad (PCBNEW (6.0.0)) date 2022-02-11 23:51:38*
%MOMM*%
%LPD*%
G01*
G04 APERTURE LIST*
G04 Aperture macros list*
%AMRoundRect*
0 Rectangle with rounded corners*
0 $1 Rounding radius*
0 $2 $3 $4 $5 $6 $7 $8 $9 X,Y pos of 4 corners*
0 Add a 4 corners polygon primitive as box body*
4,1,4,$2,$3,$4,$5,$6,$7,$8,$9,$2,$3,0*
0 Add four circle primitives for the rounded corners*
1,1,$1+$1,$2,$3*
1,1,$1+$1,$4,$5*
1,1,$1+$1,$6,$7*
1,1,$1+$1,$8,$9*
0 Add four rect primitives between the rounded corners*
20,1,$1+$1,$2,$3,$4,$5,0*
20,1,$1+$1,$4,$5,$6,$7,0*
20,1,$1+$1,$6,$7,$8,$9,0*
20,1,$1+$1,$8,$9,$2,$3,0*%
%AMFreePoly0*
4,1,23,0.945671,0.830970,1.026777,0.776777,1.080970,0.695671,1.100000,0.600000,1.100000,-0.600000,1.080970,-0.695671,1.026777,-0.776777,0.945671,-0.830970,0.850000,-0.850000,-0.450000,-0.850000,-0.545671,-0.830970,-0.626777,-0.776777,-0.626779,-0.776774,-1.026777,-0.376777,-1.080970,-0.295671,-1.100000,-0.200000,-1.100000,0.600000,-1.080970,0.695671,-1.026777,0.776777,-0.945671,0.830970,
-0.850000,0.850000,0.850000,0.850000,0.945671,0.830970,0.945671,0.830970,$1*%
G04 Aperture macros list end*
G04 #@! TA.AperFunction,ComponentPad*
%ADD10C,1.000000*%
G04 #@! TD*
G04 #@! TA.AperFunction,ComponentPad*
%ADD11RoundRect,0.250000X0.600000X-0.850000X0.600000X0.850000X-0.600000X0.850000X-0.600000X-0.850000X0*%
G04 #@! TD*
G04 #@! TA.AperFunction,ComponentPad*
%ADD12O,1.700000X2.200000*%
G04 #@! TD*
G04 #@! TA.AperFunction,ComponentPad*
%ADD13C,5.500000*%
G04 #@! TD*
G04 #@! TA.AperFunction,ComponentPad*
%ADD14R,1.700000X1.700000*%
G04 #@! TD*
G04 #@! TA.AperFunction,ComponentPad*
%ADD15O,1.700000X1.700000*%
G04 #@! TD*
G04 #@! TA.AperFunction,ComponentPad*
%ADD16RoundRect,0.250000X-0.600000X-0.725000X0.600000X-0.725000X0.600000X0.725000X-0.600000X0.725000X0*%
G04 #@! TD*
G04 #@! TA.AperFunction,ComponentPad*
%ADD17O,1.700000X1.950000*%
G04 #@! TD*
G04 #@! TA.AperFunction,ComponentPad*
%ADD18R,1.600000X1.600000*%
G04 #@! TD*
G04 #@! TA.AperFunction,ComponentPad*
%ADD19C,1.600000*%
G04 #@! TD*
G04 #@! TA.AperFunction,ComponentPad*
%ADD20FreePoly0,180.000000*%
G04 #@! TD*
G04 #@! TA.AperFunction,ComponentPad*
%ADD21O,2.200000X1.700000*%
G04 #@! TD*
G04 #@! TA.AperFunction,ComponentPad*
%ADD22RoundRect,0.250000X-0.600000X0.850000X-0.600000X-0.850000X0.600000X-0.850000X0.600000X0.850000X0*%
G04 #@! TD*
G04 #@! TA.AperFunction,ComponentPad*
%ADD23RoundRect,0.250000X0.600000X0.600000X-0.600000X0.600000X-0.600000X-0.600000X0.600000X-0.600000X0*%
G04 #@! TD*
G04 #@! TA.AperFunction,ComponentPad*
%ADD24C,1.700000*%
G04 #@! TD*
G04 #@! TA.AperFunction,ViaPad*
%ADD25C,0.600000*%
G04 #@! TD*
G04 #@! TA.AperFunction,ViaPad*
%ADD26C,1.700000*%
G04 #@! TD*
G04 #@! TA.AperFunction,Conductor*
%ADD27C,0.152400*%
G04 #@! TD*
G04 #@! TA.AperFunction,Conductor*
%ADD28C,1.270000*%
G04 #@! TD*
G04 #@! TA.AperFunction,Conductor*
%ADD29C,0.254000*%
G04 #@! TD*
G04 #@! TA.AperFunction,Conductor*
%ADD30C,0.381000*%
G04 #@! TD*
G04 APERTURE END LIST*
D10*
X184939899Y-70480099D03*
X186839899Y-70480099D03*
D11*
X158300000Y-130170000D03*
D12*
X160800000Y-130170000D03*
X163300000Y-130170000D03*
X165800000Y-130170000D03*
X168300000Y-130170000D03*
D13*
X127600000Y-133205000D03*
X118600000Y-133205000D03*
D14*
X162825000Y-122860000D03*
D15*
X162825000Y-125400000D03*
X160285000Y-122860000D03*
X160285000Y-125400000D03*
X157745000Y-122860000D03*
X157745000Y-125400000D03*
D16*
X142500000Y-133980000D03*
D17*
X145000000Y-133980000D03*
X147500000Y-133980000D03*
X150000000Y-133980000D03*
X152500000Y-133980000D03*
D14*
X162800000Y-116020000D03*
D15*
X162800000Y-118560000D03*
X160260000Y-116020000D03*
X160260000Y-118560000D03*
X157720000Y-116020000D03*
X157720000Y-118560000D03*
X155180000Y-116020000D03*
X155180000Y-118560000D03*
X152640000Y-116020000D03*
X152640000Y-118560000D03*
X150100000Y-116020000D03*
X150100000Y-118560000D03*
X147560000Y-116020000D03*
X147560000Y-118560000D03*
D18*
X134517621Y-134655000D03*
D19*
X137017621Y-134655000D03*
D20*
X185420000Y-126238000D03*
D21*
X185420000Y-123738000D03*
D22*
X181800000Y-135585000D03*
D12*
X179300000Y-135585000D03*
X176800000Y-135585000D03*
X174300000Y-135585000D03*
X171800000Y-135585000D03*
D18*
X139100000Y-85842349D03*
D19*
X139100000Y-89342349D03*
D14*
X175375000Y-61400000D03*
D15*
X177915000Y-61400000D03*
X180455000Y-61400000D03*
D18*
X139125000Y-104370000D03*
D19*
X139125000Y-100870000D03*
D23*
X111720000Y-129555000D03*
D24*
X111720000Y-127055000D03*
X111720000Y-124555000D03*
X111720000Y-122055000D03*
X111720000Y-119555000D03*
X111720000Y-117055000D03*
X109220000Y-129555000D03*
X109220000Y-127055000D03*
X109220000Y-124555000D03*
X109220000Y-122055000D03*
X109220000Y-119555000D03*
X109220000Y-117055000D03*
D14*
X183120000Y-116026359D03*
D15*
X183120000Y-118566359D03*
X180580000Y-116026359D03*
X180580000Y-118566359D03*
X178040000Y-116026359D03*
X178040000Y-118566359D03*
X175500000Y-116026359D03*
X175500000Y-118566359D03*
X172960000Y-116026359D03*
X172960000Y-118566359D03*
D18*
X124347349Y-116600000D03*
D19*
X127847349Y-116600000D03*
D25*
X128270000Y-121910000D03*
X133780278Y-88115952D03*
X128780278Y-88115952D03*
X148782500Y-78590000D03*
X168600000Y-96300000D03*
X128802358Y-101664298D03*
X128007438Y-98776175D03*
X123540000Y-73900000D03*
X168600000Y-97100000D03*
X153700000Y-109500000D03*
X128000000Y-90062986D03*
X154200000Y-110400000D03*
X126802358Y-101664298D03*
X116673035Y-92471325D03*
X149400000Y-73100000D03*
X129802358Y-101664298D03*
X170300000Y-97100000D03*
X168600000Y-98100000D03*
X125780278Y-88115952D03*
X170300000Y-98900000D03*
X169442227Y-96293784D03*
X127252295Y-96230621D03*
X170101515Y-78645746D03*
X150300000Y-73100000D03*
X157300000Y-69300000D03*
X115673035Y-92471325D03*
X155200000Y-108600000D03*
X167000000Y-68700000D03*
X130802358Y-101664298D03*
X130000000Y-91000000D03*
X153200000Y-108600000D03*
X163034735Y-73414886D03*
X143800000Y-68500000D03*
X179050000Y-81061895D03*
X160700000Y-95100000D03*
X167900000Y-68700000D03*
X129790000Y-125440000D03*
X169447409Y-98907769D03*
X142500000Y-68100000D03*
X161300000Y-73800000D03*
X131780278Y-88115952D03*
X151200000Y-73100000D03*
D26*
X169450000Y-97600000D03*
D25*
X128000000Y-91000000D03*
X127780278Y-88115952D03*
X119173035Y-91717808D03*
X139030000Y-73890000D03*
X168600000Y-98900000D03*
X123780278Y-88115952D03*
X126780278Y-88115952D03*
X157800000Y-72700000D03*
X128200000Y-68500000D03*
X146025000Y-68675000D03*
X128232226Y-96227732D03*
X121200000Y-68500000D03*
X163700000Y-68700000D03*
X164600000Y-68700000D03*
X143860000Y-125200000D03*
X117173035Y-91717808D03*
X160700000Y-96000000D03*
X124802358Y-101664298D03*
X134190000Y-119240000D03*
X154000000Y-72400000D03*
X133802358Y-101664298D03*
X123802358Y-101664298D03*
X122802358Y-101664298D03*
X168000000Y-74900000D03*
X132802358Y-101664298D03*
X131220000Y-73900000D03*
X129779733Y-88114207D03*
X138030000Y-120410000D03*
X155200000Y-110400000D03*
X154700000Y-109500000D03*
X170300000Y-98100000D03*
X154200000Y-108600000D03*
X135740000Y-119240000D03*
X124780278Y-88115952D03*
X178501667Y-65597029D03*
X134600000Y-68100000D03*
X153100000Y-72800000D03*
X178300000Y-81050000D03*
X137030000Y-123600000D03*
X132610000Y-119230000D03*
X119673035Y-92471325D03*
X135960000Y-129820000D03*
X118673035Y-92471325D03*
X128377246Y-94411184D03*
X130000000Y-90062986D03*
X186499155Y-68396788D03*
X118173035Y-91717808D03*
X148625000Y-73675000D03*
X127873296Y-94957841D03*
X117673035Y-92471325D03*
X148782500Y-79390000D03*
X119900000Y-68200000D03*
X135900000Y-68500000D03*
X149700000Y-67700000D03*
X153200000Y-110400000D03*
X148782500Y-77790000D03*
X126557902Y-95567136D03*
X142840000Y-123700000D03*
X121780278Y-88115952D03*
X130780278Y-88115952D03*
X125802903Y-101666043D03*
X132780278Y-88115952D03*
X116173035Y-91717808D03*
X127389276Y-94388406D03*
X170300000Y-96300000D03*
X162800000Y-68700000D03*
X160700000Y-96800000D03*
X127802358Y-101664298D03*
X139110000Y-130660000D03*
X122780278Y-88115952D03*
X166100000Y-68700000D03*
X126091346Y-94487215D03*
X129000000Y-90062986D03*
X121802358Y-101664298D03*
X185539899Y-68380099D03*
X143880000Y-126720000D03*
X126900000Y-68100000D03*
X131802358Y-101664298D03*
X115497980Y-104939189D03*
X162650000Y-105550000D03*
X115522328Y-111960748D03*
X118497980Y-104939189D03*
X125400000Y-90518939D03*
X116522328Y-110960748D03*
X118522328Y-111960748D03*
X115522328Y-110960748D03*
X115497980Y-103939189D03*
X118522328Y-110960748D03*
X162650000Y-101050000D03*
X117522328Y-111960748D03*
X117522328Y-109960748D03*
X117497980Y-103939189D03*
X115497980Y-105939189D03*
X161150000Y-104050000D03*
X161150000Y-102550000D03*
X158150000Y-105550000D03*
X159650000Y-104050000D03*
X158150000Y-101050000D03*
X159650000Y-101050000D03*
X162650000Y-102550000D03*
X115497980Y-106939189D03*
X161150000Y-101050000D03*
X118497980Y-103939189D03*
X117497980Y-105939189D03*
X116497980Y-105939189D03*
X118497980Y-106939189D03*
X116522328Y-109960748D03*
X116497980Y-106939189D03*
X116497980Y-104939189D03*
X158150000Y-102550000D03*
X117497980Y-104939189D03*
X159650000Y-102550000D03*
X183670000Y-84530100D03*
X118522328Y-109960748D03*
X161150000Y-105550000D03*
X166800000Y-92850000D03*
X117497980Y-106939189D03*
X125400000Y-91218939D03*
X115522328Y-109960748D03*
X125400000Y-91918939D03*
X158150000Y-104050000D03*
X159650000Y-105550000D03*
X162650000Y-104050000D03*
X116497980Y-103939189D03*
X118497980Y-105939189D03*
X117522328Y-110960748D03*
X116522328Y-111960748D03*
X151150000Y-70550000D03*
X167000000Y-79775000D03*
X147200000Y-91875000D03*
X135830000Y-115520000D03*
X133301964Y-109100000D03*
X147200000Y-104000000D03*
X147200000Y-103300000D03*
X149425000Y-70550000D03*
X150325000Y-70550000D03*
X147200000Y-104700000D03*
X133300000Y-109958055D03*
X140050000Y-120460000D03*
X132900000Y-108400000D03*
X124000000Y-125000000D03*
X125000000Y-124000000D03*
X125000000Y-127000000D03*
X124000000Y-126000000D03*
X125000000Y-126000000D03*
X126000000Y-125000000D03*
X126000000Y-126000000D03*
X124000000Y-127000000D03*
X126000000Y-124000000D03*
X126000000Y-127000000D03*
X131820000Y-127060000D03*
X124000000Y-124000000D03*
X125000000Y-125000000D03*
X182915297Y-67530958D03*
X174075583Y-68870739D03*
X178900000Y-82800000D03*
X174368543Y-77762998D03*
X174741378Y-68859795D03*
X174379176Y-78422254D03*
X182918841Y-66868157D03*
X187240003Y-76168021D03*
X187239899Y-76980099D03*
X131100000Y-96700000D03*
X167670000Y-136340000D03*
X185440000Y-85550100D03*
X175831347Y-75680099D03*
X163404320Y-62413260D03*
X169480000Y-75160000D03*
X173269798Y-76185200D03*
X166904320Y-62729320D03*
X164979320Y-63245680D03*
X169050000Y-77100000D03*
X178825369Y-78735199D03*
X169600000Y-76571900D03*
X179330469Y-76580099D03*
X166379320Y-63793396D03*
X181589899Y-73780099D03*
X154860000Y-74450000D03*
X178829582Y-70225900D03*
X148533911Y-91730811D03*
X120600000Y-126000000D03*
X121600000Y-127000000D03*
X120600000Y-125000000D03*
X121600000Y-126000000D03*
X127100000Y-111600000D03*
X121600000Y-124000000D03*
X120600000Y-124000000D03*
X119600000Y-125000000D03*
X119600000Y-127000000D03*
X121600000Y-125000000D03*
X119600000Y-124000000D03*
X119600000Y-126000000D03*
X120600000Y-127000000D03*
X155000000Y-80180000D03*
X185039899Y-76880099D03*
X127100000Y-108402100D03*
X182939899Y-79630099D03*
X179825369Y-79285199D03*
X126700000Y-109100000D03*
X126700000Y-109950000D03*
X163140000Y-83560000D03*
X180450000Y-83650000D03*
X175846246Y-71685199D03*
X176652666Y-83166869D03*
X176850000Y-70250000D03*
X177000000Y-82500000D03*
X179600000Y-83650000D03*
X183674795Y-83477946D03*
X177700000Y-87450000D03*
X184458571Y-75961427D03*
X181089899Y-65330099D03*
X178300000Y-85150000D03*
X181300000Y-85150000D03*
X176400000Y-85150000D03*
X179812115Y-70250000D03*
X181244230Y-82800000D03*
X173269798Y-72185199D03*
X175831347Y-73680099D03*
X178324902Y-68119900D03*
X175840634Y-72680477D03*
X177577035Y-67859830D03*
X173819798Y-73185200D03*
X183539899Y-79080099D03*
X170451576Y-80801576D03*
X176799763Y-67849984D03*
X182939899Y-77680099D03*
X179314899Y-67564899D03*
X168350000Y-79750000D03*
X135990000Y-130870000D03*
X169750000Y-81300000D03*
X182939899Y-78530099D03*
X181639899Y-71030099D03*
X123475000Y-75525000D03*
X173819798Y-75185200D03*
X131150000Y-75550000D03*
X177330469Y-76580099D03*
X177825369Y-79285199D03*
X139025000Y-75550000D03*
X149325000Y-75525000D03*
X178335569Y-76070099D03*
X163404320Y-64079320D03*
X173269798Y-74185200D03*
X187040000Y-131070000D03*
X180089899Y-65330099D03*
X177200000Y-85150000D03*
X161020000Y-137010000D03*
X181850000Y-86450000D03*
X175840000Y-74670000D03*
X161825000Y-78025000D03*
X130100000Y-92400000D03*
X162650000Y-78025000D03*
X130100000Y-93100000D03*
X169000000Y-81900000D03*
X141110000Y-129350000D03*
X185589899Y-75930099D03*
X167900000Y-95100000D03*
X173025429Y-81031475D03*
X177650000Y-70250000D03*
X137900000Y-111804340D03*
X149000000Y-112000000D03*
X138900000Y-110804340D03*
X139900000Y-108804340D03*
X148000000Y-109000000D03*
X138900000Y-109804340D03*
X148000000Y-111000000D03*
X139900000Y-109804340D03*
X147000000Y-110000000D03*
X148000000Y-110000000D03*
X138900000Y-111804340D03*
X149000000Y-110000000D03*
X148000000Y-112000000D03*
X149000000Y-111000000D03*
X147000000Y-111000000D03*
X137900000Y-109804340D03*
X139900000Y-110804340D03*
X148000000Y-108000000D03*
X149000000Y-108000000D03*
X137900000Y-110804340D03*
X138900000Y-108804340D03*
X147000000Y-109000000D03*
X147000000Y-112000000D03*
X137900000Y-108804340D03*
X139900000Y-111804340D03*
X147000000Y-108000000D03*
X149000000Y-109000000D03*
X115492149Y-96082451D03*
X118492149Y-98082451D03*
X118492149Y-99082451D03*
X115492149Y-98082451D03*
X117492149Y-98082451D03*
X120900000Y-94800000D03*
X121900000Y-93800000D03*
X117492149Y-96082451D03*
X117492149Y-97082451D03*
X116492149Y-99082451D03*
X120900000Y-96800000D03*
X121900000Y-96800000D03*
X120900000Y-93800000D03*
X115492149Y-97082451D03*
X121900000Y-94800000D03*
X118492149Y-97082451D03*
X124500000Y-96300000D03*
X116492149Y-98082451D03*
X116492149Y-97082451D03*
X116492149Y-96082451D03*
X121900000Y-95800000D03*
X120900000Y-95800000D03*
X115492149Y-99082451D03*
X118492149Y-96082451D03*
X117492149Y-99082451D03*
X135340000Y-126420000D03*
X135500000Y-124510000D03*
X134800000Y-112800000D03*
X114314249Y-101670000D03*
X126400000Y-99900000D03*
X113986057Y-93834891D03*
X129378520Y-98129526D03*
X180939899Y-75630099D03*
X163740000Y-81070000D03*
X126700000Y-110800000D03*
X119800000Y-114600000D03*
X164450000Y-79428100D03*
X153900000Y-70640000D03*
X152520000Y-74480000D03*
X119238000Y-76314999D03*
X117638000Y-76314999D03*
X142740000Y-129440000D03*
X118438000Y-76314999D03*
X142740000Y-128640000D03*
X142740000Y-127840000D03*
X144990000Y-127840000D03*
X144990000Y-129440000D03*
X125462500Y-78530000D03*
X125462500Y-79330000D03*
X125462500Y-77730000D03*
X144990000Y-128640000D03*
X133202500Y-77730000D03*
X147490000Y-128640000D03*
X133192500Y-78520000D03*
X133202500Y-79330000D03*
X147490000Y-127840000D03*
X147490000Y-129440000D03*
X140987500Y-77730000D03*
X140987500Y-78530000D03*
X149990000Y-127840000D03*
X140987500Y-79330000D03*
X149990000Y-128640000D03*
X149990000Y-129440000D03*
X164960000Y-136340000D03*
X123290000Y-113370000D03*
X122590000Y-113370000D03*
X121900000Y-113370000D03*
X163290000Y-81985000D03*
X170698100Y-72300000D03*
X182189899Y-71880099D03*
D27*
X183304320Y-86445680D02*
X176900000Y-92850000D01*
X183670000Y-84530100D02*
X183304320Y-84895780D01*
X176900000Y-92850000D02*
X166800000Y-92850000D01*
X183304320Y-84895780D02*
X183304320Y-86445680D01*
X160187500Y-78900000D02*
X147212500Y-91875000D01*
X147212500Y-91875000D02*
X147200000Y-91875000D01*
D28*
X147200000Y-104700000D02*
X147200000Y-104000000D01*
X145100000Y-107300000D02*
X147200000Y-105200000D01*
D27*
X166125000Y-78900000D02*
X160187500Y-78900000D01*
D28*
X137000000Y-107300000D02*
X145100000Y-107300000D01*
D27*
X167000000Y-79775000D02*
X166125000Y-78900000D01*
D28*
X135900000Y-108400000D02*
X137000000Y-107300000D01*
X147200000Y-104000000D02*
X147200000Y-103300000D01*
X147200000Y-105200000D02*
X147200000Y-104700000D01*
X133489521Y-108912443D02*
X133489521Y-109958055D01*
X133332858Y-108400000D02*
X135900000Y-108400000D01*
D27*
X173797909Y-73966448D02*
X173488550Y-73657089D01*
X173488550Y-73657089D02*
X171297463Y-73657089D01*
X169100000Y-68113223D02*
X163404320Y-62417543D01*
X175505099Y-75680099D02*
X173797909Y-73972909D01*
X175831347Y-75680099D02*
X175505099Y-75680099D01*
X169100000Y-71459626D02*
X169100000Y-68113223D01*
X171297463Y-73657089D02*
X169100000Y-71459626D01*
X173797909Y-73972909D02*
X173797909Y-73966448D01*
X169480000Y-75160000D02*
X172244598Y-75160000D01*
X172244598Y-75160000D02*
X173269798Y-76185200D01*
X174008878Y-79050000D02*
X177313705Y-79050000D01*
X169050000Y-77100000D02*
X172058878Y-77100000D01*
X177313705Y-79050000D02*
X177628506Y-78735199D01*
X177628506Y-78735199D02*
X178825369Y-78735199D01*
X172058878Y-77100000D02*
X174008878Y-79050000D01*
X173788795Y-77321951D02*
X174152108Y-76958640D01*
X178802358Y-77108210D02*
X179330469Y-76580099D01*
X176675000Y-76958640D02*
X176824570Y-77108210D01*
X172711203Y-77321951D02*
X173788795Y-77321951D01*
X171961152Y-76571900D02*
X172711203Y-77321951D01*
X176824570Y-77108210D02*
X178802358Y-77108210D01*
X169600000Y-76571900D02*
X171961152Y-76571900D01*
X174152108Y-76958640D02*
X176675000Y-76958640D01*
X178629222Y-67626085D02*
X178629222Y-67278476D01*
X178629222Y-67278476D02*
X175375000Y-64024254D01*
X175375000Y-64024254D02*
X175375000Y-61400000D01*
X178829582Y-70225900D02*
X178853013Y-70202469D01*
X178853013Y-67849876D02*
X178629222Y-67626085D01*
X178853013Y-70202469D02*
X178853013Y-67849876D01*
X148528100Y-97224115D02*
X143317095Y-102435120D01*
X143317095Y-102435120D02*
X137876584Y-102435120D01*
X136672743Y-103638960D02*
X129182554Y-103638960D01*
X148528100Y-91736622D02*
X148528100Y-97224115D01*
X129182554Y-103638960D02*
X125487040Y-107334474D01*
X125487040Y-110387040D02*
X126700000Y-111600000D01*
X125487040Y-107334474D02*
X125487040Y-110387040D01*
X137876584Y-102435120D02*
X136672743Y-103638960D01*
X126700000Y-111600000D02*
X127100000Y-111600000D01*
X148533911Y-91730811D02*
X148528100Y-91736622D01*
X165260374Y-84730000D02*
X162743711Y-84730000D01*
X142747600Y-103652400D02*
X143821311Y-103652400D01*
X179975680Y-80174320D02*
X169816054Y-80174320D01*
X127100000Y-107443010D02*
X128543010Y-106000000D01*
X162743711Y-84730000D02*
X162743711Y-84736662D01*
X128543010Y-106000000D02*
X140400000Y-106000000D01*
X162743711Y-84736662D02*
X159188517Y-88291856D01*
X180519901Y-79630099D02*
X179975680Y-80174320D01*
X169816054Y-80174320D02*
X165260374Y-84730000D01*
X143821311Y-103652400D02*
X159181856Y-88291856D01*
X182939899Y-79630099D02*
X180519901Y-79630099D01*
X127100000Y-108402100D02*
X127100000Y-107443010D01*
X159188517Y-88291856D02*
X159181856Y-88291856D01*
X140400000Y-106000000D02*
X142747600Y-103652400D01*
X126400000Y-108800000D02*
X126400000Y-107712636D01*
X165160000Y-84400000D02*
X162643336Y-84400000D01*
X142621546Y-103348080D02*
X143695257Y-103348080D01*
X143695257Y-103348080D02*
X162643336Y-84400000D01*
X126400000Y-107712636D02*
X128416957Y-105695680D01*
X169690000Y-79870000D02*
X165160000Y-84400000D01*
X126700000Y-109100000D02*
X126400000Y-108800000D01*
X128416957Y-105695680D02*
X140273946Y-105695680D01*
X179240568Y-79870000D02*
X169690000Y-79870000D01*
X179825369Y-79285199D02*
X179240568Y-79870000D01*
X140273946Y-105695680D02*
X142621546Y-103348080D01*
X126650000Y-109900000D02*
X126095680Y-109345680D01*
X126095680Y-107586582D02*
X129434662Y-104247600D01*
X136924852Y-104247600D02*
X138128692Y-103043760D01*
X129434662Y-104247600D02*
X136924852Y-104247600D01*
X138128692Y-103043760D02*
X143569203Y-103043760D01*
X126700000Y-109900000D02*
X126650000Y-109900000D01*
X163052963Y-83560000D02*
X163140000Y-83560000D01*
X126095680Y-109345680D02*
X126095680Y-107586582D01*
X143569203Y-103043760D02*
X163052963Y-83560000D01*
X180450000Y-83650000D02*
X179900000Y-84200000D01*
X179900000Y-84200000D02*
X177685797Y-84200000D01*
X177685797Y-84200000D02*
X176652666Y-83166869D01*
X179600000Y-83650000D02*
X178150000Y-83650000D01*
X178150000Y-83650000D02*
X177000000Y-82500000D01*
X181869626Y-87450000D02*
X183000000Y-86319626D01*
X177700000Y-87450000D02*
X181869626Y-87450000D01*
X183000000Y-86319626D02*
X183000000Y-84152741D01*
X183000000Y-84152741D02*
X183674795Y-83477946D01*
X178300000Y-85150000D02*
X181300000Y-85150000D01*
X176903137Y-84550000D02*
X180650000Y-84550000D01*
X181244230Y-83955770D02*
X181244230Y-82800000D01*
X176400000Y-85150000D02*
X176400000Y-85053137D01*
X176400000Y-85053137D02*
X176903137Y-84550000D01*
X180650000Y-84550000D02*
X181244230Y-83955770D01*
X183539899Y-79820101D02*
X183539899Y-79080099D01*
X182880000Y-80480000D02*
X183539899Y-79820101D01*
X170773152Y-80480000D02*
X182880000Y-80480000D01*
X170451576Y-80801576D02*
X170773152Y-80480000D01*
X184100000Y-78800000D02*
X183830099Y-78530099D01*
X184100000Y-79700000D02*
X184100000Y-78800000D01*
X183830099Y-78530099D02*
X182939899Y-78530099D01*
X182200000Y-81600000D02*
X184100000Y-79700000D01*
X170050000Y-81600000D02*
X182200000Y-81600000D01*
X169750000Y-81300000D02*
X170050000Y-81600000D01*
X173819798Y-75185200D02*
X173335200Y-75185200D01*
X173335200Y-75185200D02*
X172770000Y-74620000D01*
X124329320Y-74670680D02*
X123475000Y-75525000D01*
X168218752Y-75428111D02*
X150103111Y-75428111D01*
X172770000Y-74620000D02*
X169026863Y-74620000D01*
X169026863Y-74620000D02*
X168218752Y-75428111D01*
X149345680Y-74670680D02*
X124329320Y-74670680D01*
X150103111Y-75428111D02*
X149345680Y-74670680D01*
X173662742Y-77017631D02*
X172837257Y-77017631D01*
X150163249Y-76036751D02*
X149504320Y-76695680D01*
X174026054Y-76654320D02*
X173662742Y-77017631D01*
X177330469Y-76580099D02*
X177256248Y-76654320D01*
X141145680Y-76695680D02*
X139425000Y-74975000D01*
X177256248Y-76654320D02*
X174026054Y-76654320D01*
X139425000Y-74975000D02*
X131725000Y-74975000D01*
X171856377Y-76036751D02*
X150163249Y-76036751D01*
X172837257Y-77017631D02*
X171856377Y-76036751D01*
X131725000Y-74975000D02*
X131150000Y-75550000D01*
X149504320Y-76695680D02*
X141145680Y-76695680D01*
X140475000Y-77000000D02*
X139025000Y-75550000D01*
X167241071Y-76341071D02*
X150289303Y-76341071D01*
X168550000Y-77650000D02*
X167241071Y-76341071D01*
X177825369Y-79285199D02*
X177756248Y-79354320D01*
X177756248Y-79354320D02*
X173882824Y-79354320D01*
X173882824Y-79354320D02*
X172178504Y-77650000D01*
X172178504Y-77650000D02*
X168550000Y-77650000D01*
X149630373Y-77000000D02*
X140475000Y-77000000D01*
X150289303Y-76341071D02*
X149630373Y-77000000D01*
X149532431Y-75732431D02*
X149325000Y-75525000D01*
X171982431Y-75732431D02*
X149532431Y-75732431D01*
X178317458Y-76051988D02*
X176248012Y-76051988D01*
X173536689Y-76713311D02*
X172963311Y-76713311D01*
X178335569Y-76070099D02*
X178317458Y-76051988D01*
X175950000Y-76350000D02*
X173900000Y-76350000D01*
X173900000Y-76350000D02*
X173536689Y-76713311D01*
X172963311Y-76713311D02*
X171982431Y-75732431D01*
X176248012Y-76051988D02*
X175950000Y-76350000D01*
X164598946Y-64079320D02*
X163404320Y-64079320D01*
X168795680Y-68276054D02*
X164598946Y-64079320D01*
X168795680Y-71585680D02*
X168795680Y-68276054D01*
X173269798Y-74185200D02*
X171395200Y-74185200D01*
X171395200Y-74185200D02*
X168795680Y-71585680D01*
X184500000Y-108150000D02*
X184500000Y-111800000D01*
X185450000Y-66100000D02*
X189400000Y-70050000D01*
X188150000Y-115450000D02*
X188150000Y-127550000D01*
X184500000Y-111800000D02*
X188150000Y-115450000D01*
X189400000Y-103250000D02*
X184500000Y-108150000D01*
X188150000Y-127550000D02*
X187000000Y-128700000D01*
X187000000Y-128700000D02*
X187000000Y-131030000D01*
X187000000Y-131030000D02*
X187040000Y-131070000D01*
X180089899Y-65330099D02*
X180859800Y-66100000D01*
X180859800Y-66100000D02*
X185450000Y-66100000D01*
X189400000Y-70050000D02*
X189400000Y-103250000D01*
X178473424Y-86423424D02*
X177200000Y-85150000D01*
X181850000Y-86450000D02*
X181823424Y-86423424D01*
X181823424Y-86423424D02*
X178473424Y-86423424D01*
D28*
X159175000Y-78025000D02*
X144800000Y-92400000D01*
X162650000Y-78025000D02*
X159175000Y-78025000D01*
X130100000Y-92400000D02*
X144800000Y-92400000D01*
X130100000Y-93100000D02*
X130800000Y-92400000D01*
X130100000Y-93100000D02*
X130100000Y-92400000D01*
D27*
X169000000Y-81900000D02*
X169004320Y-81904320D01*
X185589899Y-78640475D02*
X185589899Y-75930099D01*
X169004320Y-81904320D02*
X182326053Y-81904320D01*
X182326053Y-81904320D02*
X185589899Y-78640475D01*
D29*
X116084249Y-99900000D02*
X114314249Y-101670000D01*
X126400000Y-99900000D02*
X116084249Y-99900000D01*
X113986057Y-93834891D02*
X117934891Y-93834891D01*
X119600000Y-96700000D02*
X121029526Y-98129526D01*
X117934891Y-93834891D02*
X119600000Y-95500000D01*
X121029526Y-98129526D02*
X129378520Y-98129526D01*
X119600000Y-95500000D02*
X119600000Y-96700000D01*
D27*
X136798796Y-103943280D02*
X129308608Y-103943280D01*
X148832420Y-97350168D02*
X143443148Y-102739440D01*
X161570000Y-81070000D02*
X148832420Y-93807580D01*
X148832420Y-93807580D02*
X148832420Y-97350168D01*
X125791360Y-107460528D02*
X125791360Y-109891360D01*
X138002638Y-102739440D02*
X136798796Y-103943280D01*
X129308608Y-103943280D02*
X125791360Y-107460528D01*
X143443148Y-102739440D02*
X138002638Y-102739440D01*
X125791360Y-109891360D02*
X126700000Y-110800000D01*
X163740000Y-81070000D02*
X161570000Y-81070000D01*
X119800000Y-112591140D02*
X129056500Y-103334640D01*
X119800000Y-114600000D02*
X119800000Y-112591140D01*
X148000000Y-91517874D02*
X160089774Y-79428100D01*
X143191041Y-102130800D02*
X148000000Y-97321841D01*
X129056500Y-103334640D02*
X136546690Y-103334640D01*
X137750530Y-102130800D02*
X143191041Y-102130800D01*
X136546690Y-103334640D02*
X137750530Y-102130800D01*
X148000000Y-97321841D02*
X148000000Y-91517874D01*
X160089774Y-79428100D02*
X164450000Y-79428100D01*
D28*
X146840000Y-122060000D02*
X133270000Y-122060000D01*
X108290000Y-115250000D02*
X112750000Y-115250000D01*
X107450000Y-120285000D02*
X107450000Y-116090000D01*
X107450000Y-116090000D02*
X108290000Y-115250000D01*
X152740000Y-127960000D02*
X146840000Y-122060000D01*
X133270000Y-122060000D02*
X129910000Y-118700000D01*
X122880000Y-113370000D02*
X123290000Y-113370000D01*
X161640000Y-127960000D02*
X152740000Y-127960000D01*
X163300000Y-130234954D02*
X165815046Y-132750000D01*
X120375000Y-115875000D02*
X122880000Y-113370000D01*
X174340000Y-132750000D02*
X176800000Y-135210000D01*
X163300000Y-130170000D02*
X163300000Y-129620000D01*
X165815046Y-132750000D02*
X174340000Y-132750000D01*
X121900000Y-114350000D02*
X120375000Y-115875000D01*
D30*
X165815046Y-132750000D02*
X165815046Y-135484954D01*
D28*
X129910000Y-118700000D02*
X129910000Y-115400000D01*
X121930000Y-113400000D02*
X121900000Y-113370000D01*
X112750000Y-115250000D02*
X113375000Y-115875000D01*
X127910000Y-113400000D02*
X121930000Y-113400000D01*
X129910000Y-115400000D02*
X127910000Y-113400000D01*
X121900000Y-113370000D02*
X121900000Y-114350000D01*
X163300000Y-129620000D02*
X161640000Y-127960000D01*
X109220000Y-122055000D02*
X107450000Y-120285000D01*
X113375000Y-115875000D02*
X120375000Y-115875000D01*
D30*
X165815046Y-135484954D02*
X164960000Y-136340000D01*
D27*
X171841012Y-71157088D02*
X176064998Y-71157088D01*
X176064998Y-71157088D02*
X176788009Y-71880099D01*
X176788009Y-71880099D02*
X182189899Y-71880099D01*
X170698100Y-72300000D02*
X171841012Y-71157088D01*
G04 #@! TA.AperFunction,Conductor*
G36*
X133513482Y-107764513D02*
G01*
X133623223Y-107778961D01*
X133648586Y-107785756D01*
X133744707Y-107825571D01*
X133767447Y-107838700D01*
X133849991Y-107902038D01*
X133868560Y-107920608D01*
X133931892Y-108003144D01*
X133945023Y-108025887D01*
X133984837Y-108122006D01*
X133991634Y-108147373D01*
X134006081Y-108257112D01*
X134006942Y-108270243D01*
X134006943Y-110085418D01*
X134006082Y-110098549D01*
X134000424Y-110141530D01*
X133991635Y-110208287D01*
X133984838Y-110233654D01*
X133945025Y-110329772D01*
X133931894Y-110352516D01*
X133868558Y-110435055D01*
X133849989Y-110453624D01*
X133824367Y-110473285D01*
X133767448Y-110516961D01*
X133744708Y-110530090D01*
X133648586Y-110569905D01*
X133623223Y-110576700D01*
X133513483Y-110591148D01*
X133500352Y-110592009D01*
X132919810Y-110592009D01*
X132860679Y-110572796D01*
X132824134Y-110522496D01*
X132820735Y-110476234D01*
X132820526Y-110476211D01*
X132820650Y-110475076D01*
X132856858Y-110144469D01*
X132854237Y-109810754D01*
X132812699Y-109479624D01*
X132732812Y-109155601D01*
X132615666Y-108843112D01*
X132462862Y-108546425D01*
X132276486Y-108269591D01*
X132059086Y-108016393D01*
X132056913Y-108014391D01*
X132036045Y-107995168D01*
X132005571Y-107940974D01*
X132012772Y-107879218D01*
X132042962Y-107841366D01*
X132046437Y-107838700D01*
X132069177Y-107825571D01*
X132165299Y-107785756D01*
X132190662Y-107778961D01*
X132300402Y-107764513D01*
X132313533Y-107763652D01*
X133500351Y-107763652D01*
X133513482Y-107764513D01*
G37*
G04 #@! TD.AperFunction*
M02*
