G04 #@! TF.GenerationSoftware,KiCad,Pcbnew,(6.0.0)*
G04 #@! TF.CreationDate,2022-02-11T23:51:38-05:00*
G04 #@! TF.ProjectId,FalconMain,46616c63-6f6e-44d6-9169-6e2e6b696361,1A*
G04 #@! TF.SameCoordinates,Original*
G04 #@! TF.FileFunction,Legend,Top*
G04 #@! TF.FilePolarity,Positive*
%FSLAX46Y46*%
G04 Gerber Fmt 4.6, Leading zero omitted, Abs format (unit mm)*
G04 Created by KiCad (PCBNEW (6.0.0)) date 2022-02-11 23:51:38*
%MOMM*%
%LPD*%
G01*
G04 APERTURE LIST*
%ADD10C,0.200000*%
%ADD11C,0.150000*%
%ADD12C,0.120000*%
%ADD13C,0.127000*%
%ADD14C,0.300000*%
G04 APERTURE END LIST*
D10*
X122119047Y-130647380D02*
X121642857Y-130647380D01*
X121642857Y-129647380D01*
X122452380Y-130647380D02*
X122452380Y-129980714D01*
X122452380Y-129647380D02*
X122404761Y-129695000D01*
X122452380Y-129742619D01*
X122500000Y-129695000D01*
X122452380Y-129647380D01*
X122452380Y-129742619D01*
X122928571Y-130647380D02*
X122928571Y-129647380D01*
X123309523Y-129647380D01*
X123404761Y-129695000D01*
X123452380Y-129742619D01*
X123500000Y-129837857D01*
X123500000Y-129980714D01*
X123452380Y-130075952D01*
X123404761Y-130123571D01*
X123309523Y-130171190D01*
X122928571Y-130171190D01*
X124071428Y-130647380D02*
X123976190Y-130599761D01*
X123928571Y-130552142D01*
X123880952Y-130456904D01*
X123880952Y-130171190D01*
X123928571Y-130075952D01*
X123976190Y-130028333D01*
X124071428Y-129980714D01*
X124214285Y-129980714D01*
X124309523Y-130028333D01*
X124357142Y-130075952D01*
X124404761Y-130171190D01*
X124404761Y-130456904D01*
X124357142Y-130552142D01*
X124309523Y-130599761D01*
X124214285Y-130647380D01*
X124071428Y-130647380D01*
X122714285Y-131590714D02*
X122714285Y-132257380D01*
X122476190Y-131209761D02*
X122238095Y-131924047D01*
X122857142Y-131924047D01*
X123190476Y-132209761D02*
X123333333Y-132257380D01*
X123571428Y-132257380D01*
X123666666Y-132209761D01*
X123714285Y-132162142D01*
X123761904Y-132066904D01*
X123761904Y-131971666D01*
X123714285Y-131876428D01*
X123666666Y-131828809D01*
X123571428Y-131781190D01*
X123380952Y-131733571D01*
X123285714Y-131685952D01*
X123238095Y-131638333D01*
X123190476Y-131543095D01*
X123190476Y-131447857D01*
X123238095Y-131352619D01*
X123285714Y-131305000D01*
X123380952Y-131257380D01*
X123619047Y-131257380D01*
X123761904Y-131305000D01*
D11*
X139289285Y-72461904D02*
X139089285Y-72080952D01*
X138946428Y-72461904D02*
X138946428Y-71661904D01*
X139175000Y-71661904D01*
X139232142Y-71700000D01*
X139260714Y-71738095D01*
X139289285Y-71814285D01*
X139289285Y-71928571D01*
X139260714Y-72004761D01*
X139232142Y-72042857D01*
X139175000Y-72080952D01*
X138946428Y-72080952D01*
X139517857Y-71738095D02*
X139546428Y-71700000D01*
X139603571Y-71661904D01*
X139746428Y-71661904D01*
X139803571Y-71700000D01*
X139832142Y-71738095D01*
X139860714Y-71814285D01*
X139860714Y-71890476D01*
X139832142Y-72004761D01*
X139489285Y-72461904D01*
X139860714Y-72461904D01*
X140375000Y-71661904D02*
X140260714Y-71661904D01*
X140203571Y-71700000D01*
X140175000Y-71738095D01*
X140117857Y-71852380D01*
X140089285Y-72004761D01*
X140089285Y-72309523D01*
X140117857Y-72385714D01*
X140146428Y-72423809D01*
X140203571Y-72461904D01*
X140317857Y-72461904D01*
X140375000Y-72423809D01*
X140403571Y-72385714D01*
X140432142Y-72309523D01*
X140432142Y-72119047D01*
X140403571Y-72042857D01*
X140375000Y-72004761D01*
X140317857Y-71966666D01*
X140203571Y-71966666D01*
X140146428Y-72004761D01*
X140117857Y-72042857D01*
X140089285Y-72119047D01*
X145385714Y-67185714D02*
X145423809Y-67214285D01*
X145461904Y-67300000D01*
X145461904Y-67357142D01*
X145423809Y-67442857D01*
X145347619Y-67500000D01*
X145271428Y-67528571D01*
X145119047Y-67557142D01*
X145004761Y-67557142D01*
X144852380Y-67528571D01*
X144776190Y-67500000D01*
X144700000Y-67442857D01*
X144661904Y-67357142D01*
X144661904Y-67300000D01*
X144700000Y-67214285D01*
X144738095Y-67185714D01*
X144661904Y-66985714D02*
X144661904Y-66614285D01*
X144966666Y-66814285D01*
X144966666Y-66728571D01*
X145004761Y-66671428D01*
X145042857Y-66642857D01*
X145119047Y-66614285D01*
X145309523Y-66614285D01*
X145385714Y-66642857D01*
X145423809Y-66671428D01*
X145461904Y-66728571D01*
X145461904Y-66900000D01*
X145423809Y-66957142D01*
X145385714Y-66985714D01*
X144661904Y-66242857D02*
X144661904Y-66185714D01*
X144700000Y-66128571D01*
X144738095Y-66100000D01*
X144814285Y-66071428D01*
X144966666Y-66042857D01*
X145157142Y-66042857D01*
X145309523Y-66071428D01*
X145385714Y-66100000D01*
X145423809Y-66128571D01*
X145461904Y-66185714D01*
X145461904Y-66242857D01*
X145423809Y-66300000D01*
X145385714Y-66328571D01*
X145309523Y-66357142D01*
X145157142Y-66385714D01*
X144966666Y-66385714D01*
X144814285Y-66357142D01*
X144738095Y-66328571D01*
X144700000Y-66300000D01*
X144661904Y-66242857D01*
X120311904Y-65335714D02*
X119930952Y-65535714D01*
X120311904Y-65678571D02*
X119511904Y-65678571D01*
X119511904Y-65450000D01*
X119550000Y-65392857D01*
X119588095Y-65364285D01*
X119664285Y-65335714D01*
X119778571Y-65335714D01*
X119854761Y-65364285D01*
X119892857Y-65392857D01*
X119930952Y-65450000D01*
X119930952Y-65678571D01*
X119511904Y-65135714D02*
X119511904Y-64764285D01*
X119816666Y-64964285D01*
X119816666Y-64878571D01*
X119854761Y-64821428D01*
X119892857Y-64792857D01*
X119969047Y-64764285D01*
X120159523Y-64764285D01*
X120235714Y-64792857D01*
X120273809Y-64821428D01*
X120311904Y-64878571D01*
X120311904Y-65050000D01*
X120273809Y-65107142D01*
X120235714Y-65135714D01*
X119778571Y-64250000D02*
X120311904Y-64250000D01*
X119473809Y-64392857D02*
X120045238Y-64535714D01*
X120045238Y-64164285D01*
X117057142Y-68038095D02*
X117000000Y-68000000D01*
X116942857Y-67923809D01*
X116857142Y-67809523D01*
X116800000Y-67771428D01*
X116742857Y-67771428D01*
X116771428Y-67961904D02*
X116714285Y-67923809D01*
X116657142Y-67847619D01*
X116628571Y-67695238D01*
X116628571Y-67428571D01*
X116657142Y-67276190D01*
X116714285Y-67200000D01*
X116771428Y-67161904D01*
X116885714Y-67161904D01*
X116942857Y-67200000D01*
X117000000Y-67276190D01*
X117028571Y-67428571D01*
X117028571Y-67695238D01*
X117000000Y-67847619D01*
X116942857Y-67923809D01*
X116885714Y-67961904D01*
X116771428Y-67961904D01*
X117600000Y-67961904D02*
X117257142Y-67961904D01*
X117428571Y-67961904D02*
X117428571Y-67161904D01*
X117371428Y-67276190D01*
X117314285Y-67352380D01*
X117257142Y-67390476D01*
X117800000Y-67161904D02*
X118171428Y-67161904D01*
X117971428Y-67466666D01*
X118057142Y-67466666D01*
X118114285Y-67504761D01*
X118142857Y-67542857D01*
X118171428Y-67619047D01*
X118171428Y-67809523D01*
X118142857Y-67885714D01*
X118114285Y-67923809D01*
X118057142Y-67961904D01*
X117885714Y-67961904D01*
X117828571Y-67923809D01*
X117800000Y-67885714D01*
X132339285Y-107555714D02*
X132310714Y-107593809D01*
X132225000Y-107631904D01*
X132167857Y-107631904D01*
X132082142Y-107593809D01*
X132025000Y-107517619D01*
X131996428Y-107441428D01*
X131967857Y-107289047D01*
X131967857Y-107174761D01*
X131996428Y-107022380D01*
X132025000Y-106946190D01*
X132082142Y-106870000D01*
X132167857Y-106831904D01*
X132225000Y-106831904D01*
X132310714Y-106870000D01*
X132339285Y-106908095D01*
X132853571Y-107098571D02*
X132853571Y-107631904D01*
X132710714Y-106793809D02*
X132567857Y-107365238D01*
X132939285Y-107365238D01*
X133110714Y-106831904D02*
X133510714Y-106831904D01*
X133253571Y-107631904D01*
X125764285Y-82955714D02*
X125735714Y-82993809D01*
X125650000Y-83031904D01*
X125592857Y-83031904D01*
X125507142Y-82993809D01*
X125450000Y-82917619D01*
X125421428Y-82841428D01*
X125392857Y-82689047D01*
X125392857Y-82574761D01*
X125421428Y-82422380D01*
X125450000Y-82346190D01*
X125507142Y-82270000D01*
X125592857Y-82231904D01*
X125650000Y-82231904D01*
X125735714Y-82270000D01*
X125764285Y-82308095D01*
X126307142Y-82231904D02*
X126021428Y-82231904D01*
X125992857Y-82612857D01*
X126021428Y-82574761D01*
X126078571Y-82536666D01*
X126221428Y-82536666D01*
X126278571Y-82574761D01*
X126307142Y-82612857D01*
X126335714Y-82689047D01*
X126335714Y-82879523D01*
X126307142Y-82955714D01*
X126278571Y-82993809D01*
X126221428Y-83031904D01*
X126078571Y-83031904D01*
X126021428Y-82993809D01*
X125992857Y-82955714D01*
X126878571Y-82231904D02*
X126592857Y-82231904D01*
X126564285Y-82612857D01*
X126592857Y-82574761D01*
X126650000Y-82536666D01*
X126792857Y-82536666D01*
X126850000Y-82574761D01*
X126878571Y-82612857D01*
X126907142Y-82689047D01*
X126907142Y-82879523D01*
X126878571Y-82955714D01*
X126850000Y-82993809D01*
X126792857Y-83031904D01*
X126650000Y-83031904D01*
X126592857Y-82993809D01*
X126564285Y-82955714D01*
X166639285Y-66585714D02*
X166610714Y-66623809D01*
X166525000Y-66661904D01*
X166467857Y-66661904D01*
X166382142Y-66623809D01*
X166325000Y-66547619D01*
X166296428Y-66471428D01*
X166267857Y-66319047D01*
X166267857Y-66204761D01*
X166296428Y-66052380D01*
X166325000Y-65976190D01*
X166382142Y-65900000D01*
X166467857Y-65861904D01*
X166525000Y-65861904D01*
X166610714Y-65900000D01*
X166639285Y-65938095D01*
X166839285Y-65861904D02*
X167210714Y-65861904D01*
X167010714Y-66166666D01*
X167096428Y-66166666D01*
X167153571Y-66204761D01*
X167182142Y-66242857D01*
X167210714Y-66319047D01*
X167210714Y-66509523D01*
X167182142Y-66585714D01*
X167153571Y-66623809D01*
X167096428Y-66661904D01*
X166925000Y-66661904D01*
X166867857Y-66623809D01*
X166839285Y-66585714D01*
X167410714Y-65861904D02*
X167810714Y-65861904D01*
X167553571Y-66661904D01*
X137242857Y-76338095D02*
X137185714Y-76300000D01*
X137128571Y-76223809D01*
X137042857Y-76109523D01*
X136985714Y-76071428D01*
X136928571Y-76071428D01*
X136957142Y-76261904D02*
X136900000Y-76223809D01*
X136842857Y-76147619D01*
X136814285Y-75995238D01*
X136814285Y-75728571D01*
X136842857Y-75576190D01*
X136900000Y-75500000D01*
X136957142Y-75461904D01*
X137071428Y-75461904D01*
X137128571Y-75500000D01*
X137185714Y-75576190D01*
X137214285Y-75728571D01*
X137214285Y-75995238D01*
X137185714Y-76147619D01*
X137128571Y-76223809D01*
X137071428Y-76261904D01*
X136957142Y-76261904D01*
X137728571Y-75461904D02*
X137614285Y-75461904D01*
X137557142Y-75500000D01*
X137528571Y-75538095D01*
X137471428Y-75652380D01*
X137442857Y-75804761D01*
X137442857Y-76109523D01*
X137471428Y-76185714D01*
X137500000Y-76223809D01*
X137557142Y-76261904D01*
X137671428Y-76261904D01*
X137728571Y-76223809D01*
X137757142Y-76185714D01*
X137785714Y-76109523D01*
X137785714Y-75919047D01*
X137757142Y-75842857D01*
X137728571Y-75804761D01*
X137671428Y-75766666D01*
X137557142Y-75766666D01*
X137500000Y-75804761D01*
X137471428Y-75842857D01*
X137442857Y-75919047D01*
X124057142Y-68083096D02*
X124000000Y-68045001D01*
X123942857Y-67968810D01*
X123857142Y-67854524D01*
X123800000Y-67816429D01*
X123742857Y-67816429D01*
X123771428Y-68006905D02*
X123714285Y-67968810D01*
X123657142Y-67892620D01*
X123628571Y-67740239D01*
X123628571Y-67473572D01*
X123657142Y-67321191D01*
X123714285Y-67245001D01*
X123771428Y-67206905D01*
X123885714Y-67206905D01*
X123942857Y-67245001D01*
X124000000Y-67321191D01*
X124028571Y-67473572D01*
X124028571Y-67740239D01*
X124000000Y-67892620D01*
X123942857Y-67968810D01*
X123885714Y-68006905D01*
X123771428Y-68006905D01*
X124600000Y-68006905D02*
X124257142Y-68006905D01*
X124428571Y-68006905D02*
X124428571Y-67206905D01*
X124371428Y-67321191D01*
X124314285Y-67397381D01*
X124257142Y-67435477D01*
X125114285Y-67473572D02*
X125114285Y-68006905D01*
X124971428Y-67168810D02*
X124828571Y-67740239D01*
X125200000Y-67740239D01*
X187564285Y-72730952D02*
X187564285Y-73111904D01*
X187364285Y-72311904D02*
X187564285Y-72730952D01*
X187764285Y-72311904D01*
X187935714Y-72388095D02*
X187964285Y-72350000D01*
X188021428Y-72311904D01*
X188164285Y-72311904D01*
X188221428Y-72350000D01*
X188250000Y-72388095D01*
X188278571Y-72464285D01*
X188278571Y-72540476D01*
X188250000Y-72654761D01*
X187907142Y-73111904D01*
X188278571Y-73111904D01*
X166850000Y-133661904D02*
X166850000Y-134233333D01*
X166821428Y-134347619D01*
X166764285Y-134423809D01*
X166678571Y-134461904D01*
X166621428Y-134461904D01*
X167221428Y-134004761D02*
X167164285Y-133966666D01*
X167135714Y-133928571D01*
X167107142Y-133852380D01*
X167107142Y-133814285D01*
X167135714Y-133738095D01*
X167164285Y-133700000D01*
X167221428Y-133661904D01*
X167335714Y-133661904D01*
X167392857Y-133700000D01*
X167421428Y-133738095D01*
X167450000Y-133814285D01*
X167450000Y-133852380D01*
X167421428Y-133928571D01*
X167392857Y-133966666D01*
X167335714Y-134004761D01*
X167221428Y-134004761D01*
X167164285Y-134042857D01*
X167135714Y-134080952D01*
X167107142Y-134157142D01*
X167107142Y-134309523D01*
X167135714Y-134385714D01*
X167164285Y-134423809D01*
X167221428Y-134461904D01*
X167335714Y-134461904D01*
X167392857Y-134423809D01*
X167421428Y-134385714D01*
X167450000Y-134309523D01*
X167450000Y-134157142D01*
X167421428Y-134080952D01*
X167392857Y-134042857D01*
X167335714Y-134004761D01*
X119161904Y-117585714D02*
X118780952Y-117785714D01*
X119161904Y-117928571D02*
X118361904Y-117928571D01*
X118361904Y-117700000D01*
X118400000Y-117642857D01*
X118438095Y-117614285D01*
X118514285Y-117585714D01*
X118628571Y-117585714D01*
X118704761Y-117614285D01*
X118742857Y-117642857D01*
X118780952Y-117700000D01*
X118780952Y-117928571D01*
X119161904Y-117014285D02*
X119161904Y-117357142D01*
X119161904Y-117185714D02*
X118361904Y-117185714D01*
X118476190Y-117242857D01*
X118552380Y-117300000D01*
X118590476Y-117357142D01*
X118628571Y-116500000D02*
X119161904Y-116500000D01*
X118323809Y-116642857D02*
X118895238Y-116785714D01*
X118895238Y-116414285D01*
X181550000Y-82161904D02*
X181350000Y-81780952D01*
X181207142Y-82161904D02*
X181207142Y-81361904D01*
X181435714Y-81361904D01*
X181492857Y-81400000D01*
X181521428Y-81438095D01*
X181550000Y-81514285D01*
X181550000Y-81628571D01*
X181521428Y-81704761D01*
X181492857Y-81742857D01*
X181435714Y-81780952D01*
X181207142Y-81780952D01*
X182092857Y-81361904D02*
X181807142Y-81361904D01*
X181778571Y-81742857D01*
X181807142Y-81704761D01*
X181864285Y-81666666D01*
X182007142Y-81666666D01*
X182064285Y-81704761D01*
X182092857Y-81742857D01*
X182121428Y-81819047D01*
X182121428Y-82009523D01*
X182092857Y-82085714D01*
X182064285Y-82123809D01*
X182007142Y-82161904D01*
X181864285Y-82161904D01*
X181807142Y-82123809D01*
X181778571Y-82085714D01*
X188957142Y-129388095D02*
X188900000Y-129350000D01*
X188842857Y-129273809D01*
X188757142Y-129159523D01*
X188700000Y-129121428D01*
X188642857Y-129121428D01*
X188671428Y-129311904D02*
X188614285Y-129273809D01*
X188557142Y-129197619D01*
X188528571Y-129045238D01*
X188528571Y-128778571D01*
X188557142Y-128626190D01*
X188614285Y-128550000D01*
X188671428Y-128511904D01*
X188785714Y-128511904D01*
X188842857Y-128550000D01*
X188900000Y-128626190D01*
X188928571Y-128778571D01*
X188928571Y-129045238D01*
X188900000Y-129197619D01*
X188842857Y-129273809D01*
X188785714Y-129311904D01*
X188671428Y-129311904D01*
X189500000Y-129311904D02*
X189157142Y-129311904D01*
X189328571Y-129311904D02*
X189328571Y-128511904D01*
X189271428Y-128626190D01*
X189214285Y-128702380D01*
X189157142Y-128740476D01*
X189700000Y-128511904D02*
X190100000Y-128511904D01*
X189842857Y-129311904D01*
X134950000Y-91506904D02*
X134664285Y-91506904D01*
X134664285Y-90706904D01*
X135435714Y-90706904D02*
X135150000Y-90706904D01*
X135121428Y-91087857D01*
X135150000Y-91049761D01*
X135207142Y-91011666D01*
X135350000Y-91011666D01*
X135407142Y-91049761D01*
X135435714Y-91087857D01*
X135464285Y-91164047D01*
X135464285Y-91354523D01*
X135435714Y-91430714D01*
X135407142Y-91468809D01*
X135350000Y-91506904D01*
X135207142Y-91506904D01*
X135150000Y-91468809D01*
X135121428Y-91430714D01*
X120835714Y-103705714D02*
X120873809Y-103734285D01*
X120911904Y-103820000D01*
X120911904Y-103877142D01*
X120873809Y-103962857D01*
X120797619Y-104020000D01*
X120721428Y-104048571D01*
X120569047Y-104077142D01*
X120454761Y-104077142D01*
X120302380Y-104048571D01*
X120226190Y-104020000D01*
X120150000Y-103962857D01*
X120111904Y-103877142D01*
X120111904Y-103820000D01*
X120150000Y-103734285D01*
X120188095Y-103705714D01*
X120111904Y-103162857D02*
X120111904Y-103448571D01*
X120492857Y-103477142D01*
X120454761Y-103448571D01*
X120416666Y-103391428D01*
X120416666Y-103248571D01*
X120454761Y-103191428D01*
X120492857Y-103162857D01*
X120569047Y-103134285D01*
X120759523Y-103134285D01*
X120835714Y-103162857D01*
X120873809Y-103191428D01*
X120911904Y-103248571D01*
X120911904Y-103391428D01*
X120873809Y-103448571D01*
X120835714Y-103477142D01*
X120188095Y-102905714D02*
X120150000Y-102877142D01*
X120111904Y-102820000D01*
X120111904Y-102677142D01*
X120150000Y-102620000D01*
X120188095Y-102591428D01*
X120264285Y-102562857D01*
X120340476Y-102562857D01*
X120454761Y-102591428D01*
X120911904Y-102934285D01*
X120911904Y-102562857D01*
X142911904Y-65285714D02*
X142530952Y-65485714D01*
X142911904Y-65628571D02*
X142111904Y-65628571D01*
X142111904Y-65400000D01*
X142150000Y-65342857D01*
X142188095Y-65314285D01*
X142264285Y-65285714D01*
X142378571Y-65285714D01*
X142454761Y-65314285D01*
X142492857Y-65342857D01*
X142530952Y-65400000D01*
X142530952Y-65628571D01*
X142378571Y-64771428D02*
X142911904Y-64771428D01*
X142073809Y-64914285D02*
X142645238Y-65057142D01*
X142645238Y-64685714D01*
X142111904Y-64342857D02*
X142111904Y-64285714D01*
X142150000Y-64228571D01*
X142188095Y-64200000D01*
X142264285Y-64171428D01*
X142416666Y-64142857D01*
X142607142Y-64142857D01*
X142759523Y-64171428D01*
X142835714Y-64200000D01*
X142873809Y-64228571D01*
X142911904Y-64285714D01*
X142911904Y-64342857D01*
X142873809Y-64400000D01*
X142835714Y-64428571D01*
X142759523Y-64457142D01*
X142607142Y-64485714D01*
X142416666Y-64485714D01*
X142264285Y-64457142D01*
X142188095Y-64428571D01*
X142150000Y-64400000D01*
X142111904Y-64342857D01*
X129782818Y-67085714D02*
X129820913Y-67114285D01*
X129859008Y-67200000D01*
X129859008Y-67257142D01*
X129820913Y-67342857D01*
X129744723Y-67400000D01*
X129668532Y-67428571D01*
X129516151Y-67457142D01*
X129401865Y-67457142D01*
X129249484Y-67428571D01*
X129173294Y-67400000D01*
X129097104Y-67342857D01*
X129059008Y-67257142D01*
X129059008Y-67200000D01*
X129097104Y-67114285D01*
X129135199Y-67085714D01*
X129135199Y-66857142D02*
X129097104Y-66828571D01*
X129059008Y-66771428D01*
X129059008Y-66628571D01*
X129097104Y-66571428D01*
X129135199Y-66542857D01*
X129211389Y-66514285D01*
X129287580Y-66514285D01*
X129401865Y-66542857D01*
X129859008Y-66885714D01*
X129859008Y-66514285D01*
X129401865Y-66171428D02*
X129363770Y-66228571D01*
X129325675Y-66257142D01*
X129249484Y-66285714D01*
X129211389Y-66285714D01*
X129135199Y-66257142D01*
X129097104Y-66228571D01*
X129059008Y-66171428D01*
X129059008Y-66057142D01*
X129097104Y-66000000D01*
X129135199Y-65971428D01*
X129211389Y-65942857D01*
X129249484Y-65942857D01*
X129325675Y-65971428D01*
X129363770Y-66000000D01*
X129401865Y-66057142D01*
X129401865Y-66171428D01*
X129439961Y-66228571D01*
X129478056Y-66257142D01*
X129554246Y-66285714D01*
X129706627Y-66285714D01*
X129782818Y-66257142D01*
X129820913Y-66228571D01*
X129859008Y-66171428D01*
X129859008Y-66057142D01*
X129820913Y-66000000D01*
X129782818Y-65971428D01*
X129706627Y-65942857D01*
X129554246Y-65942857D01*
X129478056Y-65971428D01*
X129439961Y-66000000D01*
X129401865Y-66057142D01*
X133961904Y-65285714D02*
X133580952Y-65485714D01*
X133961904Y-65628571D02*
X133161904Y-65628571D01*
X133161904Y-65400000D01*
X133200000Y-65342857D01*
X133238095Y-65314285D01*
X133314285Y-65285714D01*
X133428571Y-65285714D01*
X133504761Y-65314285D01*
X133542857Y-65342857D01*
X133580952Y-65400000D01*
X133580952Y-65628571D01*
X133161904Y-65085714D02*
X133161904Y-64714285D01*
X133466666Y-64914285D01*
X133466666Y-64828571D01*
X133504761Y-64771428D01*
X133542857Y-64742857D01*
X133619047Y-64714285D01*
X133809523Y-64714285D01*
X133885714Y-64742857D01*
X133923809Y-64771428D01*
X133961904Y-64828571D01*
X133961904Y-65000000D01*
X133923809Y-65057142D01*
X133885714Y-65085714D01*
X133161904Y-64514285D02*
X133161904Y-64114285D01*
X133961904Y-64371428D01*
X122900000Y-133561904D02*
X122900000Y-134133333D01*
X122871428Y-134247619D01*
X122814285Y-134323809D01*
X122728571Y-134361904D01*
X122671428Y-134361904D01*
X123157142Y-133638095D02*
X123185714Y-133600000D01*
X123242857Y-133561904D01*
X123385714Y-133561904D01*
X123442857Y-133600000D01*
X123471428Y-133638095D01*
X123500000Y-133714285D01*
X123500000Y-133790476D01*
X123471428Y-133904761D01*
X123128571Y-134361904D01*
X123500000Y-134361904D01*
X127311904Y-65285714D02*
X126930952Y-65485714D01*
X127311904Y-65628571D02*
X126511904Y-65628571D01*
X126511904Y-65400000D01*
X126550000Y-65342857D01*
X126588095Y-65314285D01*
X126664285Y-65285714D01*
X126778571Y-65285714D01*
X126854761Y-65314285D01*
X126892857Y-65342857D01*
X126930952Y-65400000D01*
X126930952Y-65628571D01*
X126511904Y-65085714D02*
X126511904Y-64714285D01*
X126816666Y-64914285D01*
X126816666Y-64828571D01*
X126854761Y-64771428D01*
X126892857Y-64742857D01*
X126969047Y-64714285D01*
X127159523Y-64714285D01*
X127235714Y-64742857D01*
X127273809Y-64771428D01*
X127311904Y-64828571D01*
X127311904Y-65000000D01*
X127273809Y-65057142D01*
X127235714Y-65085714D01*
X126511904Y-64200000D02*
X126511904Y-64314285D01*
X126550000Y-64371428D01*
X126588095Y-64400000D01*
X126702380Y-64457142D01*
X126854761Y-64485714D01*
X127159523Y-64485714D01*
X127235714Y-64457142D01*
X127273809Y-64428571D01*
X127311904Y-64371428D01*
X127311904Y-64257142D01*
X127273809Y-64200000D01*
X127235714Y-64171428D01*
X127159523Y-64142857D01*
X126969047Y-64142857D01*
X126892857Y-64171428D01*
X126854761Y-64200000D01*
X126816666Y-64257142D01*
X126816666Y-64371428D01*
X126854761Y-64428571D01*
X126892857Y-64457142D01*
X126969047Y-64485714D01*
X165300000Y-126286904D02*
X165300000Y-126858333D01*
X165271428Y-126972619D01*
X165214285Y-127048809D01*
X165128571Y-127086904D01*
X165071428Y-127086904D01*
X165842857Y-126553571D02*
X165842857Y-127086904D01*
X165700000Y-126248809D02*
X165557142Y-126820238D01*
X165928571Y-126820238D01*
X190431904Y-131080714D02*
X190050952Y-131280714D01*
X190431904Y-131423571D02*
X189631904Y-131423571D01*
X189631904Y-131195000D01*
X189670000Y-131137857D01*
X189708095Y-131109285D01*
X189784285Y-131080714D01*
X189898571Y-131080714D01*
X189974761Y-131109285D01*
X190012857Y-131137857D01*
X190050952Y-131195000D01*
X190050952Y-131423571D01*
X189898571Y-130566428D02*
X190431904Y-130566428D01*
X189593809Y-130709285D02*
X190165238Y-130852142D01*
X190165238Y-130480714D01*
X189631904Y-129966428D02*
X189631904Y-130252142D01*
X190012857Y-130280714D01*
X189974761Y-130252142D01*
X189936666Y-130195000D01*
X189936666Y-130052142D01*
X189974761Y-129995000D01*
X190012857Y-129966428D01*
X190089047Y-129937857D01*
X190279523Y-129937857D01*
X190355714Y-129966428D01*
X190393809Y-129995000D01*
X190431904Y-130052142D01*
X190431904Y-130195000D01*
X190393809Y-130252142D01*
X190355714Y-130280714D01*
X114282285Y-68706905D02*
X114082285Y-68325953D01*
X113939428Y-68706905D02*
X113939428Y-67906905D01*
X114168000Y-67906905D01*
X114225142Y-67945001D01*
X114253714Y-67983096D01*
X114282285Y-68059286D01*
X114282285Y-68173572D01*
X114253714Y-68249762D01*
X114225142Y-68287858D01*
X114168000Y-68325953D01*
X113939428Y-68325953D01*
X114482285Y-67906905D02*
X114853714Y-67906905D01*
X114653714Y-68211667D01*
X114739428Y-68211667D01*
X114796571Y-68249762D01*
X114825142Y-68287858D01*
X114853714Y-68364048D01*
X114853714Y-68554524D01*
X114825142Y-68630715D01*
X114796571Y-68668810D01*
X114739428Y-68706905D01*
X114568000Y-68706905D01*
X114510857Y-68668810D01*
X114482285Y-68630715D01*
X115425142Y-68706905D02*
X115082285Y-68706905D01*
X115253714Y-68706905D02*
X115253714Y-67906905D01*
X115196571Y-68021191D01*
X115139428Y-68097381D01*
X115082285Y-68135477D01*
X161776904Y-137079853D02*
X161395952Y-137279853D01*
X161776904Y-137422710D02*
X160976904Y-137422710D01*
X160976904Y-137194139D01*
X161015000Y-137136996D01*
X161053095Y-137108424D01*
X161129285Y-137079853D01*
X161243571Y-137079853D01*
X161319761Y-137108424D01*
X161357857Y-137136996D01*
X161395952Y-137194139D01*
X161395952Y-137422710D01*
X161243571Y-136565567D02*
X161776904Y-136565567D01*
X160938809Y-136708424D02*
X161510238Y-136851281D01*
X161510238Y-136479853D01*
X160976904Y-135994139D02*
X160976904Y-136108424D01*
X161015000Y-136165567D01*
X161053095Y-136194139D01*
X161167380Y-136251281D01*
X161319761Y-136279853D01*
X161624523Y-136279853D01*
X161700714Y-136251281D01*
X161738809Y-136222710D01*
X161776904Y-136165567D01*
X161776904Y-136051281D01*
X161738809Y-135994139D01*
X161700714Y-135965567D01*
X161624523Y-135936996D01*
X161434047Y-135936996D01*
X161357857Y-135965567D01*
X161319761Y-135994139D01*
X161281666Y-136051281D01*
X161281666Y-136165567D01*
X161319761Y-136222710D01*
X161357857Y-136251281D01*
X161434047Y-136279853D01*
X139839285Y-129936904D02*
X139839285Y-130508333D01*
X139810714Y-130622619D01*
X139753571Y-130698809D01*
X139667857Y-130736904D01*
X139610714Y-130736904D01*
X140439285Y-130736904D02*
X140096428Y-130736904D01*
X140267857Y-130736904D02*
X140267857Y-129936904D01*
X140210714Y-130051190D01*
X140153571Y-130127380D01*
X140096428Y-130165476D01*
X140810714Y-129936904D02*
X140867857Y-129936904D01*
X140925000Y-129975000D01*
X140953571Y-130013095D01*
X140982142Y-130089285D01*
X141010714Y-130241666D01*
X141010714Y-130432142D01*
X140982142Y-130584523D01*
X140953571Y-130660714D01*
X140925000Y-130698809D01*
X140867857Y-130736904D01*
X140810714Y-130736904D01*
X140753571Y-130698809D01*
X140725000Y-130660714D01*
X140696428Y-130584523D01*
X140667857Y-130432142D01*
X140667857Y-130241666D01*
X140696428Y-130089285D01*
X140725000Y-130013095D01*
X140753571Y-129975000D01*
X140810714Y-129936904D01*
X116642857Y-73238095D02*
X116585714Y-73200000D01*
X116528571Y-73123809D01*
X116442857Y-73009523D01*
X116385714Y-72971428D01*
X116328571Y-72971428D01*
X116357142Y-73161904D02*
X116300000Y-73123809D01*
X116242857Y-73047619D01*
X116214285Y-72895238D01*
X116214285Y-72628571D01*
X116242857Y-72476190D01*
X116300000Y-72400000D01*
X116357142Y-72361904D01*
X116471428Y-72361904D01*
X116528571Y-72400000D01*
X116585714Y-72476190D01*
X116614285Y-72628571D01*
X116614285Y-72895238D01*
X116585714Y-73047619D01*
X116528571Y-73123809D01*
X116471428Y-73161904D01*
X116357142Y-73161904D01*
X116957142Y-72704761D02*
X116900000Y-72666666D01*
X116871428Y-72628571D01*
X116842857Y-72552380D01*
X116842857Y-72514285D01*
X116871428Y-72438095D01*
X116900000Y-72400000D01*
X116957142Y-72361904D01*
X117071428Y-72361904D01*
X117128571Y-72400000D01*
X117157142Y-72438095D01*
X117185714Y-72514285D01*
X117185714Y-72552380D01*
X117157142Y-72628571D01*
X117128571Y-72666666D01*
X117071428Y-72704761D01*
X116957142Y-72704761D01*
X116900000Y-72742857D01*
X116871428Y-72780952D01*
X116842857Y-72857142D01*
X116842857Y-73009523D01*
X116871428Y-73085714D01*
X116900000Y-73123809D01*
X116957142Y-73161904D01*
X117071428Y-73161904D01*
X117128571Y-73123809D01*
X117157142Y-73085714D01*
X117185714Y-73009523D01*
X117185714Y-72857142D01*
X117157142Y-72780952D01*
X117128571Y-72742857D01*
X117071428Y-72704761D01*
X165200000Y-119361904D02*
X165200000Y-119933333D01*
X165171428Y-120047619D01*
X165114285Y-120123809D01*
X165028571Y-120161904D01*
X164971428Y-120161904D01*
X165428571Y-119361904D02*
X165828571Y-119361904D01*
X165571428Y-120161904D01*
X131757142Y-68083096D02*
X131700000Y-68045001D01*
X131642857Y-67968810D01*
X131557142Y-67854524D01*
X131500000Y-67816429D01*
X131442857Y-67816429D01*
X131471428Y-68006905D02*
X131414285Y-67968810D01*
X131357142Y-67892620D01*
X131328571Y-67740239D01*
X131328571Y-67473572D01*
X131357142Y-67321191D01*
X131414285Y-67245001D01*
X131471428Y-67206905D01*
X131585714Y-67206905D01*
X131642857Y-67245001D01*
X131700000Y-67321191D01*
X131728571Y-67473572D01*
X131728571Y-67740239D01*
X131700000Y-67892620D01*
X131642857Y-67968810D01*
X131585714Y-68006905D01*
X131471428Y-68006905D01*
X132300000Y-68006905D02*
X131957142Y-68006905D01*
X132128571Y-68006905D02*
X132128571Y-67206905D01*
X132071428Y-67321191D01*
X132014285Y-67397381D01*
X131957142Y-67435477D01*
X132842857Y-67206905D02*
X132557142Y-67206905D01*
X132528571Y-67587858D01*
X132557142Y-67549762D01*
X132614285Y-67511667D01*
X132757142Y-67511667D01*
X132814285Y-67549762D01*
X132842857Y-67587858D01*
X132871428Y-67664048D01*
X132871428Y-67854524D01*
X132842857Y-67930715D01*
X132814285Y-67968810D01*
X132757142Y-68006905D01*
X132614285Y-68006905D01*
X132557142Y-67968810D01*
X132528571Y-67930715D01*
X139657142Y-68083096D02*
X139600000Y-68045001D01*
X139542857Y-67968810D01*
X139457142Y-67854524D01*
X139400000Y-67816429D01*
X139342857Y-67816429D01*
X139371428Y-68006905D02*
X139314285Y-67968810D01*
X139257142Y-67892620D01*
X139228571Y-67740239D01*
X139228571Y-67473572D01*
X139257142Y-67321191D01*
X139314285Y-67245001D01*
X139371428Y-67206905D01*
X139485714Y-67206905D01*
X139542857Y-67245001D01*
X139600000Y-67321191D01*
X139628571Y-67473572D01*
X139628571Y-67740239D01*
X139600000Y-67892620D01*
X139542857Y-67968810D01*
X139485714Y-68006905D01*
X139371428Y-68006905D01*
X140200000Y-68006905D02*
X139857142Y-68006905D01*
X140028571Y-68006905D02*
X140028571Y-67206905D01*
X139971428Y-67321191D01*
X139914285Y-67397381D01*
X139857142Y-67435477D01*
X140714285Y-67206905D02*
X140600000Y-67206905D01*
X140542857Y-67245001D01*
X140514285Y-67283096D01*
X140457142Y-67397381D01*
X140428571Y-67549762D01*
X140428571Y-67854524D01*
X140457142Y-67930715D01*
X140485714Y-67968810D01*
X140542857Y-68006905D01*
X140657142Y-68006905D01*
X140714285Y-67968810D01*
X140742857Y-67930715D01*
X140771428Y-67854524D01*
X140771428Y-67664048D01*
X140742857Y-67587858D01*
X140714285Y-67549762D01*
X140657142Y-67511667D01*
X140542857Y-67511667D01*
X140485714Y-67549762D01*
X140457142Y-67587858D01*
X140428571Y-67664048D01*
X152629285Y-79466904D02*
X152429285Y-79085952D01*
X152286428Y-79466904D02*
X152286428Y-78666904D01*
X152515000Y-78666904D01*
X152572142Y-78705000D01*
X152600714Y-78743095D01*
X152629285Y-78819285D01*
X152629285Y-78933571D01*
X152600714Y-79009761D01*
X152572142Y-79047857D01*
X152515000Y-79085952D01*
X152286428Y-79085952D01*
X153143571Y-78933571D02*
X153143571Y-79466904D01*
X153000714Y-78628809D02*
X152857857Y-79200238D01*
X153229285Y-79200238D01*
X153715000Y-78933571D02*
X153715000Y-79466904D01*
X153572142Y-78628809D02*
X153429285Y-79200238D01*
X153800714Y-79200238D01*
X148807142Y-105711904D02*
X148807142Y-104911904D01*
X148950000Y-104911904D01*
X149035714Y-104950000D01*
X149092857Y-105026190D01*
X149121428Y-105102380D01*
X149150000Y-105254761D01*
X149150000Y-105369047D01*
X149121428Y-105521428D01*
X149092857Y-105597619D01*
X149035714Y-105673809D01*
X148950000Y-105711904D01*
X148807142Y-105711904D01*
X149721428Y-105711904D02*
X149378571Y-105711904D01*
X149550000Y-105711904D02*
X149550000Y-104911904D01*
X149492857Y-105026190D01*
X149435714Y-105102380D01*
X149378571Y-105140476D01*
X131514285Y-72461904D02*
X131314285Y-72080952D01*
X131171428Y-72461904D02*
X131171428Y-71661904D01*
X131400000Y-71661904D01*
X131457142Y-71700000D01*
X131485714Y-71738095D01*
X131514285Y-71814285D01*
X131514285Y-71928571D01*
X131485714Y-72004761D01*
X131457142Y-72042857D01*
X131400000Y-72080952D01*
X131171428Y-72080952D01*
X131742857Y-71738095D02*
X131771428Y-71700000D01*
X131828571Y-71661904D01*
X131971428Y-71661904D01*
X132028571Y-71700000D01*
X132057142Y-71738095D01*
X132085714Y-71814285D01*
X132085714Y-71890476D01*
X132057142Y-72004761D01*
X131714285Y-72461904D01*
X132085714Y-72461904D01*
X132628571Y-71661904D02*
X132342857Y-71661904D01*
X132314285Y-72042857D01*
X132342857Y-72004761D01*
X132400000Y-71966666D01*
X132542857Y-71966666D01*
X132600000Y-72004761D01*
X132628571Y-72042857D01*
X132657142Y-72119047D01*
X132657142Y-72309523D01*
X132628571Y-72385714D01*
X132600000Y-72423809D01*
X132542857Y-72461904D01*
X132400000Y-72461904D01*
X132342857Y-72423809D01*
X132314285Y-72385714D01*
X129064285Y-82905714D02*
X129035714Y-82943809D01*
X128950000Y-82981904D01*
X128892857Y-82981904D01*
X128807142Y-82943809D01*
X128750000Y-82867619D01*
X128721428Y-82791428D01*
X128692857Y-82639047D01*
X128692857Y-82524761D01*
X128721428Y-82372380D01*
X128750000Y-82296190D01*
X128807142Y-82220000D01*
X128892857Y-82181904D01*
X128950000Y-82181904D01*
X129035714Y-82220000D01*
X129064285Y-82258095D01*
X129607142Y-82181904D02*
X129321428Y-82181904D01*
X129292857Y-82562857D01*
X129321428Y-82524761D01*
X129378571Y-82486666D01*
X129521428Y-82486666D01*
X129578571Y-82524761D01*
X129607142Y-82562857D01*
X129635714Y-82639047D01*
X129635714Y-82829523D01*
X129607142Y-82905714D01*
X129578571Y-82943809D01*
X129521428Y-82981904D01*
X129378571Y-82981904D01*
X129321428Y-82943809D01*
X129292857Y-82905714D01*
X130150000Y-82448571D02*
X130150000Y-82981904D01*
X130007142Y-82143809D02*
X129864285Y-82715238D01*
X130235714Y-82715238D01*
X152264285Y-73861904D02*
X152064285Y-73480952D01*
X151921428Y-73861904D02*
X151921428Y-73061904D01*
X152150000Y-73061904D01*
X152207142Y-73100000D01*
X152235714Y-73138095D01*
X152264285Y-73214285D01*
X152264285Y-73328571D01*
X152235714Y-73404761D01*
X152207142Y-73442857D01*
X152150000Y-73480952D01*
X151921428Y-73480952D01*
X152778571Y-73328571D02*
X152778571Y-73861904D01*
X152635714Y-73023809D02*
X152492857Y-73595238D01*
X152864285Y-73595238D01*
X153121428Y-73861904D02*
X153235714Y-73861904D01*
X153292857Y-73823809D01*
X153321428Y-73785714D01*
X153378571Y-73671428D01*
X153407142Y-73519047D01*
X153407142Y-73214285D01*
X153378571Y-73138095D01*
X153350000Y-73100000D01*
X153292857Y-73061904D01*
X153178571Y-73061904D01*
X153121428Y-73100000D01*
X153092857Y-73138095D01*
X153064285Y-73214285D01*
X153064285Y-73404761D01*
X153092857Y-73480952D01*
X153121428Y-73519047D01*
X153178571Y-73557142D01*
X153292857Y-73557142D01*
X153350000Y-73519047D01*
X153378571Y-73480952D01*
X153407142Y-73404761D01*
X135011904Y-65285714D02*
X134630952Y-65485714D01*
X135011904Y-65628571D02*
X134211904Y-65628571D01*
X134211904Y-65400000D01*
X134250000Y-65342857D01*
X134288095Y-65314285D01*
X134364285Y-65285714D01*
X134478571Y-65285714D01*
X134554761Y-65314285D01*
X134592857Y-65342857D01*
X134630952Y-65400000D01*
X134630952Y-65628571D01*
X134211904Y-65085714D02*
X134211904Y-64714285D01*
X134516666Y-64914285D01*
X134516666Y-64828571D01*
X134554761Y-64771428D01*
X134592857Y-64742857D01*
X134669047Y-64714285D01*
X134859523Y-64714285D01*
X134935714Y-64742857D01*
X134973809Y-64771428D01*
X135011904Y-64828571D01*
X135011904Y-65000000D01*
X134973809Y-65057142D01*
X134935714Y-65085714D01*
X134554761Y-64371428D02*
X134516666Y-64428571D01*
X134478571Y-64457142D01*
X134402380Y-64485714D01*
X134364285Y-64485714D01*
X134288095Y-64457142D01*
X134250000Y-64428571D01*
X134211904Y-64371428D01*
X134211904Y-64257142D01*
X134250000Y-64200000D01*
X134288095Y-64171428D01*
X134364285Y-64142857D01*
X134402380Y-64142857D01*
X134478571Y-64171428D01*
X134516666Y-64200000D01*
X134554761Y-64257142D01*
X134554761Y-64371428D01*
X134592857Y-64428571D01*
X134630952Y-64457142D01*
X134707142Y-64485714D01*
X134859523Y-64485714D01*
X134935714Y-64457142D01*
X134973809Y-64428571D01*
X135011904Y-64371428D01*
X135011904Y-64257142D01*
X134973809Y-64200000D01*
X134935714Y-64171428D01*
X134859523Y-64142857D01*
X134707142Y-64142857D01*
X134630952Y-64171428D01*
X134592857Y-64200000D01*
X134554761Y-64257142D01*
X166314285Y-80335714D02*
X166285714Y-80373809D01*
X166200000Y-80411904D01*
X166142857Y-80411904D01*
X166057142Y-80373809D01*
X166000000Y-80297619D01*
X165971428Y-80221428D01*
X165942857Y-80069047D01*
X165942857Y-79954761D01*
X165971428Y-79802380D01*
X166000000Y-79726190D01*
X166057142Y-79650000D01*
X166142857Y-79611904D01*
X166200000Y-79611904D01*
X166285714Y-79650000D01*
X166314285Y-79688095D01*
X166828571Y-79878571D02*
X166828571Y-80411904D01*
X166685714Y-79573809D02*
X166542857Y-80145238D01*
X166914285Y-80145238D01*
X167457142Y-80411904D02*
X167114285Y-80411904D01*
X167285714Y-80411904D02*
X167285714Y-79611904D01*
X167228571Y-79726190D01*
X167171428Y-79802380D01*
X167114285Y-79840476D01*
X131514285Y-137535714D02*
X131485714Y-137573809D01*
X131400000Y-137611904D01*
X131342857Y-137611904D01*
X131257142Y-137573809D01*
X131200000Y-137497619D01*
X131171428Y-137421428D01*
X131142857Y-137269047D01*
X131142857Y-137154761D01*
X131171428Y-137002380D01*
X131200000Y-136926190D01*
X131257142Y-136850000D01*
X131342857Y-136811904D01*
X131400000Y-136811904D01*
X131485714Y-136850000D01*
X131514285Y-136888095D01*
X131742857Y-136888095D02*
X131771428Y-136850000D01*
X131828571Y-136811904D01*
X131971428Y-136811904D01*
X132028571Y-136850000D01*
X132057142Y-136888095D01*
X132085714Y-136964285D01*
X132085714Y-137040476D01*
X132057142Y-137154761D01*
X131714285Y-137611904D01*
X132085714Y-137611904D01*
X132600000Y-136811904D02*
X132485714Y-136811904D01*
X132428571Y-136850000D01*
X132400000Y-136888095D01*
X132342857Y-137002380D01*
X132314285Y-137154761D01*
X132314285Y-137459523D01*
X132342857Y-137535714D01*
X132371428Y-137573809D01*
X132428571Y-137611904D01*
X132542857Y-137611904D01*
X132600000Y-137573809D01*
X132628571Y-137535714D01*
X132657142Y-137459523D01*
X132657142Y-137269047D01*
X132628571Y-137192857D01*
X132600000Y-137154761D01*
X132542857Y-137116666D01*
X132428571Y-137116666D01*
X132371428Y-137154761D01*
X132342857Y-137192857D01*
X132314285Y-137269047D01*
X155557142Y-76261904D02*
X155557142Y-75461904D01*
X155700000Y-75461904D01*
X155785714Y-75500000D01*
X155842857Y-75576190D01*
X155871428Y-75652380D01*
X155900000Y-75804761D01*
X155900000Y-75919047D01*
X155871428Y-76071428D01*
X155842857Y-76147619D01*
X155785714Y-76223809D01*
X155700000Y-76261904D01*
X155557142Y-76261904D01*
X156128571Y-75538095D02*
X156157142Y-75500000D01*
X156214285Y-75461904D01*
X156357142Y-75461904D01*
X156414285Y-75500000D01*
X156442857Y-75538095D01*
X156471428Y-75614285D01*
X156471428Y-75690476D01*
X156442857Y-75804761D01*
X156100000Y-76261904D01*
X156471428Y-76261904D01*
X132364285Y-82955714D02*
X132335714Y-82993809D01*
X132250000Y-83031904D01*
X132192857Y-83031904D01*
X132107142Y-82993809D01*
X132050000Y-82917619D01*
X132021428Y-82841428D01*
X131992857Y-82689047D01*
X131992857Y-82574761D01*
X132021428Y-82422380D01*
X132050000Y-82346190D01*
X132107142Y-82270000D01*
X132192857Y-82231904D01*
X132250000Y-82231904D01*
X132335714Y-82270000D01*
X132364285Y-82308095D01*
X132907142Y-82231904D02*
X132621428Y-82231904D01*
X132592857Y-82612857D01*
X132621428Y-82574761D01*
X132678571Y-82536666D01*
X132821428Y-82536666D01*
X132878571Y-82574761D01*
X132907142Y-82612857D01*
X132935714Y-82689047D01*
X132935714Y-82879523D01*
X132907142Y-82955714D01*
X132878571Y-82993809D01*
X132821428Y-83031904D01*
X132678571Y-83031904D01*
X132621428Y-82993809D01*
X132592857Y-82955714D01*
X133135714Y-82231904D02*
X133507142Y-82231904D01*
X133307142Y-82536666D01*
X133392857Y-82536666D01*
X133450000Y-82574761D01*
X133478571Y-82612857D01*
X133507142Y-82689047D01*
X133507142Y-82879523D01*
X133478571Y-82955714D01*
X133450000Y-82993809D01*
X133392857Y-83031904D01*
X133221428Y-83031904D01*
X133164285Y-82993809D01*
X133135714Y-82955714D01*
X157144285Y-133761904D02*
X156944285Y-133380952D01*
X156801428Y-133761904D02*
X156801428Y-132961904D01*
X157030000Y-132961904D01*
X157087142Y-133000000D01*
X157115714Y-133038095D01*
X157144285Y-133114285D01*
X157144285Y-133228571D01*
X157115714Y-133304761D01*
X157087142Y-133342857D01*
X157030000Y-133380952D01*
X156801428Y-133380952D01*
X157658571Y-133228571D02*
X157658571Y-133761904D01*
X157515714Y-132923809D02*
X157372857Y-133495238D01*
X157744285Y-133495238D01*
X158058571Y-133304761D02*
X158001428Y-133266666D01*
X157972857Y-133228571D01*
X157944285Y-133152380D01*
X157944285Y-133114285D01*
X157972857Y-133038095D01*
X158001428Y-133000000D01*
X158058571Y-132961904D01*
X158172857Y-132961904D01*
X158230000Y-133000000D01*
X158258571Y-133038095D01*
X158287142Y-133114285D01*
X158287142Y-133152380D01*
X158258571Y-133228571D01*
X158230000Y-133266666D01*
X158172857Y-133304761D01*
X158058571Y-133304761D01*
X158001428Y-133342857D01*
X157972857Y-133380952D01*
X157944285Y-133457142D01*
X157944285Y-133609523D01*
X157972857Y-133685714D01*
X158001428Y-133723809D01*
X158058571Y-133761904D01*
X158172857Y-133761904D01*
X158230000Y-133723809D01*
X158258571Y-133685714D01*
X158287142Y-133609523D01*
X158287142Y-133457142D01*
X158258571Y-133380952D01*
X158230000Y-133342857D01*
X158172857Y-133304761D01*
X164711904Y-137185714D02*
X164330952Y-137385714D01*
X164711904Y-137528571D02*
X163911904Y-137528571D01*
X163911904Y-137300000D01*
X163950000Y-137242857D01*
X163988095Y-137214285D01*
X164064285Y-137185714D01*
X164178571Y-137185714D01*
X164254761Y-137214285D01*
X164292857Y-137242857D01*
X164330952Y-137300000D01*
X164330952Y-137528571D01*
X164178571Y-136671428D02*
X164711904Y-136671428D01*
X163873809Y-136814285D02*
X164445238Y-136957142D01*
X164445238Y-136585714D01*
X163988095Y-136385714D02*
X163950000Y-136357142D01*
X163911904Y-136300000D01*
X163911904Y-136157142D01*
X163950000Y-136100000D01*
X163988095Y-136071428D01*
X164064285Y-136042857D01*
X164140476Y-136042857D01*
X164254761Y-136071428D01*
X164711904Y-136414285D01*
X164711904Y-136042857D01*
X130442857Y-119961904D02*
X130442857Y-120609523D01*
X130471428Y-120685714D01*
X130500000Y-120723809D01*
X130557142Y-120761904D01*
X130671428Y-120761904D01*
X130728571Y-120723809D01*
X130757142Y-120685714D01*
X130785714Y-120609523D01*
X130785714Y-119961904D01*
X131014285Y-119961904D02*
X131385714Y-119961904D01*
X131185714Y-120266666D01*
X131271428Y-120266666D01*
X131328571Y-120304761D01*
X131357142Y-120342857D01*
X131385714Y-120419047D01*
X131385714Y-120609523D01*
X131357142Y-120685714D01*
X131328571Y-120723809D01*
X131271428Y-120761904D01*
X131100000Y-120761904D01*
X131042857Y-120723809D01*
X131014285Y-120685714D01*
X182680000Y-121989904D02*
X182680000Y-122561333D01*
X182651428Y-122675619D01*
X182594285Y-122751809D01*
X182508571Y-122789904D01*
X182451428Y-122789904D01*
X183251428Y-121989904D02*
X182965714Y-121989904D01*
X182937142Y-122370857D01*
X182965714Y-122332761D01*
X183022857Y-122294666D01*
X183165714Y-122294666D01*
X183222857Y-122332761D01*
X183251428Y-122370857D01*
X183280000Y-122447047D01*
X183280000Y-122637523D01*
X183251428Y-122713714D01*
X183222857Y-122751809D01*
X183165714Y-122789904D01*
X183022857Y-122789904D01*
X182965714Y-122751809D01*
X182937142Y-122713714D01*
X150564285Y-66985714D02*
X150535714Y-67023809D01*
X150450000Y-67061904D01*
X150392857Y-67061904D01*
X150307142Y-67023809D01*
X150250000Y-66947619D01*
X150221428Y-66871428D01*
X150192857Y-66719047D01*
X150192857Y-66604761D01*
X150221428Y-66452380D01*
X150250000Y-66376190D01*
X150307142Y-66300000D01*
X150392857Y-66261904D01*
X150450000Y-66261904D01*
X150535714Y-66300000D01*
X150564285Y-66338095D01*
X150764285Y-66261904D02*
X151135714Y-66261904D01*
X150935714Y-66566666D01*
X151021428Y-66566666D01*
X151078571Y-66604761D01*
X151107142Y-66642857D01*
X151135714Y-66719047D01*
X151135714Y-66909523D01*
X151107142Y-66985714D01*
X151078571Y-67023809D01*
X151021428Y-67061904D01*
X150850000Y-67061904D01*
X150792857Y-67023809D01*
X150764285Y-66985714D01*
X151364285Y-66338095D02*
X151392857Y-66300000D01*
X151450000Y-66261904D01*
X151592857Y-66261904D01*
X151650000Y-66300000D01*
X151678571Y-66338095D01*
X151707142Y-66414285D01*
X151707142Y-66490476D01*
X151678571Y-66604761D01*
X151335714Y-67061904D01*
X151707142Y-67061904D01*
X115014285Y-75261904D02*
X114814285Y-74880952D01*
X114671428Y-75261904D02*
X114671428Y-74461904D01*
X114900000Y-74461904D01*
X114957142Y-74500000D01*
X114985714Y-74538095D01*
X115014285Y-74614285D01*
X115014285Y-74728571D01*
X114985714Y-74804761D01*
X114957142Y-74842857D01*
X114900000Y-74880952D01*
X114671428Y-74880952D01*
X115242857Y-74538095D02*
X115271428Y-74500000D01*
X115328571Y-74461904D01*
X115471428Y-74461904D01*
X115528571Y-74500000D01*
X115557142Y-74538095D01*
X115585714Y-74614285D01*
X115585714Y-74690476D01*
X115557142Y-74804761D01*
X115214285Y-75261904D01*
X115585714Y-75261904D01*
X115785714Y-74461904D02*
X116157142Y-74461904D01*
X115957142Y-74766666D01*
X116042857Y-74766666D01*
X116100000Y-74804761D01*
X116128571Y-74842857D01*
X116157142Y-74919047D01*
X116157142Y-75109523D01*
X116128571Y-75185714D01*
X116100000Y-75223809D01*
X116042857Y-75261904D01*
X115871428Y-75261904D01*
X115814285Y-75223809D01*
X115785714Y-75185714D01*
X121764285Y-72461904D02*
X121564285Y-72080952D01*
X121421428Y-72461904D02*
X121421428Y-71661904D01*
X121650000Y-71661904D01*
X121707142Y-71700000D01*
X121735714Y-71738095D01*
X121764285Y-71814285D01*
X121764285Y-71928571D01*
X121735714Y-72004761D01*
X121707142Y-72042857D01*
X121650000Y-72080952D01*
X121421428Y-72080952D01*
X122335714Y-72461904D02*
X121992857Y-72461904D01*
X122164285Y-72461904D02*
X122164285Y-71661904D01*
X122107142Y-71776190D01*
X122050000Y-71852380D01*
X121992857Y-71890476D01*
X122621428Y-72461904D02*
X122735714Y-72461904D01*
X122792857Y-72423809D01*
X122821428Y-72385714D01*
X122878571Y-72271428D01*
X122907142Y-72119047D01*
X122907142Y-71814285D01*
X122878571Y-71738095D01*
X122850000Y-71700000D01*
X122792857Y-71661904D01*
X122678571Y-71661904D01*
X122621428Y-71700000D01*
X122592857Y-71738095D01*
X122564285Y-71814285D01*
X122564285Y-72004761D01*
X122592857Y-72080952D01*
X122621428Y-72119047D01*
X122678571Y-72157142D01*
X122792857Y-72157142D01*
X122850000Y-72119047D01*
X122878571Y-72080952D01*
X122907142Y-72004761D01*
X161814285Y-81735714D02*
X161785714Y-81773809D01*
X161700000Y-81811904D01*
X161642857Y-81811904D01*
X161557142Y-81773809D01*
X161500000Y-81697619D01*
X161471428Y-81621428D01*
X161442857Y-81469047D01*
X161442857Y-81354761D01*
X161471428Y-81202380D01*
X161500000Y-81126190D01*
X161557142Y-81050000D01*
X161642857Y-81011904D01*
X161700000Y-81011904D01*
X161785714Y-81050000D01*
X161814285Y-81088095D01*
X162385714Y-81811904D02*
X162042857Y-81811904D01*
X162214285Y-81811904D02*
X162214285Y-81011904D01*
X162157142Y-81126190D01*
X162100000Y-81202380D01*
X162042857Y-81240476D01*
X162957142Y-81811904D02*
X162614285Y-81811904D01*
X162785714Y-81811904D02*
X162785714Y-81011904D01*
X162728571Y-81126190D01*
X162671428Y-81202380D01*
X162614285Y-81240476D01*
X165311904Y-84750000D02*
X164930952Y-84950000D01*
X165311904Y-85092857D02*
X164511904Y-85092857D01*
X164511904Y-84864285D01*
X164550000Y-84807142D01*
X164588095Y-84778571D01*
X164664285Y-84750000D01*
X164778571Y-84750000D01*
X164854761Y-84778571D01*
X164892857Y-84807142D01*
X164930952Y-84864285D01*
X164930952Y-85092857D01*
X164511904Y-84550000D02*
X164511904Y-84178571D01*
X164816666Y-84378571D01*
X164816666Y-84292857D01*
X164854761Y-84235714D01*
X164892857Y-84207142D01*
X164969047Y-84178571D01*
X165159523Y-84178571D01*
X165235714Y-84207142D01*
X165273809Y-84235714D01*
X165311904Y-84292857D01*
X165311904Y-84464285D01*
X165273809Y-84521428D01*
X165235714Y-84550000D01*
X134757142Y-72738095D02*
X134700000Y-72700000D01*
X134642857Y-72623809D01*
X134557142Y-72509523D01*
X134500000Y-72471428D01*
X134442857Y-72471428D01*
X134471428Y-72661904D02*
X134414285Y-72623809D01*
X134357142Y-72547619D01*
X134328571Y-72395238D01*
X134328571Y-72128571D01*
X134357142Y-71976190D01*
X134414285Y-71900000D01*
X134471428Y-71861904D01*
X134585714Y-71861904D01*
X134642857Y-71900000D01*
X134700000Y-71976190D01*
X134728571Y-72128571D01*
X134728571Y-72395238D01*
X134700000Y-72547619D01*
X134642857Y-72623809D01*
X134585714Y-72661904D01*
X134471428Y-72661904D01*
X135300000Y-72661904D02*
X134957142Y-72661904D01*
X135128571Y-72661904D02*
X135128571Y-71861904D01*
X135071428Y-71976190D01*
X135014285Y-72052380D01*
X134957142Y-72090476D01*
X135671428Y-71861904D02*
X135728571Y-71861904D01*
X135785714Y-71900000D01*
X135814285Y-71938095D01*
X135842857Y-72014285D01*
X135871428Y-72166666D01*
X135871428Y-72357142D01*
X135842857Y-72509523D01*
X135814285Y-72585714D01*
X135785714Y-72623809D01*
X135728571Y-72661904D01*
X135671428Y-72661904D01*
X135614285Y-72623809D01*
X135585714Y-72585714D01*
X135557142Y-72509523D01*
X135528571Y-72357142D01*
X135528571Y-72166666D01*
X135557142Y-72014285D01*
X135585714Y-71938095D01*
X135614285Y-71900000D01*
X135671428Y-71861904D01*
X180200000Y-103361904D02*
X179914285Y-103361904D01*
X179914285Y-102561904D01*
X180657142Y-102828571D02*
X180657142Y-103361904D01*
X180514285Y-102523809D02*
X180371428Y-103095238D01*
X180742857Y-103095238D01*
X141811904Y-65285714D02*
X141430952Y-65485714D01*
X141811904Y-65628571D02*
X141011904Y-65628571D01*
X141011904Y-65400000D01*
X141050000Y-65342857D01*
X141088095Y-65314285D01*
X141164285Y-65285714D01*
X141278571Y-65285714D01*
X141354761Y-65314285D01*
X141392857Y-65342857D01*
X141430952Y-65400000D01*
X141430952Y-65628571D01*
X141011904Y-65085714D02*
X141011904Y-64714285D01*
X141316666Y-64914285D01*
X141316666Y-64828571D01*
X141354761Y-64771428D01*
X141392857Y-64742857D01*
X141469047Y-64714285D01*
X141659523Y-64714285D01*
X141735714Y-64742857D01*
X141773809Y-64771428D01*
X141811904Y-64828571D01*
X141811904Y-65000000D01*
X141773809Y-65057142D01*
X141735714Y-65085714D01*
X141811904Y-64428571D02*
X141811904Y-64314285D01*
X141773809Y-64257142D01*
X141735714Y-64228571D01*
X141621428Y-64171428D01*
X141469047Y-64142857D01*
X141164285Y-64142857D01*
X141088095Y-64171428D01*
X141050000Y-64200000D01*
X141011904Y-64257142D01*
X141011904Y-64371428D01*
X141050000Y-64428571D01*
X141088095Y-64457142D01*
X141164285Y-64485714D01*
X141354761Y-64485714D01*
X141430952Y-64457142D01*
X141469047Y-64428571D01*
X141507142Y-64371428D01*
X141507142Y-64257142D01*
X141469047Y-64200000D01*
X141430952Y-64171428D01*
X141354761Y-64142857D01*
X129564285Y-72461904D02*
X129364285Y-72080952D01*
X129221428Y-72461904D02*
X129221428Y-71661904D01*
X129450000Y-71661904D01*
X129507142Y-71700000D01*
X129535714Y-71738095D01*
X129564285Y-71814285D01*
X129564285Y-71928571D01*
X129535714Y-72004761D01*
X129507142Y-72042857D01*
X129450000Y-72080952D01*
X129221428Y-72080952D01*
X129792857Y-71738095D02*
X129821428Y-71700000D01*
X129878571Y-71661904D01*
X130021428Y-71661904D01*
X130078571Y-71700000D01*
X130107142Y-71738095D01*
X130135714Y-71814285D01*
X130135714Y-71890476D01*
X130107142Y-72004761D01*
X129764285Y-72461904D01*
X130135714Y-72461904D01*
X130507142Y-71661904D02*
X130564285Y-71661904D01*
X130621428Y-71700000D01*
X130650000Y-71738095D01*
X130678571Y-71814285D01*
X130707142Y-71966666D01*
X130707142Y-72157142D01*
X130678571Y-72309523D01*
X130650000Y-72385714D01*
X130621428Y-72423809D01*
X130564285Y-72461904D01*
X130507142Y-72461904D01*
X130450000Y-72423809D01*
X130421428Y-72385714D01*
X130392857Y-72309523D01*
X130364285Y-72157142D01*
X130364285Y-71966666D01*
X130392857Y-71814285D01*
X130421428Y-71738095D01*
X130450000Y-71700000D01*
X130507142Y-71661904D01*
X134142857Y-112138095D02*
X134085714Y-112100000D01*
X134028571Y-112023809D01*
X133942857Y-111909523D01*
X133885714Y-111871428D01*
X133828571Y-111871428D01*
X133857142Y-112061904D02*
X133800000Y-112023809D01*
X133742857Y-111947619D01*
X133714285Y-111795238D01*
X133714285Y-111528571D01*
X133742857Y-111376190D01*
X133800000Y-111300000D01*
X133857142Y-111261904D01*
X133971428Y-111261904D01*
X134028571Y-111300000D01*
X134085714Y-111376190D01*
X134114285Y-111528571D01*
X134114285Y-111795238D01*
X134085714Y-111947619D01*
X134028571Y-112023809D01*
X133971428Y-112061904D01*
X133857142Y-112061904D01*
X134685714Y-112061904D02*
X134342857Y-112061904D01*
X134514285Y-112061904D02*
X134514285Y-111261904D01*
X134457142Y-111376190D01*
X134400000Y-111452380D01*
X134342857Y-111490476D01*
X117914285Y-119591904D02*
X117714285Y-119210952D01*
X117571428Y-119591904D02*
X117571428Y-118791904D01*
X117800000Y-118791904D01*
X117857142Y-118830000D01*
X117885714Y-118868095D01*
X117914285Y-118944285D01*
X117914285Y-119058571D01*
X117885714Y-119134761D01*
X117857142Y-119172857D01*
X117800000Y-119210952D01*
X117571428Y-119210952D01*
X118485714Y-119591904D02*
X118142857Y-119591904D01*
X118314285Y-119591904D02*
X118314285Y-118791904D01*
X118257142Y-118906190D01*
X118200000Y-118982380D01*
X118142857Y-119020476D01*
X118828571Y-119134761D02*
X118771428Y-119096666D01*
X118742857Y-119058571D01*
X118714285Y-118982380D01*
X118714285Y-118944285D01*
X118742857Y-118868095D01*
X118771428Y-118830000D01*
X118828571Y-118791904D01*
X118942857Y-118791904D01*
X119000000Y-118830000D01*
X119028571Y-118868095D01*
X119057142Y-118944285D01*
X119057142Y-118982380D01*
X119028571Y-119058571D01*
X119000000Y-119096666D01*
X118942857Y-119134761D01*
X118828571Y-119134761D01*
X118771428Y-119172857D01*
X118742857Y-119210952D01*
X118714285Y-119287142D01*
X118714285Y-119439523D01*
X118742857Y-119515714D01*
X118771428Y-119553809D01*
X118828571Y-119591904D01*
X118942857Y-119591904D01*
X119000000Y-119553809D01*
X119028571Y-119515714D01*
X119057142Y-119439523D01*
X119057142Y-119287142D01*
X119028571Y-119210952D01*
X119000000Y-119172857D01*
X118942857Y-119134761D01*
X184450000Y-136361904D02*
X184450000Y-136933333D01*
X184421428Y-137047619D01*
X184364285Y-137123809D01*
X184278571Y-137161904D01*
X184221428Y-137161904D01*
X185050000Y-137161904D02*
X184707142Y-137161904D01*
X184878571Y-137161904D02*
X184878571Y-136361904D01*
X184821428Y-136476190D01*
X184764285Y-136552380D01*
X184707142Y-136590476D01*
X181550000Y-83211904D02*
X181350000Y-82830952D01*
X181207142Y-83211904D02*
X181207142Y-82411904D01*
X181435714Y-82411904D01*
X181492857Y-82450000D01*
X181521428Y-82488095D01*
X181550000Y-82564285D01*
X181550000Y-82678571D01*
X181521428Y-82754761D01*
X181492857Y-82792857D01*
X181435714Y-82830952D01*
X181207142Y-82830952D01*
X182064285Y-82678571D02*
X182064285Y-83211904D01*
X181921428Y-82373809D02*
X181778571Y-82945238D01*
X182150000Y-82945238D01*
X122779714Y-67062714D02*
X122817809Y-67091285D01*
X122855904Y-67177000D01*
X122855904Y-67234142D01*
X122817809Y-67319857D01*
X122741619Y-67377000D01*
X122665428Y-67405571D01*
X122513047Y-67434142D01*
X122398761Y-67434142D01*
X122246380Y-67405571D01*
X122170190Y-67377000D01*
X122094000Y-67319857D01*
X122055904Y-67234142D01*
X122055904Y-67177000D01*
X122094000Y-67091285D01*
X122132095Y-67062714D01*
X122132095Y-66834142D02*
X122094000Y-66805571D01*
X122055904Y-66748428D01*
X122055904Y-66605571D01*
X122094000Y-66548428D01*
X122132095Y-66519857D01*
X122208285Y-66491285D01*
X122284476Y-66491285D01*
X122398761Y-66519857D01*
X122855904Y-66862714D01*
X122855904Y-66491285D01*
X122055904Y-66291285D02*
X122055904Y-65891285D01*
X122855904Y-66148428D01*
X123214285Y-81161904D02*
X123014285Y-80780952D01*
X122871428Y-81161904D02*
X122871428Y-80361904D01*
X123100000Y-80361904D01*
X123157142Y-80400000D01*
X123185714Y-80438095D01*
X123214285Y-80514285D01*
X123214285Y-80628571D01*
X123185714Y-80704761D01*
X123157142Y-80742857D01*
X123100000Y-80780952D01*
X122871428Y-80780952D01*
X123442857Y-80438095D02*
X123471428Y-80400000D01*
X123528571Y-80361904D01*
X123671428Y-80361904D01*
X123728571Y-80400000D01*
X123757142Y-80438095D01*
X123785714Y-80514285D01*
X123785714Y-80590476D01*
X123757142Y-80704761D01*
X123414285Y-81161904D01*
X123785714Y-81161904D01*
X123985714Y-80361904D02*
X124385714Y-80361904D01*
X124128571Y-81161904D01*
X127742857Y-129795000D02*
X127742857Y-129995000D01*
X128161904Y-129995000D02*
X127361904Y-129995000D01*
X127361904Y-129709285D01*
X128161904Y-129166428D02*
X128161904Y-129509285D01*
X128161904Y-129337857D02*
X127361904Y-129337857D01*
X127476190Y-129395000D01*
X127552380Y-129452142D01*
X127590476Y-129509285D01*
X162957142Y-79788095D02*
X162900000Y-79750000D01*
X162842857Y-79673809D01*
X162757142Y-79559523D01*
X162700000Y-79521428D01*
X162642857Y-79521428D01*
X162671428Y-79711904D02*
X162614285Y-79673809D01*
X162557142Y-79597619D01*
X162528571Y-79445238D01*
X162528571Y-79178571D01*
X162557142Y-79026190D01*
X162614285Y-78950000D01*
X162671428Y-78911904D01*
X162785714Y-78911904D01*
X162842857Y-78950000D01*
X162900000Y-79026190D01*
X162928571Y-79178571D01*
X162928571Y-79445238D01*
X162900000Y-79597619D01*
X162842857Y-79673809D01*
X162785714Y-79711904D01*
X162671428Y-79711904D01*
X163157142Y-78988095D02*
X163185714Y-78950000D01*
X163242857Y-78911904D01*
X163385714Y-78911904D01*
X163442857Y-78950000D01*
X163471428Y-78988095D01*
X163500000Y-79064285D01*
X163500000Y-79140476D01*
X163471428Y-79254761D01*
X163128571Y-79711904D01*
X163500000Y-79711904D01*
X164071428Y-79711904D02*
X163728571Y-79711904D01*
X163900000Y-79711904D02*
X163900000Y-78911904D01*
X163842857Y-79026190D01*
X163785714Y-79102380D01*
X163728571Y-79140476D01*
X137511714Y-67110714D02*
X137549809Y-67139285D01*
X137587904Y-67225000D01*
X137587904Y-67282142D01*
X137549809Y-67367857D01*
X137473619Y-67425000D01*
X137397428Y-67453571D01*
X137245047Y-67482142D01*
X137130761Y-67482142D01*
X136978380Y-67453571D01*
X136902190Y-67425000D01*
X136826000Y-67367857D01*
X136787904Y-67282142D01*
X136787904Y-67225000D01*
X136826000Y-67139285D01*
X136864095Y-67110714D01*
X136864095Y-66882142D02*
X136826000Y-66853571D01*
X136787904Y-66796428D01*
X136787904Y-66653571D01*
X136826000Y-66596428D01*
X136864095Y-66567857D01*
X136940285Y-66539285D01*
X137016476Y-66539285D01*
X137130761Y-66567857D01*
X137587904Y-66910714D01*
X137587904Y-66539285D01*
X137587904Y-66253571D02*
X137587904Y-66139285D01*
X137549809Y-66082142D01*
X137511714Y-66053571D01*
X137397428Y-65996428D01*
X137245047Y-65967857D01*
X136940285Y-65967857D01*
X136864095Y-65996428D01*
X136826000Y-66025000D01*
X136787904Y-66082142D01*
X136787904Y-66196428D01*
X136826000Y-66253571D01*
X136864095Y-66282142D01*
X136940285Y-66310714D01*
X137130761Y-66310714D01*
X137206952Y-66282142D01*
X137245047Y-66253571D01*
X137283142Y-66196428D01*
X137283142Y-66082142D01*
X137245047Y-66025000D01*
X137206952Y-65996428D01*
X137130761Y-65967857D01*
X126261904Y-65285714D02*
X125880952Y-65485714D01*
X126261904Y-65628571D02*
X125461904Y-65628571D01*
X125461904Y-65400000D01*
X125500000Y-65342857D01*
X125538095Y-65314285D01*
X125614285Y-65285714D01*
X125728571Y-65285714D01*
X125804761Y-65314285D01*
X125842857Y-65342857D01*
X125880952Y-65400000D01*
X125880952Y-65628571D01*
X125461904Y-65085714D02*
X125461904Y-64714285D01*
X125766666Y-64914285D01*
X125766666Y-64828571D01*
X125804761Y-64771428D01*
X125842857Y-64742857D01*
X125919047Y-64714285D01*
X126109523Y-64714285D01*
X126185714Y-64742857D01*
X126223809Y-64771428D01*
X126261904Y-64828571D01*
X126261904Y-65000000D01*
X126223809Y-65057142D01*
X126185714Y-65085714D01*
X125461904Y-64171428D02*
X125461904Y-64457142D01*
X125842857Y-64485714D01*
X125804761Y-64457142D01*
X125766666Y-64400000D01*
X125766666Y-64257142D01*
X125804761Y-64200000D01*
X125842857Y-64171428D01*
X125919047Y-64142857D01*
X126109523Y-64142857D01*
X126185714Y-64171428D01*
X126223809Y-64200000D01*
X126261904Y-64257142D01*
X126261904Y-64400000D01*
X126223809Y-64457142D01*
X126185714Y-64485714D01*
X156107142Y-78411904D02*
X156107142Y-77611904D01*
X156250000Y-77611904D01*
X156335714Y-77650000D01*
X156392857Y-77726190D01*
X156421428Y-77802380D01*
X156450000Y-77954761D01*
X156450000Y-78069047D01*
X156421428Y-78221428D01*
X156392857Y-78297619D01*
X156335714Y-78373809D01*
X156250000Y-78411904D01*
X156107142Y-78411904D01*
X156650000Y-77611904D02*
X157021428Y-77611904D01*
X156821428Y-77916666D01*
X156907142Y-77916666D01*
X156964285Y-77954761D01*
X156992857Y-77992857D01*
X157021428Y-78069047D01*
X157021428Y-78259523D01*
X156992857Y-78335714D01*
X156964285Y-78373809D01*
X156907142Y-78411904D01*
X156735714Y-78411904D01*
X156678571Y-78373809D01*
X156650000Y-78335714D01*
X161111904Y-74635714D02*
X160730952Y-74835714D01*
X161111904Y-74978571D02*
X160311904Y-74978571D01*
X160311904Y-74750000D01*
X160350000Y-74692857D01*
X160388095Y-74664285D01*
X160464285Y-74635714D01*
X160578571Y-74635714D01*
X160654761Y-74664285D01*
X160692857Y-74692857D01*
X160730952Y-74750000D01*
X160730952Y-74978571D01*
X160311904Y-74092857D02*
X160311904Y-74378571D01*
X160692857Y-74407142D01*
X160654761Y-74378571D01*
X160616666Y-74321428D01*
X160616666Y-74178571D01*
X160654761Y-74121428D01*
X160692857Y-74092857D01*
X160769047Y-74064285D01*
X160959523Y-74064285D01*
X161035714Y-74092857D01*
X161073809Y-74121428D01*
X161111904Y-74178571D01*
X161111904Y-74321428D01*
X161073809Y-74378571D01*
X161035714Y-74407142D01*
X160311904Y-73692857D02*
X160311904Y-73635714D01*
X160350000Y-73578571D01*
X160388095Y-73550000D01*
X160464285Y-73521428D01*
X160616666Y-73492857D01*
X160807142Y-73492857D01*
X160959523Y-73521428D01*
X161035714Y-73550000D01*
X161073809Y-73578571D01*
X161111904Y-73635714D01*
X161111904Y-73692857D01*
X161073809Y-73750000D01*
X161035714Y-73778571D01*
X160959523Y-73807142D01*
X160807142Y-73835714D01*
X160616666Y-73835714D01*
X160464285Y-73807142D01*
X160388095Y-73778571D01*
X160350000Y-73750000D01*
X160311904Y-73692857D01*
X138664285Y-93105714D02*
X138635714Y-93143809D01*
X138550000Y-93181904D01*
X138492857Y-93181904D01*
X138407142Y-93143809D01*
X138350000Y-93067619D01*
X138321428Y-92991428D01*
X138292857Y-92839047D01*
X138292857Y-92724761D01*
X138321428Y-92572380D01*
X138350000Y-92496190D01*
X138407142Y-92420000D01*
X138492857Y-92381904D01*
X138550000Y-92381904D01*
X138635714Y-92420000D01*
X138664285Y-92458095D01*
X139207142Y-92381904D02*
X138921428Y-92381904D01*
X138892857Y-92762857D01*
X138921428Y-92724761D01*
X138978571Y-92686666D01*
X139121428Y-92686666D01*
X139178571Y-92724761D01*
X139207142Y-92762857D01*
X139235714Y-92839047D01*
X139235714Y-93029523D01*
X139207142Y-93105714D01*
X139178571Y-93143809D01*
X139121428Y-93181904D01*
X138978571Y-93181904D01*
X138921428Y-93143809D01*
X138892857Y-93105714D01*
X139435714Y-92381904D02*
X139835714Y-92381904D01*
X139578571Y-93181904D01*
X126142857Y-129438095D02*
X126085714Y-129400000D01*
X126028571Y-129323809D01*
X125942857Y-129209523D01*
X125885714Y-129171428D01*
X125828571Y-129171428D01*
X125857142Y-129361904D02*
X125800000Y-129323809D01*
X125742857Y-129247619D01*
X125714285Y-129095238D01*
X125714285Y-128828571D01*
X125742857Y-128676190D01*
X125800000Y-128600000D01*
X125857142Y-128561904D01*
X125971428Y-128561904D01*
X126028571Y-128600000D01*
X126085714Y-128676190D01*
X126114285Y-128828571D01*
X126114285Y-129095238D01*
X126085714Y-129247619D01*
X126028571Y-129323809D01*
X125971428Y-129361904D01*
X125857142Y-129361904D01*
X126342857Y-128638095D02*
X126371428Y-128600000D01*
X126428571Y-128561904D01*
X126571428Y-128561904D01*
X126628571Y-128600000D01*
X126657142Y-128638095D01*
X126685714Y-128714285D01*
X126685714Y-128790476D01*
X126657142Y-128904761D01*
X126314285Y-129361904D01*
X126685714Y-129361904D01*
X166250000Y-82811904D02*
X166050000Y-82430952D01*
X165907142Y-82811904D02*
X165907142Y-82011904D01*
X166135714Y-82011904D01*
X166192857Y-82050000D01*
X166221428Y-82088095D01*
X166250000Y-82164285D01*
X166250000Y-82278571D01*
X166221428Y-82354761D01*
X166192857Y-82392857D01*
X166135714Y-82430952D01*
X165907142Y-82430952D01*
X166821428Y-82811904D02*
X166478571Y-82811904D01*
X166650000Y-82811904D02*
X166650000Y-82011904D01*
X166592857Y-82126190D01*
X166535714Y-82202380D01*
X166478571Y-82240476D01*
X173342857Y-95311904D02*
X173342857Y-95959523D01*
X173371428Y-96035714D01*
X173400000Y-96073809D01*
X173457142Y-96111904D01*
X173571428Y-96111904D01*
X173628571Y-96073809D01*
X173657142Y-96035714D01*
X173685714Y-95959523D01*
X173685714Y-95311904D01*
X174257142Y-95311904D02*
X173971428Y-95311904D01*
X173942857Y-95692857D01*
X173971428Y-95654761D01*
X174028571Y-95616666D01*
X174171428Y-95616666D01*
X174228571Y-95654761D01*
X174257142Y-95692857D01*
X174285714Y-95769047D01*
X174285714Y-95959523D01*
X174257142Y-96035714D01*
X174228571Y-96073809D01*
X174171428Y-96111904D01*
X174028571Y-96111904D01*
X173971428Y-96073809D01*
X173942857Y-96035714D01*
X142557142Y-72638095D02*
X142500000Y-72600000D01*
X142442857Y-72523809D01*
X142357142Y-72409523D01*
X142300000Y-72371428D01*
X142242857Y-72371428D01*
X142271428Y-72561904D02*
X142214285Y-72523809D01*
X142157142Y-72447619D01*
X142128571Y-72295238D01*
X142128571Y-72028571D01*
X142157142Y-71876190D01*
X142214285Y-71800000D01*
X142271428Y-71761904D01*
X142385714Y-71761904D01*
X142442857Y-71800000D01*
X142500000Y-71876190D01*
X142528571Y-72028571D01*
X142528571Y-72295238D01*
X142500000Y-72447619D01*
X142442857Y-72523809D01*
X142385714Y-72561904D01*
X142271428Y-72561904D01*
X143100000Y-72561904D02*
X142757142Y-72561904D01*
X142928571Y-72561904D02*
X142928571Y-71761904D01*
X142871428Y-71876190D01*
X142814285Y-71952380D01*
X142757142Y-71990476D01*
X143671428Y-72561904D02*
X143328571Y-72561904D01*
X143500000Y-72561904D02*
X143500000Y-71761904D01*
X143442857Y-71876190D01*
X143385714Y-71952380D01*
X143328571Y-71990476D01*
X157864285Y-74861904D02*
X157664285Y-74480952D01*
X157521428Y-74861904D02*
X157521428Y-74061904D01*
X157750000Y-74061904D01*
X157807142Y-74100000D01*
X157835714Y-74138095D01*
X157864285Y-74214285D01*
X157864285Y-74328571D01*
X157835714Y-74404761D01*
X157807142Y-74442857D01*
X157750000Y-74480952D01*
X157521428Y-74480952D01*
X158407142Y-74061904D02*
X158121428Y-74061904D01*
X158092857Y-74442857D01*
X158121428Y-74404761D01*
X158178571Y-74366666D01*
X158321428Y-74366666D01*
X158378571Y-74404761D01*
X158407142Y-74442857D01*
X158435714Y-74519047D01*
X158435714Y-74709523D01*
X158407142Y-74785714D01*
X158378571Y-74823809D01*
X158321428Y-74861904D01*
X158178571Y-74861904D01*
X158121428Y-74823809D01*
X158092857Y-74785714D01*
X159007142Y-74861904D02*
X158664285Y-74861904D01*
X158835714Y-74861904D02*
X158835714Y-74061904D01*
X158778571Y-74176190D01*
X158721428Y-74252380D01*
X158664285Y-74290476D01*
X181864285Y-64880952D02*
X181864285Y-65261904D01*
X181664285Y-64461904D02*
X181864285Y-64880952D01*
X182064285Y-64461904D01*
X182578571Y-65261904D02*
X182235714Y-65261904D01*
X182407142Y-65261904D02*
X182407142Y-64461904D01*
X182350000Y-64576190D01*
X182292857Y-64652380D01*
X182235714Y-64690476D01*
X168611904Y-137185714D02*
X168230952Y-137385714D01*
X168611904Y-137528571D02*
X167811904Y-137528571D01*
X167811904Y-137300000D01*
X167850000Y-137242857D01*
X167888095Y-137214285D01*
X167964285Y-137185714D01*
X168078571Y-137185714D01*
X168154761Y-137214285D01*
X168192857Y-137242857D01*
X168230952Y-137300000D01*
X168230952Y-137528571D01*
X168078571Y-136671428D02*
X168611904Y-136671428D01*
X167773809Y-136814285D02*
X168345238Y-136957142D01*
X168345238Y-136585714D01*
X168611904Y-136042857D02*
X168611904Y-136385714D01*
X168611904Y-136214285D02*
X167811904Y-136214285D01*
X167926190Y-136271428D01*
X168002380Y-136328571D01*
X168040476Y-136385714D01*
X114750000Y-128962857D02*
X114550000Y-128962857D01*
X114550000Y-129381904D02*
X114550000Y-128581904D01*
X114835714Y-128581904D01*
X115150000Y-128924761D02*
X115092857Y-128886666D01*
X115064285Y-128848571D01*
X115035714Y-128772380D01*
X115035714Y-128734285D01*
X115064285Y-128658095D01*
X115092857Y-128620000D01*
X115150000Y-128581904D01*
X115264285Y-128581904D01*
X115321428Y-128620000D01*
X115350000Y-128658095D01*
X115378571Y-128734285D01*
X115378571Y-128772380D01*
X115350000Y-128848571D01*
X115321428Y-128886666D01*
X115264285Y-128924761D01*
X115150000Y-128924761D01*
X115092857Y-128962857D01*
X115064285Y-129000952D01*
X115035714Y-129077142D01*
X115035714Y-129229523D01*
X115064285Y-129305714D01*
X115092857Y-129343809D01*
X115150000Y-129381904D01*
X115264285Y-129381904D01*
X115321428Y-129343809D01*
X115350000Y-129305714D01*
X115378571Y-129229523D01*
X115378571Y-129077142D01*
X115350000Y-129000952D01*
X115321428Y-128962857D01*
X115264285Y-128924761D01*
X171188095Y-77592857D02*
X171150000Y-77650000D01*
X171073809Y-77707142D01*
X170959523Y-77792857D01*
X170921428Y-77850000D01*
X170921428Y-77907142D01*
X171111904Y-77878571D02*
X171073809Y-77935714D01*
X170997619Y-77992857D01*
X170845238Y-78021428D01*
X170578571Y-78021428D01*
X170426190Y-77992857D01*
X170350000Y-77935714D01*
X170311904Y-77878571D01*
X170311904Y-77764285D01*
X170350000Y-77707142D01*
X170426190Y-77650000D01*
X170578571Y-77621428D01*
X170845238Y-77621428D01*
X170997619Y-77650000D01*
X171073809Y-77707142D01*
X171111904Y-77764285D01*
X171111904Y-77878571D01*
X170388095Y-77392857D02*
X170350000Y-77364285D01*
X170311904Y-77307142D01*
X170311904Y-77164285D01*
X170350000Y-77107142D01*
X170388095Y-77078571D01*
X170464285Y-77050000D01*
X170540476Y-77050000D01*
X170654761Y-77078571D01*
X171111904Y-77421428D01*
X171111904Y-77050000D01*
X170311904Y-76678571D02*
X170311904Y-76621428D01*
X170350000Y-76564285D01*
X170388095Y-76535714D01*
X170464285Y-76507142D01*
X170616666Y-76478571D01*
X170807142Y-76478571D01*
X170959523Y-76507142D01*
X171035714Y-76535714D01*
X171073809Y-76564285D01*
X171111904Y-76621428D01*
X171111904Y-76678571D01*
X171073809Y-76735714D01*
X171035714Y-76764285D01*
X170959523Y-76792857D01*
X170807142Y-76821428D01*
X170616666Y-76821428D01*
X170464285Y-76792857D01*
X170388095Y-76764285D01*
X170350000Y-76735714D01*
X170311904Y-76678571D01*
X119842857Y-129538095D02*
X119785714Y-129500000D01*
X119728571Y-129423809D01*
X119642857Y-129309523D01*
X119585714Y-129271428D01*
X119528571Y-129271428D01*
X119557142Y-129461904D02*
X119500000Y-129423809D01*
X119442857Y-129347619D01*
X119414285Y-129195238D01*
X119414285Y-128928571D01*
X119442857Y-128776190D01*
X119500000Y-128700000D01*
X119557142Y-128661904D01*
X119671428Y-128661904D01*
X119728571Y-128700000D01*
X119785714Y-128776190D01*
X119814285Y-128928571D01*
X119814285Y-129195238D01*
X119785714Y-129347619D01*
X119728571Y-129423809D01*
X119671428Y-129461904D01*
X119557142Y-129461904D01*
X120014285Y-128661904D02*
X120385714Y-128661904D01*
X120185714Y-128966666D01*
X120271428Y-128966666D01*
X120328571Y-129004761D01*
X120357142Y-129042857D01*
X120385714Y-129119047D01*
X120385714Y-129309523D01*
X120357142Y-129385714D01*
X120328571Y-129423809D01*
X120271428Y-129461904D01*
X120100000Y-129461904D01*
X120042857Y-129423809D01*
X120014285Y-129385714D01*
X169064285Y-92311904D02*
X168864285Y-91930952D01*
X168721428Y-92311904D02*
X168721428Y-91511904D01*
X168950000Y-91511904D01*
X169007142Y-91550000D01*
X169035714Y-91588095D01*
X169064285Y-91664285D01*
X169064285Y-91778571D01*
X169035714Y-91854761D01*
X169007142Y-91892857D01*
X168950000Y-91930952D01*
X168721428Y-91930952D01*
X169607142Y-91511904D02*
X169321428Y-91511904D01*
X169292857Y-91892857D01*
X169321428Y-91854761D01*
X169378571Y-91816666D01*
X169521428Y-91816666D01*
X169578571Y-91854761D01*
X169607142Y-91892857D01*
X169635714Y-91969047D01*
X169635714Y-92159523D01*
X169607142Y-92235714D01*
X169578571Y-92273809D01*
X169521428Y-92311904D01*
X169378571Y-92311904D01*
X169321428Y-92273809D01*
X169292857Y-92235714D01*
X169835714Y-91511904D02*
X170207142Y-91511904D01*
X170007142Y-91816666D01*
X170092857Y-91816666D01*
X170150000Y-91854761D01*
X170178571Y-91892857D01*
X170207142Y-91969047D01*
X170207142Y-92159523D01*
X170178571Y-92235714D01*
X170150000Y-92273809D01*
X170092857Y-92311904D01*
X169921428Y-92311904D01*
X169864285Y-92273809D01*
X169835714Y-92235714D01*
X147911904Y-70255713D02*
X147530952Y-70455713D01*
X147911904Y-70598570D02*
X147111904Y-70598570D01*
X147111904Y-70369999D01*
X147150000Y-70312856D01*
X147188095Y-70284284D01*
X147264285Y-70255713D01*
X147378571Y-70255713D01*
X147454761Y-70284284D01*
X147492857Y-70312856D01*
X147530952Y-70369999D01*
X147530952Y-70598570D01*
X147111904Y-70055713D02*
X147111904Y-69684284D01*
X147416666Y-69884284D01*
X147416666Y-69798570D01*
X147454761Y-69741427D01*
X147492857Y-69712856D01*
X147569047Y-69684284D01*
X147759523Y-69684284D01*
X147835714Y-69712856D01*
X147873809Y-69741427D01*
X147911904Y-69798570D01*
X147911904Y-69969999D01*
X147873809Y-70027141D01*
X147835714Y-70055713D01*
X147188095Y-69455713D02*
X147150000Y-69427141D01*
X147111904Y-69369999D01*
X147111904Y-69227141D01*
X147150000Y-69169999D01*
X147188095Y-69141427D01*
X147264285Y-69112856D01*
X147340476Y-69112856D01*
X147454761Y-69141427D01*
X147911904Y-69484284D01*
X147911904Y-69112856D01*
X130414285Y-127361904D02*
X130214285Y-126980952D01*
X130071428Y-127361904D02*
X130071428Y-126561904D01*
X130300000Y-126561904D01*
X130357142Y-126600000D01*
X130385714Y-126638095D01*
X130414285Y-126714285D01*
X130414285Y-126828571D01*
X130385714Y-126904761D01*
X130357142Y-126942857D01*
X130300000Y-126980952D01*
X130071428Y-126980952D01*
X130985714Y-127361904D02*
X130642857Y-127361904D01*
X130814285Y-127361904D02*
X130814285Y-126561904D01*
X130757142Y-126676190D01*
X130700000Y-126752380D01*
X130642857Y-126790476D01*
X131185714Y-126561904D02*
X131585714Y-126561904D01*
X131328571Y-127361904D01*
X120600000Y-112242857D02*
X120400000Y-112242857D01*
X120400000Y-112661904D02*
X120400000Y-111861904D01*
X120685714Y-111861904D01*
X120942857Y-112661904D02*
X121057142Y-112661904D01*
X121114285Y-112623809D01*
X121142857Y-112585714D01*
X121200000Y-112471428D01*
X121228571Y-112319047D01*
X121228571Y-112014285D01*
X121200000Y-111938095D01*
X121171428Y-111900000D01*
X121114285Y-111861904D01*
X121000000Y-111861904D01*
X120942857Y-111900000D01*
X120914285Y-111938095D01*
X120885714Y-112014285D01*
X120885714Y-112204761D01*
X120914285Y-112280952D01*
X120942857Y-112319047D01*
X121000000Y-112357142D01*
X121114285Y-112357142D01*
X121171428Y-112319047D01*
X121200000Y-112280952D01*
X121228571Y-112204761D01*
X170364285Y-79461904D02*
X170164285Y-79080952D01*
X170021428Y-79461904D02*
X170021428Y-78661904D01*
X170250000Y-78661904D01*
X170307142Y-78700000D01*
X170335714Y-78738095D01*
X170364285Y-78814285D01*
X170364285Y-78928571D01*
X170335714Y-79004761D01*
X170307142Y-79042857D01*
X170250000Y-79080952D01*
X170021428Y-79080952D01*
X170907142Y-78661904D02*
X170621428Y-78661904D01*
X170592857Y-79042857D01*
X170621428Y-79004761D01*
X170678571Y-78966666D01*
X170821428Y-78966666D01*
X170878571Y-79004761D01*
X170907142Y-79042857D01*
X170935714Y-79119047D01*
X170935714Y-79309523D01*
X170907142Y-79385714D01*
X170878571Y-79423809D01*
X170821428Y-79461904D01*
X170678571Y-79461904D01*
X170621428Y-79423809D01*
X170592857Y-79385714D01*
X171450000Y-78661904D02*
X171335714Y-78661904D01*
X171278571Y-78700000D01*
X171250000Y-78738095D01*
X171192857Y-78852380D01*
X171164285Y-79004761D01*
X171164285Y-79309523D01*
X171192857Y-79385714D01*
X171221428Y-79423809D01*
X171278571Y-79461904D01*
X171392857Y-79461904D01*
X171450000Y-79423809D01*
X171478571Y-79385714D01*
X171507142Y-79309523D01*
X171507142Y-79119047D01*
X171478571Y-79042857D01*
X171450000Y-79004761D01*
X171392857Y-78966666D01*
X171278571Y-78966666D01*
X171221428Y-79004761D01*
X171192857Y-79042857D01*
X171164285Y-79119047D01*
X129139285Y-107555714D02*
X129110714Y-107593809D01*
X129025000Y-107631904D01*
X128967857Y-107631904D01*
X128882142Y-107593809D01*
X128825000Y-107517619D01*
X128796428Y-107441428D01*
X128767857Y-107289047D01*
X128767857Y-107174761D01*
X128796428Y-107022380D01*
X128825000Y-106946190D01*
X128882142Y-106870000D01*
X128967857Y-106831904D01*
X129025000Y-106831904D01*
X129110714Y-106870000D01*
X129139285Y-106908095D01*
X129653571Y-107098571D02*
X129653571Y-107631904D01*
X129510714Y-106793809D02*
X129367857Y-107365238D01*
X129739285Y-107365238D01*
X130053571Y-107174761D02*
X129996428Y-107136666D01*
X129967857Y-107098571D01*
X129939285Y-107022380D01*
X129939285Y-106984285D01*
X129967857Y-106908095D01*
X129996428Y-106870000D01*
X130053571Y-106831904D01*
X130167857Y-106831904D01*
X130225000Y-106870000D01*
X130253571Y-106908095D01*
X130282142Y-106984285D01*
X130282142Y-107022380D01*
X130253571Y-107098571D01*
X130225000Y-107136666D01*
X130167857Y-107174761D01*
X130053571Y-107174761D01*
X129996428Y-107212857D01*
X129967857Y-107250952D01*
X129939285Y-107327142D01*
X129939285Y-107479523D01*
X129967857Y-107555714D01*
X129996428Y-107593809D01*
X130053571Y-107631904D01*
X130167857Y-107631904D01*
X130225000Y-107593809D01*
X130253571Y-107555714D01*
X130282142Y-107479523D01*
X130282142Y-107327142D01*
X130253571Y-107250952D01*
X130225000Y-107212857D01*
X130167857Y-107174761D01*
X131014285Y-81161904D02*
X130814285Y-80780952D01*
X130671428Y-81161904D02*
X130671428Y-80361904D01*
X130900000Y-80361904D01*
X130957142Y-80400000D01*
X130985714Y-80438095D01*
X131014285Y-80514285D01*
X131014285Y-80628571D01*
X130985714Y-80704761D01*
X130957142Y-80742857D01*
X130900000Y-80780952D01*
X130671428Y-80780952D01*
X131242857Y-80438095D02*
X131271428Y-80400000D01*
X131328571Y-80361904D01*
X131471428Y-80361904D01*
X131528571Y-80400000D01*
X131557142Y-80438095D01*
X131585714Y-80514285D01*
X131585714Y-80590476D01*
X131557142Y-80704761D01*
X131214285Y-81161904D01*
X131585714Y-81161904D01*
X131928571Y-80704761D02*
X131871428Y-80666666D01*
X131842857Y-80628571D01*
X131814285Y-80552380D01*
X131814285Y-80514285D01*
X131842857Y-80438095D01*
X131871428Y-80400000D01*
X131928571Y-80361904D01*
X132042857Y-80361904D01*
X132100000Y-80400000D01*
X132128571Y-80438095D01*
X132157142Y-80514285D01*
X132157142Y-80552380D01*
X132128571Y-80628571D01*
X132100000Y-80666666D01*
X132042857Y-80704761D01*
X131928571Y-80704761D01*
X131871428Y-80742857D01*
X131842857Y-80780952D01*
X131814285Y-80857142D01*
X131814285Y-81009523D01*
X131842857Y-81085714D01*
X131871428Y-81123809D01*
X131928571Y-81161904D01*
X132042857Y-81161904D01*
X132100000Y-81123809D01*
X132128571Y-81085714D01*
X132157142Y-81009523D01*
X132157142Y-80857142D01*
X132128571Y-80780952D01*
X132100000Y-80742857D01*
X132042857Y-80704761D01*
X146442857Y-73438095D02*
X146385714Y-73400000D01*
X146328571Y-73323809D01*
X146242857Y-73209523D01*
X146185714Y-73171428D01*
X146128571Y-73171428D01*
X146157142Y-73361904D02*
X146100000Y-73323809D01*
X146042857Y-73247619D01*
X146014285Y-73095238D01*
X146014285Y-72828571D01*
X146042857Y-72676190D01*
X146100000Y-72600000D01*
X146157142Y-72561904D01*
X146271428Y-72561904D01*
X146328571Y-72600000D01*
X146385714Y-72676190D01*
X146414285Y-72828571D01*
X146414285Y-73095238D01*
X146385714Y-73247619D01*
X146328571Y-73323809D01*
X146271428Y-73361904D01*
X146157142Y-73361904D01*
X146614285Y-72561904D02*
X147014285Y-72561904D01*
X146757142Y-73361904D01*
X184061904Y-130985714D02*
X183680952Y-131185714D01*
X184061904Y-131328571D02*
X183261904Y-131328571D01*
X183261904Y-131100000D01*
X183300000Y-131042857D01*
X183338095Y-131014285D01*
X183414285Y-130985714D01*
X183528571Y-130985714D01*
X183604761Y-131014285D01*
X183642857Y-131042857D01*
X183680952Y-131100000D01*
X183680952Y-131328571D01*
X183528571Y-130471428D02*
X184061904Y-130471428D01*
X183223809Y-130614285D02*
X183795238Y-130757142D01*
X183795238Y-130385714D01*
X183261904Y-130214285D02*
X183261904Y-129814285D01*
X184061904Y-130071428D01*
X184750000Y-68335714D02*
X184721428Y-68373809D01*
X184635714Y-68411904D01*
X184578571Y-68411904D01*
X184492857Y-68373809D01*
X184435714Y-68297619D01*
X184407142Y-68221428D01*
X184378571Y-68069047D01*
X184378571Y-67954761D01*
X184407142Y-67802380D01*
X184435714Y-67726190D01*
X184492857Y-67650000D01*
X184578571Y-67611904D01*
X184635714Y-67611904D01*
X184721428Y-67650000D01*
X184750000Y-67688095D01*
X185035714Y-68411904D02*
X185150000Y-68411904D01*
X185207142Y-68373809D01*
X185235714Y-68335714D01*
X185292857Y-68221428D01*
X185321428Y-68069047D01*
X185321428Y-67764285D01*
X185292857Y-67688095D01*
X185264285Y-67650000D01*
X185207142Y-67611904D01*
X185092857Y-67611904D01*
X185035714Y-67650000D01*
X185007142Y-67688095D01*
X184978571Y-67764285D01*
X184978571Y-67954761D01*
X185007142Y-68030952D01*
X185035714Y-68069047D01*
X185092857Y-68107142D01*
X185207142Y-68107142D01*
X185264285Y-68069047D01*
X185292857Y-68030952D01*
X185321428Y-67954761D01*
X159985714Y-74635714D02*
X160023809Y-74664285D01*
X160061904Y-74750000D01*
X160061904Y-74807142D01*
X160023809Y-74892857D01*
X159947619Y-74950000D01*
X159871428Y-74978571D01*
X159719047Y-75007142D01*
X159604761Y-75007142D01*
X159452380Y-74978571D01*
X159376190Y-74950000D01*
X159300000Y-74892857D01*
X159261904Y-74807142D01*
X159261904Y-74750000D01*
X159300000Y-74664285D01*
X159338095Y-74635714D01*
X159261904Y-74435714D02*
X159261904Y-74064285D01*
X159566666Y-74264285D01*
X159566666Y-74178571D01*
X159604761Y-74121428D01*
X159642857Y-74092857D01*
X159719047Y-74064285D01*
X159909523Y-74064285D01*
X159985714Y-74092857D01*
X160023809Y-74121428D01*
X160061904Y-74178571D01*
X160061904Y-74350000D01*
X160023809Y-74407142D01*
X159985714Y-74435714D01*
X159261904Y-73521428D02*
X159261904Y-73807142D01*
X159642857Y-73835714D01*
X159604761Y-73807142D01*
X159566666Y-73750000D01*
X159566666Y-73607142D01*
X159604761Y-73550000D01*
X159642857Y-73521428D01*
X159719047Y-73492857D01*
X159909523Y-73492857D01*
X159985714Y-73521428D01*
X160023809Y-73550000D01*
X160061904Y-73607142D01*
X160061904Y-73750000D01*
X160023809Y-73807142D01*
X159985714Y-73835714D01*
X121642857Y-76338095D02*
X121585714Y-76300000D01*
X121528571Y-76223809D01*
X121442857Y-76109523D01*
X121385714Y-76071428D01*
X121328571Y-76071428D01*
X121357142Y-76261904D02*
X121300000Y-76223809D01*
X121242857Y-76147619D01*
X121214285Y-75995238D01*
X121214285Y-75728571D01*
X121242857Y-75576190D01*
X121300000Y-75500000D01*
X121357142Y-75461904D01*
X121471428Y-75461904D01*
X121528571Y-75500000D01*
X121585714Y-75576190D01*
X121614285Y-75728571D01*
X121614285Y-75995238D01*
X121585714Y-76147619D01*
X121528571Y-76223809D01*
X121471428Y-76261904D01*
X121357142Y-76261904D01*
X122128571Y-75728571D02*
X122128571Y-76261904D01*
X121985714Y-75423809D02*
X121842857Y-75995238D01*
X122214285Y-75995238D01*
X138714285Y-81161904D02*
X138514285Y-80780952D01*
X138371428Y-81161904D02*
X138371428Y-80361904D01*
X138600000Y-80361904D01*
X138657142Y-80400000D01*
X138685714Y-80438095D01*
X138714285Y-80514285D01*
X138714285Y-80628571D01*
X138685714Y-80704761D01*
X138657142Y-80742857D01*
X138600000Y-80780952D01*
X138371428Y-80780952D01*
X138942857Y-80438095D02*
X138971428Y-80400000D01*
X139028571Y-80361904D01*
X139171428Y-80361904D01*
X139228571Y-80400000D01*
X139257142Y-80438095D01*
X139285714Y-80514285D01*
X139285714Y-80590476D01*
X139257142Y-80704761D01*
X138914285Y-81161904D01*
X139285714Y-81161904D01*
X139571428Y-81161904D02*
X139685714Y-81161904D01*
X139742857Y-81123809D01*
X139771428Y-81085714D01*
X139828571Y-80971428D01*
X139857142Y-80819047D01*
X139857142Y-80514285D01*
X139828571Y-80438095D01*
X139800000Y-80400000D01*
X139742857Y-80361904D01*
X139628571Y-80361904D01*
X139571428Y-80400000D01*
X139542857Y-80438095D01*
X139514285Y-80514285D01*
X139514285Y-80704761D01*
X139542857Y-80780952D01*
X139571428Y-80819047D01*
X139628571Y-80857142D01*
X139742857Y-80857142D01*
X139800000Y-80819047D01*
X139828571Y-80780952D01*
X139857142Y-80704761D01*
X142900000Y-128806904D02*
X142614285Y-128806904D01*
X142614285Y-128006904D01*
X143071428Y-128083095D02*
X143100000Y-128045000D01*
X143157142Y-128006904D01*
X143300000Y-128006904D01*
X143357142Y-128045000D01*
X143385714Y-128083095D01*
X143414285Y-128159285D01*
X143414285Y-128235476D01*
X143385714Y-128349761D01*
X143042857Y-128806904D01*
X143414285Y-128806904D01*
X186614285Y-68385714D02*
X186585714Y-68423809D01*
X186500000Y-68461904D01*
X186442857Y-68461904D01*
X186357142Y-68423809D01*
X186300000Y-68347619D01*
X186271428Y-68271428D01*
X186242857Y-68119047D01*
X186242857Y-68004761D01*
X186271428Y-67852380D01*
X186300000Y-67776190D01*
X186357142Y-67700000D01*
X186442857Y-67661904D01*
X186500000Y-67661904D01*
X186585714Y-67700000D01*
X186614285Y-67738095D01*
X187185714Y-68461904D02*
X186842857Y-68461904D01*
X187014285Y-68461904D02*
X187014285Y-67661904D01*
X186957142Y-67776190D01*
X186900000Y-67852380D01*
X186842857Y-67890476D01*
X187557142Y-67661904D02*
X187614285Y-67661904D01*
X187671428Y-67700000D01*
X187700000Y-67738095D01*
X187728571Y-67814285D01*
X187757142Y-67966666D01*
X187757142Y-68157142D01*
X187728571Y-68309523D01*
X187700000Y-68385714D01*
X187671428Y-68423809D01*
X187614285Y-68461904D01*
X187557142Y-68461904D01*
X187500000Y-68423809D01*
X187471428Y-68385714D01*
X187442857Y-68309523D01*
X187414285Y-68157142D01*
X187414285Y-67966666D01*
X187442857Y-67814285D01*
X187471428Y-67738095D01*
X187500000Y-67700000D01*
X187557142Y-67661904D01*
X149614285Y-74861904D02*
X149414285Y-74480952D01*
X149271428Y-74861904D02*
X149271428Y-74061904D01*
X149500000Y-74061904D01*
X149557142Y-74100000D01*
X149585714Y-74138095D01*
X149614285Y-74214285D01*
X149614285Y-74328571D01*
X149585714Y-74404761D01*
X149557142Y-74442857D01*
X149500000Y-74480952D01*
X149271428Y-74480952D01*
X149842857Y-74138095D02*
X149871428Y-74100000D01*
X149928571Y-74061904D01*
X150071428Y-74061904D01*
X150128571Y-74100000D01*
X150157142Y-74138095D01*
X150185714Y-74214285D01*
X150185714Y-74290476D01*
X150157142Y-74404761D01*
X149814285Y-74861904D01*
X150185714Y-74861904D01*
X150414285Y-74138095D02*
X150442857Y-74100000D01*
X150500000Y-74061904D01*
X150642857Y-74061904D01*
X150700000Y-74100000D01*
X150728571Y-74138095D01*
X150757142Y-74214285D01*
X150757142Y-74290476D01*
X150728571Y-74404761D01*
X150385714Y-74861904D01*
X150757142Y-74861904D01*
X144657142Y-72238095D02*
X144600000Y-72200000D01*
X144542857Y-72123809D01*
X144457142Y-72009523D01*
X144400000Y-71971428D01*
X144342857Y-71971428D01*
X144371428Y-72161904D02*
X144314285Y-72123809D01*
X144257142Y-72047619D01*
X144228571Y-71895238D01*
X144228571Y-71628571D01*
X144257142Y-71476190D01*
X144314285Y-71400000D01*
X144371428Y-71361904D01*
X144485714Y-71361904D01*
X144542857Y-71400000D01*
X144600000Y-71476190D01*
X144628571Y-71628571D01*
X144628571Y-71895238D01*
X144600000Y-72047619D01*
X144542857Y-72123809D01*
X144485714Y-72161904D01*
X144371428Y-72161904D01*
X145200000Y-72161904D02*
X144857142Y-72161904D01*
X145028571Y-72161904D02*
X145028571Y-71361904D01*
X144971428Y-71476190D01*
X144914285Y-71552380D01*
X144857142Y-71590476D01*
X145428571Y-71438095D02*
X145457142Y-71400000D01*
X145514285Y-71361904D01*
X145657142Y-71361904D01*
X145714285Y-71400000D01*
X145742857Y-71438095D01*
X145771428Y-71514285D01*
X145771428Y-71590476D01*
X145742857Y-71704761D01*
X145400000Y-72161904D01*
X145771428Y-72161904D01*
X172606904Y-61600000D02*
X173178333Y-61600000D01*
X173292619Y-61628571D01*
X173368809Y-61685714D01*
X173406904Y-61771428D01*
X173406904Y-61828571D01*
X173406904Y-61285714D02*
X173406904Y-61171428D01*
X173368809Y-61114285D01*
X173330714Y-61085714D01*
X173216428Y-61028571D01*
X173064047Y-61000000D01*
X172759285Y-61000000D01*
X172683095Y-61028571D01*
X172645000Y-61057142D01*
X172606904Y-61114285D01*
X172606904Y-61228571D01*
X172645000Y-61285714D01*
X172683095Y-61314285D01*
X172759285Y-61342857D01*
X172949761Y-61342857D01*
X173025952Y-61314285D01*
X173064047Y-61285714D01*
X173102142Y-61228571D01*
X173102142Y-61114285D01*
X173064047Y-61057142D01*
X173025952Y-61028571D01*
X172949761Y-61000000D01*
X109142857Y-112260000D02*
X109142857Y-112460000D01*
X109561904Y-112460000D02*
X108761904Y-112460000D01*
X108761904Y-112174285D01*
X108838095Y-111974285D02*
X108800000Y-111945714D01*
X108761904Y-111888571D01*
X108761904Y-111745714D01*
X108800000Y-111688571D01*
X108838095Y-111660000D01*
X108914285Y-111631428D01*
X108990476Y-111631428D01*
X109104761Y-111660000D01*
X109561904Y-112002857D01*
X109561904Y-111631428D01*
X148385714Y-72385714D02*
X148423809Y-72414285D01*
X148461904Y-72500000D01*
X148461904Y-72557142D01*
X148423809Y-72642857D01*
X148347619Y-72700000D01*
X148271428Y-72728571D01*
X148119047Y-72757142D01*
X148004761Y-72757142D01*
X147852380Y-72728571D01*
X147776190Y-72700000D01*
X147700000Y-72642857D01*
X147661904Y-72557142D01*
X147661904Y-72500000D01*
X147700000Y-72414285D01*
X147738095Y-72385714D01*
X147661904Y-72185714D02*
X147661904Y-71814285D01*
X147966666Y-72014285D01*
X147966666Y-71928571D01*
X148004761Y-71871428D01*
X148042857Y-71842857D01*
X148119047Y-71814285D01*
X148309523Y-71814285D01*
X148385714Y-71842857D01*
X148423809Y-71871428D01*
X148461904Y-71928571D01*
X148461904Y-72100000D01*
X148423809Y-72157142D01*
X148385714Y-72185714D01*
X148461904Y-71242857D02*
X148461904Y-71585714D01*
X148461904Y-71414285D02*
X147661904Y-71414285D01*
X147776190Y-71471428D01*
X147852380Y-71528571D01*
X147890476Y-71585714D01*
X162989285Y-94035714D02*
X162960714Y-94073809D01*
X162875000Y-94111904D01*
X162817857Y-94111904D01*
X162732142Y-94073809D01*
X162675000Y-93997619D01*
X162646428Y-93921428D01*
X162617857Y-93769047D01*
X162617857Y-93654761D01*
X162646428Y-93502380D01*
X162675000Y-93426190D01*
X162732142Y-93350000D01*
X162817857Y-93311904D01*
X162875000Y-93311904D01*
X162960714Y-93350000D01*
X162989285Y-93388095D01*
X163189285Y-93311904D02*
X163560714Y-93311904D01*
X163360714Y-93616666D01*
X163446428Y-93616666D01*
X163503571Y-93654761D01*
X163532142Y-93692857D01*
X163560714Y-93769047D01*
X163560714Y-93959523D01*
X163532142Y-94035714D01*
X163503571Y-94073809D01*
X163446428Y-94111904D01*
X163275000Y-94111904D01*
X163217857Y-94073809D01*
X163189285Y-94035714D01*
X164075000Y-93311904D02*
X163960714Y-93311904D01*
X163903571Y-93350000D01*
X163875000Y-93388095D01*
X163817857Y-93502380D01*
X163789285Y-93654761D01*
X163789285Y-93959523D01*
X163817857Y-94035714D01*
X163846428Y-94073809D01*
X163903571Y-94111904D01*
X164017857Y-94111904D01*
X164075000Y-94073809D01*
X164103571Y-94035714D01*
X164132142Y-93959523D01*
X164132142Y-93769047D01*
X164103571Y-93692857D01*
X164075000Y-93654761D01*
X164017857Y-93616666D01*
X163903571Y-93616666D01*
X163846428Y-93654761D01*
X163817857Y-93692857D01*
X163789285Y-93769047D01*
X138689285Y-97680714D02*
X138660714Y-97718809D01*
X138575000Y-97756904D01*
X138517857Y-97756904D01*
X138432142Y-97718809D01*
X138375000Y-97642619D01*
X138346428Y-97566428D01*
X138317857Y-97414047D01*
X138317857Y-97299761D01*
X138346428Y-97147380D01*
X138375000Y-97071190D01*
X138432142Y-96995000D01*
X138517857Y-96956904D01*
X138575000Y-96956904D01*
X138660714Y-96995000D01*
X138689285Y-97033095D01*
X139203571Y-97223571D02*
X139203571Y-97756904D01*
X139060714Y-96918809D02*
X138917857Y-97490238D01*
X139289285Y-97490238D01*
X139803571Y-96956904D02*
X139517857Y-96956904D01*
X139489285Y-97337857D01*
X139517857Y-97299761D01*
X139575000Y-97261666D01*
X139717857Y-97261666D01*
X139775000Y-97299761D01*
X139803571Y-97337857D01*
X139832142Y-97414047D01*
X139832142Y-97604523D01*
X139803571Y-97680714D01*
X139775000Y-97718809D01*
X139717857Y-97756904D01*
X139575000Y-97756904D01*
X139517857Y-97718809D01*
X139489285Y-97680714D01*
X146614285Y-81161904D02*
X146414285Y-80780952D01*
X146271428Y-81161904D02*
X146271428Y-80361904D01*
X146500000Y-80361904D01*
X146557142Y-80400000D01*
X146585714Y-80438095D01*
X146614285Y-80514285D01*
X146614285Y-80628571D01*
X146585714Y-80704761D01*
X146557142Y-80742857D01*
X146500000Y-80780952D01*
X146271428Y-80780952D01*
X146814285Y-80361904D02*
X147185714Y-80361904D01*
X146985714Y-80666666D01*
X147071428Y-80666666D01*
X147128571Y-80704761D01*
X147157142Y-80742857D01*
X147185714Y-80819047D01*
X147185714Y-81009523D01*
X147157142Y-81085714D01*
X147128571Y-81123809D01*
X147071428Y-81161904D01*
X146900000Y-81161904D01*
X146842857Y-81123809D01*
X146814285Y-81085714D01*
X147557142Y-80361904D02*
X147614285Y-80361904D01*
X147671428Y-80400000D01*
X147700000Y-80438095D01*
X147728571Y-80514285D01*
X147757142Y-80666666D01*
X147757142Y-80857142D01*
X147728571Y-81009523D01*
X147700000Y-81085714D01*
X147671428Y-81123809D01*
X147614285Y-81161904D01*
X147557142Y-81161904D01*
X147500000Y-81123809D01*
X147471428Y-81085714D01*
X147442857Y-81009523D01*
X147414285Y-80857142D01*
X147414285Y-80666666D01*
X147442857Y-80514285D01*
X147471428Y-80438095D01*
X147500000Y-80400000D01*
X147557142Y-80361904D01*
X114150595Y-104732857D02*
X114112500Y-104790000D01*
X114036309Y-104847142D01*
X113922023Y-104932857D01*
X113883928Y-104990000D01*
X113883928Y-105047142D01*
X114074404Y-105018571D02*
X114036309Y-105075714D01*
X113960119Y-105132857D01*
X113807738Y-105161428D01*
X113541071Y-105161428D01*
X113388690Y-105132857D01*
X113312500Y-105075714D01*
X113274404Y-105018571D01*
X113274404Y-104904285D01*
X113312500Y-104847142D01*
X113388690Y-104790000D01*
X113541071Y-104761428D01*
X113807738Y-104761428D01*
X113960119Y-104790000D01*
X114036309Y-104847142D01*
X114074404Y-104904285D01*
X114074404Y-105018571D01*
X113350595Y-104532857D02*
X113312500Y-104504285D01*
X113274404Y-104447142D01*
X113274404Y-104304285D01*
X113312500Y-104247142D01*
X113350595Y-104218571D01*
X113426785Y-104190000D01*
X113502976Y-104190000D01*
X113617261Y-104218571D01*
X114074404Y-104561428D01*
X114074404Y-104190000D01*
X113350595Y-103961428D02*
X113312500Y-103932857D01*
X113274404Y-103875714D01*
X113274404Y-103732857D01*
X113312500Y-103675714D01*
X113350595Y-103647142D01*
X113426785Y-103618571D01*
X113502976Y-103618571D01*
X113617261Y-103647142D01*
X114074404Y-103990000D01*
X114074404Y-103618571D01*
X114163095Y-96907857D02*
X114125000Y-96965000D01*
X114048809Y-97022142D01*
X113934523Y-97107857D01*
X113896428Y-97165000D01*
X113896428Y-97222142D01*
X114086904Y-97193571D02*
X114048809Y-97250714D01*
X113972619Y-97307857D01*
X113820238Y-97336428D01*
X113553571Y-97336428D01*
X113401190Y-97307857D01*
X113325000Y-97250714D01*
X113286904Y-97193571D01*
X113286904Y-97079285D01*
X113325000Y-97022142D01*
X113401190Y-96965000D01*
X113553571Y-96936428D01*
X113820238Y-96936428D01*
X113972619Y-96965000D01*
X114048809Y-97022142D01*
X114086904Y-97079285D01*
X114086904Y-97193571D01*
X113363095Y-96707857D02*
X113325000Y-96679285D01*
X113286904Y-96622142D01*
X113286904Y-96479285D01*
X113325000Y-96422142D01*
X113363095Y-96393571D01*
X113439285Y-96365000D01*
X113515476Y-96365000D01*
X113629761Y-96393571D01*
X114086904Y-96736428D01*
X114086904Y-96365000D01*
X113286904Y-96165000D02*
X113286904Y-95793571D01*
X113591666Y-95993571D01*
X113591666Y-95907857D01*
X113629761Y-95850714D01*
X113667857Y-95822142D01*
X113744047Y-95793571D01*
X113934523Y-95793571D01*
X114010714Y-95822142D01*
X114048809Y-95850714D01*
X114086904Y-95907857D01*
X114086904Y-96079285D01*
X114048809Y-96136428D01*
X114010714Y-96165000D01*
X122011904Y-99860714D02*
X121630952Y-100060714D01*
X122011904Y-100203571D02*
X121211904Y-100203571D01*
X121211904Y-99975000D01*
X121250000Y-99917857D01*
X121288095Y-99889285D01*
X121364285Y-99860714D01*
X121478571Y-99860714D01*
X121554761Y-99889285D01*
X121592857Y-99917857D01*
X121630952Y-99975000D01*
X121630952Y-100203571D01*
X121211904Y-99346428D02*
X121211904Y-99460714D01*
X121250000Y-99517857D01*
X121288095Y-99546428D01*
X121402380Y-99603571D01*
X121554761Y-99632142D01*
X121859523Y-99632142D01*
X121935714Y-99603571D01*
X121973809Y-99575000D01*
X122011904Y-99517857D01*
X122011904Y-99403571D01*
X121973809Y-99346428D01*
X121935714Y-99317857D01*
X121859523Y-99289285D01*
X121669047Y-99289285D01*
X121592857Y-99317857D01*
X121554761Y-99346428D01*
X121516666Y-99403571D01*
X121516666Y-99517857D01*
X121554761Y-99575000D01*
X121592857Y-99603571D01*
X121669047Y-99632142D01*
X121288095Y-99060714D02*
X121250000Y-99032142D01*
X121211904Y-98975000D01*
X121211904Y-98832142D01*
X121250000Y-98775000D01*
X121288095Y-98746428D01*
X121364285Y-98717857D01*
X121440476Y-98717857D01*
X121554761Y-98746428D01*
X122011904Y-99089285D01*
X122011904Y-98717857D01*
X137339285Y-72461904D02*
X137139285Y-72080952D01*
X136996428Y-72461904D02*
X136996428Y-71661904D01*
X137225000Y-71661904D01*
X137282142Y-71700000D01*
X137310714Y-71738095D01*
X137339285Y-71814285D01*
X137339285Y-71928571D01*
X137310714Y-72004761D01*
X137282142Y-72042857D01*
X137225000Y-72080952D01*
X136996428Y-72080952D01*
X137567857Y-71738095D02*
X137596428Y-71700000D01*
X137653571Y-71661904D01*
X137796428Y-71661904D01*
X137853571Y-71700000D01*
X137882142Y-71738095D01*
X137910714Y-71814285D01*
X137910714Y-71890476D01*
X137882142Y-72004761D01*
X137539285Y-72461904D01*
X137910714Y-72461904D01*
X138482142Y-72461904D02*
X138139285Y-72461904D01*
X138310714Y-72461904D02*
X138310714Y-71661904D01*
X138253571Y-71776190D01*
X138196428Y-71852380D01*
X138139285Y-71890476D01*
X153542857Y-66161904D02*
X153542857Y-66809523D01*
X153571428Y-66885714D01*
X153600000Y-66923809D01*
X153657142Y-66961904D01*
X153771428Y-66961904D01*
X153828571Y-66923809D01*
X153857142Y-66885714D01*
X153885714Y-66809523D01*
X153885714Y-66161904D01*
X154428571Y-66428571D02*
X154428571Y-66961904D01*
X154285714Y-66123809D02*
X154142857Y-66695238D01*
X154514285Y-66695238D01*
X162085714Y-75785714D02*
X162123809Y-75814285D01*
X162161904Y-75900000D01*
X162161904Y-75957142D01*
X162123809Y-76042857D01*
X162047619Y-76100000D01*
X161971428Y-76128571D01*
X161819047Y-76157142D01*
X161704761Y-76157142D01*
X161552380Y-76128571D01*
X161476190Y-76100000D01*
X161400000Y-76042857D01*
X161361904Y-75957142D01*
X161361904Y-75900000D01*
X161400000Y-75814285D01*
X161438095Y-75785714D01*
X161361904Y-75585714D02*
X161361904Y-75214285D01*
X161666666Y-75414285D01*
X161666666Y-75328571D01*
X161704761Y-75271428D01*
X161742857Y-75242857D01*
X161819047Y-75214285D01*
X162009523Y-75214285D01*
X162085714Y-75242857D01*
X162123809Y-75271428D01*
X162161904Y-75328571D01*
X162161904Y-75500000D01*
X162123809Y-75557142D01*
X162085714Y-75585714D01*
X162161904Y-74928571D02*
X162161904Y-74814285D01*
X162123809Y-74757142D01*
X162085714Y-74728571D01*
X161971428Y-74671428D01*
X161819047Y-74642857D01*
X161514285Y-74642857D01*
X161438095Y-74671428D01*
X161400000Y-74700000D01*
X161361904Y-74757142D01*
X161361904Y-74871428D01*
X161400000Y-74928571D01*
X161438095Y-74957142D01*
X161514285Y-74985714D01*
X161704761Y-74985714D01*
X161780952Y-74957142D01*
X161819047Y-74928571D01*
X161857142Y-74871428D01*
X161857142Y-74757142D01*
X161819047Y-74700000D01*
X161780952Y-74671428D01*
X161704761Y-74642857D01*
X131611904Y-129735714D02*
X131230952Y-129935714D01*
X131611904Y-130078571D02*
X130811904Y-130078571D01*
X130811904Y-129850000D01*
X130850000Y-129792857D01*
X130888095Y-129764285D01*
X130964285Y-129735714D01*
X131078571Y-129735714D01*
X131154761Y-129764285D01*
X131192857Y-129792857D01*
X131230952Y-129850000D01*
X131230952Y-130078571D01*
X131611904Y-129164285D02*
X131611904Y-129507142D01*
X131611904Y-129335714D02*
X130811904Y-129335714D01*
X130926190Y-129392857D01*
X131002380Y-129450000D01*
X131040476Y-129507142D01*
X130811904Y-128650000D02*
X130811904Y-128764285D01*
X130850000Y-128821428D01*
X130888095Y-128850000D01*
X131002380Y-128907142D01*
X131154761Y-128935714D01*
X131459523Y-128935714D01*
X131535714Y-128907142D01*
X131573809Y-128878571D01*
X131611904Y-128821428D01*
X131611904Y-128707142D01*
X131573809Y-128650000D01*
X131535714Y-128621428D01*
X131459523Y-128592857D01*
X131269047Y-128592857D01*
X131192857Y-128621428D01*
X131154761Y-128650000D01*
X131116666Y-128707142D01*
X131116666Y-128821428D01*
X131154761Y-128878571D01*
X131192857Y-128907142D01*
X131269047Y-128935714D01*
X177450000Y-80685714D02*
X177421428Y-80723809D01*
X177335714Y-80761904D01*
X177278571Y-80761904D01*
X177192857Y-80723809D01*
X177135714Y-80647619D01*
X177107142Y-80571428D01*
X177078571Y-80419047D01*
X177078571Y-80304761D01*
X177107142Y-80152380D01*
X177135714Y-80076190D01*
X177192857Y-80000000D01*
X177278571Y-79961904D01*
X177335714Y-79961904D01*
X177421428Y-80000000D01*
X177450000Y-80038095D01*
X177650000Y-79961904D02*
X178021428Y-79961904D01*
X177821428Y-80266666D01*
X177907142Y-80266666D01*
X177964285Y-80304761D01*
X177992857Y-80342857D01*
X178021428Y-80419047D01*
X178021428Y-80609523D01*
X177992857Y-80685714D01*
X177964285Y-80723809D01*
X177907142Y-80761904D01*
X177735714Y-80761904D01*
X177678571Y-80723809D01*
X177650000Y-80685714D01*
X112900000Y-132161904D02*
X112900000Y-132733333D01*
X112871428Y-132847619D01*
X112814285Y-132923809D01*
X112728571Y-132961904D01*
X112671428Y-132961904D01*
X113128571Y-132161904D02*
X113500000Y-132161904D01*
X113300000Y-132466666D01*
X113385714Y-132466666D01*
X113442857Y-132504761D01*
X113471428Y-132542857D01*
X113500000Y-132619047D01*
X113500000Y-132809523D01*
X113471428Y-132885714D01*
X113442857Y-132923809D01*
X113385714Y-132961904D01*
X113214285Y-132961904D01*
X113157142Y-132923809D01*
X113128571Y-132885714D01*
X122489285Y-82930714D02*
X122460714Y-82968809D01*
X122375000Y-83006904D01*
X122317857Y-83006904D01*
X122232142Y-82968809D01*
X122175000Y-82892619D01*
X122146428Y-82816428D01*
X122117857Y-82664047D01*
X122117857Y-82549761D01*
X122146428Y-82397380D01*
X122175000Y-82321190D01*
X122232142Y-82245000D01*
X122317857Y-82206904D01*
X122375000Y-82206904D01*
X122460714Y-82245000D01*
X122489285Y-82283095D01*
X123032142Y-82206904D02*
X122746428Y-82206904D01*
X122717857Y-82587857D01*
X122746428Y-82549761D01*
X122803571Y-82511666D01*
X122946428Y-82511666D01*
X123003571Y-82549761D01*
X123032142Y-82587857D01*
X123060714Y-82664047D01*
X123060714Y-82854523D01*
X123032142Y-82930714D01*
X123003571Y-82968809D01*
X122946428Y-83006904D01*
X122803571Y-83006904D01*
X122746428Y-82968809D01*
X122717857Y-82930714D01*
X123575000Y-82206904D02*
X123460714Y-82206904D01*
X123403571Y-82245000D01*
X123375000Y-82283095D01*
X123317857Y-82397380D01*
X123289285Y-82549761D01*
X123289285Y-82854523D01*
X123317857Y-82930714D01*
X123346428Y-82968809D01*
X123403571Y-83006904D01*
X123517857Y-83006904D01*
X123575000Y-82968809D01*
X123603571Y-82930714D01*
X123632142Y-82854523D01*
X123632142Y-82664047D01*
X123603571Y-82587857D01*
X123575000Y-82549761D01*
X123517857Y-82511666D01*
X123403571Y-82511666D01*
X123346428Y-82549761D01*
X123317857Y-82587857D01*
X123289285Y-82664047D01*
X156523095Y-136686996D02*
X156485000Y-136744139D01*
X156408809Y-136801281D01*
X156294523Y-136886996D01*
X156256428Y-136944139D01*
X156256428Y-137001281D01*
X156446904Y-136972710D02*
X156408809Y-137029853D01*
X156332619Y-137086996D01*
X156180238Y-137115567D01*
X155913571Y-137115567D01*
X155761190Y-137086996D01*
X155685000Y-137029853D01*
X155646904Y-136972710D01*
X155646904Y-136858424D01*
X155685000Y-136801281D01*
X155761190Y-136744139D01*
X155913571Y-136715567D01*
X156180238Y-136715567D01*
X156332619Y-136744139D01*
X156408809Y-136801281D01*
X156446904Y-136858424D01*
X156446904Y-136972710D01*
X156446904Y-136144139D02*
X156446904Y-136486996D01*
X156446904Y-136315567D02*
X155646904Y-136315567D01*
X155761190Y-136372710D01*
X155837380Y-136429853D01*
X155875476Y-136486996D01*
X155989761Y-135801281D02*
X155951666Y-135858424D01*
X155913571Y-135886996D01*
X155837380Y-135915567D01*
X155799285Y-135915567D01*
X155723095Y-135886996D01*
X155685000Y-135858424D01*
X155646904Y-135801281D01*
X155646904Y-135686996D01*
X155685000Y-135629853D01*
X155723095Y-135601281D01*
X155799285Y-135572710D01*
X155837380Y-135572710D01*
X155913571Y-135601281D01*
X155951666Y-135629853D01*
X155989761Y-135686996D01*
X155989761Y-135801281D01*
X156027857Y-135858424D01*
X156065952Y-135886996D01*
X156142142Y-135915567D01*
X156294523Y-135915567D01*
X156370714Y-135886996D01*
X156408809Y-135858424D01*
X156446904Y-135801281D01*
X156446904Y-135686996D01*
X156408809Y-135629853D01*
X156370714Y-135601281D01*
X156294523Y-135572710D01*
X156142142Y-135572710D01*
X156065952Y-135601281D01*
X156027857Y-135629853D01*
X155989761Y-135686996D01*
X127242857Y-72738095D02*
X127185714Y-72700000D01*
X127128571Y-72623809D01*
X127042857Y-72509523D01*
X126985714Y-72471428D01*
X126928571Y-72471428D01*
X126957142Y-72661904D02*
X126900000Y-72623809D01*
X126842857Y-72547619D01*
X126814285Y-72395238D01*
X126814285Y-72128571D01*
X126842857Y-71976190D01*
X126900000Y-71900000D01*
X126957142Y-71861904D01*
X127071428Y-71861904D01*
X127128571Y-71900000D01*
X127185714Y-71976190D01*
X127214285Y-72128571D01*
X127214285Y-72395238D01*
X127185714Y-72547619D01*
X127128571Y-72623809D01*
X127071428Y-72661904D01*
X126957142Y-72661904D01*
X127500000Y-72661904D02*
X127614285Y-72661904D01*
X127671428Y-72623809D01*
X127700000Y-72585714D01*
X127757142Y-72471428D01*
X127785714Y-72319047D01*
X127785714Y-72014285D01*
X127757142Y-71938095D01*
X127728571Y-71900000D01*
X127671428Y-71861904D01*
X127557142Y-71861904D01*
X127500000Y-71900000D01*
X127471428Y-71938095D01*
X127442857Y-72014285D01*
X127442857Y-72204761D01*
X127471428Y-72280952D01*
X127500000Y-72319047D01*
X127557142Y-72357142D01*
X127671428Y-72357142D01*
X127728571Y-72319047D01*
X127757142Y-72280952D01*
X127785714Y-72204761D01*
X185500000Y-119461904D02*
X185500000Y-120033333D01*
X185471428Y-120147619D01*
X185414285Y-120223809D01*
X185328571Y-120261904D01*
X185271428Y-120261904D01*
X186042857Y-119461904D02*
X185928571Y-119461904D01*
X185871428Y-119500000D01*
X185842857Y-119538095D01*
X185785714Y-119652380D01*
X185757142Y-119804761D01*
X185757142Y-120109523D01*
X185785714Y-120185714D01*
X185814285Y-120223809D01*
X185871428Y-120261904D01*
X185985714Y-120261904D01*
X186042857Y-120223809D01*
X186071428Y-120185714D01*
X186100000Y-120109523D01*
X186100000Y-119919047D01*
X186071428Y-119842857D01*
X186042857Y-119804761D01*
X185985714Y-119766666D01*
X185871428Y-119766666D01*
X185814285Y-119804761D01*
X185785714Y-119842857D01*
X185757142Y-119919047D01*
X160575000Y-67361904D02*
X160289285Y-67361904D01*
X160289285Y-66561904D01*
X160717857Y-66561904D02*
X161089285Y-66561904D01*
X160889285Y-66866666D01*
X160975000Y-66866666D01*
X161032142Y-66904761D01*
X161060714Y-66942857D01*
X161089285Y-67019047D01*
X161089285Y-67209523D01*
X161060714Y-67285714D01*
X161032142Y-67323809D01*
X160975000Y-67361904D01*
X160803571Y-67361904D01*
X160746428Y-67323809D01*
X160717857Y-67285714D01*
X155284285Y-65785714D02*
X155255714Y-65823809D01*
X155170000Y-65861904D01*
X155112857Y-65861904D01*
X155027142Y-65823809D01*
X154970000Y-65747619D01*
X154941428Y-65671428D01*
X154912857Y-65519047D01*
X154912857Y-65404761D01*
X154941428Y-65252380D01*
X154970000Y-65176190D01*
X155027142Y-65100000D01*
X155112857Y-65061904D01*
X155170000Y-65061904D01*
X155255714Y-65100000D01*
X155284285Y-65138095D01*
X155484285Y-65061904D02*
X155855714Y-65061904D01*
X155655714Y-65366666D01*
X155741428Y-65366666D01*
X155798571Y-65404761D01*
X155827142Y-65442857D01*
X155855714Y-65519047D01*
X155855714Y-65709523D01*
X155827142Y-65785714D01*
X155798571Y-65823809D01*
X155741428Y-65861904D01*
X155570000Y-65861904D01*
X155512857Y-65823809D01*
X155484285Y-65785714D01*
X156055714Y-65061904D02*
X156427142Y-65061904D01*
X156227142Y-65366666D01*
X156312857Y-65366666D01*
X156370000Y-65404761D01*
X156398571Y-65442857D01*
X156427142Y-65519047D01*
X156427142Y-65709523D01*
X156398571Y-65785714D01*
X156370000Y-65823809D01*
X156312857Y-65861904D01*
X156141428Y-65861904D01*
X156084285Y-65823809D01*
X156055714Y-65785714D01*
X177250000Y-66635714D02*
X177221428Y-66673809D01*
X177135714Y-66711904D01*
X177078571Y-66711904D01*
X176992857Y-66673809D01*
X176935714Y-66597619D01*
X176907142Y-66521428D01*
X176878571Y-66369047D01*
X176878571Y-66254761D01*
X176907142Y-66102380D01*
X176935714Y-66026190D01*
X176992857Y-65950000D01*
X177078571Y-65911904D01*
X177135714Y-65911904D01*
X177221428Y-65950000D01*
X177250000Y-65988095D01*
X177792857Y-65911904D02*
X177507142Y-65911904D01*
X177478571Y-66292857D01*
X177507142Y-66254761D01*
X177564285Y-66216666D01*
X177707142Y-66216666D01*
X177764285Y-66254761D01*
X177792857Y-66292857D01*
X177821428Y-66369047D01*
X177821428Y-66559523D01*
X177792857Y-66635714D01*
X177764285Y-66673809D01*
X177707142Y-66711904D01*
X177564285Y-66711904D01*
X177507142Y-66673809D01*
X177478571Y-66635714D01*
X131485714Y-117080714D02*
X131523809Y-117109285D01*
X131561904Y-117195000D01*
X131561904Y-117252142D01*
X131523809Y-117337857D01*
X131447619Y-117395000D01*
X131371428Y-117423571D01*
X131219047Y-117452142D01*
X131104761Y-117452142D01*
X130952380Y-117423571D01*
X130876190Y-117395000D01*
X130800000Y-117337857D01*
X130761904Y-117252142D01*
X130761904Y-117195000D01*
X130800000Y-117109285D01*
X130838095Y-117080714D01*
X130838095Y-116852142D02*
X130800000Y-116823571D01*
X130761904Y-116766428D01*
X130761904Y-116623571D01*
X130800000Y-116566428D01*
X130838095Y-116537857D01*
X130914285Y-116509285D01*
X130990476Y-116509285D01*
X131104761Y-116537857D01*
X131561904Y-116880714D01*
X131561904Y-116509285D01*
X130761904Y-115966428D02*
X130761904Y-116252142D01*
X131142857Y-116280714D01*
X131104761Y-116252142D01*
X131066666Y-116195000D01*
X131066666Y-116052142D01*
X131104761Y-115995000D01*
X131142857Y-115966428D01*
X131219047Y-115937857D01*
X131409523Y-115937857D01*
X131485714Y-115966428D01*
X131523809Y-115995000D01*
X131561904Y-116052142D01*
X131561904Y-116195000D01*
X131523809Y-116252142D01*
X131485714Y-116280714D01*
X165937299Y-73018889D02*
X165937299Y-73666508D01*
X165965870Y-73742699D01*
X165994442Y-73780794D01*
X166051584Y-73818889D01*
X166165870Y-73818889D01*
X166223013Y-73780794D01*
X166251584Y-73742699D01*
X166280156Y-73666508D01*
X166280156Y-73018889D01*
X166823013Y-73018889D02*
X166708727Y-73018889D01*
X166651584Y-73056985D01*
X166623013Y-73095080D01*
X166565870Y-73209365D01*
X166537299Y-73361746D01*
X166537299Y-73666508D01*
X166565870Y-73742699D01*
X166594442Y-73780794D01*
X166651584Y-73818889D01*
X166765870Y-73818889D01*
X166823013Y-73780794D01*
X166851584Y-73742699D01*
X166880156Y-73666508D01*
X166880156Y-73476032D01*
X166851584Y-73399842D01*
X166823013Y-73361746D01*
X166765870Y-73323651D01*
X166651584Y-73323651D01*
X166594442Y-73361746D01*
X166565870Y-73399842D01*
X166537299Y-73476032D01*
X111692857Y-112260000D02*
X111692857Y-112460000D01*
X112111904Y-112460000D02*
X111311904Y-112460000D01*
X111311904Y-112174285D01*
X111311904Y-112002857D02*
X111311904Y-111631428D01*
X111616666Y-111831428D01*
X111616666Y-111745714D01*
X111654761Y-111688571D01*
X111692857Y-111660000D01*
X111769047Y-111631428D01*
X111959523Y-111631428D01*
X112035714Y-111660000D01*
X112073809Y-111688571D01*
X112111904Y-111745714D01*
X112111904Y-111917142D01*
X112073809Y-111974285D01*
X112035714Y-112002857D01*
X164261904Y-84750000D02*
X163880952Y-84950000D01*
X164261904Y-85092857D02*
X163461904Y-85092857D01*
X163461904Y-84864285D01*
X163500000Y-84807142D01*
X163538095Y-84778571D01*
X163614285Y-84750000D01*
X163728571Y-84750000D01*
X163804761Y-84778571D01*
X163842857Y-84807142D01*
X163880952Y-84864285D01*
X163880952Y-85092857D01*
X163538095Y-84521428D02*
X163500000Y-84492857D01*
X163461904Y-84435714D01*
X163461904Y-84292857D01*
X163500000Y-84235714D01*
X163538095Y-84207142D01*
X163614285Y-84178571D01*
X163690476Y-84178571D01*
X163804761Y-84207142D01*
X164261904Y-84550000D01*
X164261904Y-84178571D01*
X169535714Y-73585714D02*
X169573809Y-73614285D01*
X169611904Y-73700000D01*
X169611904Y-73757142D01*
X169573809Y-73842857D01*
X169497619Y-73900000D01*
X169421428Y-73928571D01*
X169269047Y-73957142D01*
X169154761Y-73957142D01*
X169002380Y-73928571D01*
X168926190Y-73900000D01*
X168850000Y-73842857D01*
X168811904Y-73757142D01*
X168811904Y-73700000D01*
X168850000Y-73614285D01*
X168888095Y-73585714D01*
X169078571Y-73071428D02*
X169611904Y-73071428D01*
X168773809Y-73214285D02*
X169345238Y-73357142D01*
X169345238Y-72985714D01*
X168811904Y-72642857D02*
X168811904Y-72585714D01*
X168850000Y-72528571D01*
X168888095Y-72500000D01*
X168964285Y-72471428D01*
X169116666Y-72442857D01*
X169307142Y-72442857D01*
X169459523Y-72471428D01*
X169535714Y-72500000D01*
X169573809Y-72528571D01*
X169611904Y-72585714D01*
X169611904Y-72642857D01*
X169573809Y-72700000D01*
X169535714Y-72728571D01*
X169459523Y-72757142D01*
X169307142Y-72785714D01*
X169116666Y-72785714D01*
X168964285Y-72757142D01*
X168888095Y-72728571D01*
X168850000Y-72700000D01*
X168811904Y-72642857D01*
X123710739Y-72481398D02*
X123510739Y-72100446D01*
X123367882Y-72481398D02*
X123367882Y-71681398D01*
X123596454Y-71681398D01*
X123653596Y-71719494D01*
X123682168Y-71757589D01*
X123710739Y-71833779D01*
X123710739Y-71948065D01*
X123682168Y-72024255D01*
X123653596Y-72062351D01*
X123596454Y-72100446D01*
X123367882Y-72100446D01*
X123939311Y-71757589D02*
X123967882Y-71719494D01*
X124025025Y-71681398D01*
X124167882Y-71681398D01*
X124225025Y-71719494D01*
X124253596Y-71757589D01*
X124282168Y-71833779D01*
X124282168Y-71909970D01*
X124253596Y-72024255D01*
X123910739Y-72481398D01*
X124282168Y-72481398D01*
X124796454Y-71948065D02*
X124796454Y-72481398D01*
X124653596Y-71643303D02*
X124510739Y-72214732D01*
X124882168Y-72214732D01*
X163289285Y-66635714D02*
X163260714Y-66673809D01*
X163175000Y-66711904D01*
X163117857Y-66711904D01*
X163032142Y-66673809D01*
X162975000Y-66597619D01*
X162946428Y-66521428D01*
X162917857Y-66369047D01*
X162917857Y-66254761D01*
X162946428Y-66102380D01*
X162975000Y-66026190D01*
X163032142Y-65950000D01*
X163117857Y-65911904D01*
X163175000Y-65911904D01*
X163260714Y-65950000D01*
X163289285Y-65988095D01*
X163489285Y-65911904D02*
X163860714Y-65911904D01*
X163660714Y-66216666D01*
X163746428Y-66216666D01*
X163803571Y-66254761D01*
X163832142Y-66292857D01*
X163860714Y-66369047D01*
X163860714Y-66559523D01*
X163832142Y-66635714D01*
X163803571Y-66673809D01*
X163746428Y-66711904D01*
X163575000Y-66711904D01*
X163517857Y-66673809D01*
X163489285Y-66635714D01*
X164203571Y-66254761D02*
X164146428Y-66216666D01*
X164117857Y-66178571D01*
X164089285Y-66102380D01*
X164089285Y-66064285D01*
X164117857Y-65988095D01*
X164146428Y-65950000D01*
X164203571Y-65911904D01*
X164317857Y-65911904D01*
X164375000Y-65950000D01*
X164403571Y-65988095D01*
X164432142Y-66064285D01*
X164432142Y-66102380D01*
X164403571Y-66178571D01*
X164375000Y-66216666D01*
X164317857Y-66254761D01*
X164203571Y-66254761D01*
X164146428Y-66292857D01*
X164117857Y-66330952D01*
X164089285Y-66407142D01*
X164089285Y-66559523D01*
X164117857Y-66635714D01*
X164146428Y-66673809D01*
X164203571Y-66711904D01*
X164317857Y-66711904D01*
X164375000Y-66673809D01*
X164403571Y-66635714D01*
X164432142Y-66559523D01*
X164432142Y-66407142D01*
X164403571Y-66330952D01*
X164375000Y-66292857D01*
X164317857Y-66254761D01*
X129342857Y-76338095D02*
X129285714Y-76300000D01*
X129228571Y-76223809D01*
X129142857Y-76109523D01*
X129085714Y-76071428D01*
X129028571Y-76071428D01*
X129057142Y-76261904D02*
X129000000Y-76223809D01*
X128942857Y-76147619D01*
X128914285Y-75995238D01*
X128914285Y-75728571D01*
X128942857Y-75576190D01*
X129000000Y-75500000D01*
X129057142Y-75461904D01*
X129171428Y-75461904D01*
X129228571Y-75500000D01*
X129285714Y-75576190D01*
X129314285Y-75728571D01*
X129314285Y-75995238D01*
X129285714Y-76147619D01*
X129228571Y-76223809D01*
X129171428Y-76261904D01*
X129057142Y-76261904D01*
X129857142Y-75461904D02*
X129571428Y-75461904D01*
X129542857Y-75842857D01*
X129571428Y-75804761D01*
X129628571Y-75766666D01*
X129771428Y-75766666D01*
X129828571Y-75804761D01*
X129857142Y-75842857D01*
X129885714Y-75919047D01*
X129885714Y-76109523D01*
X129857142Y-76185714D01*
X129828571Y-76223809D01*
X129771428Y-76261904D01*
X129628571Y-76261904D01*
X129571428Y-76223809D01*
X129542857Y-76185714D01*
X125739285Y-107555714D02*
X125710714Y-107593809D01*
X125625000Y-107631904D01*
X125567857Y-107631904D01*
X125482142Y-107593809D01*
X125425000Y-107517619D01*
X125396428Y-107441428D01*
X125367857Y-107289047D01*
X125367857Y-107174761D01*
X125396428Y-107022380D01*
X125425000Y-106946190D01*
X125482142Y-106870000D01*
X125567857Y-106831904D01*
X125625000Y-106831904D01*
X125710714Y-106870000D01*
X125739285Y-106908095D01*
X126253571Y-107098571D02*
X126253571Y-107631904D01*
X126110714Y-106793809D02*
X125967857Y-107365238D01*
X126339285Y-107365238D01*
X126596428Y-107631904D02*
X126710714Y-107631904D01*
X126767857Y-107593809D01*
X126796428Y-107555714D01*
X126853571Y-107441428D01*
X126882142Y-107289047D01*
X126882142Y-106984285D01*
X126853571Y-106908095D01*
X126825000Y-106870000D01*
X126767857Y-106831904D01*
X126653571Y-106831904D01*
X126596428Y-106870000D01*
X126567857Y-106908095D01*
X126539285Y-106984285D01*
X126539285Y-107174761D01*
X126567857Y-107250952D01*
X126596428Y-107289047D01*
X126653571Y-107327142D01*
X126767857Y-107327142D01*
X126825000Y-107289047D01*
X126853571Y-107250952D01*
X126882142Y-107174761D01*
X119261904Y-65335714D02*
X118880952Y-65535714D01*
X119261904Y-65678571D02*
X118461904Y-65678571D01*
X118461904Y-65450000D01*
X118500000Y-65392857D01*
X118538095Y-65364285D01*
X118614285Y-65335714D01*
X118728571Y-65335714D01*
X118804761Y-65364285D01*
X118842857Y-65392857D01*
X118880952Y-65450000D01*
X118880952Y-65678571D01*
X118461904Y-65135714D02*
X118461904Y-64764285D01*
X118766666Y-64964285D01*
X118766666Y-64878571D01*
X118804761Y-64821428D01*
X118842857Y-64792857D01*
X118919047Y-64764285D01*
X119109523Y-64764285D01*
X119185714Y-64792857D01*
X119223809Y-64821428D01*
X119261904Y-64878571D01*
X119261904Y-65050000D01*
X119223809Y-65107142D01*
X119185714Y-65135714D01*
X118461904Y-64564285D02*
X118461904Y-64192857D01*
X118766666Y-64392857D01*
X118766666Y-64307142D01*
X118804761Y-64250000D01*
X118842857Y-64221428D01*
X118919047Y-64192857D01*
X119109523Y-64192857D01*
X119185714Y-64221428D01*
X119223809Y-64250000D01*
X119261904Y-64307142D01*
X119261904Y-64478571D01*
X119223809Y-64535714D01*
X119185714Y-64564285D01*
X156004285Y-74785714D02*
X155975714Y-74823809D01*
X155890000Y-74861904D01*
X155832857Y-74861904D01*
X155747142Y-74823809D01*
X155690000Y-74747619D01*
X155661428Y-74671428D01*
X155632857Y-74519047D01*
X155632857Y-74404761D01*
X155661428Y-74252380D01*
X155690000Y-74176190D01*
X155747142Y-74100000D01*
X155832857Y-74061904D01*
X155890000Y-74061904D01*
X155975714Y-74100000D01*
X156004285Y-74138095D01*
X156204285Y-74061904D02*
X156575714Y-74061904D01*
X156375714Y-74366666D01*
X156461428Y-74366666D01*
X156518571Y-74404761D01*
X156547142Y-74442857D01*
X156575714Y-74519047D01*
X156575714Y-74709523D01*
X156547142Y-74785714D01*
X156518571Y-74823809D01*
X156461428Y-74861904D01*
X156290000Y-74861904D01*
X156232857Y-74823809D01*
X156204285Y-74785714D01*
X157090000Y-74328571D02*
X157090000Y-74861904D01*
X156947142Y-74023809D02*
X156804285Y-74595238D01*
X157175714Y-74595238D01*
X114163095Y-112755206D02*
X114125000Y-112812349D01*
X114048809Y-112869491D01*
X113934523Y-112955206D01*
X113896428Y-113012349D01*
X113896428Y-113069491D01*
X114086904Y-113040920D02*
X114048809Y-113098063D01*
X113972619Y-113155206D01*
X113820238Y-113183777D01*
X113553571Y-113183777D01*
X113401190Y-113155206D01*
X113325000Y-113098063D01*
X113286904Y-113040920D01*
X113286904Y-112926634D01*
X113325000Y-112869491D01*
X113401190Y-112812349D01*
X113553571Y-112783777D01*
X113820238Y-112783777D01*
X113972619Y-112812349D01*
X114048809Y-112869491D01*
X114086904Y-112926634D01*
X114086904Y-113040920D01*
X114086904Y-112212349D02*
X114086904Y-112555206D01*
X114086904Y-112383777D02*
X113286904Y-112383777D01*
X113401190Y-112440920D01*
X113477380Y-112498063D01*
X113515476Y-112555206D01*
X114086904Y-111926634D02*
X114086904Y-111812349D01*
X114048809Y-111755206D01*
X114010714Y-111726634D01*
X113896428Y-111669491D01*
X113744047Y-111640920D01*
X113439285Y-111640920D01*
X113363095Y-111669491D01*
X113325000Y-111698063D01*
X113286904Y-111755206D01*
X113286904Y-111869491D01*
X113325000Y-111926634D01*
X113363095Y-111955206D01*
X113439285Y-111983777D01*
X113629761Y-111983777D01*
X113705952Y-111955206D01*
X113744047Y-111926634D01*
X113782142Y-111869491D01*
X113782142Y-111755206D01*
X113744047Y-111698063D01*
X113705952Y-111669491D01*
X113629761Y-111640920D01*
X157057142Y-99461904D02*
X157057142Y-98661904D01*
X157200000Y-98661904D01*
X157285714Y-98700000D01*
X157342857Y-98776190D01*
X157371428Y-98852380D01*
X157400000Y-99004761D01*
X157400000Y-99119047D01*
X157371428Y-99271428D01*
X157342857Y-99347619D01*
X157285714Y-99423809D01*
X157200000Y-99461904D01*
X157057142Y-99461904D01*
X157914285Y-98928571D02*
X157914285Y-99461904D01*
X157771428Y-98623809D02*
X157628571Y-99195238D01*
X158000000Y-99195238D01*
X151911904Y-77235714D02*
X151530952Y-77435714D01*
X151911904Y-77578571D02*
X151111904Y-77578571D01*
X151111904Y-77350000D01*
X151150000Y-77292857D01*
X151188095Y-77264285D01*
X151264285Y-77235714D01*
X151378571Y-77235714D01*
X151454761Y-77264285D01*
X151492857Y-77292857D01*
X151530952Y-77350000D01*
X151530952Y-77578571D01*
X151378571Y-76721428D02*
X151911904Y-76721428D01*
X151073809Y-76864285D02*
X151645238Y-77007142D01*
X151645238Y-76635714D01*
X151111904Y-76464285D02*
X151111904Y-76092857D01*
X151416666Y-76292857D01*
X151416666Y-76207142D01*
X151454761Y-76150000D01*
X151492857Y-76121428D01*
X151569047Y-76092857D01*
X151759523Y-76092857D01*
X151835714Y-76121428D01*
X151873809Y-76150000D01*
X151911904Y-76207142D01*
X151911904Y-76378571D01*
X151873809Y-76435714D01*
X151835714Y-76464285D01*
X122539285Y-107555714D02*
X122510714Y-107593809D01*
X122425000Y-107631904D01*
X122367857Y-107631904D01*
X122282142Y-107593809D01*
X122225000Y-107517619D01*
X122196428Y-107441428D01*
X122167857Y-107289047D01*
X122167857Y-107174761D01*
X122196428Y-107022380D01*
X122225000Y-106946190D01*
X122282142Y-106870000D01*
X122367857Y-106831904D01*
X122425000Y-106831904D01*
X122510714Y-106870000D01*
X122539285Y-106908095D01*
X123082142Y-106831904D02*
X122796428Y-106831904D01*
X122767857Y-107212857D01*
X122796428Y-107174761D01*
X122853571Y-107136666D01*
X122996428Y-107136666D01*
X123053571Y-107174761D01*
X123082142Y-107212857D01*
X123110714Y-107289047D01*
X123110714Y-107479523D01*
X123082142Y-107555714D01*
X123053571Y-107593809D01*
X122996428Y-107631904D01*
X122853571Y-107631904D01*
X122796428Y-107593809D01*
X122767857Y-107555714D01*
X123682142Y-107631904D02*
X123339285Y-107631904D01*
X123510714Y-107631904D02*
X123510714Y-106831904D01*
X123453571Y-106946190D01*
X123396428Y-107022380D01*
X123339285Y-107060476D01*
D12*
X139828641Y-72645000D02*
X139521359Y-72645000D01*
X139828641Y-73405000D02*
X139521359Y-73405000D01*
X144279000Y-66661420D02*
X144279000Y-66942580D01*
X143259000Y-66661420D02*
X143259000Y-66942580D01*
X119508000Y-66957641D02*
X119508000Y-66650359D01*
X120268000Y-66957641D02*
X120268000Y-66650359D01*
X167417856Y-77673641D02*
X167417856Y-77366359D01*
X166657856Y-77673641D02*
X166657856Y-77366359D01*
X118638500Y-71474800D02*
X118638500Y-70516740D01*
X118638500Y-68325200D02*
X116733500Y-68325200D01*
X116733500Y-69566739D02*
X116733500Y-70233261D01*
X118638500Y-69283260D02*
X118638500Y-68325200D01*
X116733500Y-71474800D02*
X118638500Y-71474800D01*
X116462200Y-68400000D02*
G75*
G03*
X116462200Y-68400000I-76200J0D01*
G01*
X131415000Y-103563748D02*
X131415000Y-104986252D01*
X134135000Y-103563748D02*
X134135000Y-104986252D01*
X127510000Y-84858748D02*
X127510000Y-86281252D01*
X124790000Y-84858748D02*
X124790000Y-86281252D01*
X165675000Y-68458748D02*
X165675000Y-69881252D01*
X168395000Y-68458748D02*
X168395000Y-69881252D01*
X138020000Y-76060000D02*
X138020000Y-75400000D01*
X138020000Y-74400000D02*
X138020000Y-73740000D01*
X139430000Y-73740000D02*
X138020000Y-73740000D01*
X138020000Y-76060000D02*
X140050000Y-76060000D01*
X125670500Y-69308261D02*
X125670500Y-68350201D01*
X125670500Y-68350201D02*
X123765500Y-68350201D01*
X123765500Y-69591740D02*
X123765500Y-70258262D01*
X123765500Y-71499801D02*
X125670500Y-71499801D01*
X125670500Y-71499801D02*
X125670500Y-70541741D01*
X123494200Y-68425001D02*
G75*
G03*
X123494200Y-68425001I-76200J0D01*
G01*
X186239899Y-72280099D02*
X186839899Y-71380099D01*
X184689899Y-78680099D02*
X187089899Y-78680099D01*
X185539899Y-72280099D02*
X184939899Y-71380099D01*
X186839899Y-71380099D02*
X186839899Y-71180099D01*
X184689899Y-72280099D02*
X184689899Y-78680099D01*
X187089899Y-72280099D02*
X184689899Y-72280099D01*
X187089899Y-78680099D02*
X187089899Y-72280099D01*
X184939899Y-71380099D02*
X184939899Y-71180099D01*
X170130000Y-128320000D02*
X170130000Y-132020000D01*
X163300000Y-128320000D02*
X156470000Y-128320000D01*
X156170000Y-132320000D02*
X158300000Y-132320000D01*
X163300000Y-128320000D02*
X170130000Y-128320000D01*
X156470000Y-132020000D02*
X160590000Y-132020000D01*
X156470000Y-128320000D02*
X156470000Y-132020000D01*
X166010000Y-132020000D02*
X166010000Y-134880000D01*
X166010000Y-134880000D02*
X163300000Y-134880000D01*
X160590000Y-132020000D02*
X160590000Y-134880000D01*
X160590000Y-134880000D02*
X163300000Y-134880000D01*
X170130000Y-132020000D02*
X166010000Y-132020000D01*
X156170000Y-130170000D02*
X156170000Y-132320000D01*
X165632856Y-77366359D02*
X165632856Y-77673641D01*
X166392856Y-77366359D02*
X166392856Y-77673641D01*
X119590000Y-119327064D02*
X119590000Y-117872936D01*
X121410000Y-119327064D02*
X121410000Y-117872936D01*
X179921788Y-81370000D02*
X180229070Y-81370000D01*
X179921788Y-82130000D02*
X180229070Y-82130000D01*
X186130000Y-131390000D02*
X186130000Y-130730000D01*
X186130000Y-129730000D02*
X186130000Y-129070000D01*
X187540000Y-129070000D02*
X186130000Y-129070000D01*
X186130000Y-131390000D02*
X188160000Y-131390000D01*
D13*
X121550000Y-101217349D02*
X134050000Y-101217349D01*
X134050000Y-88717349D02*
X121550000Y-88717349D01*
D12*
X120140000Y-101267164D02*
X120140000Y-101482836D01*
X120860000Y-101267164D02*
X120860000Y-101482836D01*
X142874000Y-66955641D02*
X142874000Y-66648359D01*
X142114000Y-66955641D02*
X142114000Y-66648359D01*
X128676104Y-66561420D02*
X128676104Y-66842580D01*
X127656104Y-66561420D02*
X127656104Y-66842580D01*
X133225000Y-66658359D02*
X133225000Y-66965641D01*
X133985000Y-66658359D02*
X133985000Y-66965641D01*
D14*
X125200000Y-136205000D02*
X124000000Y-136205000D01*
X124600000Y-135605000D02*
X124600000Y-136805000D01*
X122200000Y-136205000D02*
X121000000Y-136205000D01*
D12*
X126511104Y-66955641D02*
X126511104Y-66648359D01*
X127271104Y-66955641D02*
X127271104Y-66648359D01*
X156415000Y-121530000D02*
X156415000Y-126730000D01*
X162825000Y-121530000D02*
X164155000Y-121530000D01*
X161555000Y-121530000D02*
X156415000Y-121530000D01*
X161555000Y-124130000D02*
X164155000Y-124130000D01*
X164155000Y-121530000D02*
X164155000Y-122860000D01*
X161555000Y-121530000D02*
X161555000Y-124130000D01*
X164155000Y-126730000D02*
X156415000Y-126730000D01*
X164155000Y-124130000D02*
X164155000Y-126730000D01*
X188565000Y-130431359D02*
X188565000Y-130738641D01*
X189325000Y-130431359D02*
X189325000Y-130738641D01*
X114631000Y-69746359D02*
X114631000Y-70053641D01*
X115391000Y-69746359D02*
X115391000Y-70053641D01*
X160625000Y-136540498D02*
X160625000Y-136847780D01*
X159865000Y-136540498D02*
X159865000Y-136847780D01*
X155060000Y-131520000D02*
X139940000Y-131520000D01*
X141750000Y-132280000D02*
X141750000Y-131530000D01*
X141750000Y-131530000D02*
X139950000Y-131530000D01*
X151750000Y-132280000D02*
X151750000Y-131530000D01*
X155060000Y-137490000D02*
X155060000Y-131520000D01*
X147500000Y-136730000D02*
X141760000Y-136730000D01*
X155050000Y-132280000D02*
X155050000Y-131530000D01*
X140900000Y-131230000D02*
X139650000Y-131230000D01*
X154300000Y-133780000D02*
X154300000Y-136730000D01*
X151750000Y-131530000D02*
X143250000Y-131530000D01*
X139950000Y-131530000D02*
X139950000Y-132280000D01*
X155050000Y-133780000D02*
X154300000Y-133780000D01*
X143250000Y-132280000D02*
X151750000Y-132280000D01*
X139650000Y-131230000D02*
X139650000Y-132480000D01*
X153250000Y-131530000D02*
X153250000Y-132280000D01*
X153250000Y-132280000D02*
X155050000Y-132280000D01*
X154300000Y-136730000D02*
X147500000Y-136730000D01*
X139950000Y-133780000D02*
X140700000Y-133780000D01*
X139940000Y-137490000D02*
X155060000Y-137490000D01*
X140700000Y-133780000D02*
X140700000Y-135120000D01*
X143250000Y-131530000D02*
X143250000Y-132280000D01*
X139940000Y-131520000D02*
X139940000Y-137490000D01*
X155050000Y-131530000D02*
X153250000Y-131530000D01*
X139950000Y-132280000D02*
X141750000Y-132280000D01*
X120520500Y-76099801D02*
X120520500Y-75141741D01*
X120520500Y-72950201D02*
X118615500Y-72950201D01*
X120520500Y-73908261D02*
X120520500Y-72950201D01*
X118615500Y-76099801D02*
X120520500Y-76099801D01*
X118615500Y-74191740D02*
X118615500Y-74858262D01*
X118344200Y-73025001D02*
G75*
G03*
X118344200Y-73025001I-76200J0D01*
G01*
X164130000Y-119890000D02*
X146230000Y-119890000D01*
X164130000Y-114690000D02*
X164130000Y-116020000D01*
X161530000Y-114690000D02*
X161530000Y-117290000D01*
X164130000Y-117290000D02*
X164130000Y-119890000D01*
X162800000Y-114690000D02*
X164130000Y-114690000D01*
X161530000Y-114690000D02*
X146230000Y-114690000D01*
X146230000Y-114690000D02*
X146230000Y-119890000D01*
X161530000Y-117290000D02*
X164130000Y-117290000D01*
X133452500Y-68350200D02*
X131547500Y-68350200D01*
X133452500Y-71499800D02*
X133452500Y-70541740D01*
X131547500Y-69591739D02*
X131547500Y-70258261D01*
X131547500Y-71499800D02*
X133452500Y-71499800D01*
X133452500Y-69308260D02*
X133452500Y-68350200D01*
X131276200Y-68425000D02*
G75*
G03*
X131276200Y-68425000I-76200J0D01*
G01*
X141252500Y-68325200D02*
X139347500Y-68325200D01*
X141252500Y-69283260D02*
X141252500Y-68325200D01*
X139347500Y-71474800D02*
X141252500Y-71474800D01*
X141252500Y-71474800D02*
X141252500Y-70516740D01*
X139347500Y-69566739D02*
X139347500Y-70233261D01*
X139076200Y-68400000D02*
G75*
G03*
X139076200Y-68400000I-76200J0D01*
G01*
X153168641Y-78315000D02*
X152861359Y-78315000D01*
X153168641Y-77555000D02*
X152861359Y-77555000D01*
X132053641Y-72645000D02*
X131746359Y-72645000D01*
X132053641Y-73405000D02*
X131746359Y-73405000D01*
X128090000Y-84858748D02*
X128090000Y-86281252D01*
X130810000Y-84858748D02*
X130810000Y-86281252D01*
X166386359Y-76360000D02*
X166693641Y-76360000D01*
X166386359Y-75600000D02*
X166693641Y-75600000D01*
X154618641Y-73815000D02*
X154311359Y-73815000D01*
X154618641Y-73055000D02*
X154311359Y-73055000D01*
X135000000Y-66955641D02*
X135000000Y-66648359D01*
X134240000Y-66955641D02*
X134240000Y-66648359D01*
X166620692Y-78660000D02*
X166405020Y-78660000D01*
X166620692Y-79380000D02*
X166405020Y-79380000D01*
X137968621Y-135695000D02*
X137968621Y-137035000D01*
X138128621Y-132431000D02*
X138128621Y-136879000D01*
X136207621Y-135695000D02*
X136207621Y-137856000D01*
X138048621Y-135695000D02*
X138048621Y-136960000D01*
X137008621Y-135695000D02*
X137008621Y-137641000D01*
X138248621Y-132563000D02*
X138248621Y-136747000D01*
X136728621Y-131569000D02*
X136728621Y-133615000D01*
X132582380Y-132501000D02*
X132582380Y-133131000D01*
X138608621Y-133074000D02*
X138608621Y-136236000D01*
X136087621Y-131440000D02*
X136087621Y-133615000D01*
X138008621Y-132312000D02*
X138008621Y-133615000D01*
X137448621Y-135695000D02*
X137448621Y-137421000D01*
X136287621Y-131466000D02*
X136287621Y-133615000D01*
X138208621Y-132518000D02*
X138208621Y-136792000D01*
X136568621Y-131524000D02*
X136568621Y-133615000D01*
X136848621Y-135695000D02*
X136848621Y-137702000D01*
X138928621Y-133853000D02*
X138928621Y-135457000D01*
X137728621Y-135695000D02*
X137728621Y-137233000D01*
X136968621Y-131653000D02*
X136968621Y-133615000D01*
X136127621Y-135695000D02*
X136127621Y-137866000D01*
X137568621Y-131965000D02*
X137568621Y-133615000D01*
X136768621Y-135695000D02*
X136768621Y-137729000D01*
X136568621Y-135695000D02*
X136568621Y-137786000D01*
X137928621Y-135695000D02*
X137928621Y-137071000D01*
X136287621Y-135695000D02*
X136287621Y-137844000D01*
X136928621Y-135695000D02*
X136928621Y-137673000D01*
X137608621Y-131991000D02*
X137608621Y-133615000D01*
X138688621Y-133223000D02*
X138688621Y-136087000D01*
X137648621Y-135695000D02*
X137648621Y-137291000D01*
X138048621Y-132350000D02*
X138048621Y-133615000D01*
X137888621Y-132205000D02*
X137888621Y-133615000D01*
X136808621Y-135695000D02*
X136808621Y-137716000D01*
X136608621Y-135695000D02*
X136608621Y-137776000D01*
X137088621Y-135695000D02*
X137088621Y-137607000D01*
X137808621Y-135695000D02*
X137808621Y-137171000D01*
X137528621Y-131939000D02*
X137528621Y-133615000D01*
X137968621Y-132275000D02*
X137968621Y-133615000D01*
X137368621Y-135695000D02*
X137368621Y-137467000D01*
X137168621Y-135695000D02*
X137168621Y-137571000D01*
X139008621Y-134253000D02*
X139008621Y-135057000D01*
X138088621Y-132390000D02*
X138088621Y-136920000D01*
X136047621Y-131437000D02*
X136047621Y-133615000D01*
X136127621Y-131444000D02*
X136127621Y-133615000D01*
X137008621Y-131669000D02*
X137008621Y-133615000D01*
X137608621Y-135695000D02*
X137608621Y-137319000D01*
X136007621Y-135695000D02*
X136007621Y-137877000D01*
X136247621Y-131460000D02*
X136247621Y-133615000D01*
X138728621Y-133305000D02*
X138728621Y-136005000D01*
X137048621Y-135695000D02*
X137048621Y-137625000D01*
X138528621Y-132941000D02*
X138528621Y-136369000D01*
X136488621Y-135695000D02*
X136488621Y-137805000D01*
X136888621Y-135695000D02*
X136888621Y-137688000D01*
X136688621Y-135695000D02*
X136688621Y-137753000D01*
X135887621Y-131427000D02*
X135887621Y-137883000D01*
X136928621Y-131637000D02*
X136928621Y-133615000D01*
X137208621Y-131759000D02*
X137208621Y-133615000D01*
X132267380Y-132816000D02*
X132897380Y-132816000D01*
X136407621Y-131488000D02*
X136407621Y-133615000D01*
X136367621Y-135695000D02*
X136367621Y-137830000D01*
X137568621Y-135695000D02*
X137568621Y-137345000D01*
X137328621Y-135695000D02*
X137328621Y-137489000D01*
X137088621Y-131703000D02*
X137088621Y-133615000D01*
X136247621Y-135695000D02*
X136247621Y-137850000D01*
X137808621Y-132139000D02*
X137808621Y-133615000D01*
X137408621Y-131865000D02*
X137408621Y-133615000D01*
X137888621Y-135695000D02*
X137888621Y-137105000D01*
X136968621Y-135695000D02*
X136968621Y-137657000D01*
X136407621Y-135695000D02*
X136407621Y-137822000D01*
X136167621Y-135695000D02*
X136167621Y-137861000D01*
X137488621Y-131913000D02*
X137488621Y-133615000D01*
X136848621Y-131608000D02*
X136848621Y-133615000D01*
X137128621Y-131721000D02*
X137128621Y-133615000D01*
X137848621Y-135695000D02*
X137848621Y-137139000D01*
X138568621Y-133005000D02*
X138568621Y-136305000D01*
X136087621Y-135695000D02*
X136087621Y-137870000D01*
X135927621Y-131428000D02*
X135927621Y-137882000D01*
X138168621Y-132473000D02*
X138168621Y-136837000D01*
X137728621Y-132077000D02*
X137728621Y-133615000D01*
X136768621Y-131581000D02*
X136768621Y-133615000D01*
X136888621Y-131622000D02*
X136888621Y-133615000D01*
X137128621Y-135695000D02*
X137128621Y-137589000D01*
X136447621Y-131496000D02*
X136447621Y-133615000D01*
X137768621Y-135695000D02*
X137768621Y-137203000D01*
X138808621Y-133490000D02*
X138808621Y-135820000D01*
X138368621Y-132711000D02*
X138368621Y-136599000D01*
X136207621Y-131454000D02*
X136207621Y-133615000D01*
X137688621Y-132048000D02*
X137688621Y-133615000D01*
X138448621Y-132821000D02*
X138448621Y-136489000D01*
X135807621Y-131425000D02*
X135807621Y-137885000D01*
X137208621Y-135695000D02*
X137208621Y-137551000D01*
X136007621Y-131433000D02*
X136007621Y-133615000D01*
X136728621Y-135695000D02*
X136728621Y-137741000D01*
X136608621Y-131534000D02*
X136608621Y-133615000D01*
X138488621Y-132879000D02*
X138488621Y-136431000D01*
X138408621Y-132765000D02*
X138408621Y-136545000D01*
X136167621Y-131449000D02*
X136167621Y-133615000D01*
X138648621Y-133146000D02*
X138648621Y-136164000D01*
X136808621Y-131594000D02*
X136808621Y-133615000D01*
X136528621Y-131514000D02*
X136528621Y-133615000D01*
X135967621Y-131431000D02*
X135967621Y-137879000D01*
X136488621Y-131505000D02*
X136488621Y-133615000D01*
X138888621Y-133715000D02*
X138888621Y-135595000D01*
X137248621Y-135695000D02*
X137248621Y-137531000D01*
X137288621Y-131799000D02*
X137288621Y-133615000D01*
X136327621Y-131473000D02*
X136327621Y-133615000D01*
X135767621Y-131425000D02*
X135767621Y-137885000D01*
X137288621Y-135695000D02*
X137288621Y-137511000D01*
X136528621Y-135695000D02*
X136528621Y-137796000D01*
X138288621Y-132611000D02*
X138288621Y-136699000D01*
X137528621Y-135695000D02*
X137528621Y-137371000D01*
X138328621Y-132660000D02*
X138328621Y-136650000D01*
X138768621Y-133393000D02*
X138768621Y-135917000D01*
X136648621Y-135695000D02*
X136648621Y-137765000D01*
X136367621Y-131480000D02*
X136367621Y-133615000D01*
X137688621Y-135695000D02*
X137688621Y-137262000D01*
X136047621Y-135695000D02*
X136047621Y-137873000D01*
X137448621Y-131889000D02*
X137448621Y-133615000D01*
X136327621Y-135695000D02*
X136327621Y-137837000D01*
X138848621Y-133596000D02*
X138848621Y-135714000D01*
X135847621Y-131425000D02*
X135847621Y-137885000D01*
X137368621Y-131843000D02*
X137368621Y-133615000D01*
X136447621Y-135695000D02*
X136447621Y-137814000D01*
X136648621Y-131545000D02*
X136648621Y-133615000D01*
X137168621Y-131739000D02*
X137168621Y-133615000D01*
X137408621Y-135695000D02*
X137408621Y-137445000D01*
X137928621Y-132239000D02*
X137928621Y-133615000D01*
X137848621Y-132171000D02*
X137848621Y-133615000D01*
X137328621Y-131821000D02*
X137328621Y-133615000D01*
X136688621Y-131557000D02*
X136688621Y-133615000D01*
X138968621Y-134022000D02*
X138968621Y-135288000D01*
X138008621Y-135695000D02*
X138008621Y-136998000D01*
X137768621Y-132107000D02*
X137768621Y-133615000D01*
X137648621Y-132019000D02*
X137648621Y-133615000D01*
X137488621Y-135695000D02*
X137488621Y-137397000D01*
X137248621Y-131779000D02*
X137248621Y-133615000D01*
X137048621Y-131685000D02*
X137048621Y-133615000D01*
X139037621Y-134655000D02*
G75*
G03*
X139037621Y-134655000I-3270000J0D01*
G01*
X152590000Y-74560000D02*
X152590000Y-74810000D01*
X153890000Y-75760000D02*
X153390000Y-75410000D01*
X153890000Y-75060000D02*
X153890000Y-75760000D01*
X153390000Y-75410000D02*
X153890000Y-75060000D01*
X153890000Y-75410000D02*
X154140000Y-75410000D01*
X152590000Y-74560000D02*
X154740000Y-74560000D01*
X152590000Y-76260000D02*
X154740000Y-76260000D01*
X153390000Y-75410000D02*
X153190000Y-75410000D01*
X153390000Y-75060000D02*
X153390000Y-75760000D01*
X152590000Y-76260000D02*
X152590000Y-76010000D01*
X131390000Y-84858748D02*
X131390000Y-86281252D01*
X134110000Y-84858748D02*
X134110000Y-86281252D01*
X157793641Y-134070000D02*
X157486359Y-134070000D01*
X157793641Y-134830000D02*
X157486359Y-134830000D01*
X165410000Y-136973641D02*
X165410000Y-136666359D01*
X166170000Y-136973641D02*
X166170000Y-136666359D01*
D13*
X128600000Y-123535000D02*
X128600000Y-122875000D01*
X131500000Y-122875000D02*
X131500000Y-123535000D01*
D10*
X128500000Y-124315000D02*
G75*
G03*
X128500000Y-124315000I-100000J0D01*
G01*
D12*
X183570000Y-121908000D02*
X187270000Y-121908000D01*
X187270000Y-121908000D02*
X187270000Y-122278000D01*
X183570000Y-124988000D02*
X183570000Y-128068000D01*
X187570000Y-128368000D02*
X187570000Y-127698000D01*
X183570000Y-128068000D02*
X187270000Y-128068000D01*
X185420000Y-128368000D02*
X187570000Y-128368000D01*
X190130000Y-127698000D02*
X190130000Y-124988000D01*
X183570000Y-124988000D02*
X183570000Y-121908000D01*
X187270000Y-127698000D02*
X190130000Y-127698000D01*
X187270000Y-128068000D02*
X187270000Y-127698000D01*
X187270000Y-122278000D02*
X190130000Y-122278000D01*
X190130000Y-122278000D02*
X190130000Y-124988000D01*
X150867164Y-67350000D02*
X151082836Y-67350000D01*
X150867164Y-68070000D02*
X151082836Y-68070000D01*
X116488000Y-74261358D02*
X116488000Y-74568640D01*
X117248000Y-74261358D02*
X117248000Y-74568640D01*
X122303641Y-72645000D02*
X121996359Y-72645000D01*
X122303641Y-73405000D02*
X121996359Y-73405000D01*
X162322836Y-82910000D02*
X162107164Y-82910000D01*
X162322836Y-82190000D02*
X162107164Y-82190000D01*
X164565100Y-82881459D02*
X164565100Y-83188741D01*
X165325100Y-82881459D02*
X165325100Y-83188741D01*
X136040000Y-73883260D02*
X136040000Y-72925200D01*
X134135000Y-74166739D02*
X134135000Y-74833261D01*
X134135000Y-76074800D02*
X136040000Y-76074800D01*
X136040000Y-76074800D02*
X136040000Y-75116740D01*
X136040000Y-72925200D02*
X134135000Y-72925200D01*
X133863700Y-73000000D02*
G75*
G03*
X133863700Y-73000000I-76200J0D01*
G01*
D13*
X165850000Y-113200000D02*
X179350000Y-113200000D01*
X179350000Y-100600000D02*
X165850000Y-100600000D01*
D12*
X141089000Y-66653359D02*
X141089000Y-66960641D01*
X141849000Y-66653359D02*
X141849000Y-66960641D01*
X130103641Y-73405000D02*
X129796359Y-73405000D01*
X130103641Y-72645000D02*
X129796359Y-72645000D01*
D13*
X136750000Y-112772500D02*
X140050000Y-112772500D01*
X136750000Y-107872500D02*
X140050000Y-107872500D01*
D10*
X135800000Y-107622500D02*
G75*
G03*
X135800000Y-107622500I-100000J0D01*
G01*
D12*
X118146359Y-120020000D02*
X118453641Y-120020000D01*
X118146359Y-120780000D02*
X118453641Y-120780000D01*
X183930000Y-135585000D02*
X183930000Y-133435000D01*
X169970000Y-137435000D02*
X169970000Y-133735000D01*
X174090000Y-130875000D02*
X176800000Y-130875000D01*
X183630000Y-137435000D02*
X183630000Y-133735000D01*
X174090000Y-133735000D02*
X174090000Y-130875000D01*
X169970000Y-133735000D02*
X174090000Y-133735000D01*
X179510000Y-130875000D02*
X176800000Y-130875000D01*
X176800000Y-137435000D02*
X169970000Y-137435000D01*
X176800000Y-137435000D02*
X183630000Y-137435000D01*
X183930000Y-133435000D02*
X181800000Y-133435000D01*
X183630000Y-133735000D02*
X179510000Y-133735000D01*
X179510000Y-133735000D02*
X179510000Y-130875000D01*
X180228970Y-82395100D02*
X179921688Y-82395100D01*
X180228970Y-83155100D02*
X179921688Y-83155100D01*
X120653000Y-66538420D02*
X120653000Y-66819580D01*
X121673000Y-66538420D02*
X121673000Y-66819580D01*
X121472936Y-80000000D02*
X125827064Y-80000000D01*
X121472936Y-76580000D02*
X125827064Y-76580000D01*
X129619792Y-128462742D02*
X129619792Y-128937258D01*
X128574792Y-128462742D02*
X128574792Y-128937258D01*
X162360356Y-78664800D02*
X164265356Y-78664800D01*
X162360356Y-77706740D02*
X162360356Y-78664800D01*
X164265356Y-75515200D02*
X162360356Y-75515200D01*
X162360356Y-75515200D02*
X162360356Y-76473260D01*
X164265356Y-77423261D02*
X164265356Y-76756739D01*
X164689056Y-78590000D02*
G75*
G03*
X164689056Y-78590000I-76200J0D01*
G01*
X136405000Y-66586420D02*
X136405000Y-66867580D01*
X135385000Y-66586420D02*
X135385000Y-66867580D01*
X125486104Y-66648359D02*
X125486104Y-66955641D01*
X126246104Y-66648359D02*
X126246104Y-66955641D01*
X154140000Y-77010000D02*
X154140000Y-79160000D01*
X154640000Y-78310000D02*
X154990000Y-77810000D01*
X155340000Y-78310000D02*
X154640000Y-78310000D01*
X154990000Y-77810000D02*
X155340000Y-78310000D01*
X154990000Y-77810000D02*
X154990000Y-77610000D01*
X154990000Y-78310000D02*
X154990000Y-78560000D01*
X155840000Y-77010000D02*
X155840000Y-79160000D01*
X155340000Y-77810000D02*
X154640000Y-77810000D01*
X154140000Y-77010000D02*
X154390000Y-77010000D01*
X155840000Y-77010000D02*
X155590000Y-77010000D01*
X161190000Y-72316359D02*
X161190000Y-72623641D01*
X160430000Y-72316359D02*
X160430000Y-72623641D01*
X138060000Y-89113349D02*
X135310000Y-89113349D01*
X138060000Y-88553349D02*
X135133000Y-88553349D01*
X140913000Y-91273349D02*
X137287000Y-91273349D01*
X138060000Y-89073349D02*
X135295000Y-89073349D01*
X143094000Y-88433349D02*
X140140000Y-88433349D01*
X143177000Y-87752349D02*
X135023000Y-87752349D01*
X138060000Y-88513349D02*
X135124000Y-88513349D01*
X141797000Y-90673349D02*
X136403000Y-90673349D01*
X142662000Y-89593349D02*
X140140000Y-89593349D01*
X142640000Y-89633349D02*
X140140000Y-89633349D01*
X143137000Y-88192349D02*
X135063000Y-88192349D01*
X142350000Y-90073349D02*
X140140000Y-90073349D01*
X143025000Y-88713349D02*
X140140000Y-88713349D01*
X141387000Y-90993349D02*
X136813000Y-90993349D01*
X139633000Y-91673349D02*
X138567000Y-91673349D01*
X142804000Y-89313349D02*
X140140000Y-89313349D01*
X142617000Y-89673349D02*
X140140000Y-89673349D01*
X138060000Y-88993349D02*
X135265000Y-88993349D01*
X138060000Y-89953349D02*
X135762000Y-89953349D01*
X138060000Y-90273349D02*
X136010000Y-90273349D01*
X142256000Y-90193349D02*
X140140000Y-90193349D01*
X142007000Y-90473349D02*
X136193000Y-90473349D01*
X138060000Y-89793349D02*
X135656000Y-89793349D01*
X143117000Y-88313349D02*
X140140000Y-88313349D01*
X138060000Y-89513349D02*
X135494000Y-89513349D01*
X142155000Y-90313349D02*
X140140000Y-90313349D01*
X143179000Y-87712349D02*
X135021000Y-87712349D01*
X143124000Y-88272349D02*
X135076000Y-88272349D01*
X142822000Y-89273349D02*
X140140000Y-89273349D01*
X142857000Y-89193349D02*
X140140000Y-89193349D01*
X138060000Y-90153349D02*
X135911000Y-90153349D01*
X138060000Y-89633349D02*
X135560000Y-89633349D01*
X138060000Y-89313349D02*
X135396000Y-89313349D01*
X141967000Y-90513349D02*
X136233000Y-90513349D01*
X142224000Y-90233349D02*
X140140000Y-90233349D01*
X138060000Y-89593349D02*
X135538000Y-89593349D01*
X143076000Y-88513349D02*
X140140000Y-88513349D01*
X140652000Y-91393349D02*
X137548000Y-91393349D01*
X140048000Y-91593349D02*
X138152000Y-91593349D01*
X138060000Y-89713349D02*
X135607000Y-89713349D01*
X138060000Y-88953349D02*
X135250000Y-88953349D01*
X140990000Y-91233349D02*
X137210000Y-91233349D01*
X140329000Y-91513349D02*
X137871000Y-91513349D01*
X143152000Y-88072349D02*
X135048000Y-88072349D01*
X142766000Y-89393349D02*
X140140000Y-89393349D01*
X138060000Y-89993349D02*
X135791000Y-89993349D01*
X143174000Y-87832349D02*
X135026000Y-87832349D01*
X138060000Y-89193349D02*
X135343000Y-89193349D01*
X143014000Y-88753349D02*
X140140000Y-88753349D01*
X138060000Y-90233349D02*
X135976000Y-90233349D01*
X138060000Y-89033349D02*
X135279000Y-89033349D01*
X138060000Y-89673349D02*
X135583000Y-89673349D01*
X138060000Y-89913349D02*
X135735000Y-89913349D01*
X141500000Y-90913349D02*
X136700000Y-90913349D01*
X138060000Y-88873349D02*
X135223000Y-88873349D01*
X138060000Y-88793349D02*
X135198000Y-88793349D01*
X138060000Y-90033349D02*
X135820000Y-90033349D01*
X142786000Y-89353349D02*
X140140000Y-89353349D01*
X142935000Y-88993349D02*
X140140000Y-88993349D01*
X143165000Y-87952349D02*
X135035000Y-87952349D01*
X138060000Y-89873349D02*
X135708000Y-89873349D01*
X138060000Y-90113349D02*
X135880000Y-90113349D01*
X142083000Y-90393349D02*
X136117000Y-90393349D01*
X142544000Y-89793349D02*
X140140000Y-89793349D01*
X142747000Y-89433349D02*
X140140000Y-89433349D01*
X138060000Y-88713349D02*
X135175000Y-88713349D01*
X143036000Y-88673349D02*
X140140000Y-88673349D01*
X138060000Y-88833349D02*
X135211000Y-88833349D01*
X143168000Y-87912349D02*
X135032000Y-87912349D01*
X142706000Y-89513349D02*
X140140000Y-89513349D01*
X142977000Y-88873349D02*
X140140000Y-88873349D01*
X141554000Y-90873349D02*
X136646000Y-90873349D01*
X138060000Y-88433349D02*
X135106000Y-88433349D01*
X142409000Y-89993349D02*
X140140000Y-89993349D01*
X141884000Y-90593349D02*
X136316000Y-90593349D01*
X142874000Y-89153349D02*
X140140000Y-89153349D01*
X143180000Y-87672349D02*
X135020000Y-87672349D01*
X141704000Y-90753349D02*
X136496000Y-90753349D01*
X138060000Y-89473349D02*
X135473000Y-89473349D01*
X142921000Y-89033349D02*
X140140000Y-89033349D01*
X143176000Y-87792349D02*
X135024000Y-87792349D01*
X138060000Y-88473349D02*
X135115000Y-88473349D01*
X143047000Y-88633349D02*
X140140000Y-88633349D01*
X141064000Y-91193349D02*
X137136000Y-91193349D01*
X141926000Y-90553349D02*
X136274000Y-90553349D01*
X143067000Y-88553349D02*
X140140000Y-88553349D01*
X141841000Y-90633349D02*
X136359000Y-90633349D01*
X142289000Y-90153349D02*
X140140000Y-90153349D01*
X142963000Y-88913349D02*
X140140000Y-88913349D01*
X142840000Y-89233349D02*
X140140000Y-89233349D01*
X143110000Y-88353349D02*
X140140000Y-88353349D01*
X143057000Y-88593349D02*
X140140000Y-88593349D01*
X143148000Y-88112349D02*
X135052000Y-88112349D01*
X143180000Y-87632349D02*
X135020000Y-87632349D01*
X143085000Y-88473349D02*
X140140000Y-88473349D01*
X142190000Y-90273349D02*
X140140000Y-90273349D01*
X138060000Y-89433349D02*
X135453000Y-89433349D01*
X143130000Y-88232349D02*
X135070000Y-88232349D01*
X141656000Y-90793349D02*
X136544000Y-90793349D01*
X141328000Y-91033349D02*
X136872000Y-91033349D01*
X141751000Y-90713349D02*
X136449000Y-90713349D01*
X142492000Y-89873349D02*
X140140000Y-89873349D01*
X142684000Y-89553349D02*
X140140000Y-89553349D01*
X138060000Y-90073349D02*
X135850000Y-90073349D01*
X141415000Y-83182651D02*
X141415000Y-83982651D01*
X138060000Y-88913349D02*
X135237000Y-88913349D01*
X138060000Y-89393349D02*
X135434000Y-89393349D01*
X138060000Y-88313349D02*
X135083000Y-88313349D01*
X141134000Y-91153349D02*
X137066000Y-91153349D01*
X143157000Y-88032349D02*
X135043000Y-88032349D01*
X142045000Y-90433349D02*
X136155000Y-90433349D01*
X140745000Y-91353349D02*
X137455000Y-91353349D01*
X143171000Y-87872349D02*
X135029000Y-87872349D01*
X142438000Y-89953349D02*
X140140000Y-89953349D01*
X143161000Y-87992349D02*
X135039000Y-87992349D01*
X138060000Y-88593349D02*
X135143000Y-88593349D01*
X140553000Y-91433349D02*
X137647000Y-91433349D01*
X138060000Y-89833349D02*
X135682000Y-89833349D01*
X140446000Y-91473349D02*
X137754000Y-91473349D01*
X138060000Y-89553349D02*
X135516000Y-89553349D01*
X142380000Y-90033349D02*
X140140000Y-90033349D01*
X138060000Y-88673349D02*
X135164000Y-88673349D01*
X138060000Y-89273349D02*
X135378000Y-89273349D01*
X138060000Y-90353349D02*
X136081000Y-90353349D01*
X140831000Y-91313349D02*
X137369000Y-91313349D01*
X141605000Y-90833349D02*
X136595000Y-90833349D01*
X142119000Y-90353349D02*
X140140000Y-90353349D01*
X138060000Y-90313349D02*
X136045000Y-90313349D01*
X138060000Y-88353349D02*
X135090000Y-88353349D01*
X138060000Y-89353349D02*
X135414000Y-89353349D01*
X142905000Y-89073349D02*
X140140000Y-89073349D01*
X138060000Y-89753349D02*
X135631000Y-89753349D01*
X138060000Y-89153349D02*
X135326000Y-89153349D01*
X142989000Y-88833349D02*
X140140000Y-88833349D01*
X142950000Y-88953349D02*
X140140000Y-88953349D01*
X139868000Y-91633349D02*
X138332000Y-91633349D01*
X141815000Y-83582651D02*
X141015000Y-83582651D01*
X143142000Y-88152349D02*
X135058000Y-88152349D01*
X142593000Y-89713349D02*
X140140000Y-89713349D01*
X143102000Y-88393349D02*
X140140000Y-88393349D01*
X138060000Y-89233349D02*
X135360000Y-89233349D01*
X140198000Y-91553349D02*
X138002000Y-91553349D01*
X138060000Y-90193349D02*
X135944000Y-90193349D01*
X141202000Y-91113349D02*
X136998000Y-91113349D01*
X138060000Y-88393349D02*
X135098000Y-88393349D01*
X141445000Y-90953349D02*
X136755000Y-90953349D01*
X142320000Y-90113349D02*
X140140000Y-90113349D01*
X142465000Y-89913349D02*
X140140000Y-89913349D01*
X143180000Y-87592349D02*
X135020000Y-87592349D01*
X138060000Y-88753349D02*
X135186000Y-88753349D01*
X142518000Y-89833349D02*
X140140000Y-89833349D01*
X142890000Y-89113349D02*
X140140000Y-89113349D01*
X143002000Y-88793349D02*
X140140000Y-88793349D01*
X142727000Y-89473349D02*
X140140000Y-89473349D01*
X141266000Y-91073349D02*
X136934000Y-91073349D01*
X142569000Y-89753349D02*
X140140000Y-89753349D01*
X138060000Y-88633349D02*
X135153000Y-88633349D01*
X143220000Y-87592349D02*
G75*
G03*
X143220000Y-87592349I-4120000J0D01*
G01*
D13*
X128000000Y-122955000D02*
X128000000Y-126255000D01*
X123100000Y-122955000D02*
X123100000Y-126255000D01*
D10*
X128350000Y-121905000D02*
G75*
G03*
X128350000Y-121905000I-100000J0D01*
G01*
D12*
X165762258Y-81597500D02*
X165287742Y-81597500D01*
X165762258Y-80552500D02*
X165287742Y-80552500D01*
X167367200Y-100203500D02*
X171532800Y-100203500D01*
X171532800Y-94996500D02*
X167367200Y-94996500D01*
X172110720Y-100150000D02*
G75*
G03*
X172110720Y-100150000I-110720J0D01*
G01*
X172000000Y-100150000D02*
G75*
G03*
X172000000Y-100150000I0J0D01*
G01*
X143815000Y-72925200D02*
X141910000Y-72925200D01*
X143815000Y-73883260D02*
X143815000Y-72925200D01*
X141910000Y-76074800D02*
X143815000Y-76074800D01*
X141910000Y-74166739D02*
X141910000Y-74833261D01*
X143815000Y-76074800D02*
X143815000Y-75116740D01*
X141638700Y-73000000D02*
G75*
G03*
X141638700Y-73000000I-76200J0D01*
G01*
X158156359Y-73053758D02*
X158463641Y-73053758D01*
X158156359Y-73813758D02*
X158463641Y-73813758D01*
X183929899Y-79230099D02*
X183929899Y-67430099D01*
X178829899Y-67430099D02*
X180079899Y-67430099D01*
X182679899Y-79230099D02*
X183929899Y-79230099D01*
X182679899Y-67430099D02*
X183929899Y-67430099D01*
X178829899Y-67430099D02*
X178829899Y-79230099D01*
X178829899Y-79230099D02*
X180079899Y-79230099D01*
X182979899Y-79830099D02*
G75*
G03*
X182979899Y-79830099I0J0D01*
G01*
X183179899Y-79830099D02*
G75*
G03*
X183179899Y-79830099I-200000J0D01*
G01*
X183079899Y-79830099D02*
G75*
G03*
X183079899Y-79830099I-100000J0D01*
G01*
X166470000Y-136973641D02*
X166470000Y-136666359D01*
X167230000Y-136973641D02*
X167230000Y-136666359D01*
X115487742Y-127947500D02*
X115962258Y-127947500D01*
X115487742Y-126902500D02*
X115962258Y-126902500D01*
X167750000Y-76232000D02*
X168410000Y-76232000D01*
X167750000Y-76232000D02*
X167750000Y-78262000D01*
X170070000Y-77642000D02*
X170070000Y-76232000D01*
X169410000Y-76232000D02*
X170070000Y-76232000D01*
D13*
X117600000Y-122955000D02*
X117600000Y-126255000D01*
X122500000Y-122955000D02*
X122500000Y-126255000D01*
D10*
X122850000Y-121905000D02*
G75*
G03*
X122850000Y-121905000I-100000J0D01*
G01*
D12*
X170152064Y-94535000D02*
X168697936Y-94535000D01*
X170152064Y-92715000D02*
X168697936Y-92715000D01*
X146083000Y-69716358D02*
X146083000Y-70023640D01*
X146843000Y-69716358D02*
X146843000Y-70023640D01*
X130646359Y-126280000D02*
X130953641Y-126280000D01*
X130646359Y-125520000D02*
X130953641Y-125520000D01*
X120943641Y-113750000D02*
X120636359Y-113750000D01*
X120943641Y-112990000D02*
X120636359Y-112990000D01*
X169038641Y-78632000D02*
X168731359Y-78632000D01*
X169038641Y-79392000D02*
X168731359Y-79392000D01*
X130835000Y-103563748D02*
X130835000Y-104986252D01*
X128115000Y-103563748D02*
X128115000Y-104986252D01*
X129222936Y-80000000D02*
X133577064Y-80000000D01*
X129222936Y-76580000D02*
X133577064Y-76580000D01*
X145795000Y-76035000D02*
X145795000Y-75375000D01*
X145795000Y-76035000D02*
X147825000Y-76035000D01*
X147205000Y-73715000D02*
X145795000Y-73715000D01*
X145795000Y-74375000D02*
X145795000Y-73715000D01*
X185160000Y-130446359D02*
X185160000Y-130753641D01*
X184400000Y-130446359D02*
X184400000Y-130753641D01*
X185167735Y-68720099D02*
X184952063Y-68720099D01*
X185167735Y-69440099D02*
X184952063Y-69440099D01*
X160145000Y-72362164D02*
X160145000Y-72577836D01*
X159425000Y-72362164D02*
X159425000Y-72577836D01*
X122495000Y-74400000D02*
X122495000Y-73740000D01*
X122495000Y-76060000D02*
X124525000Y-76060000D01*
X123905000Y-73740000D02*
X122495000Y-73740000D01*
X122495000Y-76060000D02*
X122495000Y-75400000D01*
X136985436Y-80000000D02*
X141339564Y-80000000D01*
X136985436Y-76580000D02*
X141339564Y-76580000D01*
D13*
X145350000Y-127450000D02*
X145350000Y-114950000D01*
X132850000Y-114950000D02*
X132850000Y-127450000D01*
D12*
X187067735Y-69440099D02*
X186852063Y-69440099D01*
X187067735Y-68720099D02*
X186852063Y-68720099D01*
X148980000Y-74746359D02*
X148980000Y-75053641D01*
X148220000Y-74746359D02*
X148220000Y-75053641D01*
X143683000Y-71064999D02*
X145713000Y-71064999D01*
X143683000Y-69404999D02*
X143683000Y-68744999D01*
X145093000Y-68744999D02*
X143683000Y-68744999D01*
X143683000Y-71064999D02*
X143683000Y-70404999D01*
X176645000Y-60070000D02*
X181785000Y-60070000D01*
X175375000Y-62730000D02*
X174045000Y-62730000D01*
X176645000Y-62730000D02*
X181785000Y-62730000D01*
X174045000Y-62730000D02*
X174045000Y-61400000D01*
X176645000Y-62730000D02*
X176645000Y-60070000D01*
X181785000Y-62730000D02*
X181785000Y-60070000D01*
X109580000Y-113928641D02*
X109580000Y-113621359D01*
X108820000Y-113928641D02*
X108820000Y-113621359D01*
X148935000Y-71271252D02*
X148935000Y-69848748D01*
X151655000Y-71271252D02*
X151655000Y-69848748D01*
X162663748Y-97360000D02*
X164086252Y-97360000D01*
X162663748Y-94640000D02*
X164086252Y-94640000D01*
X140165000Y-99859000D02*
X142144000Y-99859000D01*
X140165000Y-100059000D02*
X142314000Y-100059000D01*
X136671000Y-99339000D02*
X141579000Y-99339000D01*
X135585000Y-100579000D02*
X138085000Y-100579000D01*
X135733000Y-100339000D02*
X138085000Y-100339000D01*
X140165000Y-100819000D02*
X142791000Y-100819000D01*
X140165000Y-99939000D02*
X142215000Y-99939000D01*
X135223000Y-101419000D02*
X138085000Y-101419000D01*
X140165000Y-101579000D02*
X143072000Y-101579000D01*
X135060000Y-102260000D02*
X143190000Y-102260000D01*
X135108000Y-101899000D02*
X138085000Y-101899000D01*
X135168000Y-101619000D02*
X138085000Y-101619000D01*
X140165000Y-101659000D02*
X143092000Y-101659000D01*
X135656000Y-100459000D02*
X138085000Y-100459000D01*
X135320000Y-101139000D02*
X138085000Y-101139000D01*
X140165000Y-101739000D02*
X143110000Y-101739000D01*
X136725000Y-99299000D02*
X141525000Y-99299000D01*
X135088000Y-102020000D02*
X143162000Y-102020000D01*
X135290000Y-101219000D02*
X138085000Y-101219000D01*
X135051000Y-102380000D02*
X143199000Y-102380000D01*
X135140000Y-101739000D02*
X138085000Y-101739000D01*
X135541000Y-100659000D02*
X138085000Y-100659000D01*
X135385000Y-100979000D02*
X138085000Y-100979000D01*
X135211000Y-101459000D02*
X138085000Y-101459000D01*
X136341000Y-99619000D02*
X141909000Y-99619000D01*
X135707000Y-100379000D02*
X138085000Y-100379000D01*
X136897000Y-99179000D02*
X141353000Y-99179000D01*
X136474000Y-99499000D02*
X141776000Y-99499000D01*
X137394000Y-98899000D02*
X140856000Y-98899000D01*
X140165000Y-101259000D02*
X142975000Y-101259000D01*
X140165000Y-100019000D02*
X142281000Y-100019000D01*
X137312000Y-98939000D02*
X140938000Y-98939000D01*
X140165000Y-100659000D02*
X142709000Y-100659000D01*
X135875000Y-100139000D02*
X138085000Y-100139000D01*
X140165000Y-100259000D02*
X142463000Y-100259000D01*
X140165000Y-101819000D02*
X143127000Y-101819000D01*
X135478000Y-100779000D02*
X138085000Y-100779000D01*
X135149000Y-101699000D02*
X138085000Y-101699000D01*
X135131000Y-101779000D02*
X138085000Y-101779000D01*
X140165000Y-101779000D02*
X143119000Y-101779000D01*
X136070000Y-99899000D02*
X138085000Y-99899000D01*
X138027000Y-98659000D02*
X140223000Y-98659000D01*
X135049000Y-102420000D02*
X143201000Y-102420000D01*
X138177000Y-98619000D02*
X140073000Y-98619000D01*
X136780000Y-99259000D02*
X141470000Y-99259000D01*
X135115000Y-101859000D02*
X138085000Y-101859000D01*
X135403000Y-100939000D02*
X138085000Y-100939000D01*
X136001000Y-99979000D02*
X138085000Y-99979000D01*
X140165000Y-100099000D02*
X142345000Y-100099000D01*
X135760000Y-100299000D02*
X138085000Y-100299000D01*
X136384000Y-99579000D02*
X141866000Y-99579000D01*
X140165000Y-101139000D02*
X142930000Y-101139000D01*
X135045000Y-102620000D02*
X143205000Y-102620000D01*
X140165000Y-101899000D02*
X143142000Y-101899000D01*
X136142000Y-99819000D02*
X142108000Y-99819000D01*
X140165000Y-100699000D02*
X142731000Y-100699000D01*
X138357000Y-98579000D02*
X139893000Y-98579000D01*
X135057000Y-102300000D02*
X143193000Y-102300000D01*
X135368000Y-101019000D02*
X138085000Y-101019000D01*
X136106000Y-99859000D02*
X138085000Y-99859000D01*
X137023000Y-99099000D02*
X141227000Y-99099000D01*
X140165000Y-100899000D02*
X142829000Y-100899000D01*
X140165000Y-99979000D02*
X142249000Y-99979000D01*
X135498000Y-100739000D02*
X138085000Y-100739000D01*
X136035000Y-99939000D02*
X138085000Y-99939000D01*
X135519000Y-100699000D02*
X138085000Y-100699000D01*
X140165000Y-99899000D02*
X142180000Y-99899000D01*
X140165000Y-101059000D02*
X142899000Y-101059000D01*
X135189000Y-101539000D02*
X138085000Y-101539000D01*
X135054000Y-102340000D02*
X143196000Y-102340000D01*
X140165000Y-101099000D02*
X142915000Y-101099000D01*
X136218000Y-99739000D02*
X142032000Y-99739000D01*
X140165000Y-100139000D02*
X142375000Y-100139000D01*
X140165000Y-101699000D02*
X143101000Y-101699000D01*
X135632000Y-100499000D02*
X138085000Y-100499000D01*
X135787000Y-100259000D02*
X138085000Y-100259000D01*
X137161000Y-99019000D02*
X141089000Y-99019000D01*
X135459000Y-100819000D02*
X138085000Y-100819000D01*
X136180000Y-99779000D02*
X142070000Y-99779000D01*
X140165000Y-101539000D02*
X143061000Y-101539000D01*
X135048000Y-102460000D02*
X143202000Y-102460000D01*
X135073000Y-102140000D02*
X143177000Y-102140000D01*
X137672000Y-98779000D02*
X140578000Y-98779000D01*
X140165000Y-101499000D02*
X143050000Y-101499000D01*
X136258000Y-99699000D02*
X141992000Y-99699000D01*
X140165000Y-101179000D02*
X142946000Y-101179000D01*
X135681000Y-100419000D02*
X138085000Y-100419000D01*
X135077000Y-102100000D02*
X143173000Y-102100000D01*
X140165000Y-100459000D02*
X142594000Y-100459000D01*
X140165000Y-101019000D02*
X142882000Y-101019000D01*
X140165000Y-100579000D02*
X142665000Y-100579000D01*
X135351000Y-101059000D02*
X138085000Y-101059000D01*
X135200000Y-101499000D02*
X138085000Y-101499000D01*
X135335000Y-101099000D02*
X138085000Y-101099000D01*
X138592000Y-98539000D02*
X139658000Y-98539000D01*
X136299000Y-99659000D02*
X141951000Y-99659000D01*
X136428000Y-99539000D02*
X141822000Y-99539000D01*
X135095000Y-101980000D02*
X143155000Y-101980000D01*
X140165000Y-100859000D02*
X142811000Y-100859000D01*
X135262000Y-101299000D02*
X138085000Y-101299000D01*
X137573000Y-98819000D02*
X140677000Y-98819000D01*
X136959000Y-99139000D02*
X141291000Y-99139000D01*
X135068000Y-102180000D02*
X143182000Y-102180000D01*
X140165000Y-100739000D02*
X142752000Y-100739000D01*
X135045000Y-102540000D02*
X143205000Y-102540000D01*
X135045000Y-102580000D02*
X143205000Y-102580000D01*
X136521000Y-99459000D02*
X141729000Y-99459000D01*
X135608000Y-100539000D02*
X138085000Y-100539000D01*
X135046000Y-102500000D02*
X143204000Y-102500000D01*
X136620000Y-99379000D02*
X141630000Y-99379000D01*
X135101000Y-101940000D02*
X143149000Y-101940000D01*
X135563000Y-100619000D02*
X138085000Y-100619000D01*
X140165000Y-100499000D02*
X142618000Y-100499000D01*
X140165000Y-101619000D02*
X143082000Y-101619000D01*
X137779000Y-98739000D02*
X140471000Y-98739000D01*
X137235000Y-98979000D02*
X141015000Y-98979000D01*
X135845000Y-100179000D02*
X138085000Y-100179000D01*
X140165000Y-100179000D02*
X142405000Y-100179000D01*
X135248000Y-101339000D02*
X138085000Y-101339000D01*
X137091000Y-99059000D02*
X141159000Y-99059000D01*
X135439000Y-100859000D02*
X138085000Y-100859000D01*
X140165000Y-100939000D02*
X142847000Y-100939000D01*
X140165000Y-101339000D02*
X143002000Y-101339000D01*
X135083000Y-102060000D02*
X143167000Y-102060000D01*
X137896000Y-98699000D02*
X140354000Y-98699000D01*
X140165000Y-100339000D02*
X142517000Y-100339000D01*
X135275000Y-101259000D02*
X138085000Y-101259000D01*
X140165000Y-100539000D02*
X142642000Y-100539000D01*
X135421000Y-100899000D02*
X138085000Y-100899000D01*
X140165000Y-101459000D02*
X143039000Y-101459000D01*
X136810000Y-107029698D02*
X136810000Y-106229698D01*
X135969000Y-100019000D02*
X138085000Y-100019000D01*
X140165000Y-100219000D02*
X142434000Y-100219000D01*
X135816000Y-100219000D02*
X138085000Y-100219000D01*
X135123000Y-101819000D02*
X138085000Y-101819000D01*
X140165000Y-101219000D02*
X142960000Y-101219000D01*
X140165000Y-100419000D02*
X142569000Y-100419000D01*
X137480000Y-98859000D02*
X140770000Y-98859000D01*
X135236000Y-101379000D02*
X138085000Y-101379000D01*
X140165000Y-101379000D02*
X143014000Y-101379000D01*
X135304000Y-101179000D02*
X138085000Y-101179000D01*
X140165000Y-100379000D02*
X142543000Y-100379000D01*
X136838000Y-99219000D02*
X141412000Y-99219000D01*
X135178000Y-101579000D02*
X138085000Y-101579000D01*
X136569000Y-99419000D02*
X141681000Y-99419000D01*
X135905000Y-100099000D02*
X138085000Y-100099000D01*
X140165000Y-100779000D02*
X142772000Y-100779000D01*
X140165000Y-101299000D02*
X142988000Y-101299000D01*
X135158000Y-101659000D02*
X138085000Y-101659000D01*
X140165000Y-100299000D02*
X142490000Y-100299000D01*
X140165000Y-101859000D02*
X143135000Y-101859000D01*
X140165000Y-100619000D02*
X142687000Y-100619000D01*
X140165000Y-101419000D02*
X143027000Y-101419000D01*
X140165000Y-100979000D02*
X142865000Y-100979000D01*
X135064000Y-102220000D02*
X143186000Y-102220000D01*
X135936000Y-100059000D02*
X138085000Y-100059000D01*
X136410000Y-106629698D02*
X137210000Y-106629698D01*
X143245000Y-102620000D02*
G75*
G03*
X143245000Y-102620000I-4120000J0D01*
G01*
X144735436Y-76580000D02*
X149089564Y-76580000D01*
X144735436Y-80000000D02*
X149089564Y-80000000D01*
D13*
X114575000Y-102745000D02*
X114575000Y-106045000D01*
X119475000Y-102745000D02*
X119475000Y-106045000D01*
D10*
X119825000Y-101695000D02*
G75*
G03*
X119825000Y-101695000I-100000J0D01*
G01*
D13*
X119475000Y-94920000D02*
X119475000Y-98220000D01*
X114575000Y-94920000D02*
X114575000Y-98220000D01*
D10*
X119825000Y-93870000D02*
G75*
G03*
X119825000Y-93870000I-100000J0D01*
G01*
D12*
X120880000Y-99628641D02*
X120880000Y-99321359D01*
X120120000Y-99628641D02*
X120120000Y-99321359D01*
X137878641Y-73405000D02*
X137571359Y-73405000D01*
X137878641Y-72645000D02*
X137571359Y-72645000D01*
X153517200Y-67244100D02*
X153517200Y-67536851D01*
X153517200Y-72463149D02*
X153517200Y-72755900D01*
X153517200Y-72755900D02*
X157682800Y-72755900D01*
X157682800Y-67244100D02*
X153517200Y-67244100D01*
X157682800Y-72755900D02*
X157682800Y-72463149D01*
X157682800Y-67536851D02*
X157682800Y-67244100D01*
X153211803Y-67500000D02*
G75*
G03*
X153211803Y-67500000I-111803J0D01*
G01*
X153100000Y-67500000D02*
G75*
G03*
X153100000Y-67500000I0J0D01*
G01*
X162760000Y-73365580D02*
X162760000Y-73084420D01*
X161740000Y-73365580D02*
X161740000Y-73084420D01*
X135460000Y-129532983D02*
X135460000Y-129167017D01*
X132040000Y-129532983D02*
X132040000Y-129167017D01*
X179052063Y-80690099D02*
X179267735Y-80690099D01*
X179052063Y-79970099D02*
X179267735Y-79970099D01*
X111720000Y-131685000D02*
X113870000Y-131685000D01*
X113570000Y-131385000D02*
X113570000Y-126015000D01*
X113870000Y-131685000D02*
X113870000Y-129555000D01*
X113570000Y-126015000D02*
X116430000Y-126015000D01*
X107370000Y-131385000D02*
X113570000Y-131385000D01*
X113570000Y-115225000D02*
X113570000Y-120595000D01*
X107370000Y-115225000D02*
X113570000Y-115225000D01*
X113570000Y-120595000D02*
X116430000Y-120595000D01*
X116430000Y-120595000D02*
X116430000Y-123305000D01*
X107370000Y-123305000D02*
X107370000Y-131385000D01*
X116430000Y-126015000D02*
X116430000Y-123305000D01*
X107370000Y-123305000D02*
X107370000Y-115225000D01*
X121490000Y-84858748D02*
X121490000Y-86281252D01*
X124210000Y-84858748D02*
X124210000Y-86281252D01*
X157440000Y-135844139D02*
X157440000Y-135184139D01*
X157440000Y-137504139D02*
X159470000Y-137504139D01*
X157440000Y-137504139D02*
X157440000Y-136844139D01*
X158850000Y-135184139D02*
X157440000Y-135184139D01*
X126297500Y-76099800D02*
X128202500Y-76099800D01*
X128202500Y-76099800D02*
X128202500Y-75141740D01*
X126297500Y-74191739D02*
X126297500Y-74858261D01*
X128202500Y-72950200D02*
X126297500Y-72950200D01*
X128202500Y-73908260D02*
X128202500Y-72950200D01*
X126026200Y-73025000D02*
G75*
G03*
X126026200Y-73025000I-76200J0D01*
G01*
X181850000Y-114696359D02*
X171630000Y-114696359D01*
X181850000Y-114696359D02*
X181850000Y-117296359D01*
X181850000Y-117296359D02*
X184450000Y-117296359D01*
X184450000Y-119896359D02*
X171630000Y-119896359D01*
X184450000Y-117296359D02*
X184450000Y-119896359D01*
X183120000Y-114696359D02*
X184450000Y-114696359D01*
X184450000Y-114696359D02*
X184450000Y-116026359D01*
X171630000Y-114696359D02*
X171630000Y-119896359D01*
X161770000Y-69233748D02*
X161770000Y-69756252D01*
X159550000Y-69233748D02*
X159550000Y-69756252D01*
X155562164Y-66945000D02*
X155777836Y-66945000D01*
X155562164Y-66225000D02*
X155777836Y-66225000D01*
X179087735Y-66690099D02*
X178872063Y-66690099D01*
X179087735Y-65970099D02*
X178872063Y-65970099D01*
X126137349Y-112520000D02*
X126137349Y-120680000D01*
X126377349Y-112529000D02*
X126377349Y-120671000D01*
X127738349Y-117640000D02*
X127738349Y-120340000D01*
X129818349Y-114869000D02*
X129818349Y-118331000D01*
X127618349Y-117640000D02*
X127618349Y-120390000D01*
X129738349Y-114710000D02*
X129738349Y-118490000D01*
X127138349Y-117640000D02*
X127138349Y-120547000D01*
X127018349Y-117640000D02*
X127018349Y-120576000D01*
X127058349Y-117640000D02*
X127058349Y-120567000D01*
X128818349Y-117640000D02*
X128818349Y-119655000D01*
X129018349Y-113733000D02*
X129018349Y-119467000D01*
X129898349Y-115048000D02*
X129898349Y-118152000D01*
X126097349Y-112520000D02*
X126097349Y-120680000D01*
X129458349Y-114255000D02*
X129458349Y-118945000D01*
X127218349Y-117640000D02*
X127218349Y-120525000D01*
X128458349Y-113262000D02*
X128458349Y-115560000D01*
X129578349Y-114434000D02*
X129578349Y-118766000D01*
X126777349Y-112576000D02*
X126777349Y-120624000D01*
X127418349Y-117640000D02*
X127418349Y-120463000D01*
X128338349Y-117640000D02*
X128338349Y-120018000D01*
X127058349Y-112633000D02*
X127058349Y-115560000D01*
X126497349Y-112539000D02*
X126497349Y-120661000D01*
X128458349Y-117640000D02*
X128458349Y-119938000D01*
X129498349Y-114313000D02*
X129498349Y-118887000D01*
X129778349Y-114787000D02*
X129778349Y-118413000D01*
X127578349Y-112795000D02*
X127578349Y-115560000D01*
X128538349Y-113320000D02*
X128538349Y-115560000D01*
X128178349Y-117640000D02*
X128178349Y-120117000D01*
X126858349Y-112590000D02*
X126858349Y-115560000D01*
X128298349Y-117640000D02*
X128298349Y-120044000D01*
X128298349Y-113156000D02*
X128298349Y-115560000D01*
X127698349Y-117640000D02*
X127698349Y-120357000D01*
X128778349Y-117640000D02*
X128778349Y-119690000D01*
X128578349Y-113350000D02*
X128578349Y-115560000D01*
X130098349Y-115652000D02*
X130098349Y-117548000D01*
X128498349Y-113291000D02*
X128498349Y-115560000D01*
X127458349Y-117640000D02*
X127458349Y-120450000D01*
X129618349Y-114498000D02*
X129618349Y-118702000D01*
X128378349Y-113208000D02*
X128378349Y-115560000D01*
X128098349Y-117640000D02*
X128098349Y-120162000D01*
X127138349Y-112653000D02*
X127138349Y-115560000D01*
X126898349Y-112598000D02*
X126898349Y-115560000D01*
X127098349Y-117640000D02*
X127098349Y-120557000D01*
X127978349Y-117640000D02*
X127978349Y-120227000D01*
X129298349Y-114044000D02*
X129298349Y-119156000D01*
X128218349Y-113107000D02*
X128218349Y-115560000D01*
X126858349Y-117640000D02*
X126858349Y-120610000D01*
X129338349Y-114095000D02*
X129338349Y-119105000D01*
X127258349Y-117640000D02*
X127258349Y-120514000D01*
X128618349Y-113380000D02*
X128618349Y-115560000D01*
X129658349Y-114566000D02*
X129658349Y-118634000D01*
X128018349Y-117640000D02*
X128018349Y-120206000D01*
X127818349Y-112896000D02*
X127818349Y-115560000D01*
X128418349Y-117640000D02*
X128418349Y-119965000D01*
X127778349Y-112878000D02*
X127778349Y-115560000D01*
X127578349Y-117640000D02*
X127578349Y-120405000D01*
X128938349Y-113655000D02*
X128938349Y-119545000D01*
X127178349Y-112664000D02*
X127178349Y-115560000D01*
X127178349Y-117640000D02*
X127178349Y-120536000D01*
X128258349Y-117640000D02*
X128258349Y-120069000D01*
X129378349Y-114146000D02*
X129378349Y-119054000D01*
X128018349Y-112994000D02*
X128018349Y-115560000D01*
X129178349Y-113903000D02*
X129178349Y-119297000D01*
X128738349Y-117640000D02*
X128738349Y-119724000D01*
X122087651Y-113885000D02*
X122087651Y-114685000D01*
X128698349Y-113444000D02*
X128698349Y-115560000D01*
X129858349Y-114955000D02*
X129858349Y-118245000D01*
X128178349Y-113083000D02*
X128178349Y-115560000D01*
X127338349Y-117640000D02*
X127338349Y-120489000D01*
X127458349Y-112750000D02*
X127458349Y-115560000D01*
X129978349Y-115254000D02*
X129978349Y-117946000D01*
X126297349Y-112524000D02*
X126297349Y-120676000D01*
X127218349Y-112675000D02*
X127218349Y-115560000D01*
X128258349Y-113131000D02*
X128258349Y-115560000D01*
X127898349Y-112934000D02*
X127898349Y-115560000D01*
X128058349Y-113016000D02*
X128058349Y-115560000D01*
X127658349Y-112826000D02*
X127658349Y-115560000D01*
X128898349Y-113617000D02*
X128898349Y-119583000D01*
X129058349Y-113774000D02*
X129058349Y-119426000D01*
X129258349Y-113996000D02*
X129258349Y-119204000D01*
X128338349Y-113182000D02*
X128338349Y-115560000D01*
X126898349Y-117640000D02*
X126898349Y-120602000D01*
X128858349Y-117640000D02*
X128858349Y-119619000D01*
X129538349Y-114372000D02*
X129538349Y-118828000D01*
X128978349Y-113693000D02*
X128978349Y-119507000D01*
X129938349Y-115147000D02*
X129938349Y-118053000D01*
X126617349Y-112552000D02*
X126617349Y-120648000D01*
X128658349Y-117640000D02*
X128658349Y-119789000D01*
X127978349Y-112973000D02*
X127978349Y-115560000D01*
X128498349Y-117640000D02*
X128498349Y-119909000D01*
X126337349Y-112526000D02*
X126337349Y-120674000D01*
X127258349Y-112686000D02*
X127258349Y-115560000D01*
X129698349Y-114636000D02*
X129698349Y-118564000D01*
X127778349Y-117640000D02*
X127778349Y-120322000D01*
X128858349Y-113581000D02*
X128858349Y-115560000D01*
X128658349Y-113411000D02*
X128658349Y-115560000D01*
X128538349Y-117640000D02*
X128538349Y-119880000D01*
X127858349Y-112914000D02*
X127858349Y-115560000D01*
X127738349Y-112860000D02*
X127738349Y-115560000D01*
X126657349Y-112558000D02*
X126657349Y-120642000D01*
X129098349Y-113816000D02*
X129098349Y-119384000D01*
X130138349Y-115832000D02*
X130138349Y-117368000D01*
X127298349Y-112698000D02*
X127298349Y-115560000D01*
X127498349Y-112765000D02*
X127498349Y-115560000D01*
X126577349Y-112548000D02*
X126577349Y-120652000D01*
X126737349Y-112570000D02*
X126737349Y-120630000D01*
X127658349Y-117640000D02*
X127658349Y-120374000D01*
X127378349Y-117640000D02*
X127378349Y-120477000D01*
X128778349Y-113510000D02*
X128778349Y-115560000D01*
X127898349Y-117640000D02*
X127898349Y-120266000D01*
X127018349Y-112624000D02*
X127018349Y-115560000D01*
X126257349Y-112523000D02*
X126257349Y-120677000D01*
X126417349Y-112532000D02*
X126417349Y-120668000D01*
X128378349Y-117640000D02*
X128378349Y-119992000D01*
X128618349Y-117640000D02*
X128618349Y-119820000D01*
X128138349Y-117640000D02*
X128138349Y-120140000D01*
X121687651Y-114285000D02*
X122487651Y-114285000D01*
X128418349Y-113235000D02*
X128418349Y-115560000D01*
X127298349Y-117640000D02*
X127298349Y-120502000D01*
X126978349Y-112615000D02*
X126978349Y-115560000D01*
X127098349Y-112643000D02*
X127098349Y-115560000D01*
X130058349Y-115502000D02*
X130058349Y-117698000D01*
X126978349Y-117640000D02*
X126978349Y-120585000D01*
X128738349Y-113476000D02*
X128738349Y-115560000D01*
X126697349Y-112563000D02*
X126697349Y-120637000D01*
X127538349Y-112779000D02*
X127538349Y-115560000D01*
X128818349Y-113545000D02*
X128818349Y-115560000D01*
X126818349Y-112583000D02*
X126818349Y-115560000D01*
X127818349Y-117640000D02*
X127818349Y-120304000D01*
X126177349Y-112520000D02*
X126177349Y-120680000D01*
X126217349Y-112521000D02*
X126217349Y-120679000D01*
X126457349Y-112535000D02*
X126457349Y-120665000D01*
X128698349Y-117640000D02*
X128698349Y-119756000D01*
X127698349Y-112843000D02*
X127698349Y-115560000D01*
X127618349Y-112810000D02*
X127618349Y-115560000D01*
X128218349Y-117640000D02*
X128218349Y-120093000D01*
X129138349Y-113859000D02*
X129138349Y-119341000D01*
X127858349Y-117640000D02*
X127858349Y-120286000D01*
X130178349Y-116067000D02*
X130178349Y-117133000D01*
X128058349Y-117640000D02*
X128058349Y-120184000D01*
X127938349Y-117640000D02*
X127938349Y-120247000D01*
X127538349Y-117640000D02*
X127538349Y-120421000D01*
X128098349Y-113038000D02*
X128098349Y-115560000D01*
X130018349Y-115371000D02*
X130018349Y-117829000D01*
X126938349Y-117640000D02*
X126938349Y-120594000D01*
X127338349Y-112711000D02*
X127338349Y-115560000D01*
X126938349Y-112606000D02*
X126938349Y-115560000D01*
X126537349Y-112543000D02*
X126537349Y-120657000D01*
X127938349Y-112953000D02*
X127938349Y-115560000D01*
X127378349Y-112723000D02*
X127378349Y-115560000D01*
X129418349Y-114200000D02*
X129418349Y-119000000D01*
X126818349Y-117640000D02*
X126818349Y-120617000D01*
X128138349Y-113060000D02*
X128138349Y-115560000D01*
X128578349Y-117640000D02*
X128578349Y-119850000D01*
X127418349Y-112737000D02*
X127418349Y-115560000D01*
X127498349Y-117640000D02*
X127498349Y-120435000D01*
X129218349Y-113949000D02*
X129218349Y-119251000D01*
X130217349Y-116600000D02*
G75*
G03*
X130217349Y-116600000I-4120000J0D01*
G01*
D13*
X165455000Y-74875000D02*
X164795000Y-74875000D01*
X164795000Y-71975000D02*
X165455000Y-71975000D01*
X165925000Y-73090000D02*
X165925000Y-73760000D01*
D10*
X164115000Y-71775000D02*
G75*
G03*
X164115000Y-71775000I-100000J0D01*
G01*
D12*
X111345000Y-113621359D02*
X111345000Y-113928641D01*
X112105000Y-113621359D02*
X112105000Y-113928641D01*
X164295000Y-83188641D02*
X164295000Y-82881359D01*
X163535000Y-83188641D02*
X163535000Y-82881359D01*
X168460000Y-73340580D02*
X168460000Y-73059420D01*
X167440000Y-73340580D02*
X167440000Y-73059420D01*
X124253641Y-73405000D02*
X123946359Y-73405000D01*
X124253641Y-72645000D02*
X123946359Y-72645000D01*
X165070000Y-68458748D02*
X165070000Y-69881252D01*
X162350000Y-68458748D02*
X162350000Y-69881252D01*
X130170000Y-74400000D02*
X130170000Y-73740000D01*
X130170000Y-76060000D02*
X132200000Y-76060000D01*
X130170000Y-76060000D02*
X130170000Y-75400000D01*
X131580000Y-73740000D02*
X130170000Y-73740000D01*
X124815000Y-103563748D02*
X124815000Y-104986252D01*
X127535000Y-103563748D02*
X127535000Y-104986252D01*
X118483000Y-66660359D02*
X118483000Y-66967641D01*
X119243000Y-66660359D02*
X119243000Y-66967641D01*
X156497836Y-73075000D02*
X156282164Y-73075000D01*
X156497836Y-73795000D02*
X156282164Y-73795000D01*
D13*
X114575000Y-114067349D02*
X114575000Y-110767349D01*
X119475000Y-114067349D02*
X119475000Y-110767349D01*
D10*
X114425000Y-115117349D02*
G75*
G03*
X114425000Y-115117349I-100000J0D01*
G01*
D12*
X152861359Y-77290000D02*
X153168641Y-77290000D01*
X152861359Y-76530000D02*
X153168641Y-76530000D01*
X124235000Y-103563748D02*
X124235000Y-104986252D01*
X121515000Y-103563748D02*
X121515000Y-104986252D01*
M02*
