G04 #@! TF.GenerationSoftware,KiCad,Pcbnew,(6.0.0)*
G04 #@! TF.CreationDate,2022-02-12T01:51:37-05:00*
G04 #@! TF.ProjectId,FalconMain,46616c63-6f6e-44d6-9169-6e2e6b696361,1A*
G04 #@! TF.SameCoordinates,Original*
G04 #@! TF.FileFunction,Soldermask,Bot*
G04 #@! TF.FilePolarity,Negative*
%FSLAX46Y46*%
G04 Gerber Fmt 4.6, Leading zero omitted, Abs format (unit mm)*
G04 Created by KiCad (PCBNEW (6.0.0)) date 2022-02-12 01:51:37*
%MOMM*%
%LPD*%
G01*
G04 APERTURE LIST*
G04 Aperture macros list*
%AMRoundRect*
0 Rectangle with rounded corners*
0 $1 Rounding radius*
0 $2 $3 $4 $5 $6 $7 $8 $9 X,Y pos of 4 corners*
0 Add a 4 corners polygon primitive as box body*
4,1,4,$2,$3,$4,$5,$6,$7,$8,$9,$2,$3,0*
0 Add four circle primitives for the rounded corners*
1,1,$1+$1,$2,$3*
1,1,$1+$1,$4,$5*
1,1,$1+$1,$6,$7*
1,1,$1+$1,$8,$9*
0 Add four rect primitives between the rounded corners*
20,1,$1+$1,$2,$3,$4,$5,0*
20,1,$1+$1,$4,$5,$6,$7,0*
20,1,$1+$1,$6,$7,$8,$9,0*
20,1,$1+$1,$8,$9,$2,$3,0*%
%AMFreePoly0*
4,1,23,0.945671,0.830970,1.026777,0.776777,1.080970,0.695671,1.100000,0.600000,1.100000,-0.600000,1.080970,-0.695671,1.026777,-0.776777,0.945671,-0.830970,0.850000,-0.850000,-0.450000,-0.850000,-0.545671,-0.830970,-0.626777,-0.776777,-0.626779,-0.776774,-1.026777,-0.376777,-1.080970,-0.295671,-1.100000,-0.200000,-1.100000,0.600000,-1.080970,0.695671,-1.026777,0.776777,-0.945671,0.830970,
-0.850000,0.850000,0.850000,0.850000,0.945671,0.830970,0.945671,0.830970,$1*%
G04 Aperture macros list end*
%ADD10C,2.700000*%
%ADD11C,1.000000*%
%ADD12C,1.300000*%
%ADD13RoundRect,0.250000X0.600000X-0.850000X0.600000X0.850000X-0.600000X0.850000X-0.600000X-0.850000X0*%
%ADD14O,1.700000X2.200000*%
%ADD15C,5.500000*%
%ADD16R,1.700000X1.700000*%
%ADD17O,1.700000X1.700000*%
%ADD18C,1.200000*%
%ADD19RoundRect,0.250000X-0.600000X-0.725000X0.600000X-0.725000X0.600000X0.725000X-0.600000X0.725000X0*%
%ADD20O,1.700000X1.950000*%
%ADD21R,1.600000X1.600000*%
%ADD22C,1.600000*%
%ADD23FreePoly0,180.000000*%
%ADD24O,2.200000X1.700000*%
%ADD25RoundRect,0.250000X-0.600000X0.850000X-0.600000X-0.850000X0.600000X-0.850000X0.600000X0.850000X0*%
%ADD26RoundRect,0.250000X0.600000X0.600000X-0.600000X0.600000X-0.600000X-0.600000X0.600000X-0.600000X0*%
%ADD27C,1.700000*%
%ADD28RoundRect,0.140000X0.140000X0.170000X-0.140000X0.170000X-0.140000X-0.170000X0.140000X-0.170000X0*%
%ADD29RoundRect,0.140000X0.170000X-0.140000X0.170000X0.140000X-0.170000X0.140000X-0.170000X-0.140000X0*%
%ADD30RoundRect,0.135000X-0.135000X-0.185000X0.135000X-0.185000X0.135000X0.185000X-0.135000X0.185000X0*%
%ADD31RoundRect,0.200000X-0.275000X0.200000X-0.275000X-0.200000X0.275000X-0.200000X0.275000X0.200000X0*%
%ADD32RoundRect,0.135000X0.185000X-0.135000X0.185000X0.135000X-0.185000X0.135000X-0.185000X-0.135000X0*%
%ADD33RoundRect,0.225000X0.250000X-0.225000X0.250000X0.225000X-0.250000X0.225000X-0.250000X-0.225000X0*%
%ADD34RoundRect,0.135000X0.135000X0.185000X-0.135000X0.185000X-0.135000X-0.185000X0.135000X-0.185000X0*%
%ADD35RoundRect,0.135000X-0.185000X0.135000X-0.185000X-0.135000X0.185000X-0.135000X0.185000X0.135000X0*%
%ADD36RoundRect,0.225000X-0.250000X0.225000X-0.250000X-0.225000X0.250000X-0.225000X0.250000X0.225000X0*%
%ADD37RoundRect,0.140000X-0.140000X-0.170000X0.140000X-0.170000X0.140000X0.170000X-0.140000X0.170000X0*%
%ADD38RoundRect,0.147500X0.172500X-0.147500X0.172500X0.147500X-0.172500X0.147500X-0.172500X-0.147500X0*%
%ADD39R,1.600200X0.355600*%
%ADD40R,1.193800X0.304800*%
%ADD41R,0.304800X1.193800*%
%ADD42RoundRect,0.140000X-0.170000X0.140000X-0.170000X-0.140000X0.170000X-0.140000X0.170000X0.140000X0*%
%ADD43RoundRect,0.225000X-0.225000X-0.250000X0.225000X-0.250000X0.225000X0.250000X-0.225000X0.250000X0*%
%ADD44R,0.330200X1.524000*%
G04 APERTURE END LIST*
D10*
X110000000Y-135010000D03*
D11*
X184939899Y-70480099D03*
X186839899Y-70480099D03*
D12*
X162050000Y-131510000D03*
D13*
X158300000Y-130170000D03*
D14*
X160800000Y-130170000D03*
X163300000Y-130170000D03*
X165800000Y-130170000D03*
X168300000Y-130170000D03*
D10*
X130000000Y-61000000D03*
D15*
X127600000Y-133555000D03*
X118600000Y-133555000D03*
D16*
X162825000Y-122860000D03*
D17*
X162825000Y-125400000D03*
X160285000Y-122860000D03*
X160285000Y-125400000D03*
X157745000Y-122860000D03*
X157745000Y-125400000D03*
D18*
X140900000Y-135980000D03*
D19*
X142500000Y-133980000D03*
D20*
X145000000Y-133980000D03*
X147500000Y-133980000D03*
X150000000Y-133980000D03*
X152500000Y-133980000D03*
D16*
X162800000Y-116020000D03*
D17*
X162800000Y-118560000D03*
X160260000Y-116020000D03*
X160260000Y-118560000D03*
X157720000Y-116020000D03*
X157720000Y-118560000D03*
X155180000Y-116020000D03*
X155180000Y-118560000D03*
X152640000Y-116020000D03*
X152640000Y-118560000D03*
X150100000Y-116020000D03*
X150100000Y-118560000D03*
X147560000Y-116020000D03*
X147560000Y-118560000D03*
D10*
X188000000Y-61000000D03*
D21*
X134517621Y-134655000D03*
D22*
X137017621Y-134655000D03*
D12*
X186760000Y-124988000D03*
D23*
X185420000Y-126238000D03*
D24*
X185420000Y-123738000D03*
D10*
X130005000Y-110000000D03*
D12*
X178050000Y-134245000D03*
D25*
X181800000Y-135585000D03*
D14*
X179300000Y-135585000D03*
X176800000Y-135585000D03*
X174300000Y-135585000D03*
X171800000Y-135585000D03*
D10*
X188000000Y-135000000D03*
D21*
X139100000Y-85842349D03*
D22*
X139100000Y-89342349D03*
D10*
X188000000Y-110000000D03*
D16*
X175375000Y-61400000D03*
D17*
X177915000Y-61400000D03*
X180455000Y-61400000D03*
D21*
X139125000Y-104370000D03*
D22*
X139125000Y-100870000D03*
D12*
X113060000Y-123305000D03*
D26*
X111720000Y-129555000D03*
D27*
X111720000Y-127055000D03*
X111720000Y-124555000D03*
X111720000Y-122055000D03*
X111720000Y-119555000D03*
X111720000Y-117055000D03*
X109220000Y-129555000D03*
X109220000Y-127055000D03*
X109220000Y-124555000D03*
X109220000Y-122055000D03*
X109220000Y-119555000D03*
X109220000Y-117055000D03*
D16*
X183120000Y-116026359D03*
D17*
X183120000Y-118566359D03*
X180580000Y-116026359D03*
X180580000Y-118566359D03*
X178040000Y-116026359D03*
X178040000Y-118566359D03*
X175500000Y-116026359D03*
X175500000Y-118566359D03*
X172960000Y-116026359D03*
X172960000Y-118566359D03*
D21*
X124347349Y-116600000D03*
D22*
X127847349Y-116600000D03*
D28*
X143093750Y-124668750D03*
X142133750Y-124668750D03*
D29*
X139040000Y-122190000D03*
X139040000Y-121230000D03*
X126306540Y-90537349D03*
X126306540Y-89577349D03*
D30*
X136730000Y-129818750D03*
X137750000Y-129818750D03*
X138670000Y-128768750D03*
X139690000Y-128768750D03*
D29*
X129100000Y-94742349D03*
X129100000Y-93782349D03*
X156200000Y-124480000D03*
X156200000Y-123520000D03*
D31*
X147500000Y-130275000D03*
X147500000Y-131925000D03*
D32*
X127331540Y-90547349D03*
X127331540Y-89527349D03*
D33*
X132648750Y-121903750D03*
X132648750Y-120353750D03*
D31*
X145000000Y-130275000D03*
X145000000Y-131925000D03*
D33*
X185239899Y-74880099D03*
X185239899Y-73330099D03*
X129000000Y-92537349D03*
X129000000Y-90987349D03*
D32*
X130105000Y-94782349D03*
X130105000Y-93762349D03*
X127125000Y-100022349D03*
X127125000Y-99002349D03*
D34*
X137750000Y-130868750D03*
X136730000Y-130868750D03*
D29*
X183539899Y-69610099D03*
X183539899Y-68650099D03*
D28*
X143073750Y-125668750D03*
X142113750Y-125668750D03*
D35*
X140060000Y-121220000D03*
X140060000Y-122240000D03*
D32*
X129105000Y-96732349D03*
X129105000Y-95712349D03*
D34*
X174710000Y-81050000D03*
X173690000Y-81050000D03*
D29*
X181889899Y-67530099D03*
X181889899Y-66570099D03*
D33*
X132313750Y-125293750D03*
X132313750Y-123743750D03*
D35*
X141113750Y-127608750D03*
X141113750Y-128628750D03*
D32*
X128755000Y-98682349D03*
X128755000Y-97662349D03*
D35*
X141143750Y-124668750D03*
X141143750Y-125688750D03*
D36*
X130748750Y-123713750D03*
X130748750Y-125263750D03*
D37*
X125175000Y-99047349D03*
X126135000Y-99047349D03*
D38*
X186539899Y-76630099D03*
X186539899Y-75660099D03*
D35*
X184420000Y-83480100D03*
X184420000Y-84500100D03*
D29*
X138038750Y-122198750D03*
X138038750Y-121238750D03*
D30*
X138670000Y-129818750D03*
X139690000Y-129818750D03*
D31*
X142500000Y-130275000D03*
X142500000Y-131925000D03*
X150000000Y-130250000D03*
X150000000Y-131900000D03*
D39*
X139518050Y-123246250D03*
X139518050Y-123881250D03*
X139518050Y-124516250D03*
X139518050Y-125151250D03*
X139518050Y-125786250D03*
X139518050Y-126421250D03*
X139518050Y-127056250D03*
X139518050Y-127691250D03*
X134209450Y-127691250D03*
X134209450Y-127056250D03*
X134209450Y-126421250D03*
X134209450Y-125786250D03*
X134209450Y-125151250D03*
X134209450Y-124516250D03*
X134209450Y-123881250D03*
X134209450Y-123246250D03*
D28*
X127230000Y-91537349D03*
X126270000Y-91537349D03*
D35*
X130100000Y-95702349D03*
X130100000Y-96722349D03*
D32*
X137020000Y-122210000D03*
X137020000Y-121190000D03*
D28*
X174739899Y-69630099D03*
X173779899Y-69630099D03*
D40*
X183324998Y-70674999D03*
X183324998Y-71174998D03*
X183324998Y-71675000D03*
X183324998Y-72174999D03*
X183324998Y-72674998D03*
X183324998Y-73174999D03*
X183324998Y-73674999D03*
X183324998Y-74175000D03*
X183324998Y-74674999D03*
X183324998Y-75174998D03*
X183324998Y-75675000D03*
X183324998Y-76174999D03*
D41*
X181824999Y-77674998D03*
X181325000Y-77674998D03*
X180824998Y-77674998D03*
X180324999Y-77674998D03*
X179825000Y-77674998D03*
X179324999Y-77674998D03*
X178824999Y-77674998D03*
X178324998Y-77674998D03*
X177824999Y-77674998D03*
X177325000Y-77674998D03*
X176824998Y-77674998D03*
X176324999Y-77674998D03*
D40*
X174825000Y-76174999D03*
X174825000Y-75675000D03*
X174825000Y-75174998D03*
X174825000Y-74674999D03*
X174825000Y-74175000D03*
X174825000Y-73674999D03*
X174825000Y-73174999D03*
X174825000Y-72674998D03*
X174825000Y-72174999D03*
X174825000Y-71675000D03*
X174825000Y-71174998D03*
X174825000Y-70674999D03*
D41*
X176324999Y-69175000D03*
X176824998Y-69175000D03*
X177325000Y-69175000D03*
X177824999Y-69175000D03*
X178324998Y-69175000D03*
X178824999Y-69175000D03*
X179324999Y-69175000D03*
X179825000Y-69175000D03*
X180324999Y-69175000D03*
X180824998Y-69175000D03*
X181325000Y-69175000D03*
X181824999Y-69175000D03*
D30*
X136740000Y-128768750D03*
X137760000Y-128768750D03*
D33*
X134188750Y-121913750D03*
X134188750Y-120363750D03*
D29*
X186539899Y-74630099D03*
X186539899Y-73670099D03*
D28*
X142043750Y-123668750D03*
X141083750Y-123668750D03*
X142043750Y-126668750D03*
X141083750Y-126668750D03*
D42*
X175239899Y-77770099D03*
X175239899Y-78730099D03*
D43*
X133888750Y-129018750D03*
X135438750Y-129018750D03*
D32*
X185450000Y-84500000D03*
X185450000Y-83480000D03*
D33*
X135728750Y-121913750D03*
X135728750Y-120363750D03*
D32*
X186480000Y-84500100D03*
X186480000Y-83480100D03*
D44*
X125754999Y-93125649D03*
X126255001Y-93125649D03*
X126755000Y-93125649D03*
X127254999Y-93125649D03*
X127755001Y-93125649D03*
X127755001Y-97469049D03*
X127254999Y-97469049D03*
X126755000Y-97469049D03*
X126255001Y-97469049D03*
X125754999Y-97469049D03*
G36*
X126458531Y-123519213D02*
G01*
X126495076Y-123569513D01*
X126500000Y-123600600D01*
X126500000Y-127399400D01*
X126480787Y-127458531D01*
X126430487Y-127495076D01*
X126399400Y-127500000D01*
X123600600Y-127500000D01*
X123541469Y-127480787D01*
X123504924Y-127430487D01*
X123500000Y-127399400D01*
X123500000Y-123600600D01*
X123519213Y-123541469D01*
X123569513Y-123504924D01*
X123600600Y-123500000D01*
X126399400Y-123500000D01*
X126458531Y-123519213D01*
G37*
G36*
X122058531Y-123519213D02*
G01*
X122095076Y-123569513D01*
X122100000Y-123600600D01*
X122100000Y-127399400D01*
X122080787Y-127458531D01*
X122030487Y-127495076D01*
X121999400Y-127500000D01*
X119200600Y-127500000D01*
X119141469Y-127480787D01*
X119104924Y-127430487D01*
X119100000Y-127399400D01*
X119100000Y-123600600D01*
X119119213Y-123541469D01*
X119169513Y-123504924D01*
X119200600Y-123500000D01*
X121999400Y-123500000D01*
X122058531Y-123519213D01*
G37*
G36*
X149942121Y-107020002D02*
G01*
X149988614Y-107073658D01*
X150000000Y-107126000D01*
X150000000Y-112874000D01*
X149979998Y-112942121D01*
X149926342Y-112988614D01*
X149874000Y-113000000D01*
X146126000Y-113000000D01*
X146057879Y-112979998D01*
X146011386Y-112926342D01*
X146000000Y-112874000D01*
X146000000Y-107126000D01*
X146020002Y-107057879D01*
X146073658Y-107011386D01*
X146126000Y-107000000D01*
X149874000Y-107000000D01*
X149942121Y-107020002D01*
G37*
G36*
X172876056Y-95720002D02*
G01*
X172922549Y-95773658D01*
X172933935Y-95826000D01*
X172933935Y-99574000D01*
X172913933Y-99642121D01*
X172860277Y-99688614D01*
X172807935Y-99700000D01*
X166059935Y-99700000D01*
X165991814Y-99679998D01*
X165945321Y-99626342D01*
X165933935Y-99574000D01*
X165933935Y-95826000D01*
X165953937Y-95757879D01*
X166007593Y-95711386D01*
X166059935Y-95700000D01*
X172807935Y-95700000D01*
X172876056Y-95720002D01*
G37*
G36*
X122476338Y-93095298D02*
G01*
X122522831Y-93148954D01*
X122534217Y-93201296D01*
X122534217Y-99949296D01*
X122514215Y-100017417D01*
X122460559Y-100063910D01*
X122408217Y-100075296D01*
X114660217Y-100075296D01*
X114592096Y-100055294D01*
X114545603Y-100001638D01*
X114534217Y-99949296D01*
X114534217Y-93201296D01*
X114554219Y-93133175D01*
X114607875Y-93086682D01*
X114660217Y-93075296D01*
X122408217Y-93075296D01*
X122476338Y-93095298D01*
G37*
G36*
X140892121Y-107020002D02*
G01*
X140938614Y-107073658D01*
X140950000Y-107126000D01*
X140950000Y-112874000D01*
X140929998Y-112942121D01*
X140876342Y-112988614D01*
X140824000Y-113000000D01*
X137076000Y-113000000D01*
X137007879Y-112979998D01*
X136961386Y-112926342D01*
X136950000Y-112874000D01*
X136950000Y-107126000D01*
X136970002Y-107057879D01*
X137023658Y-107011386D01*
X137076000Y-107000000D01*
X140824000Y-107000000D01*
X140892121Y-107020002D01*
G37*
G36*
X163884620Y-99807282D02*
G01*
X163931113Y-99860938D01*
X163942499Y-99913280D01*
X163942499Y-106661280D01*
X163922497Y-106729401D01*
X163868841Y-106775894D01*
X163816499Y-106787280D01*
X157068499Y-106787280D01*
X157000378Y-106767278D01*
X156953885Y-106713622D01*
X156942499Y-106661280D01*
X156942499Y-99913280D01*
X156962501Y-99845159D01*
X157016157Y-99798666D01*
X157068499Y-99787280D01*
X163816499Y-99787280D01*
X163884620Y-99807282D01*
G37*
G36*
X119475938Y-103057447D02*
G01*
X119522431Y-103111103D01*
X119533817Y-103163445D01*
X119533817Y-112911445D01*
X119513815Y-112979566D01*
X119460159Y-113026059D01*
X119407817Y-113037445D01*
X114659817Y-113037445D01*
X114591696Y-113017443D01*
X114545203Y-112963787D01*
X114533817Y-112911445D01*
X114533817Y-103163445D01*
X114553819Y-103095324D01*
X114607475Y-103048831D01*
X114659817Y-103037445D01*
X119407817Y-103037445D01*
X119475938Y-103057447D01*
G37*
M02*
