G04 #@! TF.GenerationSoftware,KiCad,Pcbnew,(6.0.0)*
G04 #@! TF.CreationDate,2022-02-12T00:08:26-05:00*
G04 #@! TF.ProjectId,FalconRHS,46616c63-6f6e-4524-9853-2e6b69636164,1A*
G04 #@! TF.SameCoordinates,Original*
G04 #@! TF.FileFunction,Legend,Top*
G04 #@! TF.FilePolarity,Positive*
%FSLAX46Y46*%
G04 Gerber Fmt 4.6, Leading zero omitted, Abs format (unit mm)*
G04 Created by KiCad (PCBNEW (6.0.0)) date 2022-02-12 00:08:26*
%MOMM*%
%LPD*%
G01*
G04 APERTURE LIST*
%ADD10C,0.150000*%
%ADD11C,0.120000*%
G04 APERTURE END LIST*
D10*
X142261904Y-125152380D02*
X142261904Y-124152380D01*
X142500000Y-124152380D01*
X142642857Y-124200000D01*
X142738095Y-124295238D01*
X142785714Y-124390476D01*
X142833333Y-124580952D01*
X142833333Y-124723809D01*
X142785714Y-124914285D01*
X142738095Y-125009523D01*
X142642857Y-125104761D01*
X142500000Y-125152380D01*
X142261904Y-125152380D01*
X143404761Y-124580952D02*
X143309523Y-124533333D01*
X143261904Y-124485714D01*
X143214285Y-124390476D01*
X143214285Y-124342857D01*
X143261904Y-124247619D01*
X143309523Y-124200000D01*
X143404761Y-124152380D01*
X143595238Y-124152380D01*
X143690476Y-124200000D01*
X143738095Y-124247619D01*
X143785714Y-124342857D01*
X143785714Y-124390476D01*
X143738095Y-124485714D01*
X143690476Y-124533333D01*
X143595238Y-124580952D01*
X143404761Y-124580952D01*
X143309523Y-124628571D01*
X143261904Y-124676190D01*
X143214285Y-124771428D01*
X143214285Y-124961904D01*
X143261904Y-125057142D01*
X143309523Y-125104761D01*
X143404761Y-125152380D01*
X143595238Y-125152380D01*
X143690476Y-125104761D01*
X143738095Y-125057142D01*
X143785714Y-124961904D01*
X143785714Y-124771428D01*
X143738095Y-124676190D01*
X143690476Y-124628571D01*
X143595238Y-124580952D01*
X162842096Y-114589533D02*
X162304899Y-115432990D01*
X162104076Y-115305086D01*
X162009163Y-115188179D01*
X161979995Y-115056688D01*
X161990992Y-114950778D01*
X162053151Y-114764539D01*
X162129893Y-114644045D01*
X162272381Y-114508967D01*
X162363707Y-114454219D01*
X162495198Y-114425051D01*
X162641273Y-114461629D01*
X162842096Y-114589533D01*
X161552768Y-114841045D02*
X161487023Y-114855629D01*
X161381113Y-114844632D01*
X161180290Y-114716728D01*
X161125541Y-114625402D01*
X161110957Y-114559656D01*
X161121954Y-114453746D01*
X161173116Y-114373417D01*
X161290023Y-114278504D01*
X162078968Y-114103498D01*
X161556828Y-113770948D01*
X154442097Y-109289533D02*
X153904900Y-110132990D01*
X153704077Y-110005086D01*
X153609164Y-109888179D01*
X153579996Y-109756688D01*
X153590993Y-109650778D01*
X153653152Y-109464539D01*
X153729894Y-109344045D01*
X153872382Y-109208967D01*
X153963708Y-109154219D01*
X154095199Y-109125051D01*
X154241274Y-109161629D01*
X154442097Y-109289533D01*
X152879027Y-109084414D02*
X153237158Y-108522109D01*
X152875204Y-109533635D02*
X153459739Y-109059069D01*
X152937599Y-108726519D01*
X152261904Y-125152380D02*
X152261904Y-124152380D01*
X152500000Y-124152380D01*
X152642857Y-124200000D01*
X152738095Y-124295238D01*
X152785714Y-124390476D01*
X152833333Y-124580952D01*
X152833333Y-124723809D01*
X152785714Y-124914285D01*
X152738095Y-125009523D01*
X152642857Y-125104761D01*
X152500000Y-125152380D01*
X152261904Y-125152380D01*
X153166666Y-124152380D02*
X153833333Y-124152380D01*
X153404761Y-125152380D01*
X132261904Y-125052380D02*
X132261904Y-124052380D01*
X132500000Y-124052380D01*
X132642857Y-124100000D01*
X132738095Y-124195238D01*
X132785714Y-124290476D01*
X132833333Y-124480952D01*
X132833333Y-124623809D01*
X132785714Y-124814285D01*
X132738095Y-124909523D01*
X132642857Y-125004761D01*
X132500000Y-125052380D01*
X132261904Y-125052380D01*
X133690476Y-124052380D02*
X133500000Y-124052380D01*
X133404761Y-124100000D01*
X133357142Y-124147619D01*
X133261904Y-124290476D01*
X133214285Y-124480952D01*
X133214285Y-124861904D01*
X133261904Y-124957142D01*
X133309523Y-125004761D01*
X133404761Y-125052380D01*
X133595238Y-125052380D01*
X133690476Y-125004761D01*
X133738095Y-124957142D01*
X133785714Y-124861904D01*
X133785714Y-124623809D01*
X133738095Y-124528571D01*
X133690476Y-124480952D01*
X133595238Y-124433333D01*
X133404761Y-124433333D01*
X133309523Y-124480952D01*
X133261904Y-124528571D01*
X133214285Y-124623809D01*
X145942097Y-103889533D02*
X145404900Y-104732990D01*
X145204077Y-104605086D01*
X145109164Y-104488179D01*
X145079996Y-104356688D01*
X145090993Y-104250778D01*
X145153152Y-104064539D01*
X145229894Y-103944045D01*
X145372382Y-103808967D01*
X145463708Y-103754219D01*
X145595199Y-103725051D01*
X145741274Y-103761629D01*
X145942097Y-103889533D01*
X144641772Y-104246955D02*
X144119632Y-103914405D01*
X144605431Y-103772153D01*
X144484937Y-103695411D01*
X144430188Y-103604085D01*
X144415605Y-103538339D01*
X144426602Y-103432429D01*
X144554506Y-103231606D01*
X144645832Y-103176858D01*
X144711577Y-103162274D01*
X144817487Y-103173271D01*
X145058475Y-103326755D01*
X145113223Y-103418082D01*
X145127807Y-103483827D01*
D11*
X143050000Y-121150000D02*
X142950000Y-121150000D01*
X143050000Y-122850000D02*
X142950000Y-122850000D01*
X143000000Y-121150000D02*
X143050000Y-121150000D01*
X145600000Y-122000000D02*
X145450000Y-122150000D01*
X145450000Y-122150000D02*
X145450000Y-121850000D01*
X145450000Y-121850000D02*
X145600000Y-122000000D01*
G36*
X145600000Y-122000000D02*
G01*
X145450000Y-122150000D01*
X145450000Y-121850000D01*
X145600000Y-122000000D01*
G37*
X145600000Y-122000000D02*
X145450000Y-122150000D01*
X145450000Y-121850000D01*
X145600000Y-122000000D01*
X163785219Y-111770294D02*
X163869565Y-111824013D01*
X162871985Y-113204171D02*
X162956331Y-113257890D01*
X162914158Y-113231031D02*
X162871985Y-113204171D01*
X161177786Y-111117381D02*
X161384885Y-111071442D01*
X161384885Y-111071442D02*
X161223726Y-111324479D01*
X161223726Y-111324479D02*
X161177786Y-111117381D01*
G36*
X161223726Y-111324479D02*
G01*
X161177786Y-111117381D01*
X161384885Y-111071442D01*
X161223726Y-111324479D01*
G37*
X161223726Y-111324479D02*
X161177786Y-111117381D01*
X161384885Y-111071442D01*
X161223726Y-111324479D01*
X154435275Y-107835712D02*
X154519621Y-107889431D01*
X154477448Y-107862572D02*
X154435275Y-107835712D01*
X155348509Y-106401835D02*
X155432855Y-106455554D01*
X152741076Y-105748922D02*
X152948175Y-105702983D01*
X152948175Y-105702983D02*
X152787016Y-105956020D01*
X152787016Y-105956020D02*
X152741076Y-105748922D01*
G36*
X152787016Y-105956020D02*
G01*
X152741076Y-105748922D01*
X152948175Y-105702983D01*
X152787016Y-105956020D01*
G37*
X152787016Y-105956020D02*
X152741076Y-105748922D01*
X152948175Y-105702983D01*
X152787016Y-105956020D01*
X153050000Y-122850000D02*
X152950000Y-122850000D01*
X153000000Y-121150000D02*
X153050000Y-121150000D01*
X153050000Y-121150000D02*
X152950000Y-121150000D01*
X155600000Y-122000000D02*
X155450000Y-122150000D01*
X155450000Y-122150000D02*
X155450000Y-121850000D01*
X155450000Y-121850000D02*
X155600000Y-122000000D01*
G36*
X155600000Y-122000000D02*
G01*
X155450000Y-122150000D01*
X155450000Y-121850000D01*
X155600000Y-122000000D01*
G37*
X155600000Y-122000000D02*
X155450000Y-122150000D01*
X155450000Y-121850000D01*
X155600000Y-122000000D01*
X133050000Y-122850000D02*
X132950000Y-122850000D01*
X133000000Y-121150000D02*
X133050000Y-121150000D01*
X133050000Y-121150000D02*
X132950000Y-121150000D01*
X135600000Y-122000000D02*
X135450000Y-122150000D01*
X135450000Y-122150000D02*
X135450000Y-121850000D01*
X135450000Y-121850000D02*
X135600000Y-122000000D01*
G36*
X135600000Y-122000000D02*
G01*
X135450000Y-122150000D01*
X135450000Y-121850000D01*
X135600000Y-122000000D01*
G37*
X135600000Y-122000000D02*
X135450000Y-122150000D01*
X135450000Y-121850000D01*
X135600000Y-122000000D01*
X146058817Y-102467703D02*
X146016644Y-102440843D01*
X146016644Y-102440843D02*
X146100990Y-102494562D01*
X146929878Y-101006966D02*
X147014224Y-101060685D01*
X144322445Y-100354053D02*
X144529544Y-100308114D01*
X144529544Y-100308114D02*
X144368385Y-100561151D01*
X144368385Y-100561151D02*
X144322445Y-100354053D01*
G36*
X144368385Y-100561151D02*
G01*
X144322445Y-100354053D01*
X144529544Y-100308114D01*
X144368385Y-100561151D01*
G37*
X144368385Y-100561151D02*
X144322445Y-100354053D01*
X144529544Y-100308114D01*
X144368385Y-100561151D01*
M02*
