G04 #@! TF.GenerationSoftware,KiCad,Pcbnew,(6.0.0)*
G04 #@! TF.CreationDate,2022-02-12T00:08:26-05:00*
G04 #@! TF.ProjectId,FalconRHS,46616c63-6f6e-4524-9853-2e6b69636164,1A*
G04 #@! TF.SameCoordinates,Original*
G04 #@! TF.FileFunction,Copper,L1,Top*
G04 #@! TF.FilePolarity,Positive*
%FSLAX46Y46*%
G04 Gerber Fmt 4.6, Leading zero omitted, Abs format (unit mm)*
G04 Created by KiCad (PCBNEW (6.0.0)) date 2022-02-12 00:08:26*
%MOMM*%
%LPD*%
G01*
G04 APERTURE LIST*
G04 Aperture macros list*
%AMRotRect*
0 Rectangle, with rotation*
0 The origin of the aperture is its center*
0 $1 length*
0 $2 width*
0 $3 Rotation angle, in degrees counterclockwise*
0 Add horizontal line*
21,1,$1,$2,0,0,$3*%
G04 Aperture macros list end*
G04 #@! TA.AperFunction,SMDPad,CuDef*
%ADD10R,2.000000X3.400000*%
G04 #@! TD*
G04 #@! TA.AperFunction,SMDPad,CuDef*
%ADD11RotRect,2.000000X3.400000X147.507004*%
G04 #@! TD*
G04 #@! TA.AperFunction,ComponentPad*
%ADD12R,1.700000X1.700000*%
G04 #@! TD*
G04 #@! TA.AperFunction,ComponentPad*
%ADD13O,1.700000X1.700000*%
G04 #@! TD*
G04 #@! TA.AperFunction,ViaPad*
%ADD14C,0.800000*%
G04 #@! TD*
G04 #@! TA.AperFunction,ViaPad*
%ADD15C,1.700000*%
G04 #@! TD*
G04 #@! TA.AperFunction,Conductor*
%ADD16C,0.203200*%
G04 #@! TD*
G04 APERTURE END LIST*
D10*
X144150000Y-122000000D03*
X141850000Y-122000000D03*
D11*
X162400799Y-111896316D03*
X164340751Y-113131868D03*
X153964089Y-106527857D03*
X155904041Y-107763409D03*
D10*
X154150000Y-122000000D03*
X151850000Y-122000000D03*
X134150000Y-122000000D03*
X131850000Y-122000000D03*
D11*
X145545458Y-101132988D03*
X147485410Y-102368540D03*
D12*
X121640000Y-121900000D03*
D13*
X119100000Y-121900000D03*
X116560000Y-121900000D03*
D14*
X145700000Y-117400000D03*
X150500000Y-107850000D03*
D15*
X146266600Y-108930500D03*
X133800000Y-119050000D03*
D14*
X132200000Y-110050000D03*
X137100000Y-109450000D03*
X143850000Y-117450000D03*
X137100000Y-110600000D03*
X133400000Y-110050000D03*
X145700000Y-118450000D03*
X143850000Y-118450000D03*
X131300000Y-117550000D03*
X144772665Y-111415146D03*
X164931479Y-115118521D03*
X165752028Y-115647972D03*
X166572577Y-116177423D03*
X146750000Y-98200000D03*
X145961482Y-97688518D03*
X147538518Y-98711482D03*
X130035000Y-121365000D03*
X130035000Y-122365000D03*
X130035000Y-120365000D03*
X156699980Y-124450000D03*
X157699980Y-124450000D03*
X155699980Y-124450000D03*
D16*
X120300000Y-120700000D02*
X123650000Y-120700000D01*
X136250000Y-119700000D02*
X134100000Y-117550000D01*
X144772665Y-118877335D02*
X143950000Y-119700000D01*
X119100000Y-121900000D02*
X120300000Y-120700000D01*
X144772665Y-111415146D02*
X144772665Y-118877335D01*
X123650000Y-120700000D02*
X124650000Y-119700000D01*
X143950000Y-119700000D02*
X136250000Y-119700000D01*
X129150000Y-119700000D02*
X131300000Y-117550000D01*
X134100000Y-117550000D02*
X131300000Y-117550000D01*
X124650000Y-119700000D02*
X129150000Y-119700000D01*
G04 #@! TA.AperFunction,Conductor*
G36*
X166627155Y-107829928D02*
G01*
X174891105Y-113093225D01*
X174930657Y-113141194D01*
X174934461Y-113203251D01*
X174921791Y-113232309D01*
X171572462Y-118464908D01*
X171524402Y-118504353D01*
X171509305Y-118508933D01*
X170814547Y-118661441D01*
X169540829Y-118941037D01*
X169478954Y-118934950D01*
X169464842Y-118927388D01*
X162437295Y-114407642D01*
X162397955Y-114359497D01*
X162394427Y-114297423D01*
X162406861Y-114268989D01*
X166488264Y-107860739D01*
X166536235Y-107821186D01*
X166598292Y-107817382D01*
X166627155Y-107829928D01*
G37*
G04 #@! TD.AperFunction*
G04 #@! TA.AperFunction,Conductor*
G36*
X141254641Y-91670214D02*
G01*
X149381852Y-96846421D01*
X149421405Y-96894392D01*
X149425209Y-96956449D01*
X149412662Y-96985315D01*
X146067146Y-102238141D01*
X145352401Y-103360368D01*
X145304430Y-103399921D01*
X145242373Y-103403725D01*
X145213500Y-103391173D01*
X137893443Y-98727677D01*
X137853897Y-98679702D01*
X137847061Y-98648572D01*
X137751861Y-96982575D01*
X137767610Y-96922536D01*
X137911704Y-96697818D01*
X139447794Y-94302242D01*
X141115913Y-91700764D01*
X141164005Y-91661358D01*
X141226074Y-91657745D01*
X141254641Y-91670214D01*
G37*
G04 #@! TD.AperFunction*
G04 #@! TA.AperFunction,Conductor*
G36*
X158187168Y-102454513D02*
G01*
X166286063Y-107612687D01*
X166325617Y-107660658D01*
X166329420Y-107722715D01*
X166316873Y-107751581D01*
X162245853Y-114143528D01*
X162197882Y-114183081D01*
X162135825Y-114186885D01*
X162106959Y-114174338D01*
X154008063Y-109016164D01*
X153968510Y-108968193D01*
X153964706Y-108906136D01*
X153977253Y-108877270D01*
X158048274Y-102485323D01*
X158096245Y-102445770D01*
X158158302Y-102441966D01*
X158187168Y-102454513D01*
G37*
G04 #@! TD.AperFunction*
G04 #@! TA.AperFunction,Conductor*
G36*
X132855331Y-120019213D02*
G01*
X132891876Y-120069513D01*
X132896800Y-120100600D01*
X132896800Y-127599399D01*
X132877587Y-127658530D01*
X132827287Y-127695075D01*
X132796200Y-127699999D01*
X124941669Y-127699999D01*
X124882538Y-127680786D01*
X124870534Y-127670534D01*
X123129465Y-125929465D01*
X123101239Y-125874067D01*
X123100000Y-125858330D01*
X123100000Y-121692552D01*
X123119213Y-121633421D01*
X123130535Y-121620363D01*
X123791694Y-120978650D01*
X123810931Y-120965816D01*
X123810185Y-120964591D01*
X123816252Y-120960898D01*
X123822779Y-120958094D01*
X123827744Y-120954015D01*
X123832176Y-120949583D01*
X123850517Y-120935085D01*
X123858628Y-120930085D01*
X123876573Y-120906486D01*
X123885516Y-120896243D01*
X124179291Y-120602468D01*
X124180361Y-120601414D01*
X124765268Y-120033711D01*
X124821079Y-120006315D01*
X124835332Y-120005300D01*
X129095636Y-120005300D01*
X129099827Y-120005608D01*
X129104628Y-120007256D01*
X129113907Y-120006908D01*
X129113910Y-120006908D01*
X129154836Y-120005371D01*
X129158610Y-120005300D01*
X129178393Y-120005300D01*
X129182892Y-120004462D01*
X129188180Y-120004119D01*
X129208998Y-120003338D01*
X129209001Y-120003337D01*
X129218282Y-120002989D01*
X129221826Y-120001466D01*
X129235004Y-120000000D01*
X132796200Y-120000000D01*
X132855331Y-120019213D01*
G37*
G04 #@! TD.AperFunction*
G04 #@! TA.AperFunction,Conductor*
G36*
X152855331Y-120019213D02*
G01*
X152891876Y-120069513D01*
X152896800Y-120100600D01*
X152896800Y-127599400D01*
X152877587Y-127658531D01*
X152827287Y-127695076D01*
X152796200Y-127700000D01*
X143200599Y-127700000D01*
X143141469Y-127680787D01*
X143104924Y-127630487D01*
X143100000Y-127599400D01*
X143100000Y-120105900D01*
X143119213Y-120046769D01*
X143169513Y-120010224D01*
X143200600Y-120005300D01*
X143895636Y-120005300D01*
X143899827Y-120005608D01*
X143904628Y-120007256D01*
X143913907Y-120006908D01*
X143913910Y-120006908D01*
X143954836Y-120005371D01*
X143958610Y-120005300D01*
X143978393Y-120005300D01*
X143982892Y-120004462D01*
X143988180Y-120004119D01*
X144008998Y-120003338D01*
X144009001Y-120003337D01*
X144018282Y-120002989D01*
X144021826Y-120001466D01*
X144035004Y-120000000D01*
X152796200Y-120000000D01*
X152855331Y-120019213D01*
G37*
G04 #@! TD.AperFunction*
G04 #@! TA.AperFunction,Conductor*
G36*
X149722943Y-97063662D02*
G01*
X157590735Y-102074646D01*
X157846074Y-102237271D01*
X157885628Y-102285242D01*
X157889431Y-102347299D01*
X157876884Y-102376165D01*
X153812918Y-108757034D01*
X153764947Y-108796588D01*
X153702890Y-108800391D01*
X153674024Y-108787844D01*
X145550896Y-103614237D01*
X145511343Y-103566266D01*
X145507539Y-103504209D01*
X145520086Y-103475343D01*
X146238536Y-102347299D01*
X149584052Y-97094473D01*
X149632023Y-97054920D01*
X149694080Y-97051116D01*
X149722943Y-97063662D01*
G37*
G04 #@! TD.AperFunction*
G04 #@! TA.AperFunction,Conductor*
G36*
X161365815Y-120019213D02*
G01*
X161379767Y-120031468D01*
X163072483Y-121820911D01*
X163099160Y-121877071D01*
X163100000Y-121890043D01*
X163100000Y-127599400D01*
X163080787Y-127658531D01*
X163030487Y-127695076D01*
X162999402Y-127700000D01*
X153200599Y-127700000D01*
X153141469Y-127680787D01*
X153104924Y-127630487D01*
X153100000Y-127599400D01*
X153100000Y-120100600D01*
X153119213Y-120041469D01*
X153169513Y-120004924D01*
X153200600Y-120000000D01*
X161306684Y-120000000D01*
X161365815Y-120019213D01*
G37*
G04 #@! TD.AperFunction*
G04 #@! TA.AperFunction,Conductor*
G36*
X107598031Y-70842088D02*
G01*
X107732689Y-70845438D01*
X107742575Y-70846173D01*
X107857594Y-70860446D01*
X108094584Y-70889854D01*
X108104331Y-70891554D01*
X108358368Y-70948908D01*
X108450339Y-70969673D01*
X108459890Y-70972330D01*
X108796521Y-71084124D01*
X108805765Y-71087709D01*
X109129748Y-71232090D01*
X109138593Y-71236566D01*
X109423451Y-71398840D01*
X109441609Y-71412072D01*
X109442135Y-71412554D01*
X109442139Y-71412557D01*
X109448629Y-71418502D01*
X109456761Y-71421869D01*
X109465122Y-71425331D01*
X109480679Y-71433427D01*
X112279508Y-73215997D01*
X139702817Y-90681859D01*
X140913545Y-91452970D01*
X140953098Y-91500941D01*
X140956902Y-91562998D01*
X140944190Y-91592122D01*
X139276739Y-94192558D01*
X137740649Y-96588134D01*
X137596555Y-96812852D01*
X137594972Y-96816461D01*
X137594971Y-96816463D01*
X137572645Y-96867363D01*
X137572643Y-96867370D01*
X137571060Y-96870978D01*
X137555311Y-96931017D01*
X137548992Y-96994168D01*
X137549217Y-96998106D01*
X137549217Y-96998108D01*
X137638592Y-98562157D01*
X137644192Y-98660165D01*
X137648590Y-98692155D01*
X137655426Y-98723285D01*
X137697100Y-98808950D01*
X137700889Y-98813547D01*
X137700890Y-98813548D01*
X137734128Y-98853871D01*
X137734132Y-98853875D01*
X137736646Y-98856925D01*
X137739613Y-98859550D01*
X137739614Y-98859551D01*
X137781300Y-98896433D01*
X137781305Y-98896437D01*
X137784262Y-98899053D01*
X137787592Y-98901174D01*
X137787594Y-98901176D01*
X144053405Y-102893028D01*
X145104319Y-103562549D01*
X145106059Y-103563474D01*
X145106064Y-103563477D01*
X145130737Y-103576595D01*
X145130745Y-103576599D01*
X145132487Y-103577525D01*
X145161360Y-103590077D01*
X145167207Y-103591107D01*
X145167209Y-103591108D01*
X145198624Y-103596644D01*
X145254806Y-103606544D01*
X145255059Y-103606528D01*
X145310993Y-103628273D01*
X145337264Y-103661062D01*
X145354563Y-103695534D01*
X145394116Y-103743505D01*
X145397070Y-103746118D01*
X145397076Y-103746124D01*
X145414111Y-103761191D01*
X145441738Y-103785627D01*
X148210484Y-105549037D01*
X153495830Y-108915265D01*
X153564866Y-108959234D01*
X153593022Y-108974201D01*
X153594827Y-108974985D01*
X153594832Y-108974988D01*
X153601660Y-108977955D01*
X153621888Y-108986748D01*
X153627728Y-108987777D01*
X153627731Y-108987778D01*
X153715319Y-109003211D01*
X153715000Y-109005019D01*
X153765351Y-109024596D01*
X153791616Y-109057380D01*
X153811730Y-109097461D01*
X153851283Y-109145432D01*
X153854237Y-109148045D01*
X153854243Y-109148051D01*
X153895946Y-109184937D01*
X153898905Y-109187554D01*
X157406736Y-111421686D01*
X160377130Y-113313525D01*
X161997801Y-114345728D01*
X162025957Y-114360695D01*
X162027762Y-114361479D01*
X162027767Y-114361482D01*
X162049382Y-114370877D01*
X162054823Y-114373242D01*
X162095611Y-114380428D01*
X162145896Y-114389288D01*
X162200796Y-114418470D01*
X162218551Y-114443637D01*
X162238091Y-114483005D01*
X162240605Y-114488070D01*
X162279945Y-114536215D01*
X162327378Y-114578547D01*
X162330696Y-114580681D01*
X162330700Y-114580684D01*
X169354077Y-119097748D01*
X169354091Y-119097757D01*
X169354925Y-119098293D01*
X169368867Y-119106494D01*
X169382979Y-119114056D01*
X169387719Y-119115496D01*
X169387723Y-119115498D01*
X169454313Y-119135732D01*
X169454317Y-119135733D01*
X169459060Y-119137174D01*
X169520935Y-119143261D01*
X169524879Y-119143028D01*
X169524880Y-119143028D01*
X169562630Y-119140797D01*
X169584397Y-119139511D01*
X170858115Y-118859915D01*
X171552873Y-118707407D01*
X171553835Y-118707156D01*
X171553843Y-118707154D01*
X171567323Y-118703636D01*
X171567338Y-118703632D01*
X171568295Y-118703382D01*
X171583392Y-118698802D01*
X171587741Y-118696477D01*
X171587744Y-118696476D01*
X171648956Y-118663755D01*
X171653317Y-118661424D01*
X171657138Y-118658288D01*
X171657141Y-118658286D01*
X171698317Y-118624491D01*
X171698321Y-118624487D01*
X171701377Y-118621979D01*
X171715485Y-118606101D01*
X171740981Y-118577409D01*
X171740986Y-118577403D01*
X171743605Y-118574455D01*
X175092934Y-113341856D01*
X175093703Y-113342348D01*
X175137757Y-113303154D01*
X175199629Y-113297024D01*
X175232168Y-113310447D01*
X175282256Y-113342348D01*
X187086387Y-120860380D01*
X187100301Y-120871054D01*
X187106973Y-120877167D01*
X187106976Y-120877169D01*
X187113463Y-120883112D01*
X187122227Y-120886741D01*
X187141915Y-120897614D01*
X187410665Y-121088109D01*
X187418475Y-121094247D01*
X187687345Y-121327996D01*
X187694517Y-121334884D01*
X187938951Y-121594056D01*
X187945416Y-121601630D01*
X188163025Y-121883689D01*
X188168710Y-121891863D01*
X188357375Y-122194060D01*
X188362220Y-122202750D01*
X188520090Y-122522126D01*
X188524051Y-122531251D01*
X188649570Y-122864656D01*
X188652613Y-122874137D01*
X188744561Y-123218324D01*
X188746651Y-123228059D01*
X188804121Y-123579637D01*
X188805239Y-123589529D01*
X188819013Y-123807837D01*
X188827671Y-123945067D01*
X188827806Y-123955024D01*
X188814980Y-124311053D01*
X188814129Y-124320973D01*
X188766172Y-124673978D01*
X188764347Y-124683756D01*
X188730715Y-124824822D01*
X188681728Y-125030294D01*
X188678943Y-125039853D01*
X188562466Y-125376538D01*
X188558748Y-125385776D01*
X188409565Y-125709282D01*
X188404953Y-125718106D01*
X188224525Y-126025271D01*
X188219063Y-126033597D01*
X188009137Y-126321443D01*
X188002879Y-126329187D01*
X187765539Y-126594856D01*
X187758549Y-126601942D01*
X187496098Y-126842857D01*
X187488451Y-126849209D01*
X187203463Y-127063004D01*
X187195226Y-127068568D01*
X187139031Y-127102606D01*
X186890498Y-127253143D01*
X186881736Y-127257873D01*
X186560284Y-127411405D01*
X186551100Y-127415246D01*
X186216008Y-127536261D01*
X186206503Y-127539170D01*
X185923617Y-127610664D01*
X185861110Y-127626461D01*
X185851351Y-127628419D01*
X185740072Y-127645070D01*
X185499029Y-127681137D01*
X185489121Y-127682122D01*
X185160111Y-127698425D01*
X185137662Y-127697019D01*
X185137658Y-127697018D01*
X185128322Y-127695372D01*
X185119656Y-127696900D01*
X185119655Y-127696900D01*
X185111920Y-127698264D01*
X185110747Y-127698471D01*
X185110741Y-127698472D01*
X185093272Y-127700000D01*
X163403800Y-127700000D01*
X163344669Y-127680787D01*
X163308124Y-127630487D01*
X163303200Y-127599400D01*
X163303200Y-123855531D01*
X182268142Y-123855531D01*
X182270763Y-124189246D01*
X182271129Y-124192163D01*
X182305338Y-124464866D01*
X182312301Y-124520376D01*
X182392188Y-124844399D01*
X182509334Y-125156888D01*
X182510681Y-125159503D01*
X182510683Y-125159508D01*
X182622461Y-125376538D01*
X182662138Y-125453575D01*
X182848514Y-125730409D01*
X183065914Y-125983607D01*
X183068084Y-125985606D01*
X183068086Y-125985608D01*
X183163120Y-126073149D01*
X183311371Y-126209712D01*
X183581532Y-126405635D01*
X183584101Y-126407074D01*
X183584103Y-126407075D01*
X183870134Y-126567261D01*
X183870139Y-126567264D01*
X183872706Y-126568701D01*
X184180916Y-126696681D01*
X184270435Y-126722097D01*
X184499123Y-126787025D01*
X184499131Y-126787027D01*
X184501953Y-126787828D01*
X184504849Y-126788294D01*
X184504856Y-126788296D01*
X184828731Y-126840462D01*
X184831432Y-126840897D01*
X184834157Y-126841035D01*
X184834166Y-126841036D01*
X185019713Y-126850435D01*
X185019723Y-126850435D01*
X185021001Y-126850500D01*
X185205676Y-126850500D01*
X185207142Y-126850414D01*
X185207148Y-126850414D01*
X185299230Y-126845024D01*
X185453155Y-126836014D01*
X185617457Y-126806895D01*
X185778856Y-126778291D01*
X185778861Y-126778290D01*
X185781760Y-126777776D01*
X185784572Y-126776930D01*
X185784579Y-126776928D01*
X186098521Y-126682442D01*
X186098522Y-126682441D01*
X186101325Y-126681598D01*
X186104012Y-126680433D01*
X186104016Y-126680431D01*
X186284952Y-126601945D01*
X186407488Y-126548792D01*
X186656925Y-126403907D01*
X186693525Y-126382648D01*
X186693528Y-126382646D01*
X186696064Y-126381173D01*
X186698408Y-126379417D01*
X186698413Y-126379413D01*
X186960751Y-126182802D01*
X186963114Y-126181031D01*
X187126965Y-126025271D01*
X187202861Y-125953122D01*
X187202862Y-125953121D01*
X187204989Y-125951099D01*
X187206860Y-125948850D01*
X187206866Y-125948843D01*
X187416507Y-125696777D01*
X187416512Y-125696770D01*
X187418386Y-125694517D01*
X187419987Y-125692057D01*
X187419991Y-125692051D01*
X187545289Y-125499476D01*
X187600390Y-125414790D01*
X187748515Y-125115739D01*
X187775612Y-125039853D01*
X187859750Y-124804215D01*
X187860738Y-124801448D01*
X187935526Y-124476211D01*
X187936769Y-124464866D01*
X187971538Y-124147392D01*
X187971538Y-124147390D01*
X187971858Y-124144469D01*
X187971625Y-124114733D01*
X187969260Y-123813695D01*
X187969237Y-123810754D01*
X187927699Y-123479624D01*
X187847812Y-123155601D01*
X187730666Y-122843112D01*
X187727889Y-122837719D01*
X187579208Y-122549038D01*
X187579206Y-122549035D01*
X187577862Y-122546425D01*
X187391486Y-122269591D01*
X187174086Y-122016393D01*
X187082843Y-121932343D01*
X186930796Y-121792284D01*
X186930795Y-121792283D01*
X186928629Y-121790288D01*
X186658468Y-121594365D01*
X186608253Y-121566243D01*
X186369866Y-121432739D01*
X186369861Y-121432736D01*
X186367294Y-121431299D01*
X186059084Y-121303319D01*
X185969565Y-121277903D01*
X185740877Y-121212975D01*
X185740869Y-121212973D01*
X185738047Y-121212172D01*
X185735151Y-121211706D01*
X185735144Y-121211704D01*
X185411269Y-121159538D01*
X185411268Y-121159538D01*
X185408568Y-121159103D01*
X185405843Y-121158965D01*
X185405834Y-121158964D01*
X185220287Y-121149565D01*
X185220277Y-121149565D01*
X185218999Y-121149500D01*
X185034324Y-121149500D01*
X185032858Y-121149586D01*
X185032852Y-121149586D01*
X184940770Y-121154976D01*
X184786845Y-121163986D01*
X184622542Y-121193105D01*
X184461144Y-121221709D01*
X184461139Y-121221710D01*
X184458240Y-121222224D01*
X184455428Y-121223070D01*
X184455421Y-121223072D01*
X184191465Y-121302514D01*
X184138675Y-121318402D01*
X184135988Y-121319567D01*
X184135984Y-121319569D01*
X184109028Y-121331262D01*
X183832512Y-121451208D01*
X183829964Y-121452688D01*
X183573543Y-121601630D01*
X183543936Y-121618827D01*
X183541592Y-121620583D01*
X183541587Y-121620587D01*
X183385864Y-121737295D01*
X183276886Y-121818969D01*
X183274746Y-121821003D01*
X183274744Y-121821005D01*
X183066851Y-122018633D01*
X183035011Y-122048901D01*
X183033140Y-122051150D01*
X183033134Y-122051157D01*
X182823493Y-122303223D01*
X182823488Y-122303230D01*
X182821614Y-122305483D01*
X182820013Y-122307943D01*
X182820009Y-122307949D01*
X182802454Y-122334930D01*
X182639610Y-122585210D01*
X182638308Y-122587840D01*
X182638305Y-122587844D01*
X182562365Y-122741161D01*
X182491485Y-122884261D01*
X182490501Y-122887018D01*
X182490498Y-122887024D01*
X182465161Y-122957983D01*
X182379262Y-123198552D01*
X182304474Y-123523789D01*
X182304154Y-123526714D01*
X182304153Y-123526718D01*
X182297819Y-123584556D01*
X182268142Y-123855531D01*
X163303200Y-123855531D01*
X163303200Y-121890043D01*
X163302775Y-121876912D01*
X163301935Y-121863940D01*
X163282705Y-121789884D01*
X163256028Y-121733724D01*
X163220101Y-121681272D01*
X162786669Y-121223072D01*
X161528176Y-119892665D01*
X161528172Y-119892661D01*
X161527385Y-119891829D01*
X161513866Y-119878800D01*
X161499914Y-119866545D01*
X161457387Y-119842339D01*
X161433062Y-119828493D01*
X161433060Y-119828492D01*
X161428608Y-119825958D01*
X161423737Y-119824375D01*
X161423734Y-119824374D01*
X161373233Y-119807965D01*
X161373228Y-119807964D01*
X161369477Y-119806745D01*
X161353572Y-119804226D01*
X161310582Y-119797417D01*
X161310578Y-119797417D01*
X161306684Y-119796800D01*
X153200600Y-119796800D01*
X153168811Y-119799302D01*
X153166853Y-119799612D01*
X153166854Y-119799612D01*
X153143586Y-119803297D01*
X153143582Y-119803298D01*
X153137724Y-119804226D01*
X153132242Y-119806497D01*
X153132241Y-119806497D01*
X153089083Y-119824374D01*
X153050075Y-119840532D01*
X153045793Y-119843643D01*
X152985051Y-119855724D01*
X152945280Y-119842182D01*
X152922978Y-119828858D01*
X152922977Y-119828857D01*
X152918124Y-119825958D01*
X152912753Y-119824213D01*
X152912749Y-119824211D01*
X152862749Y-119807965D01*
X152862744Y-119807964D01*
X152858993Y-119806745D01*
X152843088Y-119804226D01*
X152800098Y-119797417D01*
X152800094Y-119797417D01*
X152796200Y-119796800D01*
X144527829Y-119796800D01*
X144468698Y-119777587D01*
X144432153Y-119727287D01*
X144432153Y-119665113D01*
X144456694Y-119625065D01*
X144623018Y-119458742D01*
X144950110Y-119131650D01*
X144953286Y-119128908D01*
X144957845Y-119126680D01*
X144991995Y-119089866D01*
X144994612Y-119087148D01*
X145008622Y-119073138D01*
X145011212Y-119069363D01*
X145014720Y-119065368D01*
X145028875Y-119050109D01*
X145035193Y-119043298D01*
X145039525Y-119032440D01*
X145050005Y-119012812D01*
X145056621Y-119003167D01*
X145062868Y-118976845D01*
X145067310Y-118962800D01*
X145074706Y-118944260D01*
X145074706Y-118944258D01*
X145077338Y-118937662D01*
X145077965Y-118931267D01*
X145077965Y-118925001D01*
X145080684Y-118901772D01*
X145080738Y-118901547D01*
X145080738Y-118901540D01*
X145082882Y-118892507D01*
X145078884Y-118863130D01*
X145077965Y-118849565D01*
X145077965Y-111991439D01*
X145097178Y-111932308D01*
X145117324Y-111911628D01*
X145197995Y-111849727D01*
X145197998Y-111849724D01*
X145203229Y-111845710D01*
X145299996Y-111719600D01*
X145360826Y-111572743D01*
X145365555Y-111536827D01*
X145380713Y-111421686D01*
X145381574Y-111415146D01*
X145380713Y-111408606D01*
X145361687Y-111264087D01*
X145361686Y-111264085D01*
X145360826Y-111257549D01*
X145305783Y-111124663D01*
X145302519Y-111116782D01*
X145302517Y-111116779D01*
X145299996Y-111110692D01*
X145203229Y-110984582D01*
X145077120Y-110887815D01*
X144930262Y-110826985D01*
X144923726Y-110826125D01*
X144923724Y-110826124D01*
X144779205Y-110807098D01*
X144772665Y-110806237D01*
X144766125Y-110807098D01*
X144621606Y-110826124D01*
X144621604Y-110826125D01*
X144615068Y-110826985D01*
X144530777Y-110861899D01*
X144474301Y-110885292D01*
X144474298Y-110885294D01*
X144468211Y-110887815D01*
X144342101Y-110984582D01*
X144245334Y-111110692D01*
X144242813Y-111116779D01*
X144242811Y-111116782D01*
X144239547Y-111124663D01*
X144184504Y-111257549D01*
X144183644Y-111264085D01*
X144183643Y-111264087D01*
X144164617Y-111408606D01*
X144163756Y-111415146D01*
X144164617Y-111421686D01*
X144179776Y-111536827D01*
X144184504Y-111572743D01*
X144245334Y-111719600D01*
X144342101Y-111845710D01*
X144347332Y-111849724D01*
X144347335Y-111849727D01*
X144428006Y-111911628D01*
X144463222Y-111962867D01*
X144467365Y-111991439D01*
X144467365Y-118709206D01*
X144448152Y-118768337D01*
X144437900Y-118780341D01*
X143853005Y-119365235D01*
X143797607Y-119393461D01*
X143781870Y-119394700D01*
X136418129Y-119394700D01*
X136358998Y-119375487D01*
X136346994Y-119365235D01*
X134354315Y-117372555D01*
X134351573Y-117369379D01*
X134349345Y-117364820D01*
X134312531Y-117330670D01*
X134309813Y-117328053D01*
X134295803Y-117314043D01*
X134292028Y-117311453D01*
X134288033Y-117307945D01*
X134272774Y-117293790D01*
X134265963Y-117287472D01*
X134257339Y-117284031D01*
X134257337Y-117284030D01*
X134255941Y-117283474D01*
X134255105Y-117283140D01*
X134235477Y-117272660D01*
X134225832Y-117266044D01*
X134216794Y-117263899D01*
X134199510Y-117259797D01*
X134185465Y-117255355D01*
X134166925Y-117247959D01*
X134166923Y-117247959D01*
X134160327Y-117245327D01*
X134153932Y-117244700D01*
X134147666Y-117244700D01*
X134124437Y-117241981D01*
X134124212Y-117241927D01*
X134124205Y-117241927D01*
X134115172Y-117239783D01*
X134085796Y-117243781D01*
X134072230Y-117244700D01*
X131876292Y-117244700D01*
X131817161Y-117225487D01*
X131796481Y-117205341D01*
X131734581Y-117124671D01*
X131730564Y-117119436D01*
X131604455Y-117022669D01*
X131457597Y-116961839D01*
X131451061Y-116960979D01*
X131451059Y-116960978D01*
X131306540Y-116941952D01*
X131300000Y-116941091D01*
X131293460Y-116941952D01*
X131148941Y-116960978D01*
X131148939Y-116960979D01*
X131142403Y-116961839D01*
X131058112Y-116996753D01*
X131001636Y-117020146D01*
X131001633Y-117020148D01*
X130995546Y-117022669D01*
X130869436Y-117119436D01*
X130772669Y-117245546D01*
X130770148Y-117251633D01*
X130770146Y-117251636D01*
X130756728Y-117284030D01*
X130711839Y-117392403D01*
X130691091Y-117550000D01*
X130691952Y-117556540D01*
X130691952Y-117556541D01*
X130705224Y-117657356D01*
X130693894Y-117718489D01*
X130676620Y-117741621D01*
X129053005Y-119365235D01*
X128997607Y-119393461D01*
X128981870Y-119394700D01*
X124704364Y-119394700D01*
X124700173Y-119394392D01*
X124695372Y-119392744D01*
X124686093Y-119393092D01*
X124686090Y-119393092D01*
X124645164Y-119394629D01*
X124641390Y-119394700D01*
X124621607Y-119394700D01*
X124617109Y-119395538D01*
X124611819Y-119395881D01*
X124607911Y-119396028D01*
X124581719Y-119397011D01*
X124573188Y-119400676D01*
X124573184Y-119400677D01*
X124570976Y-119401626D01*
X124549684Y-119408095D01*
X124547319Y-119408535D01*
X124547316Y-119408536D01*
X124538189Y-119410236D01*
X124530284Y-119415109D01*
X124530283Y-119415109D01*
X124515157Y-119424433D01*
X124502086Y-119431224D01*
X124477222Y-119441906D01*
X124472256Y-119445984D01*
X124467824Y-119450416D01*
X124449477Y-119464919D01*
X124441372Y-119469915D01*
X124435751Y-119477307D01*
X124435750Y-119477308D01*
X124423430Y-119493510D01*
X124414487Y-119503753D01*
X123553005Y-120365235D01*
X123497607Y-120393461D01*
X123481870Y-120394700D01*
X120354357Y-120394700D01*
X120350169Y-120394393D01*
X120345371Y-120392745D01*
X120336091Y-120393093D01*
X120336089Y-120393093D01*
X120295179Y-120394629D01*
X120291406Y-120394700D01*
X120271607Y-120394700D01*
X120267109Y-120395538D01*
X120261816Y-120395881D01*
X120256655Y-120396075D01*
X120231718Y-120397011D01*
X120223187Y-120400676D01*
X120223183Y-120400677D01*
X120220975Y-120401626D01*
X120199683Y-120408095D01*
X120197318Y-120408535D01*
X120197315Y-120408536D01*
X120188189Y-120410236D01*
X120180287Y-120415107D01*
X120180284Y-120415108D01*
X120165151Y-120424436D01*
X120152082Y-120431225D01*
X120127221Y-120441906D01*
X120122256Y-120445985D01*
X120117824Y-120450417D01*
X120099483Y-120464915D01*
X120091372Y-120469915D01*
X120085749Y-120477310D01*
X120073427Y-120493514D01*
X120064484Y-120503757D01*
X119650302Y-120917939D01*
X119594904Y-120946165D01*
X119531320Y-120935297D01*
X119514629Y-120926273D01*
X119514628Y-120926272D01*
X119510301Y-120923933D01*
X119505604Y-120922479D01*
X119317602Y-120864283D01*
X119317600Y-120864283D01*
X119312901Y-120862828D01*
X119107392Y-120841228D01*
X119102491Y-120841674D01*
X119102488Y-120841674D01*
X118906499Y-120859510D01*
X118906496Y-120859510D01*
X118901601Y-120859956D01*
X118896887Y-120861343D01*
X118896884Y-120861344D01*
X118742734Y-120906714D01*
X118703367Y-120918300D01*
X118699007Y-120920579D01*
X118699003Y-120920581D01*
X118650066Y-120946165D01*
X118520241Y-121014036D01*
X118516402Y-121017123D01*
X118516400Y-121017124D01*
X118420465Y-121094258D01*
X118359198Y-121143518D01*
X118356037Y-121147285D01*
X118356036Y-121147286D01*
X118342023Y-121163986D01*
X118226371Y-121301814D01*
X118126821Y-121482895D01*
X118125333Y-121487585D01*
X118125332Y-121487588D01*
X118089156Y-121601630D01*
X118064339Y-121679864D01*
X118063790Y-121684755D01*
X118063790Y-121684757D01*
X118042237Y-121876912D01*
X118041305Y-121885217D01*
X118058596Y-122091133D01*
X118115555Y-122289770D01*
X118210010Y-122473560D01*
X118213063Y-122477412D01*
X118213065Y-122477415D01*
X118267762Y-122546425D01*
X118338364Y-122635503D01*
X118495730Y-122769431D01*
X118676111Y-122870243D01*
X118680792Y-122871764D01*
X118867959Y-122932579D01*
X118867965Y-122932580D01*
X118872639Y-122934099D01*
X118877521Y-122934681D01*
X118877525Y-122934682D01*
X119072936Y-122957983D01*
X119072937Y-122957983D01*
X119077826Y-122958566D01*
X119283858Y-122942712D01*
X119288599Y-122941388D01*
X119288601Y-122941388D01*
X119478145Y-122888467D01*
X119482887Y-122887143D01*
X119667332Y-122793973D01*
X119830168Y-122666752D01*
X119965191Y-122510325D01*
X120067260Y-122330652D01*
X120132486Y-122134575D01*
X120158385Y-121929563D01*
X120158798Y-121900000D01*
X120157739Y-121889192D01*
X120147871Y-121788560D01*
X120138633Y-121694345D01*
X120137211Y-121689635D01*
X120137210Y-121689630D01*
X120080331Y-121501238D01*
X120080329Y-121501234D01*
X120078907Y-121496523D01*
X120074157Y-121487588D01*
X120063982Y-121468453D01*
X120053185Y-121407223D01*
X120081671Y-121350088D01*
X120396994Y-121034765D01*
X120452392Y-121006539D01*
X120468129Y-121005300D01*
X120485700Y-121005300D01*
X120544831Y-121024513D01*
X120581376Y-121074813D01*
X120586300Y-121105900D01*
X120586300Y-122770064D01*
X120598119Y-122829480D01*
X120643140Y-122896860D01*
X120710520Y-122941881D01*
X120769936Y-122953700D01*
X122510064Y-122953700D01*
X122569480Y-122941881D01*
X122636860Y-122896860D01*
X122681881Y-122829480D01*
X122693700Y-122770064D01*
X122693700Y-121105900D01*
X122712913Y-121046769D01*
X122763213Y-121010224D01*
X122794300Y-121005300D01*
X123224392Y-121005300D01*
X123283523Y-121024513D01*
X123320068Y-121074813D01*
X123320068Y-121136987D01*
X123294457Y-121178089D01*
X122989011Y-121474551D01*
X122977008Y-121487247D01*
X122965686Y-121500305D01*
X122925958Y-121570628D01*
X122924402Y-121575416D01*
X122924401Y-121575419D01*
X122915885Y-121601630D01*
X122906745Y-121629759D01*
X122906128Y-121633655D01*
X122898035Y-121684757D01*
X122896800Y-121692552D01*
X122896800Y-125858330D01*
X122897427Y-125874279D01*
X122898666Y-125890016D01*
X122920186Y-125966316D01*
X122922424Y-125970708D01*
X122922425Y-125970711D01*
X122938702Y-126002656D01*
X122948412Y-126021714D01*
X122985781Y-126073149D01*
X124440896Y-127528264D01*
X124469122Y-127583662D01*
X124459396Y-127645070D01*
X124415432Y-127689034D01*
X124369761Y-127699999D01*
X109035051Y-127699999D01*
X109017582Y-127698471D01*
X109008667Y-127696899D01*
X109000001Y-127695371D01*
X108991334Y-127696899D01*
X108991333Y-127696899D01*
X108990459Y-127697053D01*
X108968154Y-127698465D01*
X108763369Y-127688604D01*
X108649318Y-127683112D01*
X108639692Y-127682182D01*
X108468372Y-127657279D01*
X108297054Y-127632376D01*
X108287555Y-127630525D01*
X108160687Y-127599400D01*
X107951271Y-127548023D01*
X107942009Y-127545271D01*
X107778616Y-127488057D01*
X107615231Y-127430845D01*
X107606262Y-127427212D01*
X107291978Y-127281912D01*
X107283399Y-127277433D01*
X107136741Y-127191644D01*
X106984523Y-127102602D01*
X106976427Y-127097327D01*
X106774938Y-126951797D01*
X106695749Y-126894601D01*
X106688185Y-126888564D01*
X106428276Y-126659797D01*
X106421328Y-126653061D01*
X106184611Y-126400389D01*
X106178342Y-126393017D01*
X105966994Y-126118764D01*
X105961462Y-126110824D01*
X105777434Y-125817516D01*
X105772706Y-125809107D01*
X105617714Y-125499476D01*
X105613804Y-125490624D01*
X105489287Y-125167554D01*
X105486245Y-125158367D01*
X105416112Y-124906563D01*
X105393344Y-124824816D01*
X105391200Y-124815385D01*
X105389221Y-124804215D01*
X105330779Y-124474460D01*
X105329551Y-124464866D01*
X105318136Y-124320973D01*
X105304306Y-124146656D01*
X105305025Y-124124321D01*
X105306410Y-124114733D01*
X105302765Y-124097255D01*
X105300696Y-124079849D01*
X105293728Y-123855531D01*
X106148142Y-123855531D01*
X106150763Y-124189246D01*
X106151129Y-124192163D01*
X106185338Y-124464866D01*
X106192301Y-124520376D01*
X106272188Y-124844399D01*
X106389334Y-125156888D01*
X106390681Y-125159503D01*
X106390683Y-125159508D01*
X106502461Y-125376538D01*
X106542138Y-125453575D01*
X106728514Y-125730409D01*
X106945914Y-125983607D01*
X106948084Y-125985606D01*
X106948086Y-125985608D01*
X107043120Y-126073149D01*
X107191371Y-126209712D01*
X107461532Y-126405635D01*
X107464101Y-126407074D01*
X107464103Y-126407075D01*
X107750134Y-126567261D01*
X107750139Y-126567264D01*
X107752706Y-126568701D01*
X108060916Y-126696681D01*
X108150435Y-126722097D01*
X108379123Y-126787025D01*
X108379131Y-126787027D01*
X108381953Y-126787828D01*
X108384849Y-126788294D01*
X108384856Y-126788296D01*
X108708731Y-126840462D01*
X108711432Y-126840897D01*
X108714157Y-126841035D01*
X108714166Y-126841036D01*
X108899713Y-126850435D01*
X108899723Y-126850435D01*
X108901001Y-126850500D01*
X109085676Y-126850500D01*
X109087142Y-126850414D01*
X109087148Y-126850414D01*
X109179230Y-126845024D01*
X109333155Y-126836014D01*
X109497457Y-126806895D01*
X109658856Y-126778291D01*
X109658861Y-126778290D01*
X109661760Y-126777776D01*
X109664572Y-126776930D01*
X109664579Y-126776928D01*
X109978521Y-126682442D01*
X109978522Y-126682441D01*
X109981325Y-126681598D01*
X109984012Y-126680433D01*
X109984016Y-126680431D01*
X110164952Y-126601945D01*
X110287488Y-126548792D01*
X110536925Y-126403907D01*
X110573525Y-126382648D01*
X110573528Y-126382646D01*
X110576064Y-126381173D01*
X110578408Y-126379417D01*
X110578413Y-126379413D01*
X110840751Y-126182802D01*
X110843114Y-126181031D01*
X111006965Y-126025271D01*
X111082861Y-125953122D01*
X111082862Y-125953121D01*
X111084989Y-125951099D01*
X111086860Y-125948850D01*
X111086866Y-125948843D01*
X111296507Y-125696777D01*
X111296512Y-125696770D01*
X111298386Y-125694517D01*
X111299987Y-125692057D01*
X111299991Y-125692051D01*
X111425289Y-125499476D01*
X111480390Y-125414790D01*
X111628515Y-125115739D01*
X111655612Y-125039853D01*
X111739750Y-124804215D01*
X111740738Y-124801448D01*
X111815526Y-124476211D01*
X111816769Y-124464866D01*
X111851538Y-124147392D01*
X111851538Y-124147390D01*
X111851858Y-124144469D01*
X111851625Y-124114733D01*
X111849260Y-123813695D01*
X111849237Y-123810754D01*
X111807699Y-123479624D01*
X111727812Y-123155601D01*
X111610666Y-122843112D01*
X111607889Y-122837719D01*
X111459208Y-122549038D01*
X111459206Y-122549035D01*
X111457862Y-122546425D01*
X111271486Y-122269591D01*
X111054086Y-122016393D01*
X110962843Y-121932343D01*
X110810796Y-121792284D01*
X110810795Y-121792283D01*
X110808629Y-121790288D01*
X110538468Y-121594365D01*
X110488253Y-121566243D01*
X110249866Y-121432739D01*
X110249861Y-121432736D01*
X110247294Y-121431299D01*
X109939084Y-121303319D01*
X109849565Y-121277903D01*
X109620877Y-121212975D01*
X109620869Y-121212973D01*
X109618047Y-121212172D01*
X109615151Y-121211706D01*
X109615144Y-121211704D01*
X109291269Y-121159538D01*
X109291268Y-121159538D01*
X109288568Y-121159103D01*
X109285843Y-121158965D01*
X109285834Y-121158964D01*
X109100287Y-121149565D01*
X109100277Y-121149565D01*
X109098999Y-121149500D01*
X108914324Y-121149500D01*
X108912858Y-121149586D01*
X108912852Y-121149586D01*
X108820770Y-121154976D01*
X108666845Y-121163986D01*
X108502542Y-121193105D01*
X108341144Y-121221709D01*
X108341139Y-121221710D01*
X108338240Y-121222224D01*
X108335428Y-121223070D01*
X108335421Y-121223072D01*
X108071465Y-121302514D01*
X108018675Y-121318402D01*
X108015988Y-121319567D01*
X108015984Y-121319569D01*
X107989028Y-121331262D01*
X107712512Y-121451208D01*
X107709964Y-121452688D01*
X107453543Y-121601630D01*
X107423936Y-121618827D01*
X107421592Y-121620583D01*
X107421587Y-121620587D01*
X107265864Y-121737295D01*
X107156886Y-121818969D01*
X107154746Y-121821003D01*
X107154744Y-121821005D01*
X106946851Y-122018633D01*
X106915011Y-122048901D01*
X106913140Y-122051150D01*
X106913134Y-122051157D01*
X106703493Y-122303223D01*
X106703488Y-122303230D01*
X106701614Y-122305483D01*
X106700013Y-122307943D01*
X106700009Y-122307949D01*
X106682454Y-122334930D01*
X106519610Y-122585210D01*
X106518308Y-122587840D01*
X106518305Y-122587844D01*
X106442365Y-122741161D01*
X106371485Y-122884261D01*
X106370501Y-122887018D01*
X106370498Y-122887024D01*
X106345161Y-122957983D01*
X106259262Y-123198552D01*
X106184474Y-123523789D01*
X106184154Y-123526714D01*
X106184153Y-123526718D01*
X106177819Y-123584556D01*
X106148142Y-123855531D01*
X105293728Y-123855531D01*
X104551663Y-99966408D01*
X108956607Y-99966408D01*
X108973183Y-100669762D01*
X108983765Y-100805736D01*
X109016147Y-101221832D01*
X109027770Y-101371190D01*
X109120211Y-102068640D01*
X109250233Y-102760070D01*
X109417457Y-103443457D01*
X109417856Y-103444774D01*
X109563560Y-103925852D01*
X109621392Y-104116800D01*
X109861443Y-104778130D01*
X110136907Y-105425510D01*
X110446977Y-106057046D01*
X110447636Y-106058222D01*
X110447644Y-106058238D01*
X110575546Y-106286623D01*
X110790746Y-106670890D01*
X111167208Y-107265245D01*
X111575261Y-107838371D01*
X111576089Y-107839411D01*
X111576098Y-107839422D01*
X111660705Y-107945597D01*
X112013711Y-108388592D01*
X112014590Y-108389580D01*
X112014599Y-108389591D01*
X112224478Y-108625568D01*
X112481274Y-108914297D01*
X112482222Y-108915254D01*
X112482233Y-108915265D01*
X112623115Y-109057381D01*
X112976583Y-109413947D01*
X113498188Y-109886080D01*
X114044561Y-110329315D01*
X114045653Y-110330107D01*
X114045657Y-110330110D01*
X114612997Y-110741551D01*
X114613010Y-110741560D01*
X114614105Y-110742354D01*
X115205152Y-111123988D01*
X115206316Y-111124654D01*
X115206332Y-111124663D01*
X115428176Y-111251457D01*
X115815973Y-111473101D01*
X115817166Y-111473700D01*
X115817174Y-111473704D01*
X116443579Y-111788068D01*
X116444779Y-111788670D01*
X116726889Y-111911628D01*
X117088488Y-112069232D01*
X117088498Y-112069236D01*
X117089730Y-112069773D01*
X117090999Y-112070246D01*
X117091001Y-112070247D01*
X117327774Y-112158537D01*
X117748940Y-112315585D01*
X117750222Y-112315986D01*
X117750238Y-112315991D01*
X118419178Y-112524983D01*
X118420478Y-112525389D01*
X118421787Y-112525721D01*
X118421796Y-112525724D01*
X118565016Y-112562097D01*
X119102380Y-112698570D01*
X119103682Y-112698827D01*
X119103697Y-112698830D01*
X119692648Y-112814911D01*
X119792649Y-112834621D01*
X120489265Y-112933144D01*
X120490617Y-112933261D01*
X120490625Y-112933262D01*
X120839728Y-112963498D01*
X121190190Y-112993851D01*
X121191545Y-112993895D01*
X121191549Y-112993895D01*
X121699702Y-113010308D01*
X121893373Y-113016564D01*
X122467239Y-113004042D01*
X122595380Y-113001246D01*
X122595381Y-113001246D01*
X122596754Y-113001216D01*
X123298277Y-112947852D01*
X123995887Y-112856630D01*
X124113046Y-112834810D01*
X124686180Y-112728068D01*
X124686192Y-112728065D01*
X124687542Y-112727814D01*
X125371220Y-112561784D01*
X126044918Y-112359023D01*
X126166567Y-112315107D01*
X126705378Y-112120592D01*
X126705379Y-112120592D01*
X126706666Y-112120127D01*
X127354526Y-111845794D01*
X127355730Y-111845205D01*
X127355742Y-111845200D01*
X127985377Y-111537426D01*
X127985383Y-111537423D01*
X127986602Y-111536827D01*
X128601045Y-111194129D01*
X129196056Y-110818706D01*
X129415692Y-110662907D01*
X129768805Y-110412426D01*
X129768817Y-110412417D01*
X129769894Y-110411653D01*
X129770933Y-110410828D01*
X129770945Y-110410819D01*
X130158350Y-110103214D01*
X130320879Y-109974164D01*
X130419293Y-109886942D01*
X130554064Y-109767496D01*
X130847399Y-109507519D01*
X130941202Y-109414855D01*
X131346956Y-109014029D01*
X131346967Y-109014017D01*
X131347913Y-109013083D01*
X131370899Y-108987778D01*
X131820032Y-108493320D01*
X131820956Y-108492303D01*
X132265144Y-107946704D01*
X132679176Y-107377882D01*
X133061841Y-106787502D01*
X133412019Y-106177292D01*
X133728686Y-105549037D01*
X134010913Y-104904577D01*
X134257876Y-104245798D01*
X134463671Y-103591108D01*
X134468440Y-103575938D01*
X134468441Y-103575935D01*
X134468852Y-103574627D01*
X134643223Y-102893028D01*
X134780479Y-102202998D01*
X134880217Y-101506555D01*
X134942147Y-100805736D01*
X134946823Y-100668418D01*
X134966060Y-100103377D01*
X134966087Y-100102595D01*
X134966404Y-100011804D01*
X134947373Y-99308512D01*
X134943796Y-99264531D01*
X134890448Y-98608626D01*
X134890446Y-98608610D01*
X134890338Y-98607279D01*
X134795463Y-97910156D01*
X134663028Y-97219184D01*
X134493420Y-96536385D01*
X134480414Y-96493975D01*
X134459373Y-96425370D01*
X134287135Y-95863758D01*
X134044777Y-95203270D01*
X134027219Y-95162402D01*
X133767600Y-94558121D01*
X133767593Y-94558105D01*
X133767056Y-94556856D01*
X133746061Y-94514468D01*
X133455383Y-93927618D01*
X133454783Y-93926406D01*
X133432492Y-93886925D01*
X133329939Y-93705295D01*
X133108874Y-93313766D01*
X132730339Y-92720729D01*
X132320288Y-92149030D01*
X131879920Y-91600343D01*
X131872559Y-91592124D01*
X131411425Y-91077279D01*
X131410525Y-91076274D01*
X131377654Y-91043345D01*
X130914419Y-90579301D01*
X130913475Y-90578355D01*
X130390225Y-90108046D01*
X130354898Y-90079591D01*
X129843378Y-89667583D01*
X129842308Y-89666721D01*
X129271325Y-89255672D01*
X128678950Y-88876104D01*
X128066915Y-88529125D01*
X127437011Y-88215753D01*
X127096118Y-88068588D01*
X126792336Y-87937444D01*
X126792325Y-87937440D01*
X126791082Y-87936903D01*
X126131018Y-87693393D01*
X126129709Y-87692989D01*
X126129700Y-87692986D01*
X125460068Y-87486341D01*
X125460064Y-87486340D01*
X125458752Y-87485935D01*
X125457415Y-87485601D01*
X125457410Y-87485599D01*
X125268319Y-87438278D01*
X124776250Y-87315135D01*
X124727546Y-87305712D01*
X124086875Y-87181758D01*
X124086872Y-87181757D01*
X124085510Y-87181494D01*
X123707677Y-87129401D01*
X123389913Y-87085590D01*
X123389900Y-87085589D01*
X123388554Y-87085403D01*
X123328260Y-87080393D01*
X122688798Y-87027258D01*
X122688783Y-87027257D01*
X122687421Y-87027144D01*
X122686058Y-87027105D01*
X122686045Y-87027104D01*
X122373049Y-87018088D01*
X121984164Y-87006886D01*
X121280840Y-87024689D01*
X120967938Y-87049590D01*
X120580860Y-87080393D01*
X120580845Y-87080395D01*
X120579508Y-87080501D01*
X120578167Y-87080681D01*
X120578168Y-87080681D01*
X119883553Y-87173979D01*
X119883550Y-87173980D01*
X119882221Y-87174158D01*
X119880917Y-87174406D01*
X119880902Y-87174408D01*
X119192345Y-87305135D01*
X119192336Y-87305137D01*
X119191019Y-87305387D01*
X119189707Y-87305710D01*
X119189700Y-87305712D01*
X118509233Y-87473480D01*
X118509215Y-87473485D01*
X118507925Y-87473803D01*
X118506652Y-87474191D01*
X118506641Y-87474194D01*
X118176326Y-87574867D01*
X117834939Y-87678914D01*
X117833664Y-87679379D01*
X117833653Y-87679383D01*
X117175300Y-87919654D01*
X117174029Y-87920118D01*
X117172801Y-87920643D01*
X117172791Y-87920647D01*
X117128871Y-87939426D01*
X116527131Y-88196711D01*
X116525911Y-88197313D01*
X116525895Y-88197320D01*
X116189831Y-88363049D01*
X115896137Y-88507883D01*
X115282894Y-88852723D01*
X115281733Y-88853461D01*
X115281730Y-88853463D01*
X114887453Y-89104162D01*
X114689197Y-89230222D01*
X114116784Y-89639274D01*
X113567329Y-90078684D01*
X113042441Y-90547164D01*
X112543656Y-91043345D01*
X112072434Y-91565772D01*
X111630153Y-92112919D01*
X111218109Y-92683183D01*
X111217392Y-92684298D01*
X111217385Y-92684308D01*
X111192326Y-92723267D01*
X110837507Y-93274895D01*
X110489461Y-93886324D01*
X110488845Y-93887556D01*
X110336444Y-94192558D01*
X110174989Y-94515680D01*
X110174453Y-94516916D01*
X110174451Y-94516920D01*
X109895556Y-95159868D01*
X109895549Y-95159884D01*
X109895013Y-95161121D01*
X109650351Y-95820759D01*
X109441720Y-96492662D01*
X109441389Y-96493975D01*
X109270061Y-97173546D01*
X109270057Y-97173565D01*
X109269729Y-97174865D01*
X109134883Y-97865370D01*
X109037576Y-98562157D01*
X109016245Y-98813548D01*
X108987967Y-99146824D01*
X108978093Y-99263187D01*
X108960510Y-99838673D01*
X108956607Y-99966408D01*
X104551663Y-99966408D01*
X104453705Y-96812852D01*
X103766359Y-74685292D01*
X103767345Y-74667785D01*
X103768639Y-74658832D01*
X103768639Y-74658831D01*
X103769897Y-74650123D01*
X103767955Y-74640811D01*
X103765852Y-74618434D01*
X103769919Y-74395531D01*
X104608142Y-74395531D01*
X104610763Y-74729246D01*
X104652301Y-75060376D01*
X104732188Y-75384399D01*
X104849334Y-75696888D01*
X105002138Y-75993575D01*
X105188514Y-76270409D01*
X105405914Y-76523607D01*
X105651371Y-76749712D01*
X105921532Y-76945635D01*
X105924101Y-76947074D01*
X105924103Y-76947075D01*
X106210134Y-77107261D01*
X106210139Y-77107264D01*
X106212706Y-77108701D01*
X106520916Y-77236681D01*
X106610435Y-77262097D01*
X106839123Y-77327025D01*
X106839131Y-77327027D01*
X106841953Y-77327828D01*
X106844849Y-77328294D01*
X106844856Y-77328296D01*
X107168731Y-77380462D01*
X107171432Y-77380897D01*
X107174157Y-77381035D01*
X107174166Y-77381036D01*
X107359713Y-77390435D01*
X107359723Y-77390435D01*
X107361001Y-77390500D01*
X107545676Y-77390500D01*
X107547142Y-77390414D01*
X107547148Y-77390414D01*
X107639230Y-77385024D01*
X107793155Y-77376014D01*
X107957458Y-77346895D01*
X108118856Y-77318291D01*
X108118861Y-77318290D01*
X108121760Y-77317776D01*
X108124572Y-77316930D01*
X108124579Y-77316928D01*
X108438521Y-77222442D01*
X108438522Y-77222441D01*
X108441325Y-77221598D01*
X108444012Y-77220433D01*
X108444016Y-77220431D01*
X108555064Y-77172261D01*
X108747488Y-77088792D01*
X109036064Y-76921173D01*
X109038408Y-76919417D01*
X109038413Y-76919413D01*
X109300751Y-76722802D01*
X109303114Y-76721031D01*
X109510793Y-76523607D01*
X109542861Y-76493122D01*
X109542862Y-76493121D01*
X109544989Y-76491099D01*
X109546860Y-76488850D01*
X109546866Y-76488843D01*
X109756507Y-76236777D01*
X109756512Y-76236770D01*
X109758386Y-76234517D01*
X109759987Y-76232057D01*
X109759991Y-76232051D01*
X109913568Y-75996013D01*
X109940390Y-75954790D01*
X110088515Y-75655739D01*
X110200738Y-75341448D01*
X110275526Y-75016211D01*
X110310691Y-74695130D01*
X110311538Y-74687392D01*
X110311538Y-74687390D01*
X110311858Y-74684469D01*
X110309237Y-74350754D01*
X110267699Y-74019624D01*
X110187812Y-73695601D01*
X110070666Y-73383112D01*
X109986938Y-73220543D01*
X109919208Y-73089038D01*
X109919206Y-73089035D01*
X109917862Y-73086425D01*
X109731486Y-72809591D01*
X109514086Y-72556393D01*
X109268629Y-72330288D01*
X108998468Y-72134365D01*
X108995897Y-72132925D01*
X108709866Y-71972739D01*
X108709861Y-71972736D01*
X108707294Y-71971299D01*
X108399084Y-71843319D01*
X108309565Y-71817903D01*
X108080877Y-71752975D01*
X108080869Y-71752973D01*
X108078047Y-71752172D01*
X108075151Y-71751706D01*
X108075144Y-71751704D01*
X107751269Y-71699538D01*
X107751268Y-71699538D01*
X107748568Y-71699103D01*
X107745843Y-71698965D01*
X107745834Y-71698964D01*
X107560287Y-71689565D01*
X107560277Y-71689565D01*
X107558999Y-71689500D01*
X107374324Y-71689500D01*
X107372858Y-71689586D01*
X107372852Y-71689586D01*
X107280770Y-71694976D01*
X107126845Y-71703986D01*
X106962542Y-71733105D01*
X106801144Y-71761709D01*
X106801139Y-71761710D01*
X106798240Y-71762224D01*
X106795428Y-71763070D01*
X106795421Y-71763072D01*
X106531465Y-71842514D01*
X106478675Y-71858402D01*
X106475988Y-71859567D01*
X106475984Y-71859569D01*
X106364936Y-71907739D01*
X106172512Y-71991208D01*
X105883936Y-72158827D01*
X105881592Y-72160583D01*
X105881587Y-72160587D01*
X105736163Y-72269576D01*
X105616886Y-72358969D01*
X105614746Y-72361003D01*
X105614744Y-72361005D01*
X105406851Y-72558633D01*
X105375011Y-72588901D01*
X105373140Y-72591150D01*
X105373134Y-72591157D01*
X105163493Y-72843223D01*
X105163488Y-72843230D01*
X105161614Y-72845483D01*
X105160013Y-72847943D01*
X105160009Y-72847949D01*
X105040328Y-73031890D01*
X104979610Y-73125210D01*
X104978308Y-73127840D01*
X104978305Y-73127844D01*
X104902365Y-73281160D01*
X104831485Y-73424261D01*
X104719262Y-73738552D01*
X104644474Y-74063789D01*
X104644154Y-74066714D01*
X104644153Y-74066718D01*
X104613365Y-74347837D01*
X104608142Y-74395531D01*
X103769919Y-74395531D01*
X103771832Y-74290658D01*
X103772500Y-74280778D01*
X103813847Y-73928482D01*
X103815486Y-73918706D01*
X103891308Y-73572194D01*
X103893902Y-73562625D01*
X104003461Y-73225264D01*
X104006984Y-73215997D01*
X104149218Y-72891058D01*
X104153636Y-72882183D01*
X104327163Y-72572821D01*
X104332433Y-72564424D01*
X104494602Y-72332284D01*
X104535572Y-72273638D01*
X104541641Y-72265803D01*
X104633287Y-72158827D01*
X104772409Y-71996432D01*
X104779219Y-71989234D01*
X105035385Y-71743879D01*
X105042865Y-71737390D01*
X105321941Y-71518439D01*
X105330030Y-71512713D01*
X105629304Y-71322293D01*
X105637915Y-71317394D01*
X105954465Y-71157364D01*
X105963522Y-71153332D01*
X106294296Y-71025232D01*
X106303704Y-71022113D01*
X106645472Y-70927196D01*
X106655144Y-70925017D01*
X107004590Y-70864202D01*
X107014428Y-70862985D01*
X107049945Y-70860362D01*
X107368187Y-70836859D01*
X107378080Y-70836617D01*
X107598031Y-70842088D01*
G37*
G04 #@! TD.AperFunction*
G04 #@! TA.AperFunction,Conductor*
G36*
X133991002Y-117874513D02*
G01*
X134003006Y-117884765D01*
X135743306Y-119625065D01*
X135771532Y-119680463D01*
X135761806Y-119741871D01*
X135717842Y-119785835D01*
X135672171Y-119796800D01*
X134280384Y-119796800D01*
X134233292Y-119802332D01*
X134214769Y-119806745D01*
X134190796Y-119812456D01*
X134190793Y-119812457D01*
X134187934Y-119813138D01*
X134185181Y-119814146D01*
X134185176Y-119814147D01*
X134146172Y-119828421D01*
X134146169Y-119828422D01*
X134143410Y-119829432D01*
X134140777Y-119830762D01*
X134117857Y-119842339D01*
X134099552Y-119849439D01*
X133957907Y-119888986D01*
X133938572Y-119892395D01*
X133791933Y-119903679D01*
X133772308Y-119903268D01*
X133626272Y-119885855D01*
X133607100Y-119881640D01*
X133452856Y-119831522D01*
X133446437Y-119829193D01*
X133413989Y-119816147D01*
X133410891Y-119815340D01*
X133410888Y-119815339D01*
X133368011Y-119804170D01*
X133368010Y-119804170D01*
X133364909Y-119803362D01*
X133361741Y-119802956D01*
X133361735Y-119802955D01*
X133316858Y-119797206D01*
X133316853Y-119797206D01*
X133313686Y-119796800D01*
X133200600Y-119796800D01*
X133168811Y-119799302D01*
X133166853Y-119799612D01*
X133166854Y-119799612D01*
X133143586Y-119803297D01*
X133143582Y-119803298D01*
X133137724Y-119804226D01*
X133132242Y-119806497D01*
X133132241Y-119806497D01*
X133089083Y-119824374D01*
X133050075Y-119840532D01*
X133045793Y-119843643D01*
X132985051Y-119855724D01*
X132945280Y-119842182D01*
X132922978Y-119828858D01*
X132922977Y-119828857D01*
X132918124Y-119825958D01*
X132912753Y-119824213D01*
X132912749Y-119824211D01*
X132862749Y-119807965D01*
X132862744Y-119807964D01*
X132858993Y-119806745D01*
X132843088Y-119804226D01*
X132800098Y-119797417D01*
X132800094Y-119797417D01*
X132796200Y-119796800D01*
X130260799Y-119796800D01*
X130222302Y-119789143D01*
X130222300Y-119789142D01*
X130192597Y-119776839D01*
X130186061Y-119775979D01*
X130186059Y-119775978D01*
X130041540Y-119756952D01*
X130035000Y-119756091D01*
X130028460Y-119756952D01*
X129883941Y-119775978D01*
X129883939Y-119775979D01*
X129877403Y-119776839D01*
X129855685Y-119785835D01*
X129847701Y-119789142D01*
X129809203Y-119796800D01*
X129727829Y-119796800D01*
X129668698Y-119777587D01*
X129632153Y-119727287D01*
X129632153Y-119665113D01*
X129656694Y-119625065D01*
X131108379Y-118173380D01*
X131163777Y-118145154D01*
X131192644Y-118144776D01*
X131293459Y-118158048D01*
X131293460Y-118158048D01*
X131300000Y-118158909D01*
X131306540Y-118158048D01*
X131451059Y-118139022D01*
X131451061Y-118139021D01*
X131457597Y-118138161D01*
X131604455Y-118077331D01*
X131730564Y-117980564D01*
X131796481Y-117894659D01*
X131847720Y-117859443D01*
X131876292Y-117855300D01*
X133931871Y-117855300D01*
X133991002Y-117874513D01*
G37*
G04 #@! TD.AperFunction*
G04 #@! TA.AperFunction,Conductor*
G36*
X133362766Y-120012785D02*
G01*
X133371813Y-120017842D01*
X133371822Y-120017846D01*
X133376111Y-120020243D01*
X133380792Y-120021764D01*
X133567959Y-120082579D01*
X133567965Y-120082580D01*
X133572639Y-120084099D01*
X133577521Y-120084681D01*
X133577525Y-120084682D01*
X133772936Y-120107983D01*
X133772937Y-120107983D01*
X133777826Y-120108566D01*
X133983858Y-120092712D01*
X133988599Y-120091388D01*
X133988601Y-120091388D01*
X134178145Y-120038467D01*
X134182887Y-120037143D01*
X134207890Y-120024513D01*
X134235026Y-120010806D01*
X134280384Y-120000000D01*
X136162624Y-120000000D01*
X136184551Y-120002629D01*
X136189673Y-120004673D01*
X136196068Y-120005300D01*
X136202336Y-120005300D01*
X136225557Y-120008017D01*
X136234827Y-120010217D01*
X136264204Y-120006219D01*
X136277770Y-120005300D01*
X142796200Y-120005300D01*
X142855331Y-120024513D01*
X142891876Y-120074813D01*
X142896800Y-120105900D01*
X142896800Y-127599399D01*
X142877587Y-127658530D01*
X142827287Y-127695075D01*
X142796200Y-127699999D01*
X133200600Y-127699999D01*
X133141469Y-127680786D01*
X133104924Y-127630486D01*
X133100000Y-127599399D01*
X133100000Y-120100600D01*
X133119213Y-120041469D01*
X133169513Y-120004924D01*
X133200600Y-120000000D01*
X133313686Y-120000000D01*
X133362766Y-120012785D01*
G37*
G04 #@! TD.AperFunction*
M02*
