G04 #@! TF.GenerationSoftware,KiCad,Pcbnew,(6.0.0)*
G04 #@! TF.CreationDate,2022-02-12T02:05:42-05:00*
G04 #@! TF.ProjectId,FalconRHS,46616c63-6f6e-4524-9853-2e6b69636164,1A*
G04 #@! TF.SameCoordinates,Original*
G04 #@! TF.FileFunction,Copper,L2,Bot*
G04 #@! TF.FilePolarity,Positive*
%FSLAX46Y46*%
G04 Gerber Fmt 4.6, Leading zero omitted, Abs format (unit mm)*
G04 Created by KiCad (PCBNEW (6.0.0)) date 2022-02-12 02:05:42*
%MOMM*%
%LPD*%
G01*
G04 APERTURE LIST*
G04 Aperture macros list*
%AMRoundRect*
0 Rectangle with rounded corners*
0 $1 Rounding radius*
0 $2 $3 $4 $5 $6 $7 $8 $9 X,Y pos of 4 corners*
0 Add a 4 corners polygon primitive as box body*
4,1,4,$2,$3,$4,$5,$6,$7,$8,$9,$2,$3,0*
0 Add four circle primitives for the rounded corners*
1,1,$1+$1,$2,$3*
1,1,$1+$1,$4,$5*
1,1,$1+$1,$6,$7*
1,1,$1+$1,$8,$9*
0 Add four rect primitives between the rounded corners*
20,1,$1+$1,$2,$3,$4,$5,0*
20,1,$1+$1,$4,$5,$6,$7,0*
20,1,$1+$1,$6,$7,$8,$9,0*
20,1,$1+$1,$8,$9,$2,$3,0*%
G04 Aperture macros list end*
G04 #@! TA.AperFunction,SMDPad,CuDef*
%ADD10R,0.650000X1.500000*%
G04 #@! TD*
G04 #@! TA.AperFunction,SMDPad,CuDef*
%ADD11R,3.600000X2.700000*%
G04 #@! TD*
G04 #@! TA.AperFunction,ComponentPad*
%ADD12R,1.700000X1.700000*%
G04 #@! TD*
G04 #@! TA.AperFunction,ComponentPad*
%ADD13O,1.700000X1.700000*%
G04 #@! TD*
G04 #@! TA.AperFunction,SMDPad,CuDef*
%ADD14RoundRect,0.135000X-0.135000X-0.185000X0.135000X-0.185000X0.135000X0.185000X-0.135000X0.185000X0*%
G04 #@! TD*
G04 #@! TA.AperFunction,SMDPad,CuDef*
%ADD15R,2.450000X5.900000*%
G04 #@! TD*
G04 #@! TA.AperFunction,SMDPad,CuDef*
%ADD16R,5.900000X2.450000*%
G04 #@! TD*
G04 #@! TA.AperFunction,SMDPad,CuDef*
%ADD17RoundRect,0.135000X0.185000X-0.135000X0.185000X0.135000X-0.185000X0.135000X-0.185000X-0.135000X0*%
G04 #@! TD*
G04 #@! TA.AperFunction,SMDPad,CuDef*
%ADD18RoundRect,0.250000X-0.325000X-1.100000X0.325000X-1.100000X0.325000X1.100000X-0.325000X1.100000X0*%
G04 #@! TD*
G04 #@! TA.AperFunction,SMDPad,CuDef*
%ADD19R,0.900000X0.800000*%
G04 #@! TD*
G04 #@! TA.AperFunction,SMDPad,CuDef*
%ADD20RoundRect,0.250000X-1.100000X0.325000X-1.100000X-0.325000X1.100000X-0.325000X1.100000X0.325000X0*%
G04 #@! TD*
G04 #@! TA.AperFunction,SMDPad,CuDef*
%ADD21RoundRect,0.135000X0.135000X0.185000X-0.135000X0.185000X-0.135000X-0.185000X0.135000X-0.185000X0*%
G04 #@! TD*
G04 #@! TA.AperFunction,SMDPad,CuDef*
%ADD22R,0.800000X0.900000*%
G04 #@! TD*
G04 #@! TA.AperFunction,SMDPad,CuDef*
%ADD23R,1.500000X0.650000*%
G04 #@! TD*
G04 #@! TA.AperFunction,SMDPad,CuDef*
%ADD24R,2.700000X3.600000*%
G04 #@! TD*
G04 #@! TA.AperFunction,ViaPad*
%ADD25C,0.800000*%
G04 #@! TD*
G04 #@! TA.AperFunction,ViaPad*
%ADD26C,1.700000*%
G04 #@! TD*
G04 #@! TA.AperFunction,Conductor*
%ADD27C,1.270000*%
G04 #@! TD*
G04 #@! TA.AperFunction,Conductor*
%ADD28C,0.762000*%
G04 #@! TD*
G04 #@! TA.AperFunction,Conductor*
%ADD29C,0.203200*%
G04 #@! TD*
G04 APERTURE END LIST*
D10*
X135705000Y-121750000D03*
X134435000Y-121750000D03*
X133165000Y-121750000D03*
X131895000Y-121750000D03*
X131895000Y-116350000D03*
X133165000Y-116350000D03*
X134435000Y-116350000D03*
X135705000Y-116350000D03*
D11*
X133800000Y-119050000D03*
D12*
X121640000Y-121900000D03*
D13*
X119100000Y-121900000D03*
X116560000Y-121900000D03*
D14*
X118090000Y-119400000D03*
X119110000Y-119400000D03*
D15*
X142891600Y-102750000D03*
X148441600Y-102750000D03*
D16*
X140000000Y-115775000D03*
X140000000Y-121325000D03*
D17*
X130100000Y-119460000D03*
X130100000Y-118440000D03*
D18*
X138525000Y-110030500D03*
X141475000Y-110030500D03*
D19*
X135500000Y-112300000D03*
X135500000Y-114600000D03*
D20*
X132700000Y-111275000D03*
X132700000Y-114225000D03*
D21*
X146620000Y-112630500D03*
X145600000Y-112630500D03*
D22*
X139550000Y-107250000D03*
X141850000Y-107250000D03*
D23*
X148966600Y-107025500D03*
X148966600Y-108295500D03*
X148966600Y-109565500D03*
X148966600Y-110835500D03*
X143566600Y-110835500D03*
X143566600Y-109565500D03*
X143566600Y-108295500D03*
X143566600Y-107025500D03*
D24*
X146266600Y-108930500D03*
D25*
X145700000Y-117400000D03*
X150500000Y-107850000D03*
D26*
X146266600Y-108930500D03*
X133800000Y-119050000D03*
D25*
X132200000Y-110050000D03*
X137100000Y-109450000D03*
X143850000Y-117450000D03*
X137100000Y-110600000D03*
X133400000Y-110050000D03*
X145700000Y-118450000D03*
X143850000Y-118450000D03*
X131300000Y-117550000D03*
X144772665Y-111415146D03*
X164931479Y-115118521D03*
X165752028Y-115647972D03*
X166572577Y-116177423D03*
X146750000Y-98200000D03*
X145961482Y-97688518D03*
X147538518Y-98711482D03*
X130035000Y-121365000D03*
X130035000Y-122365000D03*
X130035000Y-120365000D03*
X156699980Y-124450000D03*
X157699980Y-124450000D03*
X155699980Y-124450000D03*
D27*
X148966600Y-107930500D02*
X147266600Y-107930500D01*
X134800000Y-120050000D02*
X134800000Y-121750000D01*
X148966600Y-107025500D02*
X148966600Y-107930500D01*
X147266600Y-107930500D02*
X146266600Y-108930500D01*
X135705000Y-121750000D02*
X134800000Y-121750000D01*
X133800000Y-119050000D02*
X134800000Y-120050000D01*
X141475000Y-111487922D02*
X140747902Y-112215020D01*
D28*
X133165000Y-116350000D02*
X133165000Y-114690000D01*
D27*
X131310978Y-114225000D02*
X130035000Y-115500978D01*
X130035000Y-118180480D02*
X129426305Y-118180480D01*
X128565480Y-119041305D02*
X128565480Y-121515480D01*
D28*
X141940000Y-109565500D02*
X141475000Y-110030500D01*
X133165000Y-114690000D02*
X132700000Y-114225000D01*
D27*
X121640000Y-121900000D02*
X128180960Y-121900000D01*
X139550000Y-107250000D02*
X141475000Y-109175000D01*
X141475000Y-110030500D02*
X141475000Y-111487922D01*
X132700000Y-114225000D02*
X133525000Y-114225000D01*
X129426305Y-118180480D02*
X128565480Y-119041305D01*
X132700000Y-114225000D02*
X131310978Y-114225000D01*
X140747902Y-112215020D02*
X135534980Y-112215020D01*
X141475000Y-110030500D02*
X141475000Y-109138900D01*
X133525000Y-114225000D02*
X135534980Y-112215020D01*
X130035000Y-115500978D02*
X130035000Y-118180480D01*
X142717578Y-112730500D02*
X145366600Y-112730500D01*
X128180960Y-121900000D02*
X128565480Y-121515480D01*
X140747902Y-112215020D02*
X142202098Y-112215020D01*
X141475000Y-111487922D02*
X142717578Y-112730500D01*
D28*
X143566600Y-109565500D02*
X141940000Y-109565500D01*
D27*
X143566600Y-107930500D02*
X143566600Y-104930500D01*
X142886100Y-107250000D02*
X143566600Y-107930500D01*
X143566600Y-104930500D02*
X142891600Y-104255500D01*
X141850000Y-107250000D02*
X142886100Y-107250000D01*
X134800000Y-116350000D02*
X138400000Y-116350000D01*
X135500000Y-114600000D02*
X135500000Y-115650000D01*
X135500000Y-115650000D02*
X134800000Y-116350000D01*
D29*
X144656246Y-111415146D02*
X144071600Y-110830500D01*
X119100000Y-119410000D02*
X119100000Y-121900000D01*
X131300000Y-117450000D02*
X131895000Y-116855000D01*
X131300000Y-117550000D02*
X131300000Y-117450000D01*
X144772665Y-111415146D02*
X144656246Y-111415146D01*
D28*
X148966600Y-109565500D02*
X149932622Y-109565500D01*
X150666600Y-110299478D02*
X150666600Y-112130500D01*
D27*
X150066600Y-112730500D02*
X161230500Y-112730500D01*
X165752028Y-115647972D02*
X166572577Y-116177423D01*
D28*
X150666600Y-112130500D02*
X150066600Y-112730500D01*
D27*
X150066600Y-112730500D02*
X146866600Y-112730500D01*
X164931479Y-115118521D02*
X165752028Y-115647972D01*
X161230500Y-112730500D02*
X164931479Y-115118521D01*
D28*
X149932622Y-109565500D02*
X150666600Y-110299478D01*
D27*
X148445800Y-99300000D02*
X148441600Y-102750000D01*
X146750000Y-98200000D02*
X145961482Y-97688518D01*
X148445800Y-99300000D02*
X147538518Y-98711482D01*
X147538518Y-98711482D02*
X146750000Y-98200000D01*
D28*
X129847541Y-123020918D02*
X130018459Y-122850000D01*
D27*
X130035000Y-122850000D02*
X130035000Y-122365000D01*
X130035000Y-120365000D02*
X130035000Y-119650000D01*
D28*
X133165000Y-121750000D02*
X133165000Y-122751022D01*
X130018459Y-122850000D02*
X130035000Y-122850000D01*
X132327214Y-123588808D02*
X130415431Y-123588808D01*
D27*
X130035000Y-121365000D02*
X130035000Y-120365000D01*
D28*
X130035000Y-122365000D02*
X130035000Y-122685000D01*
X130035000Y-122685000D02*
X130950000Y-123600000D01*
X130415431Y-123588808D02*
X129847541Y-123020918D01*
X133165000Y-122751022D02*
X132327214Y-123588808D01*
D27*
X130035000Y-122365000D02*
X130035000Y-121365000D01*
X144850000Y-124450000D02*
X141725000Y-121325000D01*
X156699980Y-124450000D02*
X157699980Y-124450000D01*
X155699980Y-124450000D02*
X156699980Y-124450000D01*
X155699980Y-124450000D02*
X144850000Y-124450000D01*
G04 #@! TA.AperFunction,Conductor*
G36*
X107598031Y-70842088D02*
G01*
X107732689Y-70845438D01*
X107742575Y-70846173D01*
X107857594Y-70860446D01*
X108094584Y-70889854D01*
X108104331Y-70891554D01*
X108358368Y-70948908D01*
X108450339Y-70969673D01*
X108459890Y-70972330D01*
X108796521Y-71084124D01*
X108805765Y-71087709D01*
X109129748Y-71232090D01*
X109138593Y-71236566D01*
X109423451Y-71398840D01*
X109441609Y-71412072D01*
X109442135Y-71412554D01*
X109442139Y-71412557D01*
X109448629Y-71418502D01*
X109456761Y-71421869D01*
X109465122Y-71425331D01*
X109480679Y-71433427D01*
X187086387Y-120860380D01*
X187100301Y-120871054D01*
X187106973Y-120877167D01*
X187106976Y-120877169D01*
X187113463Y-120883112D01*
X187122227Y-120886741D01*
X187141915Y-120897614D01*
X187410665Y-121088109D01*
X187418475Y-121094247D01*
X187687345Y-121327996D01*
X187694517Y-121334884D01*
X187938951Y-121594056D01*
X187945416Y-121601630D01*
X188163025Y-121883689D01*
X188168710Y-121891863D01*
X188357375Y-122194060D01*
X188362220Y-122202750D01*
X188520090Y-122522126D01*
X188524050Y-122531249D01*
X188540489Y-122574914D01*
X188649570Y-122864656D01*
X188652613Y-122874137D01*
X188744561Y-123218324D01*
X188746651Y-123228059D01*
X188804121Y-123579637D01*
X188805239Y-123589529D01*
X188820774Y-123835748D01*
X188827671Y-123945067D01*
X188827806Y-123955019D01*
X188825976Y-124005821D01*
X188814980Y-124311053D01*
X188814129Y-124320973D01*
X188766172Y-124673978D01*
X188764347Y-124683756D01*
X188688825Y-125000525D01*
X188681728Y-125030294D01*
X188678943Y-125039853D01*
X188562466Y-125376538D01*
X188558748Y-125385776D01*
X188409565Y-125709282D01*
X188404953Y-125718106D01*
X188224525Y-126025271D01*
X188219063Y-126033597D01*
X188009137Y-126321443D01*
X188002879Y-126329187D01*
X187765539Y-126594856D01*
X187758549Y-126601942D01*
X187496098Y-126842857D01*
X187488451Y-126849209D01*
X187203463Y-127063004D01*
X187195226Y-127068568D01*
X187139031Y-127102606D01*
X186890498Y-127253143D01*
X186881736Y-127257873D01*
X186560284Y-127411405D01*
X186551100Y-127415246D01*
X186216008Y-127536261D01*
X186206503Y-127539170D01*
X185923617Y-127610664D01*
X185861110Y-127626461D01*
X185851351Y-127628419D01*
X185715003Y-127648821D01*
X185499029Y-127681137D01*
X185489121Y-127682122D01*
X185160111Y-127698425D01*
X185137662Y-127697019D01*
X185137658Y-127697018D01*
X185128322Y-127695372D01*
X185119656Y-127696900D01*
X185119655Y-127696900D01*
X185111920Y-127698264D01*
X185110747Y-127698471D01*
X185110741Y-127698472D01*
X185093272Y-127700000D01*
X147059842Y-127699999D01*
X109035051Y-127699999D01*
X109017582Y-127698471D01*
X109008667Y-127696899D01*
X109000001Y-127695371D01*
X108991334Y-127696899D01*
X108991333Y-127696899D01*
X108990459Y-127697053D01*
X108968154Y-127698465D01*
X108763369Y-127688604D01*
X108649318Y-127683112D01*
X108639692Y-127682182D01*
X108468372Y-127657279D01*
X108297054Y-127632376D01*
X108287555Y-127630525D01*
X108183301Y-127604948D01*
X107951271Y-127548023D01*
X107942009Y-127545271D01*
X107778616Y-127488057D01*
X107615231Y-127430845D01*
X107606262Y-127427212D01*
X107291978Y-127281912D01*
X107283399Y-127277433D01*
X107136741Y-127191644D01*
X106984523Y-127102602D01*
X106976427Y-127097327D01*
X106774938Y-126951797D01*
X106695749Y-126894601D01*
X106688185Y-126888564D01*
X106428276Y-126659797D01*
X106421328Y-126653061D01*
X106184611Y-126400389D01*
X106178342Y-126393017D01*
X105966994Y-126118764D01*
X105961462Y-126110824D01*
X105913008Y-126033597D01*
X105777434Y-125817516D01*
X105772706Y-125809107D01*
X105617714Y-125499476D01*
X105613804Y-125490624D01*
X105520995Y-125249824D01*
X105489286Y-125167552D01*
X105486245Y-125158367D01*
X105460031Y-125064248D01*
X105393344Y-124824816D01*
X105391200Y-124815385D01*
X105389221Y-124804215D01*
X105330779Y-124474460D01*
X105329551Y-124464866D01*
X105318136Y-124320973D01*
X105304306Y-124146656D01*
X105305025Y-124124321D01*
X105306410Y-124114733D01*
X105302765Y-124097255D01*
X105300696Y-124079849D01*
X105293728Y-123855531D01*
X106148142Y-123855531D01*
X106148165Y-123858469D01*
X106148165Y-123858470D01*
X106149082Y-123975156D01*
X106150763Y-124189246D01*
X106151129Y-124192163D01*
X106190055Y-124502469D01*
X106192301Y-124520376D01*
X106272188Y-124844399D01*
X106389334Y-125156888D01*
X106390681Y-125159503D01*
X106390683Y-125159508D01*
X106502461Y-125376538D01*
X106542138Y-125453575D01*
X106728514Y-125730409D01*
X106945914Y-125983607D01*
X106948084Y-125985606D01*
X106948086Y-125985608D01*
X107084019Y-126110824D01*
X107191371Y-126209712D01*
X107461532Y-126405635D01*
X107464101Y-126407074D01*
X107464103Y-126407075D01*
X107750134Y-126567261D01*
X107750139Y-126567264D01*
X107752706Y-126568701D01*
X108060916Y-126696681D01*
X108150435Y-126722097D01*
X108379123Y-126787025D01*
X108379131Y-126787027D01*
X108381953Y-126787828D01*
X108384849Y-126788294D01*
X108384856Y-126788296D01*
X108708731Y-126840462D01*
X108711432Y-126840897D01*
X108714157Y-126841035D01*
X108714166Y-126841036D01*
X108899713Y-126850435D01*
X108899723Y-126850435D01*
X108901001Y-126850500D01*
X109085676Y-126850500D01*
X109087142Y-126850414D01*
X109087148Y-126850414D01*
X109179230Y-126845024D01*
X109333155Y-126836014D01*
X109497457Y-126806895D01*
X109658856Y-126778291D01*
X109658861Y-126778290D01*
X109661760Y-126777776D01*
X109664572Y-126776930D01*
X109664579Y-126776928D01*
X109978521Y-126682442D01*
X109978522Y-126682441D01*
X109981325Y-126681598D01*
X109984012Y-126680433D01*
X109984016Y-126680431D01*
X110164952Y-126601945D01*
X110287488Y-126548792D01*
X110536925Y-126403907D01*
X110573525Y-126382648D01*
X110573528Y-126382646D01*
X110576064Y-126381173D01*
X110578408Y-126379417D01*
X110578413Y-126379413D01*
X110840751Y-126182802D01*
X110843114Y-126181031D01*
X111006965Y-126025271D01*
X111082861Y-125953122D01*
X111082862Y-125953121D01*
X111084989Y-125951099D01*
X111086860Y-125948850D01*
X111086866Y-125948843D01*
X111296507Y-125696777D01*
X111296512Y-125696770D01*
X111298386Y-125694517D01*
X111299987Y-125692057D01*
X111299991Y-125692051D01*
X111425289Y-125499476D01*
X111480390Y-125414790D01*
X111541742Y-125290927D01*
X111606835Y-125159508D01*
X111628515Y-125115739D01*
X111630271Y-125110823D01*
X111739750Y-124804215D01*
X111740738Y-124801448D01*
X111815526Y-124476211D01*
X111816769Y-124464866D01*
X111851538Y-124147392D01*
X111851538Y-124147390D01*
X111851858Y-124144469D01*
X111851819Y-124139434D01*
X111849260Y-123813695D01*
X111849237Y-123810754D01*
X111829243Y-123651364D01*
X111808065Y-123482540D01*
X111808064Y-123482537D01*
X111807699Y-123479624D01*
X111800435Y-123450159D01*
X111779199Y-123364028D01*
X111727812Y-123155601D01*
X111610666Y-122843112D01*
X111607889Y-122837719D01*
X111459208Y-122549038D01*
X111459206Y-122549035D01*
X111457862Y-122546425D01*
X111271486Y-122269591D01*
X111054086Y-122016393D01*
X110962843Y-121932343D01*
X110911683Y-121885217D01*
X118041305Y-121885217D01*
X118058596Y-122091133D01*
X118115555Y-122289770D01*
X118210010Y-122473560D01*
X118213063Y-122477412D01*
X118213065Y-122477415D01*
X118267762Y-122546425D01*
X118338364Y-122635503D01*
X118495730Y-122769431D01*
X118676111Y-122870243D01*
X118680792Y-122871764D01*
X118867959Y-122932579D01*
X118867965Y-122932580D01*
X118872639Y-122934099D01*
X118877521Y-122934681D01*
X118877525Y-122934682D01*
X119072936Y-122957983D01*
X119072937Y-122957983D01*
X119077826Y-122958566D01*
X119283858Y-122942712D01*
X119288599Y-122941388D01*
X119288601Y-122941388D01*
X119478145Y-122888467D01*
X119482887Y-122887143D01*
X119667332Y-122793973D01*
X119697934Y-122770064D01*
X120586300Y-122770064D01*
X120598119Y-122829480D01*
X120643140Y-122896860D01*
X120710520Y-122941881D01*
X120769936Y-122953700D01*
X122510064Y-122953700D01*
X122569480Y-122941881D01*
X122636860Y-122896860D01*
X122681881Y-122829480D01*
X122683813Y-122819765D01*
X122683816Y-122819759D01*
X122683833Y-122819671D01*
X122683906Y-122819541D01*
X122687606Y-122810608D01*
X122688663Y-122811046D01*
X122714214Y-122765425D01*
X122770677Y-122739397D01*
X122782499Y-122738700D01*
X128141473Y-122738700D01*
X128149891Y-122739053D01*
X128196141Y-122742937D01*
X128196142Y-122742937D01*
X128201572Y-122743393D01*
X128236744Y-122738700D01*
X128280483Y-122732864D01*
X128282924Y-122732568D01*
X128300466Y-122730662D01*
X128362120Y-122723965D01*
X128367286Y-122722227D01*
X128372070Y-122721175D01*
X128376796Y-122720014D01*
X128382198Y-122719293D01*
X128457057Y-122692046D01*
X128459335Y-122691248D01*
X128534829Y-122665842D01*
X128539496Y-122663038D01*
X128543913Y-122660997D01*
X128548311Y-122658833D01*
X128553434Y-122656968D01*
X128571273Y-122645647D01*
X128620675Y-122614295D01*
X128622767Y-122613003D01*
X128686359Y-122574793D01*
X128686360Y-122574792D01*
X128691027Y-122571988D01*
X128694982Y-122568248D01*
X128699327Y-122564950D01*
X128699561Y-122565258D01*
X128700749Y-122564333D01*
X128700517Y-122564026D01*
X128703810Y-122561535D01*
X128707293Y-122559325D01*
X128711473Y-122555588D01*
X128764468Y-122502593D01*
X128766482Y-122500634D01*
X128795112Y-122473560D01*
X128823428Y-122446783D01*
X128826487Y-122442281D01*
X128830022Y-122438128D01*
X128830184Y-122438266D01*
X128836834Y-122430227D01*
X129024565Y-122242496D01*
X129079963Y-122214270D01*
X129141371Y-122223996D01*
X129185335Y-122267960D01*
X129196300Y-122313631D01*
X129196300Y-122895520D01*
X129196593Y-122898214D01*
X129196593Y-122898220D01*
X129208096Y-123004108D01*
X129211035Y-123031160D01*
X129269158Y-123203869D01*
X129271964Y-123208539D01*
X129277844Y-123218324D01*
X129363012Y-123360067D01*
X129366749Y-123364019D01*
X129366756Y-123364028D01*
X129400655Y-123399875D01*
X129407368Y-123407749D01*
X129430528Y-123437931D01*
X129446469Y-123450163D01*
X129458320Y-123460852D01*
X129473371Y-123476768D01*
X129488217Y-123492468D01*
X129492721Y-123495529D01*
X129492727Y-123495534D01*
X129492785Y-123495573D01*
X129507376Y-123507643D01*
X129970224Y-123970491D01*
X129978902Y-123980387D01*
X129994402Y-124000588D01*
X129994405Y-124000591D01*
X129998418Y-124005821D01*
X130003648Y-124009834D01*
X130029082Y-124029350D01*
X130027718Y-124031127D01*
X130027719Y-124031128D01*
X130029083Y-124029351D01*
X130120558Y-124099542D01*
X130148174Y-124110981D01*
X130256700Y-124155934D01*
X130256701Y-124155934D01*
X130262794Y-124158458D01*
X130269332Y-124159319D01*
X130269333Y-124159319D01*
X130408891Y-124177693D01*
X130415431Y-124178554D01*
X130447218Y-124174369D01*
X130460349Y-124173508D01*
X130820082Y-124173508D01*
X130833211Y-124174369D01*
X130950000Y-124189745D01*
X131066792Y-124174369D01*
X131079923Y-124173508D01*
X132282304Y-124173508D01*
X132295433Y-124174369D01*
X132327214Y-124178553D01*
X132365533Y-124173508D01*
X132365535Y-124173508D01*
X132427236Y-124165385D01*
X132473313Y-124159319D01*
X132473315Y-124159318D01*
X132479851Y-124158458D01*
X132585412Y-124114733D01*
X132622087Y-124099542D01*
X132627317Y-124095528D01*
X132627320Y-124095527D01*
X132681524Y-124053934D01*
X132681525Y-124053933D01*
X132711247Y-124031127D01*
X132744227Y-124005821D01*
X132748240Y-124000591D01*
X132748245Y-124000586D01*
X132763748Y-123980382D01*
X132772424Y-123970488D01*
X133546685Y-123196228D01*
X133556579Y-123187551D01*
X133576783Y-123172048D01*
X133582013Y-123168035D01*
X133656203Y-123071348D01*
X133675734Y-123045895D01*
X133705551Y-122973909D01*
X133718317Y-122943090D01*
X133732128Y-122909748D01*
X133732128Y-122909747D01*
X133734650Y-122903659D01*
X133749700Y-122789343D01*
X133749700Y-122789341D01*
X133754745Y-122751022D01*
X133750561Y-122719241D01*
X133749700Y-122706110D01*
X133749700Y-122570064D01*
X136846300Y-122570064D01*
X136858119Y-122629480D01*
X136903140Y-122696860D01*
X136970520Y-122741881D01*
X137029936Y-122753700D01*
X141925929Y-122753700D01*
X141985060Y-122772913D01*
X141997064Y-122783165D01*
X144229026Y-125015127D01*
X144234729Y-125021329D01*
X144246409Y-125035150D01*
X144268206Y-125060944D01*
X144331462Y-125109307D01*
X144333395Y-125110823D01*
X144387255Y-125154127D01*
X144395468Y-125160730D01*
X144400348Y-125163152D01*
X144404476Y-125165792D01*
X144408639Y-125168313D01*
X144412969Y-125171624D01*
X144417906Y-125173926D01*
X144485173Y-125205293D01*
X144487390Y-125206360D01*
X144558691Y-125241755D01*
X144563982Y-125243074D01*
X144568601Y-125244774D01*
X144573188Y-125246335D01*
X144578122Y-125248636D01*
X144655845Y-125266009D01*
X144658187Y-125266562D01*
X144735504Y-125285839D01*
X144740947Y-125285991D01*
X144746349Y-125286731D01*
X144746296Y-125287115D01*
X144747788Y-125287300D01*
X144747841Y-125286919D01*
X144751931Y-125287486D01*
X144755960Y-125288387D01*
X144760122Y-125288620D01*
X144760142Y-125288621D01*
X144760148Y-125288621D01*
X144761558Y-125288700D01*
X144836517Y-125288700D01*
X144839326Y-125288739D01*
X144912213Y-125290775D01*
X144912214Y-125290775D01*
X144917659Y-125290927D01*
X144923011Y-125289906D01*
X144928441Y-125289469D01*
X144928458Y-125289682D01*
X144938843Y-125288700D01*
X157745500Y-125288700D01*
X157748194Y-125288407D01*
X157748200Y-125288407D01*
X157875729Y-125274553D01*
X157875731Y-125274553D01*
X157881140Y-125273965D01*
X157886297Y-125272229D01*
X157886299Y-125272229D01*
X157984056Y-125239330D01*
X158053849Y-125215842D01*
X158073063Y-125204297D01*
X158205379Y-125124793D01*
X158205380Y-125124792D01*
X158210047Y-125121988D01*
X158274599Y-125060944D01*
X158338491Y-125000525D01*
X158342448Y-124996783D01*
X158444874Y-124846067D01*
X158446894Y-124841017D01*
X158446896Y-124841013D01*
X158510524Y-124681931D01*
X158510524Y-124681930D01*
X158512547Y-124676873D01*
X158542310Y-124497094D01*
X158532773Y-124315117D01*
X158495157Y-124178554D01*
X158485828Y-124144686D01*
X158485827Y-124144683D01*
X158484381Y-124139434D01*
X158399393Y-123978240D01*
X158298180Y-123858470D01*
X158295696Y-123855531D01*
X182268142Y-123855531D01*
X182268165Y-123858469D01*
X182268165Y-123858470D01*
X182269082Y-123975156D01*
X182270763Y-124189246D01*
X182271129Y-124192163D01*
X182310055Y-124502469D01*
X182312301Y-124520376D01*
X182392188Y-124844399D01*
X182509334Y-125156888D01*
X182510681Y-125159503D01*
X182510683Y-125159508D01*
X182622461Y-125376538D01*
X182662138Y-125453575D01*
X182848514Y-125730409D01*
X183065914Y-125983607D01*
X183068084Y-125985606D01*
X183068086Y-125985608D01*
X183204019Y-126110824D01*
X183311371Y-126209712D01*
X183581532Y-126405635D01*
X183584101Y-126407074D01*
X183584103Y-126407075D01*
X183870134Y-126567261D01*
X183870139Y-126567264D01*
X183872706Y-126568701D01*
X184180916Y-126696681D01*
X184270435Y-126722097D01*
X184499123Y-126787025D01*
X184499131Y-126787027D01*
X184501953Y-126787828D01*
X184504849Y-126788294D01*
X184504856Y-126788296D01*
X184828731Y-126840462D01*
X184831432Y-126840897D01*
X184834157Y-126841035D01*
X184834166Y-126841036D01*
X185019713Y-126850435D01*
X185019723Y-126850435D01*
X185021001Y-126850500D01*
X185205676Y-126850500D01*
X185207142Y-126850414D01*
X185207148Y-126850414D01*
X185299230Y-126845024D01*
X185453155Y-126836014D01*
X185617457Y-126806895D01*
X185778856Y-126778291D01*
X185778861Y-126778290D01*
X185781760Y-126777776D01*
X185784572Y-126776930D01*
X185784579Y-126776928D01*
X186098521Y-126682442D01*
X186098522Y-126682441D01*
X186101325Y-126681598D01*
X186104012Y-126680433D01*
X186104016Y-126680431D01*
X186284952Y-126601945D01*
X186407488Y-126548792D01*
X186656925Y-126403907D01*
X186693525Y-126382648D01*
X186693528Y-126382646D01*
X186696064Y-126381173D01*
X186698408Y-126379417D01*
X186698413Y-126379413D01*
X186960751Y-126182802D01*
X186963114Y-126181031D01*
X187126965Y-126025271D01*
X187202861Y-125953122D01*
X187202862Y-125953121D01*
X187204989Y-125951099D01*
X187206860Y-125948850D01*
X187206866Y-125948843D01*
X187416507Y-125696777D01*
X187416512Y-125696770D01*
X187418386Y-125694517D01*
X187419987Y-125692057D01*
X187419991Y-125692051D01*
X187545289Y-125499476D01*
X187600390Y-125414790D01*
X187661742Y-125290927D01*
X187726835Y-125159508D01*
X187748515Y-125115739D01*
X187750271Y-125110823D01*
X187859750Y-124804215D01*
X187860738Y-124801448D01*
X187935526Y-124476211D01*
X187936769Y-124464866D01*
X187971538Y-124147392D01*
X187971538Y-124147390D01*
X187971858Y-124144469D01*
X187971819Y-124139434D01*
X187969260Y-123813695D01*
X187969237Y-123810754D01*
X187949243Y-123651364D01*
X187928065Y-123482540D01*
X187928064Y-123482537D01*
X187927699Y-123479624D01*
X187920435Y-123450159D01*
X187899199Y-123364028D01*
X187847812Y-123155601D01*
X187730666Y-122843112D01*
X187727889Y-122837719D01*
X187579208Y-122549038D01*
X187579206Y-122549035D01*
X187577862Y-122546425D01*
X187391486Y-122269591D01*
X187174086Y-122016393D01*
X187082843Y-121932343D01*
X186930796Y-121792284D01*
X186930795Y-121792283D01*
X186928629Y-121790288D01*
X186658468Y-121594365D01*
X186653870Y-121591790D01*
X186369866Y-121432739D01*
X186369861Y-121432736D01*
X186367294Y-121431299D01*
X186059084Y-121303319D01*
X185969565Y-121277903D01*
X185740877Y-121212975D01*
X185740869Y-121212973D01*
X185738047Y-121212172D01*
X185735151Y-121211706D01*
X185735144Y-121211704D01*
X185411269Y-121159538D01*
X185411268Y-121159538D01*
X185408568Y-121159103D01*
X185405843Y-121158965D01*
X185405834Y-121158964D01*
X185220287Y-121149565D01*
X185220277Y-121149565D01*
X185218999Y-121149500D01*
X185034324Y-121149500D01*
X185032858Y-121149586D01*
X185032852Y-121149586D01*
X184958556Y-121153935D01*
X184786845Y-121163986D01*
X184622542Y-121193105D01*
X184461144Y-121221709D01*
X184461139Y-121221710D01*
X184458240Y-121222224D01*
X184455428Y-121223070D01*
X184455421Y-121223072D01*
X184141479Y-121317558D01*
X184138675Y-121318402D01*
X184135988Y-121319567D01*
X184135984Y-121319569D01*
X184109028Y-121331262D01*
X183832512Y-121451208D01*
X183829964Y-121452688D01*
X183565496Y-121606304D01*
X183543936Y-121618827D01*
X183541592Y-121620583D01*
X183541587Y-121620587D01*
X183420043Y-121711679D01*
X183276886Y-121818969D01*
X183274746Y-121821003D01*
X183274744Y-121821005D01*
X183066851Y-122018633D01*
X183035011Y-122048901D01*
X183033140Y-122051150D01*
X183033134Y-122051157D01*
X182823493Y-122303223D01*
X182823488Y-122303230D01*
X182821614Y-122305483D01*
X182820013Y-122307943D01*
X182820009Y-122307949D01*
X182715102Y-122469184D01*
X182639610Y-122585210D01*
X182638308Y-122587840D01*
X182638305Y-122587844D01*
X182574120Y-122717429D01*
X182491485Y-122884261D01*
X182490501Y-122887018D01*
X182490498Y-122887024D01*
X182440964Y-123025749D01*
X182379262Y-123198552D01*
X182304474Y-123523789D01*
X182304154Y-123526714D01*
X182304153Y-123526718D01*
X182269946Y-123839056D01*
X182268142Y-123855531D01*
X158295696Y-123855531D01*
X158285289Y-123843215D01*
X158285287Y-123843213D01*
X158281774Y-123839056D01*
X158137011Y-123728376D01*
X157971858Y-123651364D01*
X157794020Y-123611613D01*
X157789903Y-123611383D01*
X157789897Y-123611382D01*
X157789838Y-123611379D01*
X157789832Y-123611379D01*
X157788422Y-123611300D01*
X145239071Y-123611300D01*
X145179940Y-123592087D01*
X145167936Y-123581835D01*
X143183165Y-121597064D01*
X143154939Y-121541666D01*
X143153700Y-121525929D01*
X143153700Y-120079936D01*
X143141881Y-120020520D01*
X143096860Y-119953140D01*
X143029480Y-119908119D01*
X142970064Y-119896300D01*
X137029936Y-119896300D01*
X136970520Y-119908119D01*
X136903140Y-119953140D01*
X136858119Y-120020520D01*
X136846300Y-120079936D01*
X136846300Y-122570064D01*
X133749700Y-122570064D01*
X133749700Y-121711679D01*
X133746798Y-121689630D01*
X133735511Y-121603901D01*
X133735510Y-121603899D01*
X133734650Y-121597363D01*
X133701358Y-121516990D01*
X133693700Y-121478492D01*
X133693700Y-120979936D01*
X133681881Y-120920520D01*
X133636860Y-120853140D01*
X133569480Y-120808119D01*
X133510064Y-120796300D01*
X132819936Y-120796300D01*
X132760520Y-120808119D01*
X132693140Y-120853140D01*
X132648119Y-120920520D01*
X132636300Y-120979936D01*
X132636300Y-121478492D01*
X132628642Y-121516990D01*
X132623461Y-121529499D01*
X132617242Y-121544512D01*
X132576863Y-121591790D01*
X132516407Y-121606304D01*
X132458965Y-121582511D01*
X132426480Y-121529499D01*
X132423700Y-121506014D01*
X132423700Y-120979936D01*
X132411881Y-120920520D01*
X132366860Y-120853140D01*
X132299480Y-120808119D01*
X132240064Y-120796300D01*
X131549936Y-120796300D01*
X131490520Y-120808119D01*
X131423140Y-120853140D01*
X131378119Y-120920520D01*
X131366300Y-120979936D01*
X131366300Y-122520064D01*
X131378119Y-122579480D01*
X131423140Y-122646860D01*
X131490520Y-122691881D01*
X131549936Y-122703700D01*
X132142562Y-122703700D01*
X132201693Y-122722913D01*
X132238238Y-122773213D01*
X132238238Y-122835387D01*
X132213697Y-122875435D01*
X132114489Y-122974643D01*
X132059091Y-123002869D01*
X132043354Y-123004108D01*
X131222669Y-123004108D01*
X131163538Y-122984895D01*
X131151534Y-122974643D01*
X130903165Y-122726275D01*
X130874939Y-122670878D01*
X130873700Y-122655140D01*
X130873700Y-119604480D01*
X130858965Y-119468840D01*
X130800842Y-119296131D01*
X130706988Y-119139933D01*
X130581783Y-119007532D01*
X130568494Y-118998501D01*
X130530388Y-118949374D01*
X130528436Y-118887231D01*
X130555921Y-118842204D01*
X130592209Y-118807889D01*
X130596396Y-118804145D01*
X130637480Y-118769427D01*
X130645944Y-118762274D01*
X130655385Y-118749925D01*
X130666179Y-118737939D01*
X130677468Y-118727263D01*
X130680529Y-118722759D01*
X130680534Y-118722753D01*
X130713934Y-118673604D01*
X130717222Y-118669045D01*
X130753314Y-118621840D01*
X130756624Y-118617511D01*
X130758925Y-118612577D01*
X130758929Y-118612570D01*
X130763194Y-118603423D01*
X130771163Y-118589394D01*
X130776834Y-118581049D01*
X130779894Y-118576547D01*
X130803992Y-118516299D01*
X130806209Y-118511176D01*
X130833636Y-118452358D01*
X130837027Y-118437189D01*
X130841798Y-118421776D01*
X130845544Y-118412410D01*
X130847567Y-118407353D01*
X130858165Y-118343340D01*
X130859237Y-118337828D01*
X130872486Y-118278554D01*
X130872487Y-118278546D01*
X130873387Y-118274520D01*
X130873700Y-118268922D01*
X130873700Y-118257771D01*
X130875051Y-118241340D01*
X130876440Y-118232949D01*
X130877330Y-118227574D01*
X130875003Y-118183166D01*
X130891095Y-118123111D01*
X130939414Y-118083984D01*
X131001503Y-118080730D01*
X131013964Y-118084960D01*
X131142403Y-118138161D01*
X131148939Y-118139021D01*
X131148941Y-118139022D01*
X131293460Y-118158048D01*
X131300000Y-118158909D01*
X131306540Y-118158048D01*
X131451059Y-118139022D01*
X131451061Y-118139021D01*
X131457597Y-118138161D01*
X131604455Y-118077331D01*
X131730564Y-117980564D01*
X131827331Y-117854454D01*
X131888161Y-117707597D01*
X131895711Y-117650253D01*
X131908048Y-117556540D01*
X131908909Y-117550000D01*
X131891456Y-117417431D01*
X131902786Y-117356298D01*
X131947886Y-117313500D01*
X131991195Y-117303700D01*
X132240064Y-117303700D01*
X132299480Y-117291881D01*
X132366860Y-117246860D01*
X132411881Y-117179480D01*
X132423700Y-117120064D01*
X132423700Y-116593986D01*
X132442913Y-116534855D01*
X132493213Y-116498310D01*
X132555387Y-116498310D01*
X132605687Y-116534855D01*
X132617241Y-116555487D01*
X132628642Y-116583010D01*
X132636300Y-116621508D01*
X132636300Y-117120064D01*
X132648119Y-117179480D01*
X132693140Y-117246860D01*
X132760520Y-117291881D01*
X132819936Y-117303700D01*
X133510064Y-117303700D01*
X133569480Y-117291881D01*
X133636860Y-117246860D01*
X133681881Y-117179480D01*
X133693700Y-117120064D01*
X133693700Y-116621508D01*
X133701358Y-116583010D01*
X133712758Y-116555488D01*
X133753137Y-116508210D01*
X133813593Y-116493696D01*
X133871035Y-116517489D01*
X133903520Y-116570501D01*
X133906300Y-116593986D01*
X133906300Y-117120064D01*
X133918119Y-117179480D01*
X133963140Y-117246860D01*
X134030520Y-117291881D01*
X134089936Y-117303700D01*
X134780064Y-117303700D01*
X134839480Y-117291881D01*
X134906860Y-117246860D01*
X134915847Y-117233410D01*
X134964674Y-117194918D01*
X134999493Y-117188700D01*
X135140507Y-117188700D01*
X135199638Y-117207913D01*
X135224153Y-117233410D01*
X135233140Y-117246860D01*
X135300520Y-117291881D01*
X135359936Y-117303700D01*
X136050064Y-117303700D01*
X136109480Y-117291881D01*
X136176860Y-117246860D01*
X136185847Y-117233410D01*
X136234674Y-117194918D01*
X136269493Y-117188700D01*
X136947880Y-117188700D01*
X136970267Y-117193153D01*
X136970520Y-117191881D01*
X137029936Y-117203700D01*
X142970064Y-117203700D01*
X143029480Y-117191881D01*
X143096860Y-117146860D01*
X143141881Y-117079480D01*
X143153700Y-117020064D01*
X143153700Y-114529936D01*
X143141881Y-114470520D01*
X143096860Y-114403140D01*
X143029480Y-114358119D01*
X142970064Y-114346300D01*
X137029936Y-114346300D01*
X136970520Y-114358119D01*
X136903140Y-114403140D01*
X136858119Y-114470520D01*
X136846300Y-114529936D01*
X136846300Y-115410700D01*
X136827087Y-115469831D01*
X136776787Y-115506376D01*
X136745700Y-115511300D01*
X136439300Y-115511300D01*
X136380169Y-115492087D01*
X136343624Y-115441787D01*
X136338700Y-115410700D01*
X136338700Y-114554480D01*
X136334702Y-114517671D01*
X136324553Y-114424251D01*
X136324553Y-114424249D01*
X136323965Y-114418840D01*
X136318682Y-114403140D01*
X136267579Y-114251293D01*
X136265842Y-114246131D01*
X136171988Y-114089933D01*
X136046783Y-113957532D01*
X135896067Y-113855106D01*
X135891017Y-113853086D01*
X135891013Y-113853084D01*
X135731931Y-113789456D01*
X135731930Y-113789456D01*
X135726873Y-113787433D01*
X135547094Y-113757670D01*
X135541654Y-113757955D01*
X135541653Y-113757955D01*
X135508383Y-113759699D01*
X135419753Y-113764344D01*
X135359699Y-113748252D01*
X135320571Y-113699934D01*
X135317317Y-113637845D01*
X135343354Y-113592747D01*
X135852916Y-113083185D01*
X135908314Y-113054959D01*
X135924051Y-113053720D01*
X140708415Y-113053720D01*
X140716833Y-113054073D01*
X140763083Y-113057957D01*
X140763084Y-113057957D01*
X140768514Y-113058413D01*
X140797061Y-113054604D01*
X140810367Y-113053720D01*
X141813027Y-113053720D01*
X141872158Y-113072933D01*
X141884162Y-113083185D01*
X142096604Y-113295627D01*
X142102306Y-113301828D01*
X142135784Y-113341444D01*
X142194453Y-113386300D01*
X142199035Y-113389803D01*
X142200968Y-113391319D01*
X142214860Y-113402488D01*
X142263046Y-113441231D01*
X142267926Y-113443654D01*
X142272017Y-113446270D01*
X142276216Y-113448813D01*
X142280547Y-113452124D01*
X142285487Y-113454427D01*
X142285486Y-113454427D01*
X142352704Y-113485772D01*
X142354917Y-113486837D01*
X142415931Y-113517123D01*
X142426269Y-113522255D01*
X142431550Y-113523572D01*
X142436151Y-113525265D01*
X142440769Y-113526837D01*
X142445700Y-113529136D01*
X142451012Y-113530323D01*
X142451017Y-113530325D01*
X142523411Y-113546506D01*
X142525771Y-113547063D01*
X142603083Y-113566339D01*
X142608526Y-113566491D01*
X142613928Y-113567231D01*
X142613875Y-113567614D01*
X142615366Y-113567800D01*
X142615419Y-113567419D01*
X142619509Y-113567986D01*
X142623538Y-113568887D01*
X142627700Y-113569120D01*
X142627720Y-113569121D01*
X142627726Y-113569121D01*
X142629136Y-113569200D01*
X142704076Y-113569200D01*
X142706885Y-113569239D01*
X142779792Y-113571276D01*
X142779793Y-113571276D01*
X142785238Y-113571428D01*
X142790590Y-113570407D01*
X142796020Y-113569970D01*
X142796037Y-113570182D01*
X142806427Y-113569200D01*
X145412120Y-113569200D01*
X145414814Y-113568907D01*
X145414820Y-113568907D01*
X145542349Y-113555053D01*
X145542351Y-113555053D01*
X145547760Y-113554465D01*
X145552917Y-113552729D01*
X145552919Y-113552729D01*
X145650667Y-113519833D01*
X145720469Y-113496342D01*
X145738060Y-113485772D01*
X145871999Y-113405293D01*
X145872000Y-113405292D01*
X145876667Y-113402488D01*
X145941219Y-113341444D01*
X146005111Y-113281025D01*
X146009068Y-113277283D01*
X146033311Y-113241610D01*
X146082439Y-113203503D01*
X146144582Y-113201551D01*
X146193352Y-113233222D01*
X146284806Y-113341444D01*
X146429569Y-113452124D01*
X146463686Y-113468033D01*
X146586421Y-113525265D01*
X146594722Y-113529136D01*
X146772560Y-113568887D01*
X146776677Y-113569117D01*
X146776683Y-113569118D01*
X146776742Y-113569121D01*
X146776748Y-113569121D01*
X146778158Y-113569200D01*
X160953766Y-113569200D01*
X161008309Y-113585269D01*
X163841912Y-115413624D01*
X164402433Y-115775295D01*
X164402443Y-115775302D01*
X165222976Y-116304742D01*
X165223008Y-116304764D01*
X166058939Y-116844139D01*
X166156105Y-116906834D01*
X166278068Y-116967993D01*
X166283355Y-116969334D01*
X166345895Y-116985196D01*
X166454702Y-117012793D01*
X166583602Y-117016915D01*
X166631391Y-117018443D01*
X166631392Y-117018443D01*
X166636835Y-117018617D01*
X166653419Y-117015523D01*
X166810612Y-116986196D01*
X166810615Y-116986195D01*
X166815970Y-116985196D01*
X166983749Y-116914087D01*
X167132345Y-116808609D01*
X167254825Y-116673683D01*
X167306821Y-116583010D01*
X167342765Y-116520330D01*
X167342765Y-116520329D01*
X167345475Y-116515604D01*
X167347797Y-116508210D01*
X167398432Y-116346942D01*
X167398433Y-116346938D01*
X167400063Y-116341746D01*
X167403320Y-116304764D01*
X167415568Y-116165651D01*
X167416046Y-116160222D01*
X167392677Y-115979500D01*
X167331045Y-115808013D01*
X167234026Y-115653761D01*
X167106147Y-115523940D01*
X167101613Y-115520642D01*
X166459927Y-115106601D01*
X166281080Y-114991202D01*
X166281048Y-114991180D01*
X165347951Y-114389110D01*
X165347950Y-114389109D01*
X164685220Y-113961489D01*
X161716804Y-112046147D01*
X161710272Y-112041554D01*
X161667531Y-112008876D01*
X161597074Y-111976021D01*
X161594496Y-111974774D01*
X161574322Y-111964658D01*
X161525010Y-111939930D01*
X161519726Y-111938590D01*
X161514623Y-111936689D01*
X161514690Y-111936509D01*
X161512539Y-111935742D01*
X161512477Y-111935924D01*
X161507319Y-111934168D01*
X161502378Y-111931864D01*
X161457743Y-111921887D01*
X161426549Y-111914914D01*
X161423762Y-111914250D01*
X161353650Y-111896468D01*
X161353651Y-111896468D01*
X161348375Y-111895130D01*
X161342935Y-111894956D01*
X161337536Y-111894194D01*
X161337563Y-111894006D01*
X161332685Y-111893389D01*
X161332658Y-111893581D01*
X161328571Y-111893014D01*
X161324540Y-111892113D01*
X161320418Y-111891883D01*
X161320414Y-111891882D01*
X161320358Y-111891879D01*
X161320352Y-111891879D01*
X161318942Y-111891800D01*
X161245856Y-111891800D01*
X161242641Y-111891749D01*
X161171686Y-111889480D01*
X161171685Y-111889480D01*
X161166242Y-111889306D01*
X161160887Y-111890305D01*
X161155455Y-111890720D01*
X161155454Y-111890701D01*
X161143568Y-111891800D01*
X151351900Y-111891800D01*
X151292769Y-111872587D01*
X151256224Y-111822287D01*
X151251300Y-111791200D01*
X151251300Y-110344396D01*
X151252161Y-110331265D01*
X151255485Y-110306018D01*
X151256346Y-110299478D01*
X151236250Y-110146841D01*
X151233726Y-110140747D01*
X151179857Y-110010696D01*
X151179855Y-110010693D01*
X151177334Y-110004606D01*
X151107143Y-109913130D01*
X151107142Y-109913129D01*
X151083613Y-109882465D01*
X151058173Y-109862945D01*
X151048289Y-109854276D01*
X150377831Y-109183819D01*
X150369154Y-109173925D01*
X150353648Y-109153717D01*
X150349635Y-109148487D01*
X150272008Y-109088923D01*
X150227495Y-109054766D01*
X150184120Y-109036800D01*
X150085259Y-108995850D01*
X150078723Y-108994990D01*
X150078721Y-108994989D01*
X150032644Y-108988923D01*
X149970943Y-108980800D01*
X149970941Y-108980800D01*
X149932622Y-108975755D01*
X149926082Y-108976616D01*
X149900841Y-108979939D01*
X149887710Y-108980800D01*
X148928279Y-108980800D01*
X148925024Y-108981229D01*
X148925017Y-108981229D01*
X148820501Y-108994989D01*
X148820499Y-108994990D01*
X148813963Y-108995850D01*
X148807874Y-108998372D01*
X148807871Y-108998373D01*
X148733590Y-109029142D01*
X148695092Y-109036800D01*
X148196536Y-109036800D01*
X148137120Y-109048619D01*
X148069740Y-109093640D01*
X148024719Y-109161020D01*
X148012900Y-109220436D01*
X148012900Y-109910564D01*
X148024719Y-109969980D01*
X148069740Y-110037360D01*
X148137120Y-110082381D01*
X148196536Y-110094200D01*
X148695092Y-110094200D01*
X148733590Y-110101858D01*
X148761112Y-110113258D01*
X148808390Y-110153637D01*
X148822904Y-110214093D01*
X148799111Y-110271535D01*
X148746099Y-110304020D01*
X148722614Y-110306800D01*
X148196536Y-110306800D01*
X148137120Y-110318619D01*
X148069740Y-110363640D01*
X148024719Y-110431020D01*
X148012900Y-110490436D01*
X148012900Y-111180564D01*
X148024719Y-111239980D01*
X148069740Y-111307360D01*
X148137120Y-111352381D01*
X148196536Y-111364200D01*
X149736664Y-111364200D01*
X149796080Y-111352381D01*
X149863460Y-111307360D01*
X149897654Y-111256184D01*
X149946480Y-111217692D01*
X150008606Y-111215251D01*
X150060302Y-111249792D01*
X150081900Y-111312074D01*
X150081900Y-111791200D01*
X150062687Y-111850331D01*
X150012387Y-111886876D01*
X149981300Y-111891800D01*
X146821080Y-111891800D01*
X146818386Y-111892093D01*
X146818380Y-111892093D01*
X146690851Y-111905947D01*
X146690849Y-111905947D01*
X146685440Y-111906535D01*
X146680283Y-111908271D01*
X146680281Y-111908271D01*
X146662515Y-111914250D01*
X146512731Y-111964658D01*
X146508061Y-111967464D01*
X146377102Y-112046153D01*
X146356533Y-112058512D01*
X146352578Y-112062252D01*
X146287583Y-112123715D01*
X146224132Y-112183717D01*
X146199889Y-112219390D01*
X146150761Y-112257497D01*
X146088618Y-112259449D01*
X146039847Y-112227777D01*
X145951909Y-112123715D01*
X145951907Y-112123713D01*
X145948394Y-112119556D01*
X145803631Y-112008876D01*
X145649415Y-111936964D01*
X145643415Y-111934166D01*
X145643414Y-111934166D01*
X145638478Y-111931864D01*
X145460640Y-111892113D01*
X145456523Y-111891883D01*
X145456517Y-111891882D01*
X145456458Y-111891879D01*
X145456452Y-111891879D01*
X145455042Y-111891800D01*
X145371859Y-111891800D01*
X145312728Y-111872587D01*
X145276183Y-111822287D01*
X145276183Y-111760113D01*
X145292049Y-111729957D01*
X145295983Y-111724830D01*
X145295983Y-111724829D01*
X145299996Y-111719600D01*
X145314414Y-111684793D01*
X145325912Y-111657034D01*
X145360826Y-111572743D01*
X145362579Y-111559432D01*
X145380713Y-111421686D01*
X145381574Y-111415146D01*
X145377231Y-111382156D01*
X145361687Y-111264087D01*
X145361686Y-111264085D01*
X145360826Y-111257549D01*
X145305783Y-111124663D01*
X145302519Y-111116782D01*
X145302517Y-111116779D01*
X145299996Y-111110692D01*
X145203229Y-110984582D01*
X145077120Y-110887815D01*
X144930262Y-110826985D01*
X144923726Y-110826125D01*
X144923724Y-110826124D01*
X144779205Y-110807098D01*
X144772665Y-110806237D01*
X144766125Y-110807098D01*
X144634031Y-110824488D01*
X144572898Y-110813158D01*
X144530100Y-110768058D01*
X144520300Y-110724749D01*
X144520300Y-110490436D01*
X144508481Y-110431020D01*
X144463460Y-110363640D01*
X144396080Y-110318619D01*
X144336664Y-110306800D01*
X143810586Y-110306800D01*
X143751455Y-110287587D01*
X143714910Y-110237287D01*
X143714910Y-110175113D01*
X143751455Y-110124813D01*
X143772088Y-110113258D01*
X143799610Y-110101858D01*
X143838108Y-110094200D01*
X144336664Y-110094200D01*
X144396080Y-110082381D01*
X144463460Y-110037360D01*
X144508481Y-109969980D01*
X144520300Y-109910564D01*
X144520300Y-109220436D01*
X144508481Y-109161020D01*
X144463460Y-109093640D01*
X144396080Y-109048619D01*
X144336664Y-109036800D01*
X143838108Y-109036800D01*
X143799610Y-109029142D01*
X143772088Y-109017742D01*
X143724810Y-108977363D01*
X143710296Y-108916907D01*
X143734089Y-108859465D01*
X143787101Y-108826980D01*
X143810586Y-108824200D01*
X144336664Y-108824200D01*
X144396080Y-108812381D01*
X144463460Y-108767360D01*
X144508481Y-108699980D01*
X144520300Y-108640564D01*
X144520300Y-107950436D01*
X144508481Y-107891020D01*
X144463460Y-107823640D01*
X144450010Y-107814653D01*
X144411518Y-107765826D01*
X144405300Y-107731007D01*
X144405300Y-107589993D01*
X144424513Y-107530862D01*
X144450010Y-107506347D01*
X144455221Y-107502865D01*
X144463460Y-107497360D01*
X144508481Y-107429980D01*
X144520300Y-107370564D01*
X144520300Y-106680436D01*
X144508481Y-106621020D01*
X144463460Y-106553640D01*
X144450010Y-106544653D01*
X144411518Y-106495826D01*
X144405300Y-106461007D01*
X144405300Y-104969987D01*
X144405653Y-104961569D01*
X144409537Y-104915319D01*
X144409537Y-104915318D01*
X144409993Y-104909888D01*
X144399464Y-104830977D01*
X144399168Y-104828536D01*
X144397262Y-104810994D01*
X144390565Y-104749340D01*
X144388827Y-104744174D01*
X144387775Y-104739390D01*
X144386614Y-104734664D01*
X144385893Y-104729262D01*
X144358646Y-104654403D01*
X144357841Y-104652104D01*
X144334178Y-104581789D01*
X144334177Y-104581788D01*
X144332442Y-104576631D01*
X144329637Y-104571963D01*
X144329579Y-104571837D01*
X144320300Y-104529638D01*
X144320300Y-99779936D01*
X144308481Y-99720520D01*
X144263460Y-99653140D01*
X144196080Y-99608119D01*
X144136664Y-99596300D01*
X141646536Y-99596300D01*
X141587120Y-99608119D01*
X141519740Y-99653140D01*
X141474719Y-99720520D01*
X141462900Y-99779936D01*
X141462900Y-105720064D01*
X141474719Y-105779480D01*
X141519740Y-105846860D01*
X141587120Y-105891881D01*
X141646536Y-105903700D01*
X142627300Y-105903700D01*
X142686431Y-105922913D01*
X142722976Y-105973213D01*
X142727900Y-106004300D01*
X142727900Y-106310700D01*
X142708687Y-106369831D01*
X142658387Y-106406376D01*
X142627300Y-106411300D01*
X141804480Y-106411300D01*
X141801786Y-106411593D01*
X141801780Y-106411593D01*
X141674251Y-106425447D01*
X141674249Y-106425447D01*
X141668840Y-106426035D01*
X141663683Y-106427771D01*
X141663681Y-106427771D01*
X141617779Y-106443219D01*
X141496131Y-106484158D01*
X141491461Y-106486964D01*
X141366783Y-106561879D01*
X141339933Y-106578012D01*
X141207532Y-106703217D01*
X141105106Y-106853933D01*
X141103086Y-106858983D01*
X141103084Y-106858987D01*
X141039726Y-107017395D01*
X141037433Y-107023127D01*
X141007670Y-107202906D01*
X141007955Y-107208346D01*
X141007955Y-107208347D01*
X141011578Y-107277480D01*
X140995486Y-107337536D01*
X140947167Y-107376663D01*
X140885078Y-107379917D01*
X140839981Y-107353880D01*
X140110863Y-106624762D01*
X140015559Y-106548135D01*
X140008776Y-106542681D01*
X140008774Y-106542680D01*
X140004532Y-106539269D01*
X139841309Y-106458245D01*
X139712120Y-106426035D01*
X139669778Y-106415478D01*
X139669776Y-106415478D01*
X139664495Y-106414161D01*
X139649115Y-106413731D01*
X139487786Y-106409225D01*
X139487785Y-106409225D01*
X139482340Y-106409073D01*
X139476988Y-106410094D01*
X139476987Y-106410094D01*
X139455668Y-106414161D01*
X139303342Y-106443219D01*
X139298334Y-106445365D01*
X139298332Y-106445366D01*
X139180600Y-106495826D01*
X139135852Y-106515005D01*
X138987683Y-106621082D01*
X138865750Y-106756503D01*
X138863058Y-106761241D01*
X138863057Y-106761243D01*
X138812962Y-106849427D01*
X138775741Y-106914948D01*
X138774129Y-106920156D01*
X138742255Y-107023127D01*
X138721856Y-107089025D01*
X138706607Y-107270612D01*
X138707328Y-107276015D01*
X138729986Y-107445838D01*
X138729987Y-107445843D01*
X138730707Y-107451238D01*
X138793032Y-107622474D01*
X138890675Y-107776333D01*
X138894412Y-107780513D01*
X140606835Y-109492936D01*
X140635061Y-109548334D01*
X140636300Y-109564071D01*
X140636300Y-111098852D01*
X140617087Y-111157983D01*
X140606835Y-111169987D01*
X140429966Y-111346855D01*
X140374568Y-111375081D01*
X140358831Y-111376320D01*
X135574467Y-111376320D01*
X135566049Y-111375967D01*
X135519799Y-111372083D01*
X135519798Y-111372083D01*
X135514368Y-111371627D01*
X135491322Y-111374702D01*
X135435457Y-111382156D01*
X135433016Y-111382452D01*
X135415474Y-111384358D01*
X135353820Y-111391055D01*
X135348654Y-111392793D01*
X135343870Y-111393845D01*
X135339144Y-111395006D01*
X135333742Y-111395727D01*
X135258883Y-111422974D01*
X135256605Y-111423772D01*
X135181111Y-111449178D01*
X135176444Y-111451982D01*
X135172027Y-111454023D01*
X135167629Y-111456187D01*
X135162506Y-111458052D01*
X135157901Y-111460974D01*
X135157902Y-111460974D01*
X135095265Y-111500725D01*
X135093173Y-111502017D01*
X135039685Y-111534156D01*
X135024913Y-111543032D01*
X135020958Y-111546772D01*
X135016613Y-111550070D01*
X135016379Y-111549762D01*
X135015191Y-111550687D01*
X135015423Y-111550994D01*
X135012130Y-111553485D01*
X135008647Y-111555695D01*
X135004467Y-111559432D01*
X134951472Y-111612427D01*
X134949458Y-111614386D01*
X134892512Y-111668237D01*
X134889453Y-111672739D01*
X134885918Y-111676892D01*
X134885756Y-111676754D01*
X134879106Y-111684793D01*
X133207064Y-113356835D01*
X133151666Y-113385061D01*
X133135929Y-113386300D01*
X131350465Y-113386300D01*
X131342047Y-113385947D01*
X131295797Y-113382063D01*
X131295796Y-113382063D01*
X131290366Y-113381607D01*
X131264480Y-113385061D01*
X131211455Y-113392136D01*
X131209014Y-113392432D01*
X131191472Y-113394338D01*
X131129818Y-113401035D01*
X131124654Y-113402773D01*
X131119839Y-113403831D01*
X131115133Y-113404987D01*
X131109740Y-113405707D01*
X131048433Y-113428021D01*
X131034907Y-113432944D01*
X131032588Y-113433756D01*
X130962279Y-113457418D01*
X130957109Y-113459158D01*
X130952437Y-113461965D01*
X130948051Y-113463992D01*
X130943629Y-113466168D01*
X130938504Y-113468033D01*
X130933898Y-113470956D01*
X130933896Y-113470957D01*
X130871297Y-113510684D01*
X130869206Y-113511976D01*
X130811739Y-113546506D01*
X130800911Y-113553012D01*
X130796956Y-113556752D01*
X130792611Y-113560050D01*
X130792377Y-113559742D01*
X130791189Y-113560667D01*
X130791421Y-113560974D01*
X130788128Y-113563465D01*
X130784645Y-113565675D01*
X130780465Y-113569412D01*
X130727470Y-113622407D01*
X130725456Y-113624366D01*
X130668510Y-113678217D01*
X130665451Y-113682719D01*
X130661916Y-113686872D01*
X130661754Y-113686734D01*
X130655104Y-113694773D01*
X129469873Y-114880004D01*
X129463672Y-114885706D01*
X129424056Y-114919184D01*
X129399712Y-114951025D01*
X129375697Y-114982435D01*
X129374181Y-114984368D01*
X129360588Y-115001274D01*
X129324269Y-115046446D01*
X129321846Y-115051326D01*
X129319230Y-115055417D01*
X129316687Y-115059616D01*
X129313376Y-115063947D01*
X129311073Y-115068886D01*
X129279728Y-115136104D01*
X129278663Y-115138317D01*
X129265766Y-115164300D01*
X129243245Y-115209669D01*
X129241928Y-115214950D01*
X129240235Y-115219551D01*
X129238663Y-115224169D01*
X129236364Y-115229100D01*
X129235177Y-115234412D01*
X129235175Y-115234417D01*
X129218994Y-115306811D01*
X129218437Y-115309171D01*
X129199161Y-115386483D01*
X129199009Y-115391926D01*
X129198269Y-115397328D01*
X129197886Y-115397275D01*
X129197700Y-115398766D01*
X129198081Y-115398819D01*
X129197514Y-115402909D01*
X129196613Y-115406938D01*
X129196300Y-115412536D01*
X129196300Y-115487496D01*
X129196261Y-115490305D01*
X129195004Y-115535325D01*
X129194073Y-115568638D01*
X129195094Y-115573990D01*
X129195531Y-115579420D01*
X129195318Y-115579437D01*
X129196300Y-115589822D01*
X129196300Y-117300665D01*
X129177087Y-117359796D01*
X129127789Y-117396009D01*
X129072436Y-117414638D01*
X129067763Y-117417446D01*
X129063378Y-117419472D01*
X129058956Y-117421648D01*
X129053831Y-117423513D01*
X129049225Y-117426436D01*
X129049223Y-117426437D01*
X128986624Y-117466164D01*
X128984533Y-117467456D01*
X128916238Y-117508492D01*
X128912283Y-117512232D01*
X128907938Y-117515530D01*
X128907704Y-117515222D01*
X128906516Y-117516147D01*
X128906748Y-117516454D01*
X128903455Y-117518945D01*
X128899972Y-117521155D01*
X128895792Y-117524892D01*
X128842797Y-117577887D01*
X128840783Y-117579846D01*
X128783837Y-117633697D01*
X128780778Y-117638199D01*
X128777243Y-117642352D01*
X128777081Y-117642214D01*
X128770431Y-117650253D01*
X128000353Y-118420331D01*
X127994152Y-118426033D01*
X127954536Y-118459511D01*
X127915035Y-118511176D01*
X127906177Y-118522762D01*
X127904661Y-118524695D01*
X127854749Y-118586773D01*
X127852326Y-118591653D01*
X127849710Y-118595744D01*
X127847167Y-118599943D01*
X127843856Y-118604274D01*
X127837683Y-118617511D01*
X127810208Y-118676431D01*
X127809143Y-118678644D01*
X127783151Y-118731007D01*
X127773725Y-118749996D01*
X127772408Y-118755277D01*
X127770715Y-118759878D01*
X127769143Y-118764496D01*
X127766844Y-118769427D01*
X127765657Y-118774739D01*
X127765655Y-118774744D01*
X127749474Y-118847138D01*
X127748917Y-118849498D01*
X127729641Y-118926810D01*
X127729489Y-118932253D01*
X127728749Y-118937655D01*
X127728366Y-118937602D01*
X127728180Y-118939093D01*
X127728561Y-118939146D01*
X127727994Y-118943236D01*
X127727093Y-118947265D01*
X127726780Y-118952863D01*
X127726780Y-119027823D01*
X127726741Y-119030632D01*
X127724553Y-119108965D01*
X127725574Y-119114317D01*
X127726011Y-119119747D01*
X127725798Y-119119764D01*
X127726780Y-119130149D01*
X127726780Y-120960700D01*
X127707567Y-121019831D01*
X127657267Y-121056376D01*
X127626180Y-121061300D01*
X122782499Y-121061300D01*
X122723368Y-121042087D01*
X122686823Y-120991787D01*
X122683833Y-120980329D01*
X122683816Y-120980241D01*
X122683813Y-120980235D01*
X122681881Y-120970520D01*
X122636860Y-120903140D01*
X122569480Y-120858119D01*
X122510064Y-120846300D01*
X120769936Y-120846300D01*
X120710520Y-120858119D01*
X120643140Y-120903140D01*
X120598119Y-120970520D01*
X120586300Y-121029936D01*
X120586300Y-122770064D01*
X119697934Y-122770064D01*
X119830168Y-122666752D01*
X119841136Y-122654046D01*
X119898387Y-122587719D01*
X119965191Y-122510325D01*
X120067260Y-122330652D01*
X120132486Y-122134575D01*
X120138594Y-122086224D01*
X120158034Y-121932343D01*
X120158034Y-121932340D01*
X120158385Y-121929563D01*
X120158798Y-121900000D01*
X120157349Y-121885217D01*
X120140655Y-121714967D01*
X120138633Y-121694345D01*
X120137211Y-121689635D01*
X120137210Y-121689630D01*
X120080331Y-121501238D01*
X120080329Y-121501234D01*
X120078907Y-121496523D01*
X119981895Y-121314070D01*
X119851292Y-121153935D01*
X119716091Y-121042087D01*
X119695857Y-121025348D01*
X119695856Y-121025347D01*
X119692072Y-121022217D01*
X119510301Y-120923933D01*
X119476151Y-120913362D01*
X119425346Y-120877523D01*
X119405300Y-120817261D01*
X119405300Y-119943115D01*
X119424513Y-119883984D01*
X119441900Y-119866898D01*
X119442267Y-119866727D01*
X119526727Y-119782267D01*
X119577206Y-119674014D01*
X119583700Y-119624688D01*
X119583700Y-119175312D01*
X119577206Y-119125986D01*
X119526727Y-119017733D01*
X119442267Y-118933273D01*
X119334014Y-118882794D01*
X119315373Y-118880340D01*
X119287950Y-118876729D01*
X119287943Y-118876729D01*
X119284688Y-118876300D01*
X118935312Y-118876300D01*
X118932057Y-118876729D01*
X118932050Y-118876729D01*
X118904627Y-118880340D01*
X118885986Y-118882794D01*
X118777733Y-118933273D01*
X118693273Y-119017733D01*
X118642794Y-119125986D01*
X118636300Y-119175312D01*
X118636300Y-119624688D01*
X118642794Y-119674014D01*
X118693273Y-119782267D01*
X118765235Y-119854229D01*
X118793461Y-119909627D01*
X118794700Y-119925364D01*
X118794700Y-120816161D01*
X118775487Y-120875292D01*
X118722502Y-120912668D01*
X118708095Y-120916908D01*
X118708091Y-120916910D01*
X118703367Y-120918300D01*
X118699007Y-120920579D01*
X118699003Y-120920581D01*
X118576007Y-120984882D01*
X118520241Y-121014036D01*
X118516402Y-121017123D01*
X118516400Y-121017124D01*
X118420465Y-121094258D01*
X118359198Y-121143518D01*
X118356037Y-121147285D01*
X118356036Y-121147286D01*
X118342023Y-121163986D01*
X118226371Y-121301814D01*
X118126821Y-121482895D01*
X118125333Y-121487585D01*
X118125332Y-121487588D01*
X118084169Y-121617352D01*
X118064339Y-121679864D01*
X118063790Y-121684755D01*
X118063790Y-121684757D01*
X118048508Y-121821005D01*
X118041305Y-121885217D01*
X110911683Y-121885217D01*
X110810796Y-121792284D01*
X110810795Y-121792283D01*
X110808629Y-121790288D01*
X110538468Y-121594365D01*
X110533870Y-121591790D01*
X110249866Y-121432739D01*
X110249861Y-121432736D01*
X110247294Y-121431299D01*
X109939084Y-121303319D01*
X109849565Y-121277903D01*
X109620877Y-121212975D01*
X109620869Y-121212973D01*
X109618047Y-121212172D01*
X109615151Y-121211706D01*
X109615144Y-121211704D01*
X109291269Y-121159538D01*
X109291268Y-121159538D01*
X109288568Y-121159103D01*
X109285843Y-121158965D01*
X109285834Y-121158964D01*
X109100287Y-121149565D01*
X109100277Y-121149565D01*
X109098999Y-121149500D01*
X108914324Y-121149500D01*
X108912858Y-121149586D01*
X108912852Y-121149586D01*
X108838556Y-121153935D01*
X108666845Y-121163986D01*
X108502542Y-121193105D01*
X108341144Y-121221709D01*
X108341139Y-121221710D01*
X108338240Y-121222224D01*
X108335428Y-121223070D01*
X108335421Y-121223072D01*
X108021479Y-121317558D01*
X108018675Y-121318402D01*
X108015988Y-121319567D01*
X108015984Y-121319569D01*
X107989028Y-121331262D01*
X107712512Y-121451208D01*
X107709964Y-121452688D01*
X107445496Y-121606304D01*
X107423936Y-121618827D01*
X107421592Y-121620583D01*
X107421587Y-121620587D01*
X107300043Y-121711679D01*
X107156886Y-121818969D01*
X107154746Y-121821003D01*
X107154744Y-121821005D01*
X106946851Y-122018633D01*
X106915011Y-122048901D01*
X106913140Y-122051150D01*
X106913134Y-122051157D01*
X106703493Y-122303223D01*
X106703488Y-122303230D01*
X106701614Y-122305483D01*
X106700013Y-122307943D01*
X106700009Y-122307949D01*
X106595102Y-122469184D01*
X106519610Y-122585210D01*
X106518308Y-122587840D01*
X106518305Y-122587844D01*
X106454120Y-122717429D01*
X106371485Y-122884261D01*
X106370501Y-122887018D01*
X106370498Y-122887024D01*
X106320964Y-123025749D01*
X106259262Y-123198552D01*
X106184474Y-123523789D01*
X106184154Y-123526714D01*
X106184153Y-123526718D01*
X106149946Y-123839056D01*
X106148142Y-123855531D01*
X105293728Y-123855531D01*
X104551663Y-99966408D01*
X108956607Y-99966408D01*
X108973183Y-100669762D01*
X108983765Y-100805736D01*
X109016147Y-101221832D01*
X109027770Y-101371190D01*
X109120211Y-102068640D01*
X109250233Y-102760070D01*
X109417457Y-103443457D01*
X109417856Y-103444774D01*
X109563560Y-103925852D01*
X109621392Y-104116800D01*
X109621853Y-104118071D01*
X109621855Y-104118076D01*
X109850993Y-104749340D01*
X109861443Y-104778130D01*
X110136907Y-105425510D01*
X110446977Y-106057046D01*
X110447636Y-106058222D01*
X110447644Y-106058238D01*
X110575546Y-106286623D01*
X110790746Y-106670890D01*
X111167208Y-107265245D01*
X111167993Y-107266347D01*
X111168000Y-107266358D01*
X111326603Y-107489121D01*
X111575261Y-107838371D01*
X111576089Y-107839411D01*
X111576098Y-107839422D01*
X111690008Y-107982370D01*
X112013711Y-108388592D01*
X112014590Y-108389580D01*
X112014599Y-108389591D01*
X112267808Y-108674286D01*
X112481274Y-108914297D01*
X112482222Y-108915254D01*
X112482233Y-108915265D01*
X112624501Y-109058779D01*
X112976583Y-109413947D01*
X112977583Y-109414853D01*
X112977586Y-109414855D01*
X113489762Y-109878453D01*
X113498188Y-109886080D01*
X114044561Y-110329315D01*
X114045653Y-110330107D01*
X114045657Y-110330110D01*
X114612997Y-110741551D01*
X114613010Y-110741560D01*
X114614105Y-110742354D01*
X115205152Y-111123988D01*
X115206316Y-111124654D01*
X115206332Y-111124663D01*
X115672422Y-111391055D01*
X115815973Y-111473101D01*
X115817166Y-111473700D01*
X115817174Y-111473704D01*
X116387876Y-111760113D01*
X116444779Y-111788670D01*
X116857607Y-111968602D01*
X117088488Y-112069232D01*
X117088498Y-112069236D01*
X117089730Y-112069773D01*
X117090999Y-112070246D01*
X117091001Y-112070247D01*
X117593162Y-112257497D01*
X117748940Y-112315585D01*
X117750222Y-112315986D01*
X117750238Y-112315991D01*
X118419178Y-112524983D01*
X118420478Y-112525389D01*
X118421787Y-112525721D01*
X118421796Y-112525724D01*
X118565016Y-112562097D01*
X119102380Y-112698570D01*
X119103682Y-112698827D01*
X119103697Y-112698830D01*
X119692648Y-112814911D01*
X119792649Y-112834621D01*
X120489265Y-112933144D01*
X120490617Y-112933261D01*
X120490625Y-112933262D01*
X120839728Y-112963498D01*
X121190190Y-112993851D01*
X121191545Y-112993895D01*
X121191549Y-112993895D01*
X121699702Y-113010308D01*
X121893373Y-113016564D01*
X122467239Y-113004042D01*
X122595380Y-113001246D01*
X122595381Y-113001246D01*
X122596754Y-113001216D01*
X123298277Y-112947852D01*
X123995887Y-112856630D01*
X124113046Y-112834810D01*
X124686180Y-112728068D01*
X124686192Y-112728065D01*
X124687542Y-112727814D01*
X125371220Y-112561784D01*
X126044918Y-112359023D01*
X126166567Y-112315107D01*
X126705378Y-112120592D01*
X126705379Y-112120592D01*
X126706666Y-112120127D01*
X127241673Y-111893581D01*
X127353284Y-111846320D01*
X127353287Y-111846319D01*
X127354526Y-111845794D01*
X127355730Y-111845205D01*
X127355742Y-111845200D01*
X127985377Y-111537426D01*
X127985383Y-111537423D01*
X127986602Y-111536827D01*
X128601045Y-111194129D01*
X128614858Y-111185414D01*
X129080156Y-110891833D01*
X129196056Y-110818706D01*
X129586606Y-110541669D01*
X129768805Y-110412426D01*
X129768817Y-110412417D01*
X129769894Y-110411653D01*
X129770933Y-110410828D01*
X129770945Y-110410819D01*
X130251665Y-110029121D01*
X130320879Y-109974164D01*
X130389745Y-109913130D01*
X130554064Y-109767496D01*
X130847399Y-109507519D01*
X130941202Y-109414855D01*
X131346956Y-109014029D01*
X131346967Y-109014017D01*
X131347913Y-109013083D01*
X131364349Y-108994989D01*
X131817205Y-108496432D01*
X131820956Y-108492303D01*
X132265144Y-107946704D01*
X132679176Y-107377882D01*
X132683920Y-107370564D01*
X133061093Y-106788656D01*
X133061841Y-106787502D01*
X133155020Y-106625132D01*
X133411347Y-106178463D01*
X133412019Y-106177292D01*
X133728686Y-105549037D01*
X134010913Y-104904577D01*
X134257876Y-104245798D01*
X134468852Y-103574627D01*
X134643223Y-102893028D01*
X134780479Y-102202998D01*
X134880217Y-101506555D01*
X134942147Y-100805736D01*
X134946823Y-100668418D01*
X134966060Y-100103377D01*
X134966087Y-100102595D01*
X134966404Y-100011804D01*
X134960130Y-99779936D01*
X134947410Y-99309874D01*
X134947410Y-99309869D01*
X134947373Y-99308512D01*
X134943796Y-99264531D01*
X134890448Y-98608626D01*
X134890446Y-98608610D01*
X134890338Y-98607279D01*
X134795463Y-97910156D01*
X134755890Y-97703684D01*
X145117974Y-97703684D01*
X145140907Y-97884461D01*
X145202125Y-98056097D01*
X145298771Y-98210583D01*
X145426337Y-98340711D01*
X145430863Y-98344020D01*
X145432049Y-98344789D01*
X145432050Y-98344790D01*
X146219381Y-98855502D01*
X147007897Y-99366983D01*
X147007900Y-99366985D01*
X147128390Y-99445142D01*
X147167543Y-99493440D01*
X147170830Y-99555527D01*
X147136995Y-99607689D01*
X147129534Y-99613187D01*
X147079166Y-99646842D01*
X147069740Y-99653140D01*
X147024719Y-99720520D01*
X147012900Y-99779936D01*
X147012900Y-105720064D01*
X147024719Y-105779480D01*
X147069740Y-105846860D01*
X147137120Y-105891881D01*
X147196536Y-105903700D01*
X149686664Y-105903700D01*
X149746080Y-105891881D01*
X149813460Y-105846860D01*
X149858481Y-105779480D01*
X149870300Y-105720064D01*
X149870300Y-99779936D01*
X149858481Y-99720520D01*
X149813460Y-99653140D01*
X149746080Y-99608119D01*
X149686664Y-99596300D01*
X149384863Y-99596300D01*
X149325732Y-99577087D01*
X149289187Y-99526787D01*
X149284263Y-99495577D01*
X149284449Y-99342965D01*
X149284858Y-99334024D01*
X149288817Y-99290262D01*
X149288817Y-99290260D01*
X149289308Y-99284833D01*
X149278983Y-99203439D01*
X149278758Y-99201522D01*
X149270567Y-99125260D01*
X149270567Y-99125258D01*
X149269985Y-99119843D01*
X149268253Y-99114676D01*
X149267945Y-99113267D01*
X149267879Y-99112887D01*
X149267504Y-99111244D01*
X149267396Y-99110867D01*
X149267061Y-99109465D01*
X149266375Y-99104056D01*
X149238776Y-99026678D01*
X149238194Y-99024997D01*
X149212072Y-98947063D01*
X149209269Y-98942386D01*
X149208670Y-98941085D01*
X149208520Y-98940716D01*
X149207801Y-98939194D01*
X149207615Y-98938849D01*
X149206987Y-98937552D01*
X149205157Y-98932420D01*
X149202268Y-98927802D01*
X149202266Y-98927798D01*
X149161582Y-98862765D01*
X149160575Y-98861120D01*
X149141366Y-98829064D01*
X149118408Y-98790751D01*
X149114672Y-98786790D01*
X149113793Y-98785629D01*
X149113570Y-98785306D01*
X149112555Y-98783993D01*
X149112299Y-98783696D01*
X149111403Y-98782559D01*
X149108510Y-98777935D01*
X149051050Y-98719320D01*
X149049722Y-98717940D01*
X148993365Y-98658198D01*
X148988866Y-98655132D01*
X148987750Y-98654180D01*
X148986959Y-98653443D01*
X148986951Y-98653452D01*
X148983839Y-98650759D01*
X148980944Y-98647806D01*
X148976418Y-98644497D01*
X148911544Y-98602416D01*
X148909657Y-98601161D01*
X148847279Y-98558657D01*
X148847275Y-98558655D01*
X148842774Y-98555588D01*
X148837716Y-98553557D01*
X148833115Y-98551104D01*
X148825708Y-98546737D01*
X148508091Y-98340711D01*
X147956748Y-97983077D01*
X147956745Y-97983075D01*
X147168231Y-97471596D01*
X147168229Y-97471595D01*
X146382001Y-96961598D01*
X146381999Y-96961597D01*
X146379713Y-96960114D01*
X146377293Y-96958893D01*
X146377284Y-96958888D01*
X146262758Y-96901112D01*
X146257898Y-96898660D01*
X146169635Y-96876047D01*
X146086646Y-96854786D01*
X146086644Y-96854786D01*
X146081372Y-96853435D01*
X146001462Y-96850687D01*
X145904696Y-96847359D01*
X145904695Y-96847359D01*
X145899254Y-96847172D01*
X145720039Y-96880161D01*
X145715015Y-96882276D01*
X145557111Y-96948749D01*
X145557108Y-96948751D01*
X145552088Y-96950864D01*
X145547636Y-96954008D01*
X145536889Y-96961598D01*
X145403238Y-97055983D01*
X145280433Y-97190613D01*
X145277711Y-97195333D01*
X145277709Y-97195336D01*
X145192125Y-97343751D01*
X145192123Y-97343755D01*
X145189402Y-97348474D01*
X145187757Y-97353668D01*
X145187757Y-97353669D01*
X145136039Y-97517002D01*
X145136038Y-97517007D01*
X145134394Y-97522199D01*
X145117974Y-97703684D01*
X134755890Y-97703684D01*
X134663028Y-97219184D01*
X134493420Y-96536385D01*
X134480414Y-96493975D01*
X134459373Y-96425370D01*
X134287135Y-95863758D01*
X134044777Y-95203270D01*
X134027219Y-95162402D01*
X133767600Y-94558121D01*
X133767593Y-94558105D01*
X133767056Y-94556856D01*
X133746061Y-94514468D01*
X133455383Y-93927618D01*
X133454783Y-93926406D01*
X133432492Y-93886925D01*
X133329939Y-93705295D01*
X133108874Y-93313766D01*
X132730339Y-92720729D01*
X132320288Y-92149030D01*
X131879920Y-91600343D01*
X131410525Y-91076274D01*
X131377654Y-91043345D01*
X130914419Y-90579301D01*
X130913475Y-90578355D01*
X130390225Y-90108046D01*
X130354898Y-90079591D01*
X129843378Y-89667583D01*
X129842308Y-89666721D01*
X129271325Y-89255672D01*
X128678950Y-88876104D01*
X128066915Y-88529125D01*
X127437011Y-88215753D01*
X127096118Y-88068588D01*
X126792336Y-87937444D01*
X126792325Y-87937440D01*
X126791082Y-87936903D01*
X126131018Y-87693393D01*
X126129709Y-87692989D01*
X126129700Y-87692986D01*
X125460068Y-87486341D01*
X125460064Y-87486340D01*
X125458752Y-87485935D01*
X125457415Y-87485601D01*
X125457410Y-87485599D01*
X125268319Y-87438278D01*
X124776250Y-87315135D01*
X124727546Y-87305712D01*
X124086875Y-87181758D01*
X124086872Y-87181757D01*
X124085510Y-87181494D01*
X123707677Y-87129401D01*
X123389913Y-87085590D01*
X123389900Y-87085589D01*
X123388554Y-87085403D01*
X123328260Y-87080393D01*
X122688798Y-87027258D01*
X122688783Y-87027257D01*
X122687421Y-87027144D01*
X122686058Y-87027105D01*
X122686045Y-87027104D01*
X122373049Y-87018088D01*
X121984164Y-87006886D01*
X121280840Y-87024689D01*
X120967938Y-87049590D01*
X120580860Y-87080393D01*
X120580845Y-87080395D01*
X120579508Y-87080501D01*
X120578167Y-87080681D01*
X120578168Y-87080681D01*
X119883553Y-87173979D01*
X119883550Y-87173980D01*
X119882221Y-87174158D01*
X119880917Y-87174406D01*
X119880902Y-87174408D01*
X119192345Y-87305135D01*
X119192336Y-87305137D01*
X119191019Y-87305387D01*
X119189707Y-87305710D01*
X119189700Y-87305712D01*
X118509233Y-87473480D01*
X118509215Y-87473485D01*
X118507925Y-87473803D01*
X118506652Y-87474191D01*
X118506641Y-87474194D01*
X118176326Y-87574867D01*
X117834939Y-87678914D01*
X117833664Y-87679379D01*
X117833653Y-87679383D01*
X117175300Y-87919654D01*
X117174029Y-87920118D01*
X117172801Y-87920643D01*
X117172791Y-87920647D01*
X117128871Y-87939426D01*
X116527131Y-88196711D01*
X116525911Y-88197313D01*
X116525895Y-88197320D01*
X116189831Y-88363049D01*
X115896137Y-88507883D01*
X115282894Y-88852723D01*
X115281733Y-88853461D01*
X115281730Y-88853463D01*
X114887453Y-89104162D01*
X114689197Y-89230222D01*
X114116784Y-89639274D01*
X113567329Y-90078684D01*
X113042441Y-90547164D01*
X112543656Y-91043345D01*
X112072434Y-91565772D01*
X111630153Y-92112919D01*
X111218109Y-92683183D01*
X111217392Y-92684298D01*
X111217385Y-92684308D01*
X111192326Y-92723267D01*
X110837507Y-93274895D01*
X110489461Y-93886324D01*
X110488845Y-93887556D01*
X110330938Y-94203577D01*
X110174989Y-94515680D01*
X110174453Y-94516916D01*
X110174451Y-94516920D01*
X109895556Y-95159868D01*
X109895549Y-95159884D01*
X109895013Y-95161121D01*
X109650351Y-95820759D01*
X109441720Y-96492662D01*
X109441389Y-96493975D01*
X109270061Y-97173546D01*
X109270057Y-97173565D01*
X109269729Y-97174865D01*
X109269468Y-97176202D01*
X109201900Y-97522199D01*
X109134883Y-97865370D01*
X109134696Y-97866709D01*
X109038997Y-98551985D01*
X109037576Y-98562157D01*
X109012209Y-98861120D01*
X108983163Y-99203439D01*
X108978093Y-99263187D01*
X108960510Y-99838673D01*
X108956607Y-99966408D01*
X104551663Y-99966408D01*
X104519744Y-98938849D01*
X103766359Y-74685292D01*
X103767345Y-74667785D01*
X103768639Y-74658832D01*
X103768639Y-74658831D01*
X103769897Y-74650123D01*
X103767955Y-74640811D01*
X103765852Y-74618434D01*
X103769919Y-74395531D01*
X104608142Y-74395531D01*
X104610763Y-74729246D01*
X104652301Y-75060376D01*
X104732188Y-75384399D01*
X104849334Y-75696888D01*
X105002138Y-75993575D01*
X105188514Y-76270409D01*
X105405914Y-76523607D01*
X105651371Y-76749712D01*
X105921532Y-76945635D01*
X105924101Y-76947074D01*
X105924103Y-76947075D01*
X106210134Y-77107261D01*
X106210139Y-77107264D01*
X106212706Y-77108701D01*
X106520916Y-77236681D01*
X106610435Y-77262097D01*
X106839123Y-77327025D01*
X106839131Y-77327027D01*
X106841953Y-77327828D01*
X106844849Y-77328294D01*
X106844856Y-77328296D01*
X107168731Y-77380462D01*
X107171432Y-77380897D01*
X107174157Y-77381035D01*
X107174166Y-77381036D01*
X107359713Y-77390435D01*
X107359723Y-77390435D01*
X107361001Y-77390500D01*
X107545676Y-77390500D01*
X107547142Y-77390414D01*
X107547148Y-77390414D01*
X107639230Y-77385024D01*
X107793155Y-77376014D01*
X107957458Y-77346895D01*
X108118856Y-77318291D01*
X108118861Y-77318290D01*
X108121760Y-77317776D01*
X108124572Y-77316930D01*
X108124579Y-77316928D01*
X108438521Y-77222442D01*
X108438522Y-77222441D01*
X108441325Y-77221598D01*
X108444012Y-77220433D01*
X108444016Y-77220431D01*
X108555064Y-77172261D01*
X108747488Y-77088792D01*
X109036064Y-76921173D01*
X109038408Y-76919417D01*
X109038413Y-76919413D01*
X109300751Y-76722802D01*
X109303114Y-76721031D01*
X109510793Y-76523607D01*
X109542861Y-76493122D01*
X109542862Y-76493121D01*
X109544989Y-76491099D01*
X109546860Y-76488850D01*
X109546866Y-76488843D01*
X109756507Y-76236777D01*
X109756512Y-76236770D01*
X109758386Y-76234517D01*
X109759987Y-76232057D01*
X109759991Y-76232051D01*
X109913568Y-75996013D01*
X109940390Y-75954790D01*
X110088515Y-75655739D01*
X110200738Y-75341448D01*
X110275526Y-75016211D01*
X110310691Y-74695130D01*
X110311538Y-74687392D01*
X110311538Y-74687390D01*
X110311858Y-74684469D01*
X110309237Y-74350754D01*
X110267699Y-74019624D01*
X110187812Y-73695601D01*
X110070666Y-73383112D01*
X109986938Y-73220543D01*
X109919208Y-73089038D01*
X109919206Y-73089035D01*
X109917862Y-73086425D01*
X109731486Y-72809591D01*
X109514086Y-72556393D01*
X109268629Y-72330288D01*
X108998468Y-72134365D01*
X108995897Y-72132925D01*
X108709866Y-71972739D01*
X108709861Y-71972736D01*
X108707294Y-71971299D01*
X108399084Y-71843319D01*
X108309565Y-71817903D01*
X108080877Y-71752975D01*
X108080869Y-71752973D01*
X108078047Y-71752172D01*
X108075151Y-71751706D01*
X108075144Y-71751704D01*
X107751269Y-71699538D01*
X107751268Y-71699538D01*
X107748568Y-71699103D01*
X107745843Y-71698965D01*
X107745834Y-71698964D01*
X107560287Y-71689565D01*
X107560277Y-71689565D01*
X107558999Y-71689500D01*
X107374324Y-71689500D01*
X107372858Y-71689586D01*
X107372852Y-71689586D01*
X107280770Y-71694976D01*
X107126845Y-71703986D01*
X106962542Y-71733105D01*
X106801144Y-71761709D01*
X106801139Y-71761710D01*
X106798240Y-71762224D01*
X106795428Y-71763070D01*
X106795421Y-71763072D01*
X106531465Y-71842514D01*
X106478675Y-71858402D01*
X106475988Y-71859567D01*
X106475984Y-71859569D01*
X106364936Y-71907739D01*
X106172512Y-71991208D01*
X105883936Y-72158827D01*
X105881592Y-72160583D01*
X105881587Y-72160587D01*
X105736163Y-72269576D01*
X105616886Y-72358969D01*
X105614746Y-72361003D01*
X105614744Y-72361005D01*
X105406851Y-72558633D01*
X105375011Y-72588901D01*
X105373140Y-72591150D01*
X105373134Y-72591157D01*
X105163493Y-72843223D01*
X105163488Y-72843230D01*
X105161614Y-72845483D01*
X105160013Y-72847943D01*
X105160009Y-72847949D01*
X105040328Y-73031890D01*
X104979610Y-73125210D01*
X104978308Y-73127840D01*
X104978305Y-73127844D01*
X104902365Y-73281160D01*
X104831485Y-73424261D01*
X104719262Y-73738552D01*
X104644474Y-74063789D01*
X104644154Y-74066714D01*
X104644153Y-74066718D01*
X104613365Y-74347837D01*
X104608142Y-74395531D01*
X103769919Y-74395531D01*
X103771832Y-74290658D01*
X103772500Y-74280778D01*
X103813847Y-73928482D01*
X103815486Y-73918706D01*
X103891308Y-73572194D01*
X103893902Y-73562625D01*
X104003461Y-73225264D01*
X104006984Y-73215997D01*
X104149218Y-72891058D01*
X104153636Y-72882183D01*
X104327163Y-72572821D01*
X104332433Y-72564424D01*
X104494602Y-72332284D01*
X104535572Y-72273638D01*
X104541641Y-72265803D01*
X104633287Y-72158827D01*
X104772409Y-71996432D01*
X104779219Y-71989234D01*
X105035385Y-71743879D01*
X105042865Y-71737390D01*
X105321941Y-71518439D01*
X105330030Y-71512713D01*
X105629304Y-71322293D01*
X105637915Y-71317394D01*
X105954465Y-71157364D01*
X105963522Y-71153332D01*
X106294296Y-71025232D01*
X106303704Y-71022113D01*
X106645472Y-70927196D01*
X106655144Y-70925017D01*
X107004590Y-70864202D01*
X107014428Y-70862985D01*
X107049945Y-70860362D01*
X107368187Y-70836859D01*
X107378080Y-70836617D01*
X107598031Y-70842088D01*
G37*
G04 #@! TD.AperFunction*
M02*
