G04 #@! TF.GenerationSoftware,KiCad,Pcbnew,(6.0.0)*
G04 #@! TF.CreationDate,2022-02-12T02:05:42-05:00*
G04 #@! TF.ProjectId,FalconRHS,46616c63-6f6e-4524-9853-2e6b69636164,1A*
G04 #@! TF.SameCoordinates,Original*
G04 #@! TF.FileFunction,Legend,Top*
G04 #@! TF.FilePolarity,Positive*
%FSLAX46Y46*%
G04 Gerber Fmt 4.6, Leading zero omitted, Abs format (unit mm)*
G04 Created by KiCad (PCBNEW (6.0.0)) date 2022-02-12 02:05:42*
%MOMM*%
%LPD*%
G01*
G04 APERTURE LIST*
%ADD10C,0.150000*%
%ADD11C,0.120000*%
G04 APERTURE END LIST*
D10*
X142261904Y-125152380D02*
X142261904Y-124152380D01*
X142500000Y-124152380D01*
X142642857Y-124200000D01*
X142738095Y-124295238D01*
X142785714Y-124390476D01*
X142833333Y-124580952D01*
X142833333Y-124723809D01*
X142785714Y-124914285D01*
X142738095Y-125009523D01*
X142642857Y-125104761D01*
X142500000Y-125152380D01*
X142261904Y-125152380D01*
X143404761Y-124580952D02*
X143309523Y-124533333D01*
X143261904Y-124485714D01*
X143214285Y-124390476D01*
X143214285Y-124342857D01*
X143261904Y-124247619D01*
X143309523Y-124200000D01*
X143404761Y-124152380D01*
X143595238Y-124152380D01*
X143690476Y-124200000D01*
X143738095Y-124247619D01*
X143785714Y-124342857D01*
X143785714Y-124390476D01*
X143738095Y-124485714D01*
X143690476Y-124533333D01*
X143595238Y-124580952D01*
X143404761Y-124580952D01*
X143309523Y-124628571D01*
X143261904Y-124676190D01*
X143214285Y-124771428D01*
X143214285Y-124961904D01*
X143261904Y-125057142D01*
X143309523Y-125104761D01*
X143404761Y-125152380D01*
X143595238Y-125152380D01*
X143690476Y-125104761D01*
X143738095Y-125057142D01*
X143785714Y-124961904D01*
X143785714Y-124771428D01*
X143738095Y-124676190D01*
X143690476Y-124628571D01*
X143595238Y-124580952D01*
X161110957Y-114559656D02*
X161648154Y-113716199D01*
X161848977Y-113844103D01*
X161943890Y-113961010D01*
X161973058Y-114092501D01*
X161962061Y-114198411D01*
X161899902Y-114384650D01*
X161823160Y-114505144D01*
X161680672Y-114640222D01*
X161589346Y-114694970D01*
X161457855Y-114724138D01*
X161311780Y-114687560D01*
X161110957Y-114559656D01*
X162400285Y-114308144D02*
X162466030Y-114293560D01*
X162571940Y-114304557D01*
X162772763Y-114432461D01*
X162827512Y-114523787D01*
X162842096Y-114589533D01*
X162831099Y-114695443D01*
X162779937Y-114775772D01*
X162663030Y-114870685D01*
X161874085Y-115045691D01*
X162396225Y-115378241D01*
X152710958Y-109259656D02*
X153248155Y-108416199D01*
X153448978Y-108544103D01*
X153543891Y-108661010D01*
X153573059Y-108792501D01*
X153562062Y-108898411D01*
X153499903Y-109084650D01*
X153423161Y-109205144D01*
X153280673Y-109340222D01*
X153189347Y-109394970D01*
X153057856Y-109424138D01*
X152911781Y-109387560D01*
X152710958Y-109259656D01*
X154274028Y-109464775D02*
X153915897Y-110027080D01*
X154277851Y-109015554D02*
X153693316Y-109490120D01*
X154215456Y-109822670D01*
X152261904Y-125152380D02*
X152261904Y-124152380D01*
X152500000Y-124152380D01*
X152642857Y-124200000D01*
X152738095Y-124295238D01*
X152785714Y-124390476D01*
X152833333Y-124580952D01*
X152833333Y-124723809D01*
X152785714Y-124914285D01*
X152738095Y-125009523D01*
X152642857Y-125104761D01*
X152500000Y-125152380D01*
X152261904Y-125152380D01*
X153166666Y-124152380D02*
X153833333Y-124152380D01*
X153404761Y-125152380D01*
X132261904Y-125052380D02*
X132261904Y-124052380D01*
X132500000Y-124052380D01*
X132642857Y-124100000D01*
X132738095Y-124195238D01*
X132785714Y-124290476D01*
X132833333Y-124480952D01*
X132833333Y-124623809D01*
X132785714Y-124814285D01*
X132738095Y-124909523D01*
X132642857Y-125004761D01*
X132500000Y-125052380D01*
X132261904Y-125052380D01*
X133690476Y-124052380D02*
X133500000Y-124052380D01*
X133404761Y-124100000D01*
X133357142Y-124147619D01*
X133261904Y-124290476D01*
X133214285Y-124480952D01*
X133214285Y-124861904D01*
X133261904Y-124957142D01*
X133309523Y-125004761D01*
X133404761Y-125052380D01*
X133595238Y-125052380D01*
X133690476Y-125004761D01*
X133738095Y-124957142D01*
X133785714Y-124861904D01*
X133785714Y-124623809D01*
X133738095Y-124528571D01*
X133690476Y-124480952D01*
X133595238Y-124433333D01*
X133404761Y-124433333D01*
X133309523Y-124480952D01*
X133261904Y-124528571D01*
X133214285Y-124623809D01*
X144210958Y-103859656D02*
X144748155Y-103016199D01*
X144948978Y-103144103D01*
X145043891Y-103261010D01*
X145073059Y-103392501D01*
X145062062Y-103498411D01*
X144999903Y-103684650D01*
X144923161Y-103805144D01*
X144780673Y-103940222D01*
X144689347Y-103994970D01*
X144557856Y-104024138D01*
X144411781Y-103987560D01*
X144210958Y-103859656D01*
X145511283Y-103502234D02*
X146033423Y-103834784D01*
X145547624Y-103977036D01*
X145668118Y-104053778D01*
X145722867Y-104145104D01*
X145737450Y-104210850D01*
X145726453Y-104316760D01*
X145598549Y-104517583D01*
X145507223Y-104572331D01*
X145441478Y-104586915D01*
X145335568Y-104575918D01*
X145094580Y-104422434D01*
X145039832Y-104331107D01*
X145025248Y-104265362D01*
D11*
X143050000Y-121150000D02*
X142950000Y-121150000D01*
X143050000Y-122850000D02*
X142950000Y-122850000D01*
X143000000Y-121150000D02*
X143050000Y-121150000D01*
X145600000Y-122000000D02*
X145450000Y-122150000D01*
X145450000Y-122150000D02*
X145450000Y-121850000D01*
X145450000Y-121850000D02*
X145600000Y-122000000D01*
G36*
X145600000Y-122000000D02*
G01*
X145450000Y-122150000D01*
X145450000Y-121850000D01*
X145600000Y-122000000D01*
G37*
X145600000Y-122000000D02*
X145450000Y-122150000D01*
X145450000Y-121850000D01*
X145600000Y-122000000D01*
X163785219Y-111770294D02*
X163869565Y-111824013D01*
X162871985Y-113204171D02*
X162956331Y-113257890D01*
X162914158Y-113231031D02*
X162871985Y-113204171D01*
X161177786Y-111117381D02*
X161384885Y-111071442D01*
X161384885Y-111071442D02*
X161223726Y-111324479D01*
X161223726Y-111324479D02*
X161177786Y-111117381D01*
G36*
X161223726Y-111324479D02*
G01*
X161177786Y-111117381D01*
X161384885Y-111071442D01*
X161223726Y-111324479D01*
G37*
X161223726Y-111324479D02*
X161177786Y-111117381D01*
X161384885Y-111071442D01*
X161223726Y-111324479D01*
X154435275Y-107835712D02*
X154519621Y-107889431D01*
X154477448Y-107862572D02*
X154435275Y-107835712D01*
X155348509Y-106401835D02*
X155432855Y-106455554D01*
X152741076Y-105748922D02*
X152948175Y-105702983D01*
X152948175Y-105702983D02*
X152787016Y-105956020D01*
X152787016Y-105956020D02*
X152741076Y-105748922D01*
G36*
X152787016Y-105956020D02*
G01*
X152741076Y-105748922D01*
X152948175Y-105702983D01*
X152787016Y-105956020D01*
G37*
X152787016Y-105956020D02*
X152741076Y-105748922D01*
X152948175Y-105702983D01*
X152787016Y-105956020D01*
X153050000Y-122850000D02*
X152950000Y-122850000D01*
X153000000Y-121150000D02*
X153050000Y-121150000D01*
X153050000Y-121150000D02*
X152950000Y-121150000D01*
X155600000Y-122000000D02*
X155450000Y-122150000D01*
X155450000Y-122150000D02*
X155450000Y-121850000D01*
X155450000Y-121850000D02*
X155600000Y-122000000D01*
G36*
X155600000Y-122000000D02*
G01*
X155450000Y-122150000D01*
X155450000Y-121850000D01*
X155600000Y-122000000D01*
G37*
X155600000Y-122000000D02*
X155450000Y-122150000D01*
X155450000Y-121850000D01*
X155600000Y-122000000D01*
X133050000Y-122850000D02*
X132950000Y-122850000D01*
X133000000Y-121150000D02*
X133050000Y-121150000D01*
X133050000Y-121150000D02*
X132950000Y-121150000D01*
X135600000Y-122000000D02*
X135450000Y-122150000D01*
X135450000Y-122150000D02*
X135450000Y-121850000D01*
X135450000Y-121850000D02*
X135600000Y-122000000D01*
G36*
X135600000Y-122000000D02*
G01*
X135450000Y-122150000D01*
X135450000Y-121850000D01*
X135600000Y-122000000D01*
G37*
X135600000Y-122000000D02*
X135450000Y-122150000D01*
X135450000Y-121850000D01*
X135600000Y-122000000D01*
X146058817Y-102467703D02*
X146016644Y-102440843D01*
X146016644Y-102440843D02*
X146100990Y-102494562D01*
X146929878Y-101006966D02*
X147014224Y-101060685D01*
X144322445Y-100354053D02*
X144529544Y-100308114D01*
X144529544Y-100308114D02*
X144368385Y-100561151D01*
X144368385Y-100561151D02*
X144322445Y-100354053D01*
G36*
X144368385Y-100561151D02*
G01*
X144322445Y-100354053D01*
X144529544Y-100308114D01*
X144368385Y-100561151D01*
G37*
X144368385Y-100561151D02*
X144322445Y-100354053D01*
X144529544Y-100308114D01*
X144368385Y-100561151D01*
M02*
