G04 #@! TF.GenerationSoftware,KiCad,Pcbnew,(6.0.0)*
G04 #@! TF.CreationDate,2022-02-12T00:08:26-05:00*
G04 #@! TF.ProjectId,FalconRHS,46616c63-6f6e-4524-9853-2e6b69636164,1A*
G04 #@! TF.SameCoordinates,Original*
G04 #@! TF.FileFunction,Soldermask,Bot*
G04 #@! TF.FilePolarity,Negative*
%FSLAX46Y46*%
G04 Gerber Fmt 4.6, Leading zero omitted, Abs format (unit mm)*
G04 Created by KiCad (PCBNEW (6.0.0)) date 2022-02-12 00:08:26*
%MOMM*%
%LPD*%
G01*
G04 APERTURE LIST*
G04 Aperture macros list*
%AMRoundRect*
0 Rectangle with rounded corners*
0 $1 Rounding radius*
0 $2 $3 $4 $5 $6 $7 $8 $9 X,Y pos of 4 corners*
0 Add a 4 corners polygon primitive as box body*
4,1,4,$2,$3,$4,$5,$6,$7,$8,$9,$2,$3,0*
0 Add four circle primitives for the rounded corners*
1,1,$1+$1,$2,$3*
1,1,$1+$1,$4,$5*
1,1,$1+$1,$6,$7*
1,1,$1+$1,$8,$9*
0 Add four rect primitives between the rounded corners*
20,1,$1+$1,$2,$3,$4,$5,0*
20,1,$1+$1,$4,$5,$6,$7,0*
20,1,$1+$1,$6,$7,$8,$9,0*
20,1,$1+$1,$8,$9,$2,$3,0*%
G04 Aperture macros list end*
%ADD10C,2.700000*%
%ADD11R,0.650000X1.500000*%
%ADD12R,3.600000X2.700000*%
%ADD13R,1.700000X1.700000*%
%ADD14O,1.700000X1.700000*%
%ADD15RoundRect,0.135000X-0.135000X-0.185000X0.135000X-0.185000X0.135000X0.185000X-0.135000X0.185000X0*%
%ADD16R,2.450000X5.900000*%
%ADD17R,5.900000X2.450000*%
%ADD18RoundRect,0.135000X0.185000X-0.135000X0.185000X0.135000X-0.185000X0.135000X-0.185000X-0.135000X0*%
%ADD19RoundRect,0.250000X-0.325000X-1.100000X0.325000X-1.100000X0.325000X1.100000X-0.325000X1.100000X0*%
%ADD20R,0.900000X0.800000*%
%ADD21RoundRect,0.250000X-1.100000X0.325000X-1.100000X-0.325000X1.100000X-0.325000X1.100000X0.325000X0*%
%ADD22RoundRect,0.135000X0.135000X0.185000X-0.135000X0.185000X-0.135000X-0.185000X0.135000X-0.185000X0*%
%ADD23R,0.800000X0.900000*%
%ADD24R,1.500000X0.650000*%
%ADD25R,2.700000X3.600000*%
G04 APERTURE END LIST*
D10*
X185120000Y-124000000D03*
X109000000Y-124000000D03*
X107460000Y-74540000D03*
D11*
X135705000Y-121750000D03*
X134435000Y-121750000D03*
X133165000Y-121750000D03*
X131895000Y-121750000D03*
X131895000Y-116350000D03*
X133165000Y-116350000D03*
X134435000Y-116350000D03*
X135705000Y-116350000D03*
D12*
X133800000Y-119050000D03*
D13*
X121640000Y-121900000D03*
D14*
X119100000Y-121900000D03*
X116560000Y-121900000D03*
D15*
X118090000Y-119400000D03*
X119110000Y-119400000D03*
D16*
X142891600Y-102750000D03*
X148441600Y-102750000D03*
D17*
X140000000Y-115775000D03*
X140000000Y-121325000D03*
D18*
X130100000Y-119460000D03*
X130100000Y-118440000D03*
D19*
X138525000Y-110030500D03*
X141475000Y-110030500D03*
D20*
X135500000Y-112300000D03*
X135500000Y-114600000D03*
D21*
X132700000Y-111275000D03*
X132700000Y-114225000D03*
D22*
X146620000Y-112630500D03*
X145600000Y-112630500D03*
D23*
X139550000Y-107250000D03*
X141850000Y-107250000D03*
D24*
X148966600Y-107025500D03*
X148966600Y-108295500D03*
X148966600Y-109565500D03*
X148966600Y-110835500D03*
X143566600Y-110835500D03*
X143566600Y-109565500D03*
X143566600Y-108295500D03*
X143566600Y-107025500D03*
D25*
X146266600Y-108930500D03*
M02*
