M48
INCH,TZ
T1C0.0157
T2C0.0394
T3C0.0394
%
G90
G05
T1
X51195Y-47388
X51195Y-47781
X51195Y-48175
X51693Y-46280
X52047Y-43327
X52520Y-43327
X53976Y-43091
X53976Y-43543
X56634Y-46240
X56634Y-46634
X56997Y-43864
X57362Y-46220
X57362Y-46634
X57465Y-38460
X57776Y-38661
X58086Y-38863
X59252Y-42461
X61299Y-48996
X61693Y-48996
X62087Y-48996
X64934Y-45322
X65257Y-45531
X65580Y-45739
T2
X52677Y-46870
X57585Y-42886
T3
X45890Y-47992
X46890Y-47992
X47890Y-47992
T0
M30
